<?xml version="1.0"?>
<svg xmlns="http://www.w3.org/2000/svg" width="1084" height="577" viewBox="0 0 1084 577">
  <title>Mermaid activation flow defaults</title>
  <desc>Demonstrates the default Mermaid-to-sequencer activation policy where calls keep the callee active until a return.
From the project root, regenerate this Mermaid transform and SVG with:
node sequencer.js --mermaid -i test/mermaid-features/13-activation-flow-defaults/input.mmd -o -f -t test/mermaid-features/13-activation-flow-defaults</desc>
  <rect width="100%" height="100%" fill="white"/>
  <path d="M 0 0 L 0 567 L 1074 567 L 1074 0 L 0 0" fill="rgb(255, 255, 255)" stroke="none"/>
  <path d="M 30 30 L 30 57 L 278 57 L 278 30 L 30 30" fill="rgba(0,0,0,0)" stroke="none"/>
  <text x="35" y="49" fill="rgb(0,0,0)" font-family="Liberation Sans, Arial, Helvetica, sans-serif" font-size="14" xml:space="preserve" font-weight="bold" dominant-baseline="auto">Title:</text>
  <text x="68.44" y="49" fill="rgb(0,0,0)" font-family="Liberation Sans, Arial, Helvetica, sans-serif" font-size="14" xml:space="preserve" dominant-baseline="auto"> </text>
  <text x="72.33" y="49" fill="rgb(0,0,0)" font-family="Liberation Sans, Arial, Helvetica, sans-serif" font-size="14" xml:space="preserve" dominant-baseline="auto">Mermaid activation flow defaults</text>
  <path d="M 30 57 L 30 84 L 120 84 L 120 57 L 30 57" fill="rgba(0,0,0,0)" stroke="none"/>
  <text x="35" y="76" fill="rgb(0,0,0)" font-family="Liberation Sans, Arial, Helvetica, sans-serif" font-size="14" xml:space="preserve" font-weight="bold" dominant-baseline="auto">Version:</text>
  <text x="91.01" y="76" fill="rgb(0,0,0)" font-family="Liberation Sans, Arial, Helvetica, sans-serif" font-size="14" xml:space="preserve" dominant-baseline="auto"> </text>
  <text x="94.9" y="76" fill="rgb(0,0,0)" font-family="Liberation Sans, Arial, Helvetica, sans-serif" font-size="14" xml:space="preserve" dominant-baseline="auto">1.0</text>
  <path d="M 30 84 L 30 145 L 1044 145 L 1044 84 L 30 84" fill="rgba(0,0,0,0)" stroke="none"/>
  <text x="35" y="103" fill="rgb(0,0,0)" font-family="Liberation Sans, Arial, Helvetica, sans-serif" font-size="14" xml:space="preserve" font-weight="bold" dominant-baseline="auto">Description:</text>
  <text x="116.68" y="103" fill="rgb(0,0,0)" font-family="Liberation Sans, Arial, Helvetica, sans-serif" font-size="14" xml:space="preserve" dominant-baseline="auto"> </text>
  <text x="120.57" y="103" fill="rgb(0,0,0)" font-family="Liberation Sans, Arial, Helvetica, sans-serif" font-size="14" xml:space="preserve" dominant-baseline="auto">Demonstrates the default Mermaid-to-sequencer activation policy where calls keep the callee active until a return.</text>
  <text x="120.57" y="119.8" fill="rgb(0,0,0)" font-family="Liberation Sans, Arial, Helvetica, sans-serif" font-size="14" xml:space="preserve" dominant-baseline="auto">From the project root, regenerate this Mermaid transform and SVG with:</text>
  <text x="120.57" y="136.6" fill="rgb(0,0,0)" font-family="Liberation Sans, Arial, Helvetica, sans-serif" font-size="14" xml:space="preserve" dominant-baseline="auto">node sequencer.js --mermaid -i test/mermaid-features/13-activation-flow-defaults/input.mmd -o -f -t test/mermaid-features/13-activation-flow-defaults</text>
  <path d="M 33 183 L 33 211 L 33 211 A 5 5 0 0 0 38 216 L 94 216 L 94 216 A 5 5 0 0 0 99 211 L 99 183 L 99 183 A 5 5 0 0 0 94 178 L 38 178 L 38 178 A 5 5 0 0 0 33 183" fill="rgb(210,210,210)" stroke="none"/>
  <path d="M 30 180 L 30 208 L 30 208 A 5 5 0 0 0 35 213 L 91 213 L 91 213 A 5 5 0 0 0 96 208 L 96 180 L 96 180 A 5 5 0 0 0 91 175 L 35 175 L 35 175 A 5 5 0 0 0 30 180" fill="rgb(95,183,224)" stroke="none"/>
  <path d="M 30 180 L 30 208 L 30 208 A 5 5 0 0 0 35 213 L 91 213 L 91 213 A 5 5 0 0 0 96 208 L 96 180 L 96 180 A 5 5 0 0 0 91 175 L 35 175 L 35 175 A 5 5 0 0 0 30 180" fill="none" stroke="rgb(0, 0, 0)" stroke-width="1"/>
  <text x="39" y="202" fill="rgb(0,0,0)" font-family="Liberation Sans, Arial, Helvetica, sans-serif" font-size="18" xml:space="preserve" dominant-baseline="auto">Caller</text>
  <path d="M 249 183 L 249 211 L 249 211 A 5 5 0 0 0 254 216 L 323 216 L 323 216 A 5 5 0 0 0 328 211 L 328 183 L 328 183 A 5 5 0 0 0 323 178 L 254 178 L 254 178 A 5 5 0 0 0 249 183" fill="rgb(210,210,210)" stroke="none"/>
  <path d="M 246 180 L 246 208 L 246 208 A 5 5 0 0 0 251 213 L 320 213 L 320 213 A 5 5 0 0 0 325 208 L 325 180 L 325 180 A 5 5 0 0 0 320 175 L 251 175 L 251 175 A 5 5 0 0 0 246 180" fill="rgb(95,183,224)" stroke="none"/>
  <path d="M 246 180 L 246 208 L 246 208 A 5 5 0 0 0 251 213 L 320 213 L 320 213 A 5 5 0 0 0 325 208 L 325 180 L 325 180 A 5 5 0 0 0 320 175 L 251 175 L 251 175 A 5 5 0 0 0 246 180" fill="none" stroke="rgb(0, 0, 0)" stroke-width="1"/>
  <text x="255" y="202" fill="rgb(0,0,0)" font-family="Liberation Sans, Arial, Helvetica, sans-serif" font-size="18" xml:space="preserve" dominant-baseline="auto">Service</text>
  <path d="M 478 183 L 478 211 L 478 211 A 5 5 0 0 0 483 216 L 517 216 L 517 216 A 5 5 0 0 0 522 211 L 522 183 L 522 183 A 5 5 0 0 0 517 178 L 483 178 L 483 178 A 5 5 0 0 0 478 183" fill="rgb(210,210,210)" stroke="none"/>
  <path d="M 475 180 L 475 208 L 475 208 A 5 5 0 0 0 480 213 L 514 213 L 514 213 A 5 5 0 0 0 519 208 L 519 180 L 519 180 A 5 5 0 0 0 514 175 L 480 175 L 480 175 A 5 5 0 0 0 475 180" fill="rgb(95,183,224)" stroke="none"/>
  <path d="M 475 180 L 475 208 L 475 208 A 5 5 0 0 0 480 213 L 514 213 L 514 213 A 5 5 0 0 0 519 208 L 519 180 L 519 180 A 5 5 0 0 0 514 175 L 480 175 L 480 175 A 5 5 0 0 0 475 180" fill="none" stroke="rgb(0, 0, 0)" stroke-width="1"/>
  <text x="484" y="202" fill="rgb(0,0,0)" font-family="Liberation Sans, Arial, Helvetica, sans-serif" font-size="18" xml:space="preserve" dominant-baseline="auto">DB</text>
  <path d="M 63 213 L 63 297" fill="none" stroke="rgb(0,0,0)" stroke-width="1" stroke-dasharray="3,3"/>
  <path d="M 60.5 277 L 60.5 297 L 65.5 297 L 65.5 277 L 60.5 277" fill="rgb(95,183,224)" stroke="none"/>
  <path d="M 60.5 277 L 60.5 297 M 65.5 297 L 65.5 277 L 60.5 277" fill="none" stroke="rgb(0, 0, 0)" stroke-width="1"/>
  <path d="M 285.5 213 L 285.5 297" fill="none" stroke="rgb(0,0,0)" stroke-width="1" stroke-dasharray="3,3"/>
  <path d="M 283 277 L 283 297 L 288 297 L 288 277 L 283 277" fill="rgb(95,183,224)" stroke="none"/>
  <path d="M 283 277 L 283 297 M 288 297 L 288 277 L 283 277" fill="none" stroke="rgb(0, 0, 0)" stroke-width="1"/>
  <path d="M 497 213 L 497 297" fill="none" stroke="rgb(0,0,0)" stroke-width="1" stroke-dasharray="3,3"/>
  <text x="105.5" y="267" fill="rgb(0,0,0)" font-family="Liberation Mono, Courier New, Courier, monospace" font-size="14" xml:space="preserve" dominant-baseline="auto">1. Submit request [Mermaid: Caller-&gt;&gt;Service: Submit request]</text>
  <path d="M 65.5 277 L 283 277" fill="none" stroke="rgb(0, 0, 0)" stroke-width="1"/>
  <path d="M 273 272 L 273 282 L 283 277" fill="rgb(0, 0, 0)" stroke="none"/>
  <path d="M 63 297 L 63 381" fill="none" stroke="rgb(0,0,0)" stroke-width="1" stroke-dasharray="3,3"/>
  <path d="M 60.5 297 L 60.5 381 L 65.5 381 L 65.5 297 L 60.5 297" fill="rgb(95,183,224)" stroke="none"/>
  <path d="M 60.5 297 L 60.5 381 M 65.5 381 L 65.5 297 M 60.5 297" fill="none" stroke="rgb(0, 0, 0)" stroke-width="1"/>
  <path d="M 285.5 297 L 285.5 381" fill="none" stroke="rgb(0,0,0)" stroke-width="1" stroke-dasharray="3,3"/>
  <path d="M 283 297 L 283 381 L 288 381 L 288 297 L 283 297" fill="rgb(95,183,224)" stroke="none"/>
  <path d="M 283 297 L 283 381 M 288 381 L 288 297 M 283 297" fill="none" stroke="rgb(0, 0, 0)" stroke-width="1"/>
  <path d="M 497 297 L 497 381" fill="none" stroke="rgb(0,0,0)" stroke-width="1" stroke-dasharray="3,3"/>
  <path d="M 494.5 361 L 494.5 381 L 499.5 381 L 499.5 361 L 494.5 361" fill="rgb(95,183,224)" stroke="none"/>
  <path d="M 494.5 361 L 494.5 381 M 499.5 381 L 499.5 361 L 494.5 361" fill="none" stroke="rgb(0, 0, 0)" stroke-width="1"/>
  <text x="328" y="351" fill="rgb(0,0,0)" font-family="Liberation Mono, Courier New, Courier, monospace" font-size="14" xml:space="preserve" dominant-baseline="auto">2. Persist data [Mermaid: Service-&gt;&gt;DB: Persist data]</text>
  <path d="M 288 361 L 494.5 361" fill="none" stroke="rgb(0, 0, 0)" stroke-width="1"/>
  <path d="M 484.5 356 L 484.5 366 L 494.5 361" fill="rgb(0, 0, 0)" stroke="none"/>
  <path d="M 63 381 L 63 447" fill="none" stroke="rgb(0,0,0)" stroke-width="1" stroke-dasharray="3,3"/>
  <path d="M 60.5 381 L 60.5 447 L 65.5 447 L 65.5 381 L 60.5 381" fill="rgb(95,183,224)" stroke="none"/>
  <path d="M 60.5 381 L 60.5 447 M 65.5 447 L 65.5 381 M 60.5 381" fill="none" stroke="rgb(0, 0, 0)" stroke-width="1"/>
  <path d="M 285.5 381 L 285.5 447" fill="none" stroke="rgb(0,0,0)" stroke-width="1" stroke-dasharray="3,3"/>
  <path d="M 283 381 L 283 447 L 288 447 L 288 381 L 283 381" fill="rgb(95,183,224)" stroke="none"/>
  <path d="M 283 381 L 283 447 M 288 447 L 288 381 M 283 381" fill="none" stroke="rgb(0, 0, 0)" stroke-width="1"/>
  <path d="M 497 381 L 497 447" fill="none" stroke="rgb(0,0,0)" stroke-width="1" stroke-dasharray="3,3"/>
  <path d="M 494.5 381 L 494.5 445 L 499.5 445 L 499.5 381 L 494.5 381" fill="rgb(95,183,224)" stroke="none"/>
  <path d="M 494.5 381 L 494.5 445 L 499.5 445 L 499.5 381 M 494.5 381" fill="none" stroke="rgb(0, 0, 0)" stroke-width="1"/>
  <text x="335.5" y="432.5" fill="rgb(0,0,0)" font-family="Liberation Mono, Courier New, Courier, monospace" font-size="14" xml:space="preserve" dominant-baseline="auto">3. Persistence complete [Mermaid: DB--&gt;&gt;Service: Persistence complete]</text>
  <path d="M 494.5 440 L 288 440" fill="none" stroke="rgb(0, 0, 0)" stroke-width="1" stroke-dasharray="4,2"/>
  <path d="M 288 440 L 298 435 L 298 445 L 288 440" fill="rgb(0, 0, 0)" stroke="none"/>
  <path d="M 63 447 L 63 513" fill="none" stroke="rgb(0,0,0)" stroke-width="1" stroke-dasharray="3,3"/>
  <path d="M 60.5 447 L 60.5 513 L 65.5 513 L 65.5 447 L 60.5 447" fill="rgb(95,183,224)" stroke="none"/>
  <path d="M 60.5 447 L 60.5 513 M 65.5 513 L 65.5 447 M 60.5 447" fill="none" stroke="rgb(0, 0, 0)" stroke-width="1"/>
  <path d="M 285.5 447 L 285.5 513" fill="none" stroke="rgb(0,0,0)" stroke-width="1" stroke-dasharray="3,3"/>
  <path d="M 283 447 L 283 511 L 288 511 L 288 447 L 283 447" fill="rgb(95,183,224)" stroke="none"/>
  <path d="M 283 447 L 283 511 L 288 511 L 288 447 M 283 447" fill="none" stroke="rgb(0, 0, 0)" stroke-width="1"/>
  <path d="M 497 447 L 497 513" fill="none" stroke="rgb(0,0,0)" stroke-width="1" stroke-dasharray="3,3"/>
  <text x="113" y="498.5" fill="rgb(0,0,0)" font-family="Liberation Mono, Courier New, Courier, monospace" font-size="14" xml:space="preserve" dominant-baseline="auto">4. Reply to caller [Mermaid: Service--&gt;&gt;Caller: Reply to caller]</text>
  <path d="M 283 506 L 65.5 506" fill="none" stroke="rgb(0, 0, 0)" stroke-width="1" stroke-dasharray="4,2"/>
  <path d="M 65.5 506 L 75.5 501 L 75.5 511 L 65.5 506" fill="rgb(0, 0, 0)" stroke="none"/>
  <path d="M 63 513 L 63 537" fill="none" stroke="rgb(0,0,0)" stroke-width="1" stroke-dasharray="3,3"/>
  <path d="M 60.5 513 L 65.5 513" fill="none" stroke="rgb(0, 0, 0)" stroke-width="1"/>
  <path d="M 285.5 513 L 285.5 537" fill="none" stroke="rgb(0,0,0)" stroke-width="1" stroke-dasharray="3,3"/>
  <path d="M 497 513 L 497 537" fill="none" stroke="rgb(0,0,0)" stroke-width="1" stroke-dasharray="3,3"/>
</svg>