<?xml version="1.0"?>
<svg xmlns="http://www.w3.org/2000/svg" width="1084" height="577" viewBox="0 0 1084 577">
  <title>Mermaid activation flow defaults</title>
  <desc>Demonstrates the default Mermaid-to-sequencer activation policy where calls keep the callee active until a return.
From the project root, regenerate this Mermaid transform and SVG with:
node sequencer.js --mermaid -i test/mermaid-features/13-activation-flow-defaults/input.mmd -o -f -t test/mermaid-features/13-activation-flow-defaults</desc>
  <rect width="100%" height="100%" fill="white"/>
  <path d="M 0 0 L 0 567 L 1074 567 L 1074 0 L 0 0" fill="rgb(255, 255, 255)" stroke="none"/>
  <path d="M 30 30 L 30 57 L 278 57 L 278 30 L 30 30" fill="rgba(0,0,0,0)" stroke="none"/>
  <text x="35" y="49" fill="rgb(0,0,0)" font-family="Liberation Sans, Arial, Helvetica, sans-serif" font-size="14" xml:space="preserve" font-weight="bold" dominant-baseline="auto">Title:</text>
  <text x="68.44" y="49" fill="rgb(0,0,0)" font-family="Liberation Sans, Arial, Helvetica, sans-serif" font-size="14" xml:space="preserve" dominant-baseline="auto"> </text>
  <text x="72.33" y="49" fill="rgb(0,0,0)" font-family="Liberation Sans, Arial, Helvetica, sans-serif" font-size="14" xml:space="preserve" dominant-baseline="auto">Mermaid activation flow defaults</text>
  <path d="M 30 57 L 30 84 L 120 84 L 120 57 L 30 57" fill="rgba(0,0,0,0)" stroke="none"/>
  <text x="35" y="76" fill="rgb(0,0,0)" font-family="Liberation Sans, Arial, Helvetica, sans-serif" font-size="14" xml:space="preserve" font-weight="bold" dominant-baseline="auto">Version:</text>
  <text x="91.01" y="76" fill="rgb(0,0,0)" font-family="Liberation Sans, Arial, Helvetica, sans-serif" font-size="14" xml:space="preserve" dominant-baseline="auto"> </text>
  <text x="94.9" y="76" fill="rgb(0,0,0)" font-family="Liberation Sans, Arial, Helvetica, sans-serif" font-size="14" xml:space="preserve" dominant-baseline="auto">1.0</text>
  <path d="M 30 84 L 30 145 L 1044 145 L 1044 84 L 30 84" fill="rgba(0,0,0,0)" stroke="none"/>
  <text x="35" y="103" fill="rgb(0,0,0)" font-family="Liberation Sans, Arial, Helvetica, sans-serif" font-size="14" xml:space="preserve" font-weight="bold" dominant-baseline="auto">Description:</text>
  <text x="116.68" y="103" fill="rgb(0,0,0)" font-family="Liberation Sans, Arial, Helvetica, sans-serif" font-size="14" xml:space="preserve" dominant-baseline="auto"> </text>
  <text x="120.57" y="103" fill="rgb(0,0,0)" font-family="Liberation Sans, Arial, Helvetica, sans-serif" font-size="14" xml:space="preserve" dominant-baseline="auto">Demonstrates the default Mermaid-to-sequencer activation policy where calls keep the callee active until a return.</text>
  <text x="120.57" y="119.8" fill="rgb(0,0,0)" font-family="Liberation Sans, Arial, Helvetica, sans-serif" font-size="14" xml:space="preserve" dominant-baseline="auto">From the project root, regenerate this Mermaid transform and SVG with:</text>
  <text x="120.57" y="136.6" fill="rgb(0,0,0)" font-family="Liberation Sans, Arial, Helvetica, sans-serif" font-size="14" xml:space="preserve" dominant-baseline="auto">node sequencer.js --mermaid -i test/mermaid-features/13-activation-flow-defaults/input.mmd -o -f -t test/mermaid-features/13-activation-flow-defaults</text>
  <path d="M 33 183 L 33 211 L 33 211 A 5 5 0 0 0 38 216 L 94 216 L 94 216 A 5 5 0 0 0 99 211 L 99 183 L 99 183 A 5 5 0 0 0 94 178 L 38 178 L 38 178 A 5 5 0 0 0 33 183" fill="rgb(210,210,210)" stroke="none"/>
  <path d="M 30 180 L 30 208 L 30 208 A 5 5 0 0 0 35 213 L 91 213 L 91 213 A 5 5 0 0 0 96 208 L 96 180 L 96 180 A 5 5 0 0 0 91 175 L 35 175 L 35 175 A 5 5 0 0 0 30 180" fill="rgb(204,255,153)" stroke="none"/>
  <path d="M 30 180 L 30 208 L 30 208 A 5 5 0 0 0 35 213 L 91 213 L 91 213 A 5 5 0 0 0 96 208 L 96 180 L 96 180 A 5 5 0 0 0 91 175 L 35 175 L 35 175 A 5 5 0 0 0 30 180" fill="none" stroke="rgb(0, 0, 0)" stroke-width="1"/>
  <text x="39" y="202" fill="rgb(0,0,0)" font-family="Liberation Sans, Arial, Helvetica, sans-serif" font-size="18" xml:space="preserve" dominant-baseline="auto">Caller</text>
  <path d="M 299 183 L 299 211 L 299 211 A 5 5 0 0 0 304 216 L 373 216 L 373 216 A 5 5 0 0 0 378 211 L 378 183 L 378 183 A 5 5 0 0 0 373 178 L 304 178 L 304 178 A 5 5 0 0 0 299 183" fill="rgb(210,210,210)" stroke="none"/>
  <path d="M 296 180 L 296 208 L 296 208 A 5 5 0 0 0 301 213 L 370 213 L 370 213 A 5 5 0 0 0 375 208 L 375 180 L 375 180 A 5 5 0 0 0 370 175 L 301 175 L 301 175 A 5 5 0 0 0 296 180" fill="rgb(204,255,153)" stroke="none"/>
  <path d="M 296 180 L 296 208 L 296 208 A 5 5 0 0 0 301 213 L 370 213 L 370 213 A 5 5 0 0 0 375 208 L 375 180 L 375 180 A 5 5 0 0 0 370 175 L 301 175 L 301 175 A 5 5 0 0 0 296 180" fill="none" stroke="rgb(0, 0, 0)" stroke-width="1"/>
  <text x="305" y="202" fill="rgb(0,0,0)" font-family="Liberation Sans, Arial, Helvetica, sans-serif" font-size="18" xml:space="preserve" dominant-baseline="auto">Service</text>
  <path d="M 578 183 L 578 211 L 578 211 A 5 5 0 0 0 583 216 L 617 216 L 617 216 A 5 5 0 0 0 622 211 L 622 183 L 622 183 A 5 5 0 0 0 617 178 L 583 178 L 583 178 A 5 5 0 0 0 578 183" fill="rgb(210,210,210)" stroke="none"/>
  <path d="M 575 180 L 575 208 L 575 208 A 5 5 0 0 0 580 213 L 614 213 L 614 213 A 5 5 0 0 0 619 208 L 619 180 L 619 180 A 5 5 0 0 0 614 175 L 580 175 L 580 175 A 5 5 0 0 0 575 180" fill="rgb(204,255,153)" stroke="none"/>
  <path d="M 575 180 L 575 208 L 575 208 A 5 5 0 0 0 580 213 L 614 213 L 614 213 A 5 5 0 0 0 619 208 L 619 180 L 619 180 A 5 5 0 0 0 614 175 L 580 175 L 580 175 A 5 5 0 0 0 575 180" fill="none" stroke="rgb(0, 0, 0)" stroke-width="1"/>
  <text x="584" y="202" fill="rgb(0,0,0)" font-family="Liberation Sans, Arial, Helvetica, sans-serif" font-size="18" xml:space="preserve" dominant-baseline="auto">DB</text>
  <path d="M 63 213 M 63 297" fill="none" stroke="rgb(0,0,0)" stroke-width="1" stroke-dasharray="3,3"/>
  <path d="M 335.5 213 M 335.5 297" fill="none" stroke="rgb(0,0,0)" stroke-width="1" stroke-dasharray="3,3"/>
  <path d="M 597 213 M 597 297" fill="none" stroke="rgb(0,0,0)" stroke-width="1" stroke-dasharray="3,3"/>
  <path d="M 63 213 L 63 297" fill="none" stroke="rgb(0,0,0)" stroke-width="1" stroke-dasharray="3,3"/>
  <path d="M 60.5 277 L 60.5 297 L 65.5 297 L 65.5 277 L 60.5 277" fill="rgb(204,255,153)" stroke="none"/>
  <path d="M 60.5 277 L 60.5 297 M 65.5 297 L 65.5 277 L 60.5 277" fill="none" stroke="rgb(0, 0, 0)" stroke-width="1"/>
  <path d="M 335.5 213 L 335.5 297" fill="none" stroke="rgb(0,0,0)" stroke-width="1" stroke-dasharray="3,3"/>
  <path d="M 333 277 L 333 297 L 338 297 L 338 277 L 333 277" fill="rgb(204,255,153)" stroke="none"/>
  <path d="M 333 277 L 333 297 M 338 297 L 338 277 L 333 277" fill="none" stroke="rgb(0, 0, 0)" stroke-width="1"/>
  <path d="M 597 213 L 597 297" fill="none" stroke="rgb(0,0,0)" stroke-width="1" stroke-dasharray="3,3"/>
  <text x="105.5" y="267" fill="rgb(0,0,0)" font-family="Liberation Sans, Arial, Helvetica, sans-serif" font-size="14" xml:space="preserve" dominant-baseline="auto">1. Submit request [Mermaid: Caller-&gt;&gt;Service: Submit request]</text>
  <path d="M 65.5 277 L 333 277" fill="none" stroke="rgb(0, 0, 0)" stroke-width="1"/>
  <path d="M 323 272 L 323 282 L 333 277" fill="rgb(0, 0, 0)" stroke="none"/>
  <path d="M 63 297 M 63 381" fill="none" stroke="rgb(0,0,0)" stroke-width="1" stroke-dasharray="3,3"/>
  <path d="M 335.5 297 M 335.5 381" fill="none" stroke="rgb(0,0,0)" stroke-width="1" stroke-dasharray="3,3"/>
  <path d="M 597 297 M 597 381" fill="none" stroke="rgb(0,0,0)" stroke-width="1" stroke-dasharray="3,3"/>
  <path d="M 63 297 L 63 381" fill="none" stroke="rgb(0,0,0)" stroke-width="1" stroke-dasharray="3,3"/>
  <path d="M 60.5 297 L 60.5 381 L 65.5 381 L 65.5 297 L 60.5 297" fill="rgb(204,255,153)" stroke="none"/>
  <path d="M 60.5 297 L 60.5 381 M 65.5 381 L 65.5 297 M 60.5 297" fill="none" stroke="rgb(0, 0, 0)" stroke-width="1"/>
  <path d="M 335.5 297 L 335.5 381" fill="none" stroke="rgb(0,0,0)" stroke-width="1" stroke-dasharray="3,3"/>
  <path d="M 333 297 L 333 381 L 338 381 L 338 297 L 333 297" fill="rgb(204,255,153)" stroke="none"/>
  <path d="M 333 297 L 333 381 M 338 381 L 338 297 M 333 297" fill="none" stroke="rgb(0, 0, 0)" stroke-width="1"/>
  <path d="M 597 297 L 597 381" fill="none" stroke="rgb(0,0,0)" stroke-width="1" stroke-dasharray="3,3"/>
  <path d="M 594.5 361 L 594.5 381 L 599.5 381 L 599.5 361 L 594.5 361" fill="rgb(204,255,153)" stroke="none"/>
  <path d="M 594.5 361 L 594.5 381 M 599.5 381 L 599.5 361 L 594.5 361" fill="none" stroke="rgb(0, 0, 0)" stroke-width="1"/>
  <text x="378" y="351" fill="rgb(0,0,0)" font-family="Liberation Sans, Arial, Helvetica, sans-serif" font-size="14" xml:space="preserve" dominant-baseline="auto">2. Persist data [Mermaid: Service-&gt;&gt;DB: Persist data]</text>
  <path d="M 338 361 L 594.5 361" fill="none" stroke="rgb(0, 0, 0)" stroke-width="1"/>
  <path d="M 584.5 356 L 584.5 366 L 594.5 361" fill="rgb(0, 0, 0)" stroke="none"/>
  <path d="M 63 381 M 63 447" fill="none" stroke="rgb(0,0,0)" stroke-width="1" stroke-dasharray="3,3"/>
  <path d="M 335.5 381 M 335.5 447" fill="none" stroke="rgb(0,0,0)" stroke-width="1" stroke-dasharray="3,3"/>
  <path d="M 597 381 M 597 447" fill="none" stroke="rgb(0,0,0)" stroke-width="1" stroke-dasharray="3,3"/>
  <path d="M 63 381 L 63 447" fill="none" stroke="rgb(0,0,0)" stroke-width="1" stroke-dasharray="3,3"/>
  <path d="M 60.5 381 L 60.5 447 L 65.5 447 L 65.5 381 L 60.5 381" fill="rgb(204,255,153)" stroke="none"/>
  <path d="M 60.5 381 L 60.5 447 M 65.5 447 L 65.5 381 M 60.5 381" fill="none" stroke="rgb(0, 0, 0)" stroke-width="1"/>
  <path d="M 335.5 381 L 335.5 447" fill="none" stroke="rgb(0,0,0)" stroke-width="1" stroke-dasharray="3,3"/>
  <path d="M 333 381 L 333 447 L 338 447 L 338 381 L 333 381" fill="rgb(204,255,153)" stroke="none"/>
  <path d="M 333 381 L 333 447 M 338 447 L 338 381 M 333 381" fill="none" stroke="rgb(0, 0, 0)" stroke-width="1"/>
  <path d="M 597 381 L 597 447" fill="none" stroke="rgb(0,0,0)" stroke-width="1" stroke-dasharray="3,3"/>
  <path d="M 594.5 381 L 594.5 445 L 599.5 445 L 599.5 381 L 594.5 381" fill="rgb(204,255,153)" stroke="none"/>
  <path d="M 594.5 381 L 594.5 445 L 599.5 445 L 599.5 381 M 594.5 381" fill="none" stroke="rgb(0, 0, 0)" stroke-width="1"/>
  <text x="385.5" y="432.5" fill="rgb(0,0,0)" font-family="Liberation Sans, Arial, Helvetica, sans-serif" font-size="14" xml:space="preserve" dominant-baseline="auto">3. Persistence complete [Mermaid: DB--&gt;&gt;Service: Persistence complete]</text>
  <path d="M 594.5 440 L 338 440" fill="none" stroke="rgb(0, 0, 0)" stroke-width="1" stroke-dasharray="4,2"/>
  <path d="M 338 440 L 348 435 L 348 445 L 338 440" fill="rgb(0, 0, 0)" stroke="none"/>
  <path d="M 63 447 M 63 513" fill="none" stroke="rgb(0,0,0)" stroke-width="1" stroke-dasharray="3,3"/>
  <path d="M 335.5 447 M 335.5 513" fill="none" stroke="rgb(0,0,0)" stroke-width="1" stroke-dasharray="3,3"/>
  <path d="M 597 447 M 597 513" fill="none" stroke="rgb(0,0,0)" stroke-width="1" stroke-dasharray="3,3"/>
  <path d="M 63 447 L 63 513" fill="none" stroke="rgb(0,0,0)" stroke-width="1" stroke-dasharray="3,3"/>
  <path d="M 60.5 447 L 60.5 513 L 65.5 513 L 65.5 447 L 60.5 447" fill="rgb(204,255,153)" stroke="none"/>
  <path d="M 60.5 447 L 60.5 513 M 65.5 513 L 65.5 447 M 60.5 447" fill="none" stroke="rgb(0, 0, 0)" stroke-width="1"/>
  <path d="M 335.5 447 L 335.5 513" fill="none" stroke="rgb(0,0,0)" stroke-width="1" stroke-dasharray="3,3"/>
  <path d="M 333 447 L 333 511 L 338 511 L 338 447 L 333 447" fill="rgb(204,255,153)" stroke="none"/>
  <path d="M 333 447 L 333 511 L 338 511 L 338 447 M 333 447" fill="none" stroke="rgb(0, 0, 0)" stroke-width="1"/>
  <path d="M 597 447 L 597 513" fill="none" stroke="rgb(0,0,0)" stroke-width="1" stroke-dasharray="3,3"/>
  <text x="113" y="498.5" fill="rgb(0,0,0)" font-family="Liberation Sans, Arial, Helvetica, sans-serif" font-size="14" xml:space="preserve" dominant-baseline="auto">4. Reply to caller [Mermaid: Service--&gt;&gt;Caller: Reply to caller]</text>
  <path d="M 333 506 L 65.5 506" fill="none" stroke="rgb(0, 0, 0)" stroke-width="1" stroke-dasharray="4,2"/>
  <path d="M 65.5 506 L 75.5 501 L 75.5 511 L 65.5 506" fill="rgb(0, 0, 0)" stroke="none"/>
  <path d="M 63 513 L 63 537" fill="none" stroke="rgb(0,0,0)" stroke-width="1" stroke-dasharray="3,3"/>
  <path d="M 60.5 513 L 60.5 513 L 65.5 513 L 65.5 513 L 60.5 513" fill="rgb(204,255,153)" stroke="none"/>
  <path d="M 60.5 513 L 60.5 513 L 65.5 513 L 65.5 513 M 60.5 513" fill="none" stroke="rgb(0, 0, 0)" stroke-width="1"/>
  <path d="M 335.5 513 L 335.5 537" fill="none" stroke="rgb(0,0,0)" stroke-width="1" stroke-dasharray="3,3"/>
  <path d="M 597 513 L 597 537" fill="none" stroke="rgb(0,0,0)" stroke-width="1" stroke-dasharray="3,3"/>
</svg>