<?xml version="1.0"?>
<svg xmlns="http://www.w3.org/2000/svg" width="927" height="445" viewBox="0 0 927 445">
  <title>Mermaid actor links</title>
  <desc>Demonstrates Mermaid actor link and links statements mapped onto sequencer actor metadata.
From the project root, regenerate this Mermaid transform and SVG with:
node sequencer.js --mermaid -i test/mermaid-features/21-actor-links/input.mmd -o -f -t test/mermaid-features/21-actor-links</desc>
  <rect width="100%" height="100%" fill="white"/>
  <path d="M 0 0 L 0 435 L 917 435 L 917 0 L 0 0" fill="rgb(255, 255, 255)" stroke="none"/>
  <path d="M 30 30 L 30 57 L 200 57 L 200 30 L 30 30" fill="rgba(0,0,0,0)" stroke="none"/>
  <text x="35" y="49" fill="rgb(0,0,0)" font-family="Liberation Sans, Arial, Helvetica, sans-serif" font-size="14" xml:space="preserve" font-weight="bold" dominant-baseline="auto">Title:</text>
  <text x="68.44" y="49" fill="rgb(0,0,0)" font-family="Liberation Sans, Arial, Helvetica, sans-serif" font-size="14" xml:space="preserve" dominant-baseline="auto"> </text>
  <text x="72.33" y="49" fill="rgb(0,0,0)" font-family="Liberation Sans, Arial, Helvetica, sans-serif" font-size="14" xml:space="preserve" dominant-baseline="auto">Mermaid actor links</text>
  <path d="M 30 57 L 30 84 L 120 84 L 120 57 L 30 57" fill="rgba(0,0,0,0)" stroke="none"/>
  <text x="35" y="76" fill="rgb(0,0,0)" font-family="Liberation Sans, Arial, Helvetica, sans-serif" font-size="14" xml:space="preserve" font-weight="bold" dominant-baseline="auto">Version:</text>
  <text x="91.01" y="76" fill="rgb(0,0,0)" font-family="Liberation Sans, Arial, Helvetica, sans-serif" font-size="14" xml:space="preserve" dominant-baseline="auto"> </text>
  <text x="94.9" y="76" fill="rgb(0,0,0)" font-family="Liberation Sans, Arial, Helvetica, sans-serif" font-size="14" xml:space="preserve" dominant-baseline="auto">1.0</text>
  <path d="M 30 84 L 30 145 L 887 145 L 887 84 L 30 84" fill="rgba(0,0,0,0)" stroke="none"/>
  <text x="35" y="103" fill="rgb(0,0,0)" font-family="Liberation Sans, Arial, Helvetica, sans-serif" font-size="14" xml:space="preserve" font-weight="bold" dominant-baseline="auto">Description:</text>
  <text x="116.68" y="103" fill="rgb(0,0,0)" font-family="Liberation Sans, Arial, Helvetica, sans-serif" font-size="14" xml:space="preserve" dominant-baseline="auto"> </text>
  <text x="120.57" y="103" fill="rgb(0,0,0)" font-family="Liberation Sans, Arial, Helvetica, sans-serif" font-size="14" xml:space="preserve" dominant-baseline="auto">Demonstrates Mermaid actor link and links statements mapped onto sequencer actor metadata.</text>
  <text x="120.57" y="119.8" fill="rgb(0,0,0)" font-family="Liberation Sans, Arial, Helvetica, sans-serif" font-size="14" xml:space="preserve" dominant-baseline="auto">From the project root, regenerate this Mermaid transform and SVG with:</text>
  <text x="120.57" y="136.6" fill="rgb(0,0,0)" font-family="Liberation Sans, Arial, Helvetica, sans-serif" font-size="14" xml:space="preserve" dominant-baseline="auto">node sequencer.js --mermaid -i test/mermaid-features/21-actor-links/input.mmd -o -f -t test/mermaid-features/21-actor-links</text>
  <path d="M 33 183 L 33 211 L 33 211 A 5 5 0 0 0 38 216 L 76 216 L 76 216 A 5 5 0 0 0 81 211 L 81 183 L 81 183 A 5 5 0 0 0 76 178 L 38 178 L 38 178 A 5 5 0 0 0 33 183" fill="rgb(210,210,210)" stroke="none"/>
  <path d="M 30 180 L 30 208 L 30 208 A 5 5 0 0 0 35 213 L 73 213 L 73 213 A 5 5 0 0 0 78 208 L 78 180 L 78 180 A 5 5 0 0 0 73 175 L 35 175 L 35 175 A 5 5 0 0 0 30 180" fill="rgb(204,255,153)" stroke="none"/>
  <path d="M 30 180 L 30 208 L 30 208 A 5 5 0 0 0 35 213 L 73 213 L 73 213 A 5 5 0 0 0 78 208 L 78 180 L 78 180 A 5 5 0 0 0 73 175 L 35 175 L 35 175 A 5 5 0 0 0 30 180" fill="none" stroke="rgb(0, 0, 0)" stroke-width="1"/>
  <text x="39" y="202" fill="rgb(0,0,0)" font-family="Liberation Sans, Arial, Helvetica, sans-serif" font-size="18" xml:space="preserve" dominant-baseline="auto">API</text>
  <path d="M 281 183 L 281 211 L 281 211 A 5 5 0 0 0 286 216 L 320 216 L 320 216 A 5 5 0 0 0 325 211 L 325 183 L 325 183 A 5 5 0 0 0 320 178 L 286 178 L 286 178 A 5 5 0 0 0 281 183" fill="rgb(210,210,210)" stroke="none"/>
  <path d="M 278 180 L 278 208 L 278 208 A 5 5 0 0 0 283 213 L 317 213 L 317 213 A 5 5 0 0 0 322 208 L 322 180 L 322 180 A 5 5 0 0 0 317 175 L 283 175 L 283 175 A 5 5 0 0 0 278 180" fill="rgb(204,255,153)" stroke="none"/>
  <path d="M 278 180 L 278 208 L 278 208 A 5 5 0 0 0 283 213 L 317 213 L 317 213 A 5 5 0 0 0 322 208 L 322 180 L 322 180 A 5 5 0 0 0 317 175 L 283 175 L 283 175 A 5 5 0 0 0 278 180" fill="none" stroke="rgb(0, 0, 0)" stroke-width="1"/>
  <text x="287" y="202" fill="rgb(0,0,0)" font-family="Liberation Sans, Arial, Helvetica, sans-serif" font-size="18" xml:space="preserve" dominant-baseline="auto">DB</text>
  <path d="M 525 183 L 525 211 L 525 211 A 5 5 0 0 0 530 216 L 593 216 L 593 216 A 5 5 0 0 0 598 211 L 598 183 L 598 183 A 5 5 0 0 0 593 178 L 530 178 L 530 178 A 5 5 0 0 0 525 183" fill="rgb(210,210,210)" stroke="none"/>
  <path d="M 522 180 L 522 208 L 522 208 A 5 5 0 0 0 527 213 L 590 213 L 590 213 A 5 5 0 0 0 595 208 L 595 180 L 595 180 A 5 5 0 0 0 590 175 L 527 175 L 527 175 A 5 5 0 0 0 522 180" fill="rgb(204,255,153)" stroke="none"/>
  <path d="M 522 180 L 522 208 L 522 208 A 5 5 0 0 0 527 213 L 590 213 L 590 213 A 5 5 0 0 0 595 208 L 595 180 L 595 180 A 5 5 0 0 0 590 175 L 527 175 L 527 175 A 5 5 0 0 0 522 180" fill="none" stroke="rgb(0, 0, 0)" stroke-width="1"/>
  <text x="531" y="202" fill="rgb(0,0,0)" font-family="Liberation Sans, Arial, Helvetica, sans-serif" font-size="18" xml:space="preserve" dominant-baseline="auto">Queue</text>
  <path d="M 54 213 M 54 297" fill="none" stroke="rgb(0,0,0)" stroke-width="1" stroke-dasharray="3,3"/>
  <path d="M 300 213 M 300 297" fill="none" stroke="rgb(0,0,0)" stroke-width="1" stroke-dasharray="3,3"/>
  <path d="M 558.5 213 M 558.5 297" fill="none" stroke="rgb(0,0,0)" stroke-width="1" stroke-dasharray="3,3"/>
  <path d="M 54 213 L 54 297" fill="none" stroke="rgb(0,0,0)" stroke-width="1" stroke-dasharray="3,3"/>
  <path d="M 51.5 277 L 51.5 297 L 56.5 297 L 56.5 277 L 51.5 277" fill="rgb(204,255,153)" stroke="none"/>
  <path d="M 51.5 277 L 51.5 297 M 56.5 297 L 56.5 277 L 51.5 277" fill="none" stroke="rgb(0, 0, 0)" stroke-width="1"/>
  <path d="M 300 213 L 300 297" fill="none" stroke="rgb(0,0,0)" stroke-width="1" stroke-dasharray="3,3"/>
  <path d="M 297.5 277 L 297.5 297 L 302.5 297 L 302.5 277 L 297.5 277" fill="rgb(204,255,153)" stroke="none"/>
  <path d="M 297.5 277 L 297.5 297 M 302.5 297 L 302.5 277 L 297.5 277" fill="none" stroke="rgb(0, 0, 0)" stroke-width="1"/>
  <path d="M 558.5 213 L 558.5 297" fill="none" stroke="rgb(0,0,0)" stroke-width="1" stroke-dasharray="3,3"/>
  <text x="96.5" y="267" fill="rgb(0,0,0)" font-family="Liberation Sans, Arial, Helvetica, sans-serif" font-size="14" xml:space="preserve" dominant-baseline="auto">1. Read persistence [Mermaid: API-&gt;&gt;DB: Read persistence]</text>
  <path d="M 56.5 277 L 297.5 277" fill="none" stroke="rgb(0, 0, 0)" stroke-width="1"/>
  <path d="M 287.5 272 L 287.5 282 L 297.5 277" fill="rgb(0, 0, 0)" stroke="none"/>
  <path d="M 54 297 M 54 381" fill="none" stroke="rgb(0,0,0)" stroke-width="1" stroke-dasharray="3,3"/>
  <path d="M 300 297 M 300 381" fill="none" stroke="rgb(0,0,0)" stroke-width="1" stroke-dasharray="3,3"/>
  <path d="M 558.5 297 M 558.5 381" fill="none" stroke="rgb(0,0,0)" stroke-width="1" stroke-dasharray="3,3"/>
  <path d="M 54 297 L 54 381" fill="none" stroke="rgb(0,0,0)" stroke-width="1" stroke-dasharray="3,3"/>
  <path d="M 51.5 297 L 51.5 381 L 56.5 381 L 56.5 297 L 51.5 297" fill="rgb(204,255,153)" stroke="none"/>
  <path d="M 51.5 297 L 51.5 381 M 56.5 381 L 56.5 297 M 51.5 297" fill="none" stroke="rgb(0, 0, 0)" stroke-width="1"/>
  <path d="M 300 297 L 300 381" fill="none" stroke="rgb(0,0,0)" stroke-width="1" stroke-dasharray="3,3"/>
  <path d="M 297.5 297 L 297.5 381 L 302.5 381 L 302.5 297 L 297.5 297" fill="rgb(204,255,153)" stroke="none"/>
  <path d="M 297.5 297 L 297.5 381 M 302.5 381 L 302.5 297 M 297.5 297" fill="none" stroke="rgb(0, 0, 0)" stroke-width="1"/>
  <path d="M 558.5 297 L 558.5 381" fill="none" stroke="rgb(0,0,0)" stroke-width="1" stroke-dasharray="3,3"/>
  <path d="M 556 361 L 556 381 L 561 381 L 561 361 L 556 361" fill="rgb(204,255,153)" stroke="none"/>
  <path d="M 556 361 L 556 381 M 561 381 L 561 361 L 556 361" fill="none" stroke="rgb(0, 0, 0)" stroke-width="1"/>
  <text x="96.5" y="351" fill="rgb(0,0,0)" font-family="Liberation Sans, Arial, Helvetica, sans-serif" font-size="14" xml:space="preserve" dominant-baseline="auto">2. Enqueue follow-up [Mermaid: API-&gt;&gt;Queue: Enqueue follow-up]</text>
  <path d="M 56.5 361 L 556 361" fill="none" stroke="rgb(0, 0, 0)" stroke-width="1"/>
  <path d="M 546 356 L 546 366 L 556 361" fill="rgb(0, 0, 0)" stroke="none"/>
  <path d="M 54 381 L 54 405" fill="none" stroke="rgb(0,0,0)" stroke-width="1" stroke-dasharray="3,3"/>
  <path d="M 51.5 381 L 51.5 381 L 56.5 381 L 56.5 381 L 51.5 381" fill="rgb(204,255,153)" stroke="none"/>
  <path d="M 51.5 381 L 51.5 381 L 56.5 381 L 56.5 381 M 51.5 381" fill="none" stroke="rgb(0, 0, 0)" stroke-width="1"/>
  <path d="M 300 381 L 300 405" fill="none" stroke="rgb(0,0,0)" stroke-width="1" stroke-dasharray="3,3"/>
  <path d="M 297.5 381 L 297.5 381 L 302.5 381 L 302.5 381 L 297.5 381" fill="rgb(204,255,153)" stroke="none"/>
  <path d="M 297.5 381 L 297.5 381 L 302.5 381 L 302.5 381 M 297.5 381" fill="none" stroke="rgb(0, 0, 0)" stroke-width="1"/>
  <path d="M 558.5 381 L 558.5 405" fill="none" stroke="rgb(0,0,0)" stroke-width="1" stroke-dasharray="3,3"/>
  <path d="M 556 381 L 556 381 L 561 381 L 561 381 L 556 381" fill="rgb(204,255,153)" stroke="none"/>
  <path d="M 556 381 L 556 381 L 561 381 L 561 381 M 556 381" fill="none" stroke="rgb(0, 0, 0)" stroke-width="1"/>
</svg>