<?xml version="1.0"?>
<svg xmlns="http://www.w3.org/2000/svg" width="939" height="727" viewBox="0 0 939 727">
  <title>Mermaid break fragments</title>
  <desc>Demonstrates Mermaid break fragments mapped onto sequencer fragment regions.
From the project root, regenerate this Mermaid transform and SVG with:
node sequencer.js --mermaid -i test/mermaid-features/12-break/input.mmd -o -f -t test/mermaid-features/12-break</desc>
  <rect width="100%" height="100%" fill="white"/>
  <path d="M 0 0 L 0 717 L 929 717 L 929 0 L 0 0" fill="rgb(255, 255, 255)" stroke="none"/>
  <path d="M 60 30 L 60 57 L 268 57 L 268 30 L 60 30" fill="rgba(0,0,0,0)" stroke="none"/>
  <text x="65" y="49" fill="rgb(0,0,0)" font-family="Liberation Sans, Arial, Helvetica, sans-serif" font-size="14" xml:space="preserve" font-weight="bold" dominant-baseline="auto">Title:</text>
  <text x="98.44" y="49" fill="rgb(0,0,0)" font-family="Liberation Sans, Arial, Helvetica, sans-serif" font-size="14" xml:space="preserve" dominant-baseline="auto"> </text>
  <text x="102.33" y="49" fill="rgb(0,0,0)" font-family="Liberation Sans, Arial, Helvetica, sans-serif" font-size="14" xml:space="preserve" dominant-baseline="auto">Mermaid break fragments</text>
  <path d="M 60 57 L 60 84 L 150 84 L 150 57 L 60 57" fill="rgba(0,0,0,0)" stroke="none"/>
  <text x="65" y="76" fill="rgb(0,0,0)" font-family="Liberation Sans, Arial, Helvetica, sans-serif" font-size="14" xml:space="preserve" font-weight="bold" dominant-baseline="auto">Version:</text>
  <text x="121.01" y="76" fill="rgb(0,0,0)" font-family="Liberation Sans, Arial, Helvetica, sans-serif" font-size="14" xml:space="preserve" dominant-baseline="auto"> </text>
  <text x="124.9" y="76" fill="rgb(0,0,0)" font-family="Liberation Sans, Arial, Helvetica, sans-serif" font-size="14" xml:space="preserve" dominant-baseline="auto">1.0</text>
  <path d="M 60 84 L 60 145 L 859 145 L 859 84 L 60 84" fill="rgba(0,0,0,0)" stroke="none"/>
  <text x="65" y="103" fill="rgb(0,0,0)" font-family="Liberation Sans, Arial, Helvetica, sans-serif" font-size="14" xml:space="preserve" font-weight="bold" dominant-baseline="auto">Description:</text>
  <text x="146.68" y="103" fill="rgb(0,0,0)" font-family="Liberation Sans, Arial, Helvetica, sans-serif" font-size="14" xml:space="preserve" dominant-baseline="auto"> </text>
  <text x="150.57" y="103" fill="rgb(0,0,0)" font-family="Liberation Sans, Arial, Helvetica, sans-serif" font-size="14" xml:space="preserve" dominant-baseline="auto">Demonstrates Mermaid break fragments mapped onto sequencer fragment regions.</text>
  <text x="150.57" y="119.8" fill="rgb(0,0,0)" font-family="Liberation Sans, Arial, Helvetica, sans-serif" font-size="14" xml:space="preserve" dominant-baseline="auto">From the project root, regenerate this Mermaid transform and SVG with:</text>
  <text x="150.57" y="136.6" fill="rgb(0,0,0)" font-family="Liberation Sans, Arial, Helvetica, sans-serif" font-size="14" xml:space="preserve" dominant-baseline="auto">node sequencer.js --mermaid -i test/mermaid-features/12-break/input.mmd -o -f -t test/mermaid-features/12-break</text>
  <path d="M 63 183 L 63 211 L 63 211 A 5 5 0 0 0 68 216 L 124 216 L 124 216 A 5 5 0 0 0 129 211 L 129 183 L 129 183 A 5 5 0 0 0 124 178 L 68 178 L 68 178 A 5 5 0 0 0 63 183" fill="rgb(210,210,210)" stroke="none"/>
  <path d="M 60 180 L 60 208 L 60 208 A 5 5 0 0 0 65 213 L 121 213 L 121 213 A 5 5 0 0 0 126 208 L 126 180 L 126 180 A 5 5 0 0 0 121 175 L 65 175 L 65 175 A 5 5 0 0 0 60 180" fill="rgb(204,255,153)" stroke="none"/>
  <path d="M 60 180 L 60 208 L 60 208 A 5 5 0 0 0 65 213 L 121 213 L 121 213 A 5 5 0 0 0 126 208 L 126 180 L 126 180 A 5 5 0 0 0 121 175 L 65 175 L 65 175 A 5 5 0 0 0 60 180" fill="none" stroke="rgb(0, 0, 0)" stroke-width="1"/>
  <text x="69" y="202" fill="rgb(0,0,0)" font-family="Liberation Sans, Arial, Helvetica, sans-serif" font-size="18" xml:space="preserve" dominant-baseline="auto">Caller</text>
  <path d="M 329 183 L 329 211 L 329 211 A 5 5 0 0 0 334 216 L 403 216 L 403 216 A 5 5 0 0 0 408 211 L 408 183 L 408 183 A 5 5 0 0 0 403 178 L 334 178 L 334 178 A 5 5 0 0 0 329 183" fill="rgb(210,210,210)" stroke="none"/>
  <path d="M 326 180 L 326 208 L 326 208 A 5 5 0 0 0 331 213 L 400 213 L 400 213 A 5 5 0 0 0 405 208 L 405 180 L 405 180 A 5 5 0 0 0 400 175 L 331 175 L 331 175 A 5 5 0 0 0 326 180" fill="rgb(204,255,153)" stroke="none"/>
  <path d="M 326 180 L 326 208 L 326 208 A 5 5 0 0 0 331 213 L 400 213 L 400 213 A 5 5 0 0 0 405 208 L 405 180 L 405 180 A 5 5 0 0 0 400 175 L 331 175 L 331 175 A 5 5 0 0 0 326 180" fill="none" stroke="rgb(0, 0, 0)" stroke-width="1"/>
  <text x="335" y="202" fill="rgb(0,0,0)" font-family="Liberation Sans, Arial, Helvetica, sans-serif" font-size="18" xml:space="preserve" dominant-baseline="auto">Service</text>
  <path d="M 608 183 L 608 211 L 608 211 A 5 5 0 0 0 613 216 L 647 216 L 647 216 A 5 5 0 0 0 652 211 L 652 183 L 652 183 A 5 5 0 0 0 647 178 L 613 178 L 613 178 A 5 5 0 0 0 608 183" fill="rgb(210,210,210)" stroke="none"/>
  <path d="M 605 180 L 605 208 L 605 208 A 5 5 0 0 0 610 213 L 644 213 L 644 213 A 5 5 0 0 0 649 208 L 649 180 L 649 180 A 5 5 0 0 0 644 175 L 610 175 L 610 175 A 5 5 0 0 0 605 180" fill="rgb(204,255,153)" stroke="none"/>
  <path d="M 605 180 L 605 208 L 605 208 A 5 5 0 0 0 610 213 L 644 213 L 644 213 A 5 5 0 0 0 649 208 L 649 180 L 649 180 A 5 5 0 0 0 644 175 L 610 175 L 610 175 A 5 5 0 0 0 605 180" fill="none" stroke="rgb(0, 0, 0)" stroke-width="1"/>
  <text x="614" y="202" fill="rgb(0,0,0)" font-family="Liberation Sans, Arial, Helvetica, sans-serif" font-size="18" xml:space="preserve" dominant-baseline="auto">DB</text>
  <path d="M 93 213 M 93 297" fill="none" stroke="rgb(0,0,0)" stroke-width="1" stroke-dasharray="3,3"/>
  <path d="M 365.5 213 M 365.5 297" fill="none" stroke="rgb(0,0,0)" stroke-width="1" stroke-dasharray="3,3"/>
  <path d="M 627 213 M 627 297" fill="none" stroke="rgb(0,0,0)" stroke-width="1" stroke-dasharray="3,3"/>
  <path d="M 93 213 L 93 297" fill="none" stroke="rgb(0,0,0)" stroke-width="1" stroke-dasharray="3,3"/>
  <path d="M 90.5 277 L 90.5 297 L 95.5 297 L 95.5 277 L 90.5 277" fill="rgb(204,255,153)" stroke="none"/>
  <path d="M 90.5 277 L 90.5 297 M 95.5 297 L 95.5 277 L 90.5 277" fill="none" stroke="rgb(0, 0, 0)" stroke-width="1"/>
  <path d="M 365.5 213 L 365.5 297" fill="none" stroke="rgb(0,0,0)" stroke-width="1" stroke-dasharray="3,3"/>
  <path d="M 363 277 L 363 297 L 368 297 L 368 277 L 363 277" fill="rgb(204,255,153)" stroke="none"/>
  <path d="M 363 277 L 363 297 M 368 297 L 368 277 L 363 277" fill="none" stroke="rgb(0, 0, 0)" stroke-width="1"/>
  <path d="M 627 213 L 627 297" fill="none" stroke="rgb(0,0,0)" stroke-width="1" stroke-dasharray="3,3"/>
  <text x="135.5" y="267" fill="rgb(0,0,0)" font-family="Liberation Sans, Arial, Helvetica, sans-serif" font-size="14" xml:space="preserve" dominant-baseline="auto">1. Submit request [Mermaid: Caller-&gt;&gt;Service: Submit request]</text>
  <path d="M 95.5 277 L 363 277" fill="none" stroke="rgb(0, 0, 0)" stroke-width="1"/>
  <path d="M 353 272 L 353 282 L 363 277" fill="rgb(0, 0, 0)" stroke="none"/>
  <path d="M 93 297 L 93 375" fill="none" stroke="rgb(0,0,0)" stroke-width="1" stroke-dasharray="3,3"/>
  <path d="M 90.5 297 L 90.5 375 L 95.5 375 L 95.5 297 L 90.5 297" fill="rgb(204,255,153)" stroke="none"/>
  <path d="M 90.5 297 L 90.5 375 M 95.5 375 L 95.5 297 M 90.5 297" fill="none" stroke="rgb(0, 0, 0)" stroke-width="1"/>
  <path d="M 365.5 297 L 365.5 375" fill="none" stroke="rgb(0,0,0)" stroke-width="1" stroke-dasharray="3,3"/>
  <path d="M 363 297 L 363 375 L 368 375 L 368 297 L 363 297" fill="rgb(204,255,153)" stroke="none"/>
  <path d="M 363 297 L 363 375 M 368 375 L 368 297 M 363 297" fill="none" stroke="rgb(0, 0, 0)" stroke-width="1"/>
  <path d="M 627 297 L 627 375" fill="none" stroke="rgb(0,0,0)" stroke-width="1" stroke-dasharray="3,3"/>
  <path d="M 30 327 L 30 375 L 899 375 L 899 327 L 30 327" fill="rgb(255, 255, 255)" stroke="none"/>
  <path d="M 93 297 L 93 375" fill="none" stroke="rgb(0,0,0)" stroke-width="1" stroke-dasharray="3,3"/>
  <path d="M 90.5 297 L 90.5 375 L 95.5 375 L 95.5 297 L 90.5 297" fill="rgb(204,255,153)" stroke="none"/>
  <path d="M 90.5 297 L 90.5 375 M 95.5 375 L 95.5 297 M 90.5 297" fill="none" stroke="rgb(0, 0, 0)" stroke-width="1"/>
  <path d="M 365.5 297 L 365.5 375" fill="none" stroke="rgb(0,0,0)" stroke-width="1" stroke-dasharray="3,3"/>
  <path d="M 363 297 L 363 375 L 368 375 L 368 297 L 363 297" fill="rgb(204,255,153)" stroke="none"/>
  <path d="M 363 297 L 363 375 M 368 375 L 368 297 M 363 297" fill="none" stroke="rgb(0, 0, 0)" stroke-width="1"/>
  <path d="M 627 297 L 627 375" fill="none" stroke="rgb(0,0,0)" stroke-width="1" stroke-dasharray="3,3"/>
  <path d="M 30 327 L 30 375 L 899 375 L 899 327 L 30 327" fill="rgba(255,255,255,0)" stroke="none"/>
  <path d="M 30 327 L 30 375 M 899 375 L 899 327 L 30 327" fill="none" stroke="rgb(0, 0, 0)" stroke-width="1"/>
  <path d="M 30 327 L 30 351 L 79 351 L 89 341 L 89 327 L 30 327" fill="rgba(200,200,0,0.8)" stroke="none"/>
  <path d="M 30 327 L 30 351 L 79 351 L 89 341 L 89 327 L 30 327" fill="none" stroke="rgb(0, 0, 0)" stroke-width="1"/>
  <text x="35" y="346" fill="rgb(0,0,0)" font-family="Liberation Sans, Arial, Helvetica, sans-serif" font-size="14" xml:space="preserve" dominant-baseline="auto">break </text>
  <text x="35" y="368" fill="rgb(0,0,0)" font-family="Liberation Sans, Arial, Helvetica, sans-serif" font-size="12" xml:space="preserve" dominant-baseline="auto">Validation failed [Mermaid: break Validation failed]</text>
  <path d="M 93 375 M 93 459" fill="none" stroke="rgb(0,0,0)" stroke-width="1" stroke-dasharray="3,3"/>
  <path d="M 365.5 375 M 365.5 459" fill="none" stroke="rgb(0,0,0)" stroke-width="1" stroke-dasharray="3,3"/>
  <path d="M 627 375 M 627 459" fill="none" stroke="rgb(0,0,0)" stroke-width="1" stroke-dasharray="3,3"/>
  <path d="M 30 375 L 30 459 L 899 459 L 899 375 L 30 375" fill="rgb(255, 255, 255)" stroke="none"/>
  <path d="M 93 375 L 93 459" fill="none" stroke="rgb(0,0,0)" stroke-width="1" stroke-dasharray="3,3"/>
  <path d="M 90.5 375 L 90.5 459 L 95.5 459 L 95.5 375 L 90.5 375" fill="rgb(204,255,153)" stroke="none"/>
  <path d="M 90.5 375 L 90.5 459 M 95.5 459 L 95.5 375 M 90.5 375" fill="none" stroke="rgb(0, 0, 0)" stroke-width="1"/>
  <path d="M 365.5 375 L 365.5 459" fill="none" stroke="rgb(0,0,0)" stroke-width="1" stroke-dasharray="3,3"/>
  <path d="M 363 375 L 363 459 L 368 459 L 368 375 L 363 375" fill="rgb(204,255,153)" stroke="none"/>
  <path d="M 363 375 L 363 459 M 368 459 L 368 375 M 363 375" fill="none" stroke="rgb(0, 0, 0)" stroke-width="1"/>
  <path d="M 627 375 L 627 459" fill="none" stroke="rgb(0,0,0)" stroke-width="1" stroke-dasharray="3,3"/>
  <text x="145.5" y="429" fill="rgb(0,0,0)" font-family="Liberation Sans, Arial, Helvetica, sans-serif" font-size="14" xml:space="preserve" dominant-baseline="auto">2. Return validation error [Mermaid: Service-&gt;&gt;Caller: Return validation error]</text>
  <path d="M 363 439 L 95.5 439" fill="none" stroke="rgb(0, 0, 0)" stroke-width="1"/>
  <path d="M 105.5 434 L 105.5 444 L 95.5 439" fill="rgb(0, 0, 0)" stroke="none"/>
  <path d="M 30 375 L 30 459 L 899 459 L 899 375 L 30 375" fill="rgba(255,255,255,0)" stroke="none"/>
  <path d="M 30 375 L 30 459 M 899 459 L 899 375 M 30 375" fill="none" stroke="rgb(0, 0, 0)" stroke-width="1"/>
  <path d="M 93 459 M 93 543" fill="none" stroke="rgb(0,0,0)" stroke-width="1" stroke-dasharray="3,3"/>
  <path d="M 365.5 459 M 365.5 543" fill="none" stroke="rgb(0,0,0)" stroke-width="1" stroke-dasharray="3,3"/>
  <path d="M 627 459 M 627 543" fill="none" stroke="rgb(0,0,0)" stroke-width="1" stroke-dasharray="3,3"/>
  <path d="M 30 459 L 30 543 L 899 543 L 899 459 L 30 459" fill="rgb(255, 255, 255)" stroke="none"/>
  <path d="M 93 459 L 93 543" fill="none" stroke="rgb(0,0,0)" stroke-width="1" stroke-dasharray="3,3"/>
  <path d="M 90.5 459 L 90.5 543 L 95.5 543 L 95.5 459 L 90.5 459" fill="rgb(204,255,153)" stroke="none"/>
  <path d="M 90.5 459 L 90.5 543 M 95.5 543 L 95.5 459 M 90.5 459" fill="none" stroke="rgb(0, 0, 0)" stroke-width="1"/>
  <path d="M 365.5 459 L 365.5 543" fill="none" stroke="rgb(0,0,0)" stroke-width="1" stroke-dasharray="3,3"/>
  <path d="M 363 459 L 363 543 L 368 543 L 368 459 L 363 459" fill="rgb(204,255,153)" stroke="none"/>
  <path d="M 363 459 L 363 543 M 368 543 L 368 459 M 363 459" fill="none" stroke="rgb(0, 0, 0)" stroke-width="1"/>
  <path d="M 627 459 L 627 543" fill="none" stroke="rgb(0,0,0)" stroke-width="1" stroke-dasharray="3,3"/>
  <path d="M 624.5 523 L 624.5 543 L 629.5 543 L 629.5 523 L 624.5 523" fill="rgb(204,255,153)" stroke="none"/>
  <path d="M 624.5 523 L 624.5 543 M 629.5 543 L 629.5 523 L 624.5 523" fill="none" stroke="rgb(0, 0, 0)" stroke-width="1"/>
  <text x="408" y="513" fill="rgb(0,0,0)" font-family="Liberation Sans, Arial, Helvetica, sans-serif" font-size="14" xml:space="preserve" dominant-baseline="auto">3. Record failed attempt [Mermaid: Service-&gt;&gt;DB: Record failed attempt]</text>
  <path d="M 368 523 L 624.5 523" fill="none" stroke="rgb(0, 0, 0)" stroke-width="1"/>
  <path d="M 614.5 518 L 614.5 528 L 624.5 523" fill="rgb(0, 0, 0)" stroke="none"/>
  <path d="M 30 459 L 30 543 L 899 543 L 899 459 L 30 459" fill="rgba(255,255,255,0)" stroke="none"/>
  <path d="M 30 459 L 30 543 M 899 543 L 899 459 M 30 459" fill="none" stroke="rgb(0, 0, 0)" stroke-width="1"/>
  <path d="M 93 543 M 93 549" fill="none" stroke="rgb(0,0,0)" stroke-width="1" stroke-dasharray="3,3"/>
  <path d="M 365.5 543 M 365.5 549" fill="none" stroke="rgb(0,0,0)" stroke-width="1" stroke-dasharray="3,3"/>
  <path d="M 627 543 M 627 549" fill="none" stroke="rgb(0,0,0)" stroke-width="1" stroke-dasharray="3,3"/>
  <path d="M 30 543 L 30 549 L 899 549 L 899 543 L 30 543" fill="rgb(255, 255, 255)" stroke="none"/>
  <path d="M 93 543 L 93 549" fill="none" stroke="rgb(0,0,0)" stroke-width="1" stroke-dasharray="3,3"/>
  <path d="M 90.5 543 L 90.5 549 L 95.5 549 L 95.5 543 L 90.5 543" fill="rgb(204,255,153)" stroke="none"/>
  <path d="M 90.5 543 L 90.5 549 M 95.5 549 L 95.5 543 M 90.5 543" fill="none" stroke="rgb(0, 0, 0)" stroke-width="1"/>
  <path d="M 365.5 543 L 365.5 549" fill="none" stroke="rgb(0,0,0)" stroke-width="1" stroke-dasharray="3,3"/>
  <path d="M 363 543 L 363 549 L 368 549 L 368 543 L 363 543" fill="rgb(204,255,153)" stroke="none"/>
  <path d="M 363 543 L 363 549 M 368 549 L 368 543 M 363 543" fill="none" stroke="rgb(0, 0, 0)" stroke-width="1"/>
  <path d="M 627 543 L 627 549" fill="none" stroke="rgb(0,0,0)" stroke-width="1" stroke-dasharray="3,3"/>
  <path d="M 624.5 543 L 624.5 549 L 629.5 549 L 629.5 543 L 624.5 543" fill="rgb(204,255,153)" stroke="none"/>
  <path d="M 624.5 543 L 624.5 549 M 629.5 549 L 629.5 543 M 624.5 543" fill="none" stroke="rgb(0, 0, 0)" stroke-width="1"/>
  <path d="M 30 543 L 30 549 L 899 549 L 899 543 L 30 543" fill="rgba(255,255,255,0)" stroke="none"/>
  <path d="M 30 543 L 30 549 M 899 549 L 899 543 M 30 543" fill="none" stroke="rgb(0, 0, 0)" stroke-width="1"/>
  <path d="M 93 549 M 93 609" fill="none" stroke="rgb(0,0,0)" stroke-width="1" stroke-dasharray="3,3"/>
  <path d="M 365.5 549 M 365.5 609" fill="none" stroke="rgb(0,0,0)" stroke-width="1" stroke-dasharray="3,3"/>
  <path d="M 627 549 M 627 609" fill="none" stroke="rgb(0,0,0)" stroke-width="1" stroke-dasharray="3,3"/>
  <path d="M 30 549 L 30 579 L 899 579 L 899 549 L 30 549" fill="rgb(255, 255, 255)" stroke="none"/>
  <path d="M 93 549 L 93 609" fill="none" stroke="rgb(0,0,0)" stroke-width="1" stroke-dasharray="3,3"/>
  <path d="M 90.5 549 L 90.5 609 L 95.5 609 L 95.5 549 L 90.5 549" fill="rgb(204,255,153)" stroke="none"/>
  <path d="M 90.5 549 L 90.5 609 M 95.5 609 L 95.5 549 M 90.5 549" fill="none" stroke="rgb(0, 0, 0)" stroke-width="1"/>
  <path d="M 365.5 549 L 365.5 609" fill="none" stroke="rgb(0,0,0)" stroke-width="1" stroke-dasharray="3,3"/>
  <path d="M 363 549 L 363 609 L 368 609 L 368 549 L 363 549" fill="rgb(204,255,153)" stroke="none"/>
  <path d="M 363 549 L 363 609 M 368 609 L 368 549 M 363 549" fill="none" stroke="rgb(0, 0, 0)" stroke-width="1"/>
  <path d="M 627 549 L 627 609" fill="none" stroke="rgb(0,0,0)" stroke-width="1" stroke-dasharray="3,3"/>
  <path d="M 624.5 549 L 624.5 609 L 629.5 609 L 629.5 549 L 624.5 549" fill="rgb(204,255,153)" stroke="none"/>
  <path d="M 624.5 549 L 624.5 609 M 629.5 609 L 629.5 549 M 624.5 549" fill="none" stroke="rgb(0, 0, 0)" stroke-width="1"/>
  <path d="M 30 549 L 30 579 L 899 579 L 899 549 L 30 549" fill="rgba(255,255,255,0)" stroke="none"/>
  <path d="M 30 549 L 30 579 L 899 579 L 899 549 M 30 549" fill="none" stroke="rgb(0, 0, 0)" stroke-width="1"/>
  <path d="M 93 579 M 93 663" fill="none" stroke="rgb(0,0,0)" stroke-width="1" stroke-dasharray="3,3"/>
  <path d="M 365.5 579 M 365.5 663" fill="none" stroke="rgb(0,0,0)" stroke-width="1" stroke-dasharray="3,3"/>
  <path d="M 627 579 M 627 663" fill="none" stroke="rgb(0,0,0)" stroke-width="1" stroke-dasharray="3,3"/>
  <path d="M 93 579 L 93 663" fill="none" stroke="rgb(0,0,0)" stroke-width="1" stroke-dasharray="3,3"/>
  <path d="M 90.5 579 L 90.5 663 L 95.5 663 L 95.5 579 L 90.5 579" fill="rgb(204,255,153)" stroke="none"/>
  <path d="M 90.5 579 L 90.5 663 M 95.5 663 L 95.5 579 M 90.5 579" fill="none" stroke="rgb(0, 0, 0)" stroke-width="1"/>
  <path d="M 365.5 579 L 365.5 663" fill="none" stroke="rgb(0,0,0)" stroke-width="1" stroke-dasharray="3,3"/>
  <path d="M 363 579 L 363 663 L 368 663 L 368 579 L 363 579" fill="rgb(204,255,153)" stroke="none"/>
  <path d="M 363 579 L 363 663 M 368 663 L 368 579 M 363 579" fill="none" stroke="rgb(0, 0, 0)" stroke-width="1"/>
  <path d="M 627 579 L 627 663" fill="none" stroke="rgb(0,0,0)" stroke-width="1" stroke-dasharray="3,3"/>
  <path d="M 624.5 579 L 624.5 663 L 629.5 663 L 629.5 579 L 624.5 579" fill="rgb(204,255,153)" stroke="none"/>
  <path d="M 624.5 579 L 624.5 663 M 629.5 663 L 629.5 579 M 624.5 579" fill="none" stroke="rgb(0, 0, 0)" stroke-width="1"/>
  <text x="135.5" y="633" fill="rgb(0,0,0)" font-family="Liberation Sans, Arial, Helvetica, sans-serif" font-size="14" xml:space="preserve" dominant-baseline="auto">4. Continue outer narrative [Mermaid: Caller-&gt;&gt;Service: Continue outer narrative]</text>
  <path d="M 95.5 643 L 363 643" fill="none" stroke="rgb(0, 0, 0)" stroke-width="1"/>
  <path d="M 353 638 L 353 648 L 363 643" fill="rgb(0, 0, 0)" stroke="none"/>
  <path d="M 93 663 L 93 687" fill="none" stroke="rgb(0,0,0)" stroke-width="1" stroke-dasharray="3,3"/>
  <path d="M 90.5 663 L 90.5 663 L 95.5 663 L 95.5 663 L 90.5 663" fill="rgb(204,255,153)" stroke="none"/>
  <path d="M 90.5 663 L 90.5 663 L 95.5 663 L 95.5 663 M 90.5 663" fill="none" stroke="rgb(0, 0, 0)" stroke-width="1"/>
  <path d="M 365.5 663 L 365.5 687" fill="none" stroke="rgb(0,0,0)" stroke-width="1" stroke-dasharray="3,3"/>
  <path d="M 363 663 L 363 663 L 368 663 L 368 663 L 363 663" fill="rgb(204,255,153)" stroke="none"/>
  <path d="M 363 663 L 363 663 L 368 663 L 368 663 M 363 663" fill="none" stroke="rgb(0, 0, 0)" stroke-width="1"/>
  <path d="M 627 663 L 627 687" fill="none" stroke="rgb(0,0,0)" stroke-width="1" stroke-dasharray="3,3"/>
  <path d="M 624.5 663 L 624.5 663 L 629.5 663 L 629.5 663 L 624.5 663" fill="rgb(204,255,153)" stroke="none"/>
  <path d="M 624.5 663 L 624.5 663 L 629.5 663 L 629.5 663 M 624.5 663" fill="none" stroke="rgb(0, 0, 0)" stroke-width="1"/>
</svg>