<?xml version="1.0"?>
<svg xmlns="http://www.w3.org/2000/svg" width="1035" height="757" viewBox="0 0 1035 757">
  <title>Mermaid break fragments</title>
  <desc>Demonstrates Mermaid break fragments mapped onto sequencer fragment regions.
From the project root, regenerate this Mermaid transform and SVG with:
node sequencer.js --mermaid -i test/mermaid-features/12-break/input.mmd -o -f -t test/mermaid-features/12-break</desc>
  <rect width="100%" height="100%" fill="white"/>
  <path d="M 0 0 L 0 747 L 1025 747 L 1025 0 L 0 0" fill="rgb(255, 255, 255)" stroke="none"/>
  <path d="M 60 30 L 60 57 L 268 57 L 268 30 L 60 30" fill="rgba(0,0,0,0)" stroke="none"/>
  <text x="65" y="49" fill="rgb(0,0,0)" font-family="Liberation Sans, Arial, Helvetica, sans-serif" font-size="14" xml:space="preserve" font-weight="bold" dominant-baseline="auto">Title:</text>
  <text x="98.44" y="49" fill="rgb(0,0,0)" font-family="Liberation Sans, Arial, Helvetica, sans-serif" font-size="14" xml:space="preserve" dominant-baseline="auto"> </text>
  <text x="102.33" y="49" fill="rgb(0,0,0)" font-family="Liberation Sans, Arial, Helvetica, sans-serif" font-size="14" xml:space="preserve" dominant-baseline="auto">Mermaid break fragments</text>
  <path d="M 60 57 L 60 84 L 150 84 L 150 57 L 60 57" fill="rgba(0,0,0,0)" stroke="none"/>
  <text x="65" y="76" fill="rgb(0,0,0)" font-family="Liberation Sans, Arial, Helvetica, sans-serif" font-size="14" xml:space="preserve" font-weight="bold" dominant-baseline="auto">Version:</text>
  <text x="121.01" y="76" fill="rgb(0,0,0)" font-family="Liberation Sans, Arial, Helvetica, sans-serif" font-size="14" xml:space="preserve" dominant-baseline="auto"> </text>
  <text x="124.9" y="76" fill="rgb(0,0,0)" font-family="Liberation Sans, Arial, Helvetica, sans-serif" font-size="14" xml:space="preserve" dominant-baseline="auto">1.0</text>
  <path d="M 60 84 L 60 145 L 859 145 L 859 84 L 60 84" fill="rgba(0,0,0,0)" stroke="none"/>
  <text x="65" y="103" fill="rgb(0,0,0)" font-family="Liberation Sans, Arial, Helvetica, sans-serif" font-size="14" xml:space="preserve" font-weight="bold" dominant-baseline="auto">Description:</text>
  <text x="146.68" y="103" fill="rgb(0,0,0)" font-family="Liberation Sans, Arial, Helvetica, sans-serif" font-size="14" xml:space="preserve" dominant-baseline="auto"> </text>
  <text x="150.57" y="103" fill="rgb(0,0,0)" font-family="Liberation Sans, Arial, Helvetica, sans-serif" font-size="14" xml:space="preserve" dominant-baseline="auto">Demonstrates Mermaid break fragments mapped onto sequencer fragment regions.</text>
  <text x="150.57" y="119.8" fill="rgb(0,0,0)" font-family="Liberation Sans, Arial, Helvetica, sans-serif" font-size="14" xml:space="preserve" dominant-baseline="auto">From the project root, regenerate this Mermaid transform and SVG with:</text>
  <text x="150.57" y="136.6" fill="rgb(0,0,0)" font-family="Liberation Sans, Arial, Helvetica, sans-serif" font-size="14" xml:space="preserve" dominant-baseline="auto">node sequencer.js --mermaid -i test/mermaid-features/12-break/input.mmd -o -f -t test/mermaid-features/12-break</text>
  <path d="M 63 183 L 63 211 L 63 211 A 5 5 0 0 0 68 216 L 124 216 L 124 216 A 5 5 0 0 0 129 211 L 129 183 L 129 183 A 5 5 0 0 0 124 178 L 68 178 L 68 178 A 5 5 0 0 0 63 183" fill="rgb(210,210,210)" stroke="none"/>
  <path d="M 60 180 L 60 208 L 60 208 A 5 5 0 0 0 65 213 L 121 213 L 121 213 A 5 5 0 0 0 126 208 L 126 180 L 126 180 A 5 5 0 0 0 121 175 L 65 175 L 65 175 A 5 5 0 0 0 60 180" fill="rgb(95,183,224)" stroke="none"/>
  <path d="M 60 180 L 60 208 L 60 208 A 5 5 0 0 0 65 213 L 121 213 L 121 213 A 5 5 0 0 0 126 208 L 126 180 L 126 180 A 5 5 0 0 0 121 175 L 65 175 L 65 175 A 5 5 0 0 0 60 180" fill="none" stroke="rgb(0, 0, 0)" stroke-width="1"/>
  <text x="69" y="202" fill="rgb(0,0,0)" font-family="Liberation Sans, Arial, Helvetica, sans-serif" font-size="18" xml:space="preserve" dominant-baseline="auto">Caller</text>
  <path d="M 279 183 L 279 211 L 279 211 A 5 5 0 0 0 284 216 L 353 216 L 353 216 A 5 5 0 0 0 358 211 L 358 183 L 358 183 A 5 5 0 0 0 353 178 L 284 178 L 284 178 A 5 5 0 0 0 279 183" fill="rgb(210,210,210)" stroke="none"/>
  <path d="M 276 180 L 276 208 L 276 208 A 5 5 0 0 0 281 213 L 350 213 L 350 213 A 5 5 0 0 0 355 208 L 355 180 L 355 180 A 5 5 0 0 0 350 175 L 281 175 L 281 175 A 5 5 0 0 0 276 180" fill="rgb(95,183,224)" stroke="none"/>
  <path d="M 276 180 L 276 208 L 276 208 A 5 5 0 0 0 281 213 L 350 213 L 350 213 A 5 5 0 0 0 355 208 L 355 180 L 355 180 A 5 5 0 0 0 350 175 L 281 175 L 281 175 A 5 5 0 0 0 276 180" fill="none" stroke="rgb(0, 0, 0)" stroke-width="1"/>
  <text x="285" y="202" fill="rgb(0,0,0)" font-family="Liberation Sans, Arial, Helvetica, sans-serif" font-size="18" xml:space="preserve" dominant-baseline="auto">Service</text>
  <path d="M 508 183 L 508 211 L 508 211 A 5 5 0 0 0 513 216 L 547 216 L 547 216 A 5 5 0 0 0 552 211 L 552 183 L 552 183 A 5 5 0 0 0 547 178 L 513 178 L 513 178 A 5 5 0 0 0 508 183" fill="rgb(210,210,210)" stroke="none"/>
  <path d="M 505 180 L 505 208 L 505 208 A 5 5 0 0 0 510 213 L 544 213 L 544 213 A 5 5 0 0 0 549 208 L 549 180 L 549 180 A 5 5 0 0 0 544 175 L 510 175 L 510 175 A 5 5 0 0 0 505 180" fill="rgb(95,183,224)" stroke="none"/>
  <path d="M 505 180 L 505 208 L 505 208 A 5 5 0 0 0 510 213 L 544 213 L 544 213 A 5 5 0 0 0 549 208 L 549 180 L 549 180 A 5 5 0 0 0 544 175 L 510 175 L 510 175 A 5 5 0 0 0 505 180" fill="none" stroke="rgb(0, 0, 0)" stroke-width="1"/>
  <text x="514" y="202" fill="rgb(0,0,0)" font-family="Liberation Sans, Arial, Helvetica, sans-serif" font-size="18" xml:space="preserve" dominant-baseline="auto">DB</text>
  <path d="M 93 213 L 93 297" fill="none" stroke="rgb(0,0,0)" stroke-width="1" stroke-dasharray="3,3"/>
  <path d="M 90.5 277 L 90.5 297 L 95.5 297 L 95.5 277 L 90.5 277" fill="rgb(95,183,224)" stroke="none"/>
  <path d="M 90.5 277 L 90.5 297 M 95.5 297 L 95.5 277 L 90.5 277" fill="none" stroke="rgb(0, 0, 0)" stroke-width="1"/>
  <path d="M 315.5 213 L 315.5 297" fill="none" stroke="rgb(0,0,0)" stroke-width="1" stroke-dasharray="3,3"/>
  <path d="M 313 277 L 313 297 L 318 297 L 318 277 L 313 277" fill="rgb(95,183,224)" stroke="none"/>
  <path d="M 313 277 L 313 297 M 318 297 L 318 277 L 313 277" fill="none" stroke="rgb(0, 0, 0)" stroke-width="1"/>
  <path d="M 527 213 L 527 297" fill="none" stroke="rgb(0,0,0)" stroke-width="1" stroke-dasharray="3,3"/>
  <text x="135.5" y="267" fill="rgb(0,0,0)" font-family="Liberation Mono, Courier New, Courier, monospace" font-size="14" xml:space="preserve" dominant-baseline="auto">1. Submit request [Mermaid: Caller-&gt;&gt;Service: Submit request]</text>
  <path d="M 95.5 277 L 313 277" fill="none" stroke="rgb(0, 0, 0)" stroke-width="1"/>
  <path d="M 303 272 L 303 282 L 313 277" fill="rgb(0, 0, 0)" stroke="none"/>
  <path d="M 93 297 L 93 375" fill="none" stroke="rgb(0,0,0)" stroke-width="1" stroke-dasharray="3,3"/>
  <path d="M 90.5 297 L 90.5 375 L 95.5 375 L 95.5 297 L 90.5 297" fill="rgb(95,183,224)" stroke="none"/>
  <path d="M 90.5 297 L 90.5 375 M 95.5 375 L 95.5 297 M 90.5 297" fill="none" stroke="rgb(0, 0, 0)" stroke-width="1"/>
  <path d="M 315.5 297 L 315.5 375" fill="none" stroke="rgb(0,0,0)" stroke-width="1" stroke-dasharray="3,3"/>
  <path d="M 313 297 L 313 375 L 318 375 L 318 297 L 313 297" fill="rgb(95,183,224)" stroke="none"/>
  <path d="M 313 297 L 313 375 M 318 375 L 318 297 M 313 297" fill="none" stroke="rgb(0, 0, 0)" stroke-width="1"/>
  <path d="M 527 297 L 527 375" fill="none" stroke="rgb(0,0,0)" stroke-width="1" stroke-dasharray="3,3"/>
  <path d="M 30 327 L 30 375 L 995 375 L 995 327 L 30 327" fill="rgb(184,184,184)" stroke="none"/>
  <path d="M 93 297 L 93 375" fill="none" stroke="rgb(0,0,0)" stroke-width="1" stroke-dasharray="3,3"/>
  <path d="M 90.5 297 L 90.5 375 L 95.5 375 L 95.5 297 L 90.5 297" fill="rgb(95,183,224)" stroke="none"/>
  <path d="M 90.5 297 L 90.5 375 M 95.5 375 L 95.5 297 M 90.5 297" fill="none" stroke="rgb(0, 0, 0)" stroke-width="1"/>
  <path d="M 315.5 297 L 315.5 375" fill="none" stroke="rgb(0,0,0)" stroke-width="1" stroke-dasharray="3,3"/>
  <path d="M 313 297 L 313 375 L 318 375 L 318 297 L 313 297" fill="rgb(95,183,224)" stroke="none"/>
  <path d="M 313 297 L 313 375 M 318 375 L 318 297 M 313 297" fill="none" stroke="rgb(0, 0, 0)" stroke-width="1"/>
  <path d="M 527 297 L 527 375" fill="none" stroke="rgb(0,0,0)" stroke-width="1" stroke-dasharray="3,3"/>
  <path d="M 30 327 L 30 375 L 995 375 L 995 327 L 30 327" fill="rgba(255,255,255,0)" stroke="none"/>
  <path d="M 30 327 L 30 375 M 995 375 L 995 327 L 30 327" fill="none" stroke="rgb(0, 0, 0)" stroke-width="1"/>
  <path d="M 30 327 L 30 351 L 79 351 L 89 341 L 89 327 L 30 327" fill="rgba(200,200,0,0.8)" stroke="none"/>
  <path d="M 30 327 L 30 351 L 79 351 L 89 341 L 89 327 L 30 327" fill="none" stroke="rgb(0, 0, 0)" stroke-width="1"/>
  <text x="35" y="346" fill="rgb(0,0,0)" font-family="Liberation Sans, Arial, Helvetica, sans-serif" font-size="14" xml:space="preserve" dominant-baseline="auto">break </text>
  <text x="35" y="368" fill="rgb(0,0,0)" font-family="Liberation Sans, Arial, Helvetica, sans-serif" font-size="12" xml:space="preserve" dominant-baseline="auto">Validation failed [Mermaid: break Validation failed]</text>
  <path d="M 30 375 L 30 459 L 995 459 L 995 375 L 30 375" fill="rgb(184,184,184)" stroke="none"/>
  <path d="M 93 375 L 93 459" fill="none" stroke="rgb(0,0,0)" stroke-width="1" stroke-dasharray="3,3"/>
  <path d="M 90.5 375 L 90.5 459 L 95.5 459 L 95.5 375 L 90.5 375" fill="rgb(95,183,224)" stroke="none"/>
  <path d="M 90.5 375 L 90.5 459 M 95.5 459 L 95.5 375 M 90.5 375" fill="none" stroke="rgb(0, 0, 0)" stroke-width="1"/>
  <path d="M 315.5 375 L 315.5 459" fill="none" stroke="rgb(0,0,0)" stroke-width="1" stroke-dasharray="3,3"/>
  <path d="M 313 375 L 313 459 L 318 459 L 318 375 L 313 375" fill="rgb(95,183,224)" stroke="none"/>
  <path d="M 313 375 L 313 459 M 318 459 L 318 375 M 313 375" fill="none" stroke="rgb(0, 0, 0)" stroke-width="1"/>
  <path d="M 527 375 L 527 459" fill="none" stroke="rgb(0,0,0)" stroke-width="1" stroke-dasharray="3,3"/>
  <text x="145.5" y="429" fill="rgb(0,0,0)" font-family="Liberation Mono, Courier New, Courier, monospace" font-size="14" xml:space="preserve" dominant-baseline="auto">2. Return validation error [Mermaid: Service-&gt;&gt;Caller: Return validation error]</text>
  <path d="M 313 439 L 95.5 439" fill="none" stroke="rgb(0, 0, 0)" stroke-width="1"/>
  <path d="M 105.5 434 L 105.5 444 L 95.5 439" fill="rgb(0, 0, 0)" stroke="none"/>
  <path d="M 30 375 L 30 459 L 995 459 L 995 375 L 30 375" fill="rgba(255,255,255,0)" stroke="none"/>
  <path d="M 30 375 L 30 459 M 995 459 L 995 375 M 30 375" fill="none" stroke="rgb(0, 0, 0)" stroke-width="1"/>
  <path d="M 30 459 L 30 543 L 995 543 L 995 459 L 30 459" fill="rgb(184,184,184)" stroke="none"/>
  <path d="M 93 459 L 93 543" fill="none" stroke="rgb(0,0,0)" stroke-width="1" stroke-dasharray="3,3"/>
  <path d="M 90.5 459 L 90.5 543 L 95.5 543 L 95.5 459 L 90.5 459" fill="rgb(95,183,224)" stroke="none"/>
  <path d="M 90.5 459 L 90.5 543 M 95.5 543 L 95.5 459 M 90.5 459" fill="none" stroke="rgb(0, 0, 0)" stroke-width="1"/>
  <path d="M 315.5 459 L 315.5 543" fill="none" stroke="rgb(0,0,0)" stroke-width="1" stroke-dasharray="3,3"/>
  <path d="M 313 459 L 313 543 L 318 543 L 318 459 L 313 459" fill="rgb(95,183,224)" stroke="none"/>
  <path d="M 313 459 L 313 543 M 318 543 L 318 459 M 313 459" fill="none" stroke="rgb(0, 0, 0)" stroke-width="1"/>
  <path d="M 527 459 L 527 543" fill="none" stroke="rgb(0,0,0)" stroke-width="1" stroke-dasharray="3,3"/>
  <path d="M 524.5 523 L 524.5 543 L 529.5 543 L 529.5 523 L 524.5 523" fill="rgb(95,183,224)" stroke="none"/>
  <path d="M 524.5 523 L 524.5 543 M 529.5 543 L 529.5 523 L 524.5 523" fill="none" stroke="rgb(0, 0, 0)" stroke-width="1"/>
  <text x="358" y="513" fill="rgb(0,0,0)" font-family="Liberation Mono, Courier New, Courier, monospace" font-size="14" xml:space="preserve" dominant-baseline="auto">3. Record failed attempt [Mermaid: Service-&gt;&gt;DB: Record failed attempt]</text>
  <path d="M 318 523 L 524.5 523" fill="none" stroke="rgb(0, 0, 0)" stroke-width="1"/>
  <path d="M 514.5 518 L 514.5 528 L 524.5 523" fill="rgb(0, 0, 0)" stroke="none"/>
  <path d="M 30 459 L 30 543 L 995 543 L 995 459 L 30 459" fill="rgba(255,255,255,0)" stroke="none"/>
  <path d="M 30 459 L 30 543 M 995 543 L 995 459 M 30 459" fill="none" stroke="rgb(0, 0, 0)" stroke-width="1"/>
  <path d="M 30 543 L 30 549 L 995 549 L 995 543 L 30 543" fill="rgb(184,184,184)" stroke="none"/>
  <path d="M 93 543 L 93 549" fill="none" stroke="rgb(0,0,0)" stroke-width="1" stroke-dasharray="3,3"/>
  <path d="M 90.5 543 L 90.5 549 L 95.5 549 L 95.5 543 L 90.5 543" fill="rgb(95,183,224)" stroke="none"/>
  <path d="M 90.5 543 L 90.5 549 M 95.5 549 L 95.5 543 M 90.5 543" fill="none" stroke="rgb(0, 0, 0)" stroke-width="1"/>
  <path d="M 315.5 543 L 315.5 549" fill="none" stroke="rgb(0,0,0)" stroke-width="1" stroke-dasharray="3,3"/>
  <path d="M 313 543 L 313 549 L 318 549 L 318 543 L 313 543" fill="rgb(95,183,224)" stroke="none"/>
  <path d="M 313 543 L 313 549 M 318 549 L 318 543 M 313 543" fill="none" stroke="rgb(0, 0, 0)" stroke-width="1"/>
  <path d="M 527 543 L 527 549" fill="none" stroke="rgb(0,0,0)" stroke-width="1" stroke-dasharray="3,3"/>
  <path d="M 524.5 543 L 524.5 549 L 529.5 549 L 529.5 543 L 524.5 543" fill="rgb(95,183,224)" stroke="none"/>
  <path d="M 524.5 543 L 524.5 549 M 529.5 549 L 529.5 543 M 524.5 543" fill="none" stroke="rgb(0, 0, 0)" stroke-width="1"/>
  <path d="M 30 543 L 30 549 L 995 549 L 995 543 L 30 543" fill="rgba(255,255,255,0)" stroke="none"/>
  <path d="M 30 543 L 30 549 M 995 549 L 995 543 M 30 543" fill="none" stroke="rgb(0, 0, 0)" stroke-width="1"/>
  <path d="M 30 549 L 30 579 L 995 579 L 995 549 L 30 549" fill="rgb(184,184,184)" stroke="none"/>
  <path d="M 30 549 L 30 579 L 995 579 L 995 549 L 30 549" fill="rgba(255,255,255,0)" stroke="none"/>
  <path d="M 30 549 L 30 579 L 995 579 L 995 549 M 30 549" fill="none" stroke="rgb(0, 0, 0)" stroke-width="1"/>
  <path d="M 93 549 L 93 609" fill="none" stroke="rgb(0,0,0)" stroke-width="1" stroke-dasharray="3,3"/>
  <path d="M 90.5 549 L 90.5 609 L 95.5 609 L 95.5 549 L 90.5 549" fill="rgb(95,183,224)" stroke="none"/>
  <path d="M 90.5 549 L 90.5 609 M 95.5 609 L 95.5 549 M 90.5 549" fill="none" stroke="rgb(0, 0, 0)" stroke-width="1"/>
  <path d="M 315.5 549 L 315.5 609" fill="none" stroke="rgb(0,0,0)" stroke-width="1" stroke-dasharray="3,3"/>
  <path d="M 313 549 L 313 609 L 318 609 L 318 549 L 313 549" fill="rgb(95,183,224)" stroke="none"/>
  <path d="M 313 549 L 313 609 M 318 609 L 318 549 M 313 549" fill="none" stroke="rgb(0, 0, 0)" stroke-width="1"/>
  <path d="M 527 549 L 527 609" fill="none" stroke="rgb(0,0,0)" stroke-width="1" stroke-dasharray="3,3"/>
  <path d="M 524.5 549 L 524.5 609 L 529.5 609 L 529.5 549 L 524.5 549" fill="rgb(95,183,224)" stroke="none"/>
  <path d="M 524.5 549 L 524.5 609 M 529.5 609 L 529.5 549 M 524.5 549" fill="none" stroke="rgb(0, 0, 0)" stroke-width="1"/>
  <path d="M 93 609 L 93 693" fill="none" stroke="rgb(0,0,0)" stroke-width="1" stroke-dasharray="3,3"/>
  <path d="M 90.5 609 L 90.5 693 L 95.5 693 L 95.5 609 L 90.5 609" fill="rgb(95,183,224)" stroke="none"/>
  <path d="M 90.5 609 L 90.5 693 M 95.5 693 L 95.5 609 M 90.5 609" fill="none" stroke="rgb(0, 0, 0)" stroke-width="1"/>
  <path d="M 315.5 609 L 315.5 693" fill="none" stroke="rgb(0,0,0)" stroke-width="1" stroke-dasharray="3,3"/>
  <path d="M 313 609 L 313 693 L 318 693 L 318 609 L 313 609" fill="rgb(95,183,224)" stroke="none"/>
  <path d="M 313 609 L 313 693 M 318 693 L 318 609 M 313 609" fill="none" stroke="rgb(0, 0, 0)" stroke-width="1"/>
  <path d="M 527 609 L 527 693" fill="none" stroke="rgb(0,0,0)" stroke-width="1" stroke-dasharray="3,3"/>
  <path d="M 524.5 609 L 524.5 693 L 529.5 693 L 529.5 609 L 524.5 609" fill="rgb(95,183,224)" stroke="none"/>
  <path d="M 524.5 609 L 524.5 693 M 529.5 693 L 529.5 609 M 524.5 609" fill="none" stroke="rgb(0, 0, 0)" stroke-width="1"/>
  <text x="135.5" y="663" fill="rgb(0,0,0)" font-family="Liberation Mono, Courier New, Courier, monospace" font-size="14" xml:space="preserve" dominant-baseline="auto">4. Continue outer narrative [Mermaid: Caller-&gt;&gt;Service: Continue outer narrative]</text>
  <path d="M 95.5 673 L 313 673" fill="none" stroke="rgb(0, 0, 0)" stroke-width="1"/>
  <path d="M 303 668 L 303 678 L 313 673" fill="rgb(0, 0, 0)" stroke="none"/>
  <path d="M 93 693 L 93 717" fill="none" stroke="rgb(0,0,0)" stroke-width="1" stroke-dasharray="3,3"/>
  <path d="M 90.5 693 L 90.5 693 L 95.5 693 L 95.5 693 L 90.5 693" fill="rgb(95,183,224)" stroke="none"/>
  <path d="M 90.5 693 L 90.5 693 L 95.5 693 L 95.5 693 M 90.5 693" fill="none" stroke="rgb(0, 0, 0)" stroke-width="1"/>
  <path d="M 315.5 693 L 315.5 717" fill="none" stroke="rgb(0,0,0)" stroke-width="1" stroke-dasharray="3,3"/>
  <path d="M 313 693 L 313 693 L 318 693 L 318 693 L 313 693" fill="rgb(95,183,224)" stroke="none"/>
  <path d="M 313 693 L 313 693 L 318 693 L 318 693 M 313 693" fill="none" stroke="rgb(0, 0, 0)" stroke-width="1"/>
  <path d="M 527 693 L 527 717" fill="none" stroke="rgb(0,0,0)" stroke-width="1" stroke-dasharray="3,3"/>
  <path d="M 524.5 693 L 524.5 693 L 529.5 693 L 529.5 693 L 524.5 693" fill="rgb(95,183,224)" stroke="none"/>
  <path d="M 524.5 693 L 524.5 693 L 529.5 693 L 529.5 693 M 524.5 693" fill="none" stroke="rgb(0, 0, 0)" stroke-width="1"/>
</svg>