<?xml version="1.0"?>
<svg xmlns="http://www.w3.org/2000/svg" width="1222" height="881" viewBox="0 0 1222 881">
  <title>Mermaid parallel fragments</title>
  <desc>Demonstrates Mermaid par and and fragments mapped onto sequencer fragment branches.
From the project root, regenerate this Mermaid transform and SVG with:
node sequencer.js --mermaid -i test/mermaid-features/10-parallel/input.mmd -o -f -t test/mermaid-features/10-parallel</desc>
  <rect width="100%" height="100%" fill="white"/>
  <path d="M 0 0 L 0 871 L 1212 871 L 1212 0 L 0 0" fill="rgb(255, 255, 255)" stroke="none"/>
  <path d="M 90 30 L 90 57 L 308 57 L 308 30 L 90 30" fill="rgba(0,0,0,0)" stroke="none"/>
  <text x="95" y="49" fill="rgb(0,0,0)" font-family="Liberation Sans, Arial, Helvetica, sans-serif" font-size="14" xml:space="preserve" font-weight="bold" dominant-baseline="auto">Title:</text>
  <text x="128.44" y="49" fill="rgb(0,0,0)" font-family="Liberation Sans, Arial, Helvetica, sans-serif" font-size="14" xml:space="preserve" dominant-baseline="auto"> </text>
  <text x="132.33" y="49" fill="rgb(0,0,0)" font-family="Liberation Sans, Arial, Helvetica, sans-serif" font-size="14" xml:space="preserve" dominant-baseline="auto">Mermaid parallel fragments</text>
  <path d="M 90 57 L 90 84 L 180 84 L 180 57 L 90 57" fill="rgba(0,0,0,0)" stroke="none"/>
  <text x="95" y="76" fill="rgb(0,0,0)" font-family="Liberation Sans, Arial, Helvetica, sans-serif" font-size="14" xml:space="preserve" font-weight="bold" dominant-baseline="auto">Version:</text>
  <text x="151.01" y="76" fill="rgb(0,0,0)" font-family="Liberation Sans, Arial, Helvetica, sans-serif" font-size="14" xml:space="preserve" dominant-baseline="auto"> </text>
  <text x="154.9" y="76" fill="rgb(0,0,0)" font-family="Liberation Sans, Arial, Helvetica, sans-serif" font-size="14" xml:space="preserve" dominant-baseline="auto">1.0</text>
  <path d="M 90 84 L 90 145 L 909 145 L 909 84 L 90 84" fill="rgba(0,0,0,0)" stroke="none"/>
  <text x="95" y="103" fill="rgb(0,0,0)" font-family="Liberation Sans, Arial, Helvetica, sans-serif" font-size="14" xml:space="preserve" font-weight="bold" dominant-baseline="auto">Description:</text>
  <text x="176.68" y="103" fill="rgb(0,0,0)" font-family="Liberation Sans, Arial, Helvetica, sans-serif" font-size="14" xml:space="preserve" dominant-baseline="auto"> </text>
  <text x="180.57" y="103" fill="rgb(0,0,0)" font-family="Liberation Sans, Arial, Helvetica, sans-serif" font-size="14" xml:space="preserve" dominant-baseline="auto">Demonstrates Mermaid par and and fragments mapped onto sequencer fragment branches.</text>
  <text x="180.57" y="119.8" fill="rgb(0,0,0)" font-family="Liberation Sans, Arial, Helvetica, sans-serif" font-size="14" xml:space="preserve" dominant-baseline="auto">From the project root, regenerate this Mermaid transform and SVG with:</text>
  <text x="180.57" y="136.6" fill="rgb(0,0,0)" font-family="Liberation Sans, Arial, Helvetica, sans-serif" font-size="14" xml:space="preserve" dominant-baseline="auto">node sequencer.js --mermaid -i test/mermaid-features/10-parallel/input.mmd -o -f -t test/mermaid-features/10-parallel</text>
  <path d="M 93 183 L 93 211 L 93 211 A 5 5 0 0 0 98 216 L 154 216 L 154 216 A 5 5 0 0 0 159 211 L 159 183 L 159 183 A 5 5 0 0 0 154 178 L 98 178 L 98 178 A 5 5 0 0 0 93 183" fill="rgb(210,210,210)" stroke="none"/>
  <path d="M 90 180 L 90 208 L 90 208 A 5 5 0 0 0 95 213 L 151 213 L 151 213 A 5 5 0 0 0 156 208 L 156 180 L 156 180 A 5 5 0 0 0 151 175 L 95 175 L 95 175 A 5 5 0 0 0 90 180" fill="rgb(204,255,153)" stroke="none"/>
  <path d="M 90 180 L 90 208 L 90 208 A 5 5 0 0 0 95 213 L 151 213 L 151 213 A 5 5 0 0 0 156 208 L 156 180 L 156 180 A 5 5 0 0 0 151 175 L 95 175 L 95 175 A 5 5 0 0 0 90 180" fill="none" stroke="rgb(0, 0, 0)" stroke-width="1"/>
  <text x="99" y="202" fill="rgb(0,0,0)" font-family="Liberation Sans, Arial, Helvetica, sans-serif" font-size="18" xml:space="preserve" dominant-baseline="auto">Caller</text>
  <path d="M 359 183 L 359 211 L 359 211 A 5 5 0 0 0 364 216 L 433 216 L 433 216 A 5 5 0 0 0 438 211 L 438 183 L 438 183 A 5 5 0 0 0 433 178 L 364 178 L 364 178 A 5 5 0 0 0 359 183" fill="rgb(210,210,210)" stroke="none"/>
  <path d="M 356 180 L 356 208 L 356 208 A 5 5 0 0 0 361 213 L 430 213 L 430 213 A 5 5 0 0 0 435 208 L 435 180 L 435 180 A 5 5 0 0 0 430 175 L 361 175 L 361 175 A 5 5 0 0 0 356 180" fill="rgb(204,255,153)" stroke="none"/>
  <path d="M 356 180 L 356 208 L 356 208 A 5 5 0 0 0 361 213 L 430 213 L 430 213 A 5 5 0 0 0 435 208 L 435 180 L 435 180 A 5 5 0 0 0 430 175 L 361 175 L 361 175 A 5 5 0 0 0 356 180" fill="none" stroke="rgb(0, 0, 0)" stroke-width="1"/>
  <text x="365" y="202" fill="rgb(0,0,0)" font-family="Liberation Sans, Arial, Helvetica, sans-serif" font-size="18" xml:space="preserve" dominant-baseline="auto">Service</text>
  <path d="M 638 183 L 638 211 L 638 211 A 5 5 0 0 0 643 216 L 677 216 L 677 216 A 5 5 0 0 0 682 211 L 682 183 L 682 183 A 5 5 0 0 0 677 178 L 643 178 L 643 178 A 5 5 0 0 0 638 183" fill="rgb(210,210,210)" stroke="none"/>
  <path d="M 635 180 L 635 208 L 635 208 A 5 5 0 0 0 640 213 L 674 213 L 674 213 A 5 5 0 0 0 679 208 L 679 180 L 679 180 A 5 5 0 0 0 674 175 L 640 175 L 640 175 A 5 5 0 0 0 635 180" fill="rgb(204,255,153)" stroke="none"/>
  <path d="M 635 180 L 635 208 L 635 208 A 5 5 0 0 0 640 213 L 674 213 L 674 213 A 5 5 0 0 0 679 208 L 679 180 L 679 180 A 5 5 0 0 0 674 175 L 640 175 L 640 175 A 5 5 0 0 0 635 180" fill="none" stroke="rgb(0, 0, 0)" stroke-width="1"/>
  <text x="644" y="202" fill="rgb(0,0,0)" font-family="Liberation Sans, Arial, Helvetica, sans-serif" font-size="18" xml:space="preserve" dominant-baseline="auto">DB</text>
  <path d="M 882 183 L 882 211 L 882 211 A 5 5 0 0 0 887 216 L 937 216 L 937 216 A 5 5 0 0 0 942 211 L 942 183 L 942 183 A 5 5 0 0 0 937 178 L 887 178 L 887 178 A 5 5 0 0 0 882 183" fill="rgb(210,210,210)" stroke="none"/>
  <path d="M 879 180 L 879 208 L 879 208 A 5 5 0 0 0 884 213 L 934 213 L 934 213 A 5 5 0 0 0 939 208 L 939 180 L 939 180 A 5 5 0 0 0 934 175 L 884 175 L 884 175 A 5 5 0 0 0 879 180" fill="rgb(204,255,153)" stroke="none"/>
  <path d="M 879 180 L 879 208 L 879 208 A 5 5 0 0 0 884 213 L 934 213 L 934 213 A 5 5 0 0 0 939 208 L 939 180 L 939 180 A 5 5 0 0 0 934 175 L 884 175 L 884 175 A 5 5 0 0 0 879 180" fill="none" stroke="rgb(0, 0, 0)" stroke-width="1"/>
  <text x="888" y="202" fill="rgb(0,0,0)" font-family="Liberation Sans, Arial, Helvetica, sans-serif" font-size="18" xml:space="preserve" dominant-baseline="auto">Audit</text>
  <path d="M 123 213 L 123 303" fill="none" stroke="rgb(0,0,0)" stroke-width="1" stroke-dasharray="3,3"/>
  <path d="M 395.5 213 L 395.5 303" fill="none" stroke="rgb(0,0,0)" stroke-width="1" stroke-dasharray="3,3"/>
  <path d="M 657 213 L 657 303" fill="none" stroke="rgb(0,0,0)" stroke-width="1" stroke-dasharray="3,3"/>
  <path d="M 909 213 L 909 303" fill="none" stroke="rgb(0,0,0)" stroke-width="1" stroke-dasharray="3,3"/>
  <path d="M 30 243 L 30 303 L 1182 303 L 1182 243 L 30 243" fill="rgb(255, 255, 255)" stroke="none"/>
  <path d="M 123 213 L 123 303" fill="none" stroke="rgb(0,0,0)" stroke-width="1" stroke-dasharray="3,3"/>
  <path d="M 395.5 213 L 395.5 303" fill="none" stroke="rgb(0,0,0)" stroke-width="1" stroke-dasharray="3,3"/>
  <path d="M 657 213 L 657 303" fill="none" stroke="rgb(0,0,0)" stroke-width="1" stroke-dasharray="3,3"/>
  <path d="M 909 213 L 909 303" fill="none" stroke="rgb(0,0,0)" stroke-width="1" stroke-dasharray="3,3"/>
  <path d="M 30 243 L 30 303 L 1182 303 L 1182 243 L 30 243" fill="rgba(255,255,255,0)" stroke="none"/>
  <path d="M 30 243 L 30 303 M 1182 303 L 1182 243 L 30 243" fill="none" stroke="rgb(0, 0, 0)" stroke-width="1"/>
  <path d="M 30 243 L 30 277 L 75 277 L 85 267 L 85 243 L 30 243" fill="rgba(200,200,0,0.8)" stroke="none"/>
  <path d="M 30 243 L 30 277 L 75 277 L 85 267 L 85 243 L 30 243" fill="none" stroke="rgb(0, 0, 0)" stroke-width="1"/>
  <path d="M 33 246 L 33 274 L 72 274 L 82 264 L 82 246 L 33 246" fill="none" stroke="rgb(0, 0, 0)" stroke-width="1"/>
  <text x="40" y="267" fill="rgb(0,0,0)" font-family="Liberation Sans, Arial, Helvetica, sans-serif" font-size="14" xml:space="preserve" dominant-baseline="auto">par </text>
  <text x="35" y="294" fill="rgb(0,0,0)" font-family="Liberation Sans, Arial, Helvetica, sans-serif" font-size="12" xml:space="preserve" dominant-baseline="auto">Primary branch [Mermaid: par Primary branch]</text>
  <path d="M 123 303 M 123 387" fill="none" stroke="rgb(0,0,0)" stroke-width="1" stroke-dasharray="3,3"/>
  <path d="M 395.5 303 M 395.5 387" fill="none" stroke="rgb(0,0,0)" stroke-width="1" stroke-dasharray="3,3"/>
  <path d="M 657 303 M 657 387" fill="none" stroke="rgb(0,0,0)" stroke-width="1" stroke-dasharray="3,3"/>
  <path d="M 909 303 M 909 387" fill="none" stroke="rgb(0,0,0)" stroke-width="1" stroke-dasharray="3,3"/>
  <path d="M 30 303 L 30 387 L 1182 387 L 1182 303 L 30 303" fill="rgb(255, 255, 255)" stroke="none"/>
  <path d="M 123 303 L 123 387" fill="none" stroke="rgb(0,0,0)" stroke-width="1" stroke-dasharray="3,3"/>
  <path d="M 120.5 367 L 120.5 387 L 125.5 387 L 125.5 367 L 120.5 367" fill="rgb(204,255,153)" stroke="none"/>
  <path d="M 120.5 367 L 120.5 387 M 125.5 387 L 125.5 367 L 120.5 367" fill="none" stroke="rgb(0, 0, 0)" stroke-width="1"/>
  <path d="M 395.5 303 L 395.5 387" fill="none" stroke="rgb(0,0,0)" stroke-width="1" stroke-dasharray="3,3"/>
  <path d="M 393 367 L 393 387 L 398 387 L 398 367 L 393 367" fill="rgb(204,255,153)" stroke="none"/>
  <path d="M 393 367 L 393 387 M 398 387 L 398 367 L 393 367" fill="none" stroke="rgb(0, 0, 0)" stroke-width="1"/>
  <path d="M 657 303 L 657 387" fill="none" stroke="rgb(0,0,0)" stroke-width="1" stroke-dasharray="3,3"/>
  <path d="M 909 303 L 909 387" fill="none" stroke="rgb(0,0,0)" stroke-width="1" stroke-dasharray="3,3"/>
  <text x="165.5" y="357" fill="rgb(0,0,0)" font-family="Liberation Sans, Arial, Helvetica, sans-serif" font-size="14" xml:space="preserve" dominant-baseline="auto">1. Begin primary work [Mermaid: Caller-&gt;&gt;Service: Begin primary work]</text>
  <path d="M 125.5 367 L 393 367" fill="none" stroke="rgb(0, 0, 0)" stroke-width="1"/>
  <path d="M 383 362 L 383 372 L 393 367" fill="rgb(0, 0, 0)" stroke="none"/>
  <path d="M 30 303 L 30 387 L 1182 387 L 1182 303 L 30 303" fill="rgba(255,255,255,0)" stroke="none"/>
  <path d="M 30 303 L 30 387 M 1182 387 L 1182 303 M 30 303" fill="none" stroke="rgb(0, 0, 0)" stroke-width="1"/>
  <path d="M 123 387 M 123 441" fill="none" stroke="rgb(0,0,0)" stroke-width="1" stroke-dasharray="3,3"/>
  <path d="M 395.5 387 M 395.5 441" fill="none" stroke="rgb(0,0,0)" stroke-width="1" stroke-dasharray="3,3"/>
  <path d="M 657 387 M 657 441" fill="none" stroke="rgb(0,0,0)" stroke-width="1" stroke-dasharray="3,3"/>
  <path d="M 909 387 M 909 441" fill="none" stroke="rgb(0,0,0)" stroke-width="1" stroke-dasharray="3,3"/>
  <path d="M 30 387 L 30 441 L 1182 441 L 1182 387 L 30 387" fill="rgb(255, 255, 255)" stroke="none"/>
  <path d="M 123 387 L 123 441" fill="none" stroke="rgb(0,0,0)" stroke-width="1" stroke-dasharray="3,3"/>
  <path d="M 120.5 387 L 120.5 441 L 125.5 441 L 125.5 387 L 120.5 387" fill="rgb(204,255,153)" stroke="none"/>
  <path d="M 120.5 387 L 120.5 441 M 125.5 441 L 125.5 387 M 120.5 387" fill="none" stroke="rgb(0, 0, 0)" stroke-width="1"/>
  <path d="M 395.5 387 L 395.5 441" fill="none" stroke="rgb(0,0,0)" stroke-width="1" stroke-dasharray="3,3"/>
  <path d="M 393 387 L 393 441 L 398 441 L 398 387 L 393 387" fill="rgb(204,255,153)" stroke="none"/>
  <path d="M 393 387 L 393 441 M 398 441 L 398 387 M 393 387" fill="none" stroke="rgb(0, 0, 0)" stroke-width="1"/>
  <path d="M 657 387 L 657 441" fill="none" stroke="rgb(0,0,0)" stroke-width="1" stroke-dasharray="3,3"/>
  <path d="M 909 387 L 909 441" fill="none" stroke="rgb(0,0,0)" stroke-width="1" stroke-dasharray="3,3"/>
  <path d="M 30 417 L 1182 417" fill="none" stroke="rgb(0,0,0)" stroke-width="1" stroke-dasharray="4,3"/>
  <text x="35" y="435" fill="rgb(0,0,0)" font-family="Liberation Sans, Arial, Helvetica, sans-serif" font-size="12" xml:space="preserve" dominant-baseline="auto">Database branch [Mermaid: and Database branch]</text>
  <path d="M 30 387 L 30 441 L 1182 441 L 1182 387 L 30 387" fill="rgba(255,255,255,0)" stroke="none"/>
  <path d="M 30 387 L 30 441 M 1182 441 L 1182 387 M 30 387" fill="none" stroke="rgb(0, 0, 0)" stroke-width="1"/>
  <path d="M 123 440 M 123 524" fill="none" stroke="rgb(0,0,0)" stroke-width="1" stroke-dasharray="3,3"/>
  <path d="M 395.5 440 M 395.5 524" fill="none" stroke="rgb(0,0,0)" stroke-width="1" stroke-dasharray="3,3"/>
  <path d="M 657 440 M 657 524" fill="none" stroke="rgb(0,0,0)" stroke-width="1" stroke-dasharray="3,3"/>
  <path d="M 909 440 M 909 524" fill="none" stroke="rgb(0,0,0)" stroke-width="1" stroke-dasharray="3,3"/>
  <path d="M 30 440 L 30 524 L 1182 524 L 1182 440 L 30 440" fill="rgb(255, 255, 255)" stroke="none"/>
  <path d="M 123 440 L 123 524" fill="none" stroke="rgb(0,0,0)" stroke-width="1" stroke-dasharray="3,3"/>
  <path d="M 120.5 440 L 120.5 524 L 125.5 524 L 125.5 440 L 120.5 440" fill="rgb(204,255,153)" stroke="none"/>
  <path d="M 120.5 440 L 120.5 524 M 125.5 524 L 125.5 440 M 120.5 440" fill="none" stroke="rgb(0, 0, 0)" stroke-width="1"/>
  <path d="M 395.5 440 L 395.5 524" fill="none" stroke="rgb(0,0,0)" stroke-width="1" stroke-dasharray="3,3"/>
  <path d="M 393 440 L 393 524 L 398 524 L 398 440 L 393 440" fill="rgb(204,255,153)" stroke="none"/>
  <path d="M 393 440 L 393 524 M 398 524 L 398 440 M 393 440" fill="none" stroke="rgb(0, 0, 0)" stroke-width="1"/>
  <path d="M 657 440 L 657 524" fill="none" stroke="rgb(0,0,0)" stroke-width="1" stroke-dasharray="3,3"/>
  <path d="M 654.5 504 L 654.5 524 L 659.5 524 L 659.5 504 L 654.5 504" fill="rgb(204,255,153)" stroke="none"/>
  <path d="M 654.5 504 L 654.5 524 M 659.5 524 L 659.5 504 L 654.5 504" fill="none" stroke="rgb(0, 0, 0)" stroke-width="1"/>
  <path d="M 909 440 L 909 524" fill="none" stroke="rgb(0,0,0)" stroke-width="1" stroke-dasharray="3,3"/>
  <text x="438" y="494" fill="rgb(0,0,0)" font-family="Liberation Sans, Arial, Helvetica, sans-serif" font-size="14" xml:space="preserve" dominant-baseline="auto">2. Persist data [Mermaid: Service-&gt;&gt;DB: Persist data]</text>
  <path d="M 398 504 L 654.5 504" fill="none" stroke="rgb(0, 0, 0)" stroke-width="1"/>
  <path d="M 644.5 499 L 644.5 509 L 654.5 504" fill="rgb(0, 0, 0)" stroke="none"/>
  <path d="M 30 440 L 30 524 L 1182 524 L 1182 440 L 30 440" fill="rgba(255,255,255,0)" stroke="none"/>
  <path d="M 30 440 L 30 524 M 1182 524 L 1182 440 M 30 440" fill="none" stroke="rgb(0, 0, 0)" stroke-width="1"/>
  <path d="M 123 524 M 123 578" fill="none" stroke="rgb(0,0,0)" stroke-width="1" stroke-dasharray="3,3"/>
  <path d="M 395.5 524 M 395.5 578" fill="none" stroke="rgb(0,0,0)" stroke-width="1" stroke-dasharray="3,3"/>
  <path d="M 657 524 M 657 578" fill="none" stroke="rgb(0,0,0)" stroke-width="1" stroke-dasharray="3,3"/>
  <path d="M 909 524 M 909 578" fill="none" stroke="rgb(0,0,0)" stroke-width="1" stroke-dasharray="3,3"/>
  <path d="M 30 524 L 30 578 L 1182 578 L 1182 524 L 30 524" fill="rgb(255, 255, 255)" stroke="none"/>
  <path d="M 123 524 L 123 578" fill="none" stroke="rgb(0,0,0)" stroke-width="1" stroke-dasharray="3,3"/>
  <path d="M 120.5 524 L 120.5 578 L 125.5 578 L 125.5 524 L 120.5 524" fill="rgb(204,255,153)" stroke="none"/>
  <path d="M 120.5 524 L 120.5 578 M 125.5 578 L 125.5 524 M 120.5 524" fill="none" stroke="rgb(0, 0, 0)" stroke-width="1"/>
  <path d="M 395.5 524 L 395.5 578" fill="none" stroke="rgb(0,0,0)" stroke-width="1" stroke-dasharray="3,3"/>
  <path d="M 393 524 L 393 578 L 398 578 L 398 524 L 393 524" fill="rgb(204,255,153)" stroke="none"/>
  <path d="M 393 524 L 393 578 M 398 578 L 398 524 M 393 524" fill="none" stroke="rgb(0, 0, 0)" stroke-width="1"/>
  <path d="M 657 524 L 657 578" fill="none" stroke="rgb(0,0,0)" stroke-width="1" stroke-dasharray="3,3"/>
  <path d="M 654.5 524 L 654.5 578 L 659.5 578 L 659.5 524 L 654.5 524" fill="rgb(204,255,153)" stroke="none"/>
  <path d="M 654.5 524 L 654.5 578 M 659.5 578 L 659.5 524 M 654.5 524" fill="none" stroke="rgb(0, 0, 0)" stroke-width="1"/>
  <path d="M 909 524 L 909 578" fill="none" stroke="rgb(0,0,0)" stroke-width="1" stroke-dasharray="3,3"/>
  <path d="M 30 554 L 1182 554" fill="none" stroke="rgb(0,0,0)" stroke-width="1" stroke-dasharray="4,3"/>
  <text x="35" y="572" fill="rgb(0,0,0)" font-family="Liberation Sans, Arial, Helvetica, sans-serif" font-size="12" xml:space="preserve" dominant-baseline="auto">Audit branch [Mermaid: and Audit branch]</text>
  <path d="M 30 524 L 30 578 L 1182 578 L 1182 524 L 30 524" fill="rgba(255,255,255,0)" stroke="none"/>
  <path d="M 30 524 L 30 578 M 1182 578 L 1182 524 M 30 524" fill="none" stroke="rgb(0, 0, 0)" stroke-width="1"/>
  <path d="M 123 577 L 123 655" fill="none" stroke="rgb(0,0,0)" stroke-width="1" stroke-dasharray="3,3"/>
  <path d="M 120.5 577 L 120.5 655 L 125.5 655 L 125.5 577 L 120.5 577" fill="rgb(204,255,153)" stroke="none"/>
  <path d="M 120.5 577 L 120.5 655 M 125.5 655 L 125.5 577 M 120.5 577" fill="none" stroke="rgb(0, 0, 0)" stroke-width="1"/>
  <path d="M 395.5 577 L 395.5 655" fill="none" stroke="rgb(0,0,0)" stroke-width="1" stroke-dasharray="3,3"/>
  <path d="M 393 577 L 393 655 L 398 655 L 398 577 L 393 577" fill="rgb(204,255,153)" stroke="none"/>
  <path d="M 393 577 L 393 655 M 398 655 L 398 577 M 393 577" fill="none" stroke="rgb(0, 0, 0)" stroke-width="1"/>
  <path d="M 657 577 L 657 655" fill="none" stroke="rgb(0,0,0)" stroke-width="1" stroke-dasharray="3,3"/>
  <path d="M 654.5 577 L 654.5 655 L 659.5 655 L 659.5 577 L 654.5 577" fill="rgb(204,255,153)" stroke="none"/>
  <path d="M 654.5 577 L 654.5 655 M 659.5 655 L 659.5 577 M 654.5 577" fill="none" stroke="rgb(0, 0, 0)" stroke-width="1"/>
  <path d="M 909 577 L 909 655" fill="none" stroke="rgb(0,0,0)" stroke-width="1" stroke-dasharray="3,3"/>
  <path d="M 30 577 L 30 655 L 1182 655 L 1182 577 L 30 577" fill="rgb(255, 255, 255)" stroke="none"/>
  <path d="M 60 607 L 60 655 L 1152 655 L 1152 607 L 60 607" fill="rgb(255, 255, 255)" stroke="none"/>
  <path d="M 123 577 L 123 655" fill="none" stroke="rgb(0,0,0)" stroke-width="1" stroke-dasharray="3,3"/>
  <path d="M 120.5 577 L 120.5 655 L 125.5 655 L 125.5 577 L 120.5 577" fill="rgb(204,255,153)" stroke="none"/>
  <path d="M 120.5 577 L 120.5 655 M 125.5 655 L 125.5 577 M 120.5 577" fill="none" stroke="rgb(0, 0, 0)" stroke-width="1"/>
  <path d="M 395.5 577 L 395.5 655" fill="none" stroke="rgb(0,0,0)" stroke-width="1" stroke-dasharray="3,3"/>
  <path d="M 393 577 L 393 655 L 398 655 L 398 577 L 393 577" fill="rgb(204,255,153)" stroke="none"/>
  <path d="M 393 577 L 393 655 M 398 655 L 398 577 M 393 577" fill="none" stroke="rgb(0, 0, 0)" stroke-width="1"/>
  <path d="M 657 577 L 657 655" fill="none" stroke="rgb(0,0,0)" stroke-width="1" stroke-dasharray="3,3"/>
  <path d="M 654.5 577 L 654.5 655 L 659.5 655 L 659.5 577 L 654.5 577" fill="rgb(204,255,153)" stroke="none"/>
  <path d="M 654.5 577 L 654.5 655 M 659.5 655 L 659.5 577 M 654.5 577" fill="none" stroke="rgb(0, 0, 0)" stroke-width="1"/>
  <path d="M 909 577 L 909 655" fill="none" stroke="rgb(0,0,0)" stroke-width="1" stroke-dasharray="3,3"/>
  <path d="M 30 577 L 30 655 L 1182 655 L 1182 577 L 30 577" fill="rgba(255,255,255,0)" stroke="none"/>
  <path d="M 30 577 L 30 655 M 1182 655 L 1182 577 M 30 577" fill="none" stroke="rgb(0, 0, 0)" stroke-width="1"/>
  <path d="M 60 607 L 60 655 L 1152 655 L 1152 607 L 60 607" fill="rgba(255,255,255,0)" stroke="none"/>
  <path d="M 60 607 L 60 655 M 1152 655 L 1152 607 L 60 607" fill="none" stroke="rgb(0, 0, 0)" stroke-width="1"/>
  <path d="M 60 607 L 60 631 L 94 631 L 104 621 L 104 607 L 60 607" fill="rgba(200,200,0,0.8)" stroke="none"/>
  <path d="M 60 607 L 60 631 L 94 631 L 104 621 L 104 607 L 60 607" fill="none" stroke="rgb(0, 0, 0)" stroke-width="1"/>
  <text x="65" y="626" fill="rgb(0,0,0)" font-family="Liberation Sans, Arial, Helvetica, sans-serif" font-size="14" xml:space="preserve" dominant-baseline="auto">opt </text>
  <text x="65" y="648" fill="rgb(0,0,0)" font-family="Liberation Sans, Arial, Helvetica, sans-serif" font-size="12" xml:space="preserve" dominant-baseline="auto">Optional audit [Mermaid: opt Optional audit]</text>
  <path d="M 123 655 M 123 739" fill="none" stroke="rgb(0,0,0)" stroke-width="1" stroke-dasharray="3,3"/>
  <path d="M 395.5 655 M 395.5 739" fill="none" stroke="rgb(0,0,0)" stroke-width="1" stroke-dasharray="3,3"/>
  <path d="M 657 655 M 657 739" fill="none" stroke="rgb(0,0,0)" stroke-width="1" stroke-dasharray="3,3"/>
  <path d="M 909 655 M 909 739" fill="none" stroke="rgb(0,0,0)" stroke-width="1" stroke-dasharray="3,3"/>
  <path d="M 30 655 L 30 739 L 1182 739 L 1182 655 L 30 655" fill="rgb(255, 255, 255)" stroke="none"/>
  <path d="M 60 655 L 60 739 L 1152 739 L 1152 655 L 60 655" fill="rgb(255, 255, 255)" stroke="none"/>
  <path d="M 123 655 L 123 739" fill="none" stroke="rgb(0,0,0)" stroke-width="1" stroke-dasharray="3,3"/>
  <path d="M 120.5 655 L 120.5 739 L 125.5 739 L 125.5 655 L 120.5 655" fill="rgb(204,255,153)" stroke="none"/>
  <path d="M 120.5 655 L 120.5 739 M 125.5 739 L 125.5 655 M 120.5 655" fill="none" stroke="rgb(0, 0, 0)" stroke-width="1"/>
  <path d="M 395.5 655 L 395.5 739" fill="none" stroke="rgb(0,0,0)" stroke-width="1" stroke-dasharray="3,3"/>
  <path d="M 393 655 L 393 739 L 398 739 L 398 655 L 393 655" fill="rgb(204,255,153)" stroke="none"/>
  <path d="M 393 655 L 393 739 M 398 739 L 398 655 M 393 655" fill="none" stroke="rgb(0, 0, 0)" stroke-width="1"/>
  <path d="M 657 655 L 657 739" fill="none" stroke="rgb(0,0,0)" stroke-width="1" stroke-dasharray="3,3"/>
  <path d="M 654.5 655 L 654.5 739 L 659.5 739 L 659.5 655 L 654.5 655" fill="rgb(204,255,153)" stroke="none"/>
  <path d="M 654.5 655 L 654.5 739 M 659.5 739 L 659.5 655 M 654.5 655" fill="none" stroke="rgb(0, 0, 0)" stroke-width="1"/>
  <path d="M 909 655 L 909 739" fill="none" stroke="rgb(0,0,0)" stroke-width="1" stroke-dasharray="3,3"/>
  <path d="M 906.5 719 L 906.5 739 L 911.5 739 L 911.5 719 L 906.5 719" fill="rgb(204,255,153)" stroke="none"/>
  <path d="M 906.5 719 L 906.5 739 M 911.5 739 L 911.5 719 L 906.5 719" fill="none" stroke="rgb(0, 0, 0)" stroke-width="1"/>
  <text x="438" y="709" fill="rgb(0,0,0)" font-family="Liberation Sans, Arial, Helvetica, sans-serif" font-size="14" xml:space="preserve" dominant-baseline="auto">3. Emit audit event [Mermaid: Service-&gt;&gt;Audit: Emit audit event]</text>
  <path d="M 398 719 L 906.5 719" fill="none" stroke="rgb(0, 0, 0)" stroke-width="1"/>
  <path d="M 896.5 714 L 896.5 724 L 906.5 719" fill="rgb(0, 0, 0)" stroke="none"/>
  <path d="M 30 655 L 30 739 L 1182 739 L 1182 655 L 30 655" fill="rgba(255,255,255,0)" stroke="none"/>
  <path d="M 30 655 L 30 739 M 1182 739 L 1182 655 M 30 655" fill="none" stroke="rgb(0, 0, 0)" stroke-width="1"/>
  <path d="M 60 655 L 60 739 L 1152 739 L 1152 655 L 60 655" fill="rgba(255,255,255,0)" stroke="none"/>
  <path d="M 60 655 L 60 739 M 1152 739 L 1152 655 M 60 655" fill="none" stroke="rgb(0, 0, 0)" stroke-width="1"/>
  <path d="M 123 739 M 123 745" fill="none" stroke="rgb(0,0,0)" stroke-width="1" stroke-dasharray="3,3"/>
  <path d="M 395.5 739 M 395.5 745" fill="none" stroke="rgb(0,0,0)" stroke-width="1" stroke-dasharray="3,3"/>
  <path d="M 657 739 M 657 745" fill="none" stroke="rgb(0,0,0)" stroke-width="1" stroke-dasharray="3,3"/>
  <path d="M 909 739 M 909 745" fill="none" stroke="rgb(0,0,0)" stroke-width="1" stroke-dasharray="3,3"/>
  <path d="M 30 739 L 30 745 L 1182 745 L 1182 739 L 30 739" fill="rgb(255, 255, 255)" stroke="none"/>
  <path d="M 60 739 L 60 745 L 1152 745 L 1152 739 L 60 739" fill="rgb(255, 255, 255)" stroke="none"/>
  <path d="M 123 739 L 123 745" fill="none" stroke="rgb(0,0,0)" stroke-width="1" stroke-dasharray="3,3"/>
  <path d="M 120.5 739 L 120.5 745 L 125.5 745 L 125.5 739 L 120.5 739" fill="rgb(204,255,153)" stroke="none"/>
  <path d="M 120.5 739 L 120.5 745 M 125.5 745 L 125.5 739 M 120.5 739" fill="none" stroke="rgb(0, 0, 0)" stroke-width="1"/>
  <path d="M 395.5 739 L 395.5 745" fill="none" stroke="rgb(0,0,0)" stroke-width="1" stroke-dasharray="3,3"/>
  <path d="M 393 739 L 393 745 L 398 745 L 398 739 L 393 739" fill="rgb(204,255,153)" stroke="none"/>
  <path d="M 393 739 L 393 745 M 398 745 L 398 739 M 393 739" fill="none" stroke="rgb(0, 0, 0)" stroke-width="1"/>
  <path d="M 657 739 L 657 745" fill="none" stroke="rgb(0,0,0)" stroke-width="1" stroke-dasharray="3,3"/>
  <path d="M 654.5 739 L 654.5 745 L 659.5 745 L 659.5 739 L 654.5 739" fill="rgb(204,255,153)" stroke="none"/>
  <path d="M 654.5 739 L 654.5 745 M 659.5 745 L 659.5 739 M 654.5 739" fill="none" stroke="rgb(0, 0, 0)" stroke-width="1"/>
  <path d="M 909 739 L 909 745" fill="none" stroke="rgb(0,0,0)" stroke-width="1" stroke-dasharray="3,3"/>
  <path d="M 906.5 739 L 906.5 745 L 911.5 745 L 911.5 739 L 906.5 739" fill="rgb(204,255,153)" stroke="none"/>
  <path d="M 906.5 739 L 906.5 745 M 911.5 745 L 911.5 739 M 906.5 739" fill="none" stroke="rgb(0, 0, 0)" stroke-width="1"/>
  <path d="M 30 739 L 30 745 L 1182 745 L 1182 739 L 30 739" fill="rgba(255,255,255,0)" stroke="none"/>
  <path d="M 30 739 L 30 745 M 1182 745 L 1182 739 M 30 739" fill="none" stroke="rgb(0, 0, 0)" stroke-width="1"/>
  <path d="M 60 739 L 60 745 L 1152 745 L 1152 739 L 60 739" fill="rgba(255,255,255,0)" stroke="none"/>
  <path d="M 60 739 L 60 745 M 1152 745 L 1152 739 M 60 739" fill="none" stroke="rgb(0, 0, 0)" stroke-width="1"/>
  <path d="M 123 745 M 123 805" fill="none" stroke="rgb(0,0,0)" stroke-width="1" stroke-dasharray="3,3"/>
  <path d="M 395.5 745 M 395.5 805" fill="none" stroke="rgb(0,0,0)" stroke-width="1" stroke-dasharray="3,3"/>
  <path d="M 657 745 M 657 805" fill="none" stroke="rgb(0,0,0)" stroke-width="1" stroke-dasharray="3,3"/>
  <path d="M 909 745 M 909 805" fill="none" stroke="rgb(0,0,0)" stroke-width="1" stroke-dasharray="3,3"/>
  <path d="M 30 745 L 30 805 L 1182 805 L 1182 745 L 30 745" fill="rgb(255, 255, 255)" stroke="none"/>
  <path d="M 60 745 L 60 775 L 1152 775 L 1152 745 L 60 745" fill="rgb(255, 255, 255)" stroke="none"/>
  <path d="M 123 745 L 123 805" fill="none" stroke="rgb(0,0,0)" stroke-width="1" stroke-dasharray="3,3"/>
  <path d="M 120.5 745 L 120.5 805 L 125.5 805 L 125.5 745 L 120.5 745" fill="rgb(204,255,153)" stroke="none"/>
  <path d="M 120.5 745 L 120.5 805 M 125.5 805 L 125.5 745 M 120.5 745" fill="none" stroke="rgb(0, 0, 0)" stroke-width="1"/>
  <path d="M 395.5 745 L 395.5 805" fill="none" stroke="rgb(0,0,0)" stroke-width="1" stroke-dasharray="3,3"/>
  <path d="M 393 745 L 393 805 L 398 805 L 398 745 L 393 745" fill="rgb(204,255,153)" stroke="none"/>
  <path d="M 393 745 L 393 805 M 398 805 L 398 745 M 393 745" fill="none" stroke="rgb(0, 0, 0)" stroke-width="1"/>
  <path d="M 657 745 L 657 805" fill="none" stroke="rgb(0,0,0)" stroke-width="1" stroke-dasharray="3,3"/>
  <path d="M 654.5 745 L 654.5 805 L 659.5 805 L 659.5 745 L 654.5 745" fill="rgb(204,255,153)" stroke="none"/>
  <path d="M 654.5 745 L 654.5 805 M 659.5 805 L 659.5 745 M 654.5 745" fill="none" stroke="rgb(0, 0, 0)" stroke-width="1"/>
  <path d="M 909 745 L 909 805" fill="none" stroke="rgb(0,0,0)" stroke-width="1" stroke-dasharray="3,3"/>
  <path d="M 906.5 745 L 906.5 805 L 911.5 805 L 911.5 745 L 906.5 745" fill="rgb(204,255,153)" stroke="none"/>
  <path d="M 906.5 745 L 906.5 805 M 911.5 805 L 911.5 745 M 906.5 745" fill="none" stroke="rgb(0, 0, 0)" stroke-width="1"/>
  <path d="M 30 745 L 30 805 L 1182 805 L 1182 745 L 30 745" fill="rgba(255,255,255,0)" stroke="none"/>
  <path d="M 30 745 L 30 805 M 1182 805 L 1182 745 M 30 745" fill="none" stroke="rgb(0, 0, 0)" stroke-width="1"/>
  <path d="M 60 745 L 60 775 L 1152 775 L 1152 745 L 60 745" fill="rgba(255,255,255,0)" stroke="none"/>
  <path d="M 60 745 L 60 775 L 1152 775 L 1152 745 M 60 745" fill="none" stroke="rgb(0, 0, 0)" stroke-width="1"/>
  <path d="M 123 775 M 123 781" fill="none" stroke="rgb(0,0,0)" stroke-width="1" stroke-dasharray="3,3"/>
  <path d="M 395.5 775 M 395.5 781" fill="none" stroke="rgb(0,0,0)" stroke-width="1" stroke-dasharray="3,3"/>
  <path d="M 657 775 M 657 781" fill="none" stroke="rgb(0,0,0)" stroke-width="1" stroke-dasharray="3,3"/>
  <path d="M 909 775 M 909 781" fill="none" stroke="rgb(0,0,0)" stroke-width="1" stroke-dasharray="3,3"/>
  <path d="M 30 775 L 30 781 L 1182 781 L 1182 775 L 30 775" fill="rgb(255, 255, 255)" stroke="none"/>
  <path d="M 123 775 L 123 781" fill="none" stroke="rgb(0,0,0)" stroke-width="1" stroke-dasharray="3,3"/>
  <path d="M 120.5 775 L 120.5 781 L 125.5 781 L 125.5 775 L 120.5 775" fill="rgb(204,255,153)" stroke="none"/>
  <path d="M 120.5 775 L 120.5 781 M 125.5 781 L 125.5 775 M 120.5 775" fill="none" stroke="rgb(0, 0, 0)" stroke-width="1"/>
  <path d="M 395.5 775 L 395.5 781" fill="none" stroke="rgb(0,0,0)" stroke-width="1" stroke-dasharray="3,3"/>
  <path d="M 393 775 L 393 781 L 398 781 L 398 775 L 393 775" fill="rgb(204,255,153)" stroke="none"/>
  <path d="M 393 775 L 393 781 M 398 781 L 398 775 M 393 775" fill="none" stroke="rgb(0, 0, 0)" stroke-width="1"/>
  <path d="M 657 775 L 657 781" fill="none" stroke="rgb(0,0,0)" stroke-width="1" stroke-dasharray="3,3"/>
  <path d="M 654.5 775 L 654.5 781 L 659.5 781 L 659.5 775 L 654.5 775" fill="rgb(204,255,153)" stroke="none"/>
  <path d="M 654.5 775 L 654.5 781 M 659.5 781 L 659.5 775 M 654.5 775" fill="none" stroke="rgb(0, 0, 0)" stroke-width="1"/>
  <path d="M 909 775 L 909 781" fill="none" stroke="rgb(0,0,0)" stroke-width="1" stroke-dasharray="3,3"/>
  <path d="M 906.5 775 L 906.5 781 L 911.5 781 L 911.5 775 L 906.5 775" fill="rgb(204,255,153)" stroke="none"/>
  <path d="M 906.5 775 L 906.5 781 M 911.5 781 L 911.5 775 M 906.5 775" fill="none" stroke="rgb(0, 0, 0)" stroke-width="1"/>
  <path d="M 30 775 L 30 781 L 1182 781 L 1182 775 L 30 775" fill="rgba(255,255,255,0)" stroke="none"/>
  <path d="M 30 775 L 30 781 M 1182 781 L 1182 775 M 30 775" fill="none" stroke="rgb(0, 0, 0)" stroke-width="1"/>
  <path d="M 123 781 M 123 841" fill="none" stroke="rgb(0,0,0)" stroke-width="1" stroke-dasharray="3,3"/>
  <path d="M 395.5 781 M 395.5 841" fill="none" stroke="rgb(0,0,0)" stroke-width="1" stroke-dasharray="3,3"/>
  <path d="M 657 781 M 657 841" fill="none" stroke="rgb(0,0,0)" stroke-width="1" stroke-dasharray="3,3"/>
  <path d="M 909 781 M 909 841" fill="none" stroke="rgb(0,0,0)" stroke-width="1" stroke-dasharray="3,3"/>
  <path d="M 30 781 L 30 811 L 1182 811 L 1182 781 L 30 781" fill="rgb(255, 255, 255)" stroke="none"/>
  <path d="M 123 781 L 123 841" fill="none" stroke="rgb(0,0,0)" stroke-width="1" stroke-dasharray="3,3"/>
  <path d="M 120.5 781 L 120.5 841 L 125.5 841 L 125.5 781 L 120.5 781" fill="rgb(204,255,153)" stroke="none"/>
  <path d="M 120.5 781 L 120.5 841 M 125.5 841 L 125.5 781 M 120.5 781" fill="none" stroke="rgb(0, 0, 0)" stroke-width="1"/>
  <path d="M 395.5 781 L 395.5 841" fill="none" stroke="rgb(0,0,0)" stroke-width="1" stroke-dasharray="3,3"/>
  <path d="M 393 781 L 393 841 L 398 841 L 398 781 L 393 781" fill="rgb(204,255,153)" stroke="none"/>
  <path d="M 393 781 L 393 841 M 398 841 L 398 781 M 393 781" fill="none" stroke="rgb(0, 0, 0)" stroke-width="1"/>
  <path d="M 657 781 L 657 841" fill="none" stroke="rgb(0,0,0)" stroke-width="1" stroke-dasharray="3,3"/>
  <path d="M 654.5 781 L 654.5 841 L 659.5 841 L 659.5 781 L 654.5 781" fill="rgb(204,255,153)" stroke="none"/>
  <path d="M 654.5 781 L 654.5 841 M 659.5 841 L 659.5 781 M 654.5 781" fill="none" stroke="rgb(0, 0, 0)" stroke-width="1"/>
  <path d="M 909 781 L 909 841" fill="none" stroke="rgb(0,0,0)" stroke-width="1" stroke-dasharray="3,3"/>
  <path d="M 906.5 781 L 906.5 841 L 911.5 841 L 911.5 781 L 906.5 781" fill="rgb(204,255,153)" stroke="none"/>
  <path d="M 906.5 781 L 906.5 841 M 911.5 841 L 911.5 781 M 906.5 781" fill="none" stroke="rgb(0, 0, 0)" stroke-width="1"/>
  <path d="M 30 781 L 30 811 L 1182 811 L 1182 781 L 30 781" fill="rgba(255,255,255,0)" stroke="none"/>
  <path d="M 30 781 L 30 811 L 1182 811 L 1182 781 M 30 781" fill="none" stroke="rgb(0, 0, 0)" stroke-width="1"/>
  <path d="M 123 811 L 123 835" fill="none" stroke="rgb(0,0,0)" stroke-width="1" stroke-dasharray="3,3"/>
  <path d="M 120.5 811 L 120.5 811 L 125.5 811 L 125.5 811 L 120.5 811" fill="rgb(204,255,153)" stroke="none"/>
  <path d="M 120.5 811 L 120.5 811 L 125.5 811 L 125.5 811 M 120.5 811" fill="none" stroke="rgb(0, 0, 0)" stroke-width="1"/>
  <path d="M 395.5 811 L 395.5 835" fill="none" stroke="rgb(0,0,0)" stroke-width="1" stroke-dasharray="3,3"/>
  <path d="M 393 811 L 393 811 L 398 811 L 398 811 L 393 811" fill="rgb(204,255,153)" stroke="none"/>
  <path d="M 393 811 L 393 811 L 398 811 L 398 811 M 393 811" fill="none" stroke="rgb(0, 0, 0)" stroke-width="1"/>
  <path d="M 657 811 L 657 835" fill="none" stroke="rgb(0,0,0)" stroke-width="1" stroke-dasharray="3,3"/>
  <path d="M 654.5 811 L 654.5 811 L 659.5 811 L 659.5 811 L 654.5 811" fill="rgb(204,255,153)" stroke="none"/>
  <path d="M 654.5 811 L 654.5 811 L 659.5 811 L 659.5 811 M 654.5 811" fill="none" stroke="rgb(0, 0, 0)" stroke-width="1"/>
  <path d="M 909 811 L 909 835" fill="none" stroke="rgb(0,0,0)" stroke-width="1" stroke-dasharray="3,3"/>
  <path d="M 906.5 811 L 906.5 811 L 911.5 811 L 911.5 811 L 906.5 811" fill="rgb(204,255,153)" stroke="none"/>
  <path d="M 906.5 811 L 906.5 811 L 911.5 811 L 911.5 811 M 906.5 811" fill="none" stroke="rgb(0, 0, 0)" stroke-width="1"/>
</svg>