<?xml version="1.0"?>
<svg xmlns="http://www.w3.org/2000/svg" width="1025" height="507" viewBox="0 0 1025 507">
  <title>Mermaid completion review</title>
  <desc>Demonstrates Mermaid entity-code escapes and actor-name line breaks.
From the project root, regenerate this Mermaid transform and SVG with:
node sequencer.js --mermaid -i test/mermaid-features/24-completion-review/input.mmd -o -f -t test/mermaid-features/24-completion-review</desc>
  <rect width="100%" height="100%" fill="white"/>
  <path d="M 0 0 L 0 497 L 1015 497 L 1015 0 L 0 0" fill="rgb(255, 255, 255)" stroke="none" shape-rendering="crispEdges"/>
  <path d="M 30 30 L 30 57 L 249 57 L 249 30 L 30 30" fill="rgba(0,0,0,0)" stroke="none" shape-rendering="crispEdges"/>
  <text x="35" y="49" fill="rgb(0,0,0)" font-family="Liberation Sans, Arial, Helvetica, sans-serif" font-size="14" xml:space="preserve" font-weight="bold" dominant-baseline="auto">Title:</text>
  <text x="68.44" y="49" fill="rgb(0,0,0)" font-family="Liberation Sans, Arial, Helvetica, sans-serif" font-size="14" xml:space="preserve" dominant-baseline="auto"> </text>
  <text x="72.33" y="49" fill="rgb(0,0,0)" font-family="Liberation Sans, Arial, Helvetica, sans-serif" font-size="14" xml:space="preserve" dominant-baseline="auto">Mermaid completion review</text>
  <path d="M 30 57 L 30 84 L 120 84 L 120 57 L 30 57" fill="rgba(0,0,0,0)" stroke="none" shape-rendering="crispEdges"/>
  <text x="35" y="76" fill="rgb(0,0,0)" font-family="Liberation Sans, Arial, Helvetica, sans-serif" font-size="14" xml:space="preserve" font-weight="bold" dominant-baseline="auto">Version:</text>
  <text x="91.01" y="76" fill="rgb(0,0,0)" font-family="Liberation Sans, Arial, Helvetica, sans-serif" font-size="14" xml:space="preserve" dominant-baseline="auto"> </text>
  <text x="94.9" y="76" fill="rgb(0,0,0)" font-family="Liberation Sans, Arial, Helvetica, sans-serif" font-size="14" xml:space="preserve" dominant-baseline="auto">1.0</text>
  <path d="M 30 84 L 30 145 L 985 145 L 985 84 L 30 84" fill="rgba(0,0,0,0)" stroke="none" shape-rendering="crispEdges"/>
  <text x="35" y="103" fill="rgb(0,0,0)" font-family="Liberation Sans, Arial, Helvetica, sans-serif" font-size="14" xml:space="preserve" font-weight="bold" dominant-baseline="auto">Description:</text>
  <text x="116.68" y="103" fill="rgb(0,0,0)" font-family="Liberation Sans, Arial, Helvetica, sans-serif" font-size="14" xml:space="preserve" dominant-baseline="auto"> </text>
  <text x="120.57" y="103" fill="rgb(0,0,0)" font-family="Liberation Sans, Arial, Helvetica, sans-serif" font-size="14" xml:space="preserve" dominant-baseline="auto">Demonstrates Mermaid entity-code escapes and actor-name line breaks.</text>
  <text x="120.57" y="119.8" fill="rgb(0,0,0)" font-family="Liberation Sans, Arial, Helvetica, sans-serif" font-size="14" xml:space="preserve" dominant-baseline="auto">From the project root, regenerate this Mermaid transform and SVG with:</text>
  <text x="120.57" y="136.6" fill="rgb(0,0,0)" font-family="Liberation Sans, Arial, Helvetica, sans-serif" font-size="14" xml:space="preserve" dominant-baseline="auto">node sequencer.js --mermaid -i test/mermaid-features/24-completion-review/input.mmd -o -f -t test/mermaid-features/24-completion-review</text>
  <path d="M 33 183 L 33 231 L 33 231 A 5 5 0 0 0 38 236 L 118 236 L 118 236 A 5 5 0 0 0 123 231 L 123 183 L 123 183 A 5 5 0 0 0 118 178 L 38 178 L 38 178 A 5 5 0 0 0 33 183" fill="rgb(210,210,210)" stroke="none" shape-rendering="crispEdges"/>
  <path d="M 30 180 L 30 228 L 30 228 A 5 5 0 0 0 35 233 L 115 233 L 115 233 A 5 5 0 0 0 120 228 L 120 180 L 120 180 A 5 5 0 0 0 115 175 L 35 175 L 35 175 A 5 5 0 0 0 30 180" fill="rgb(95,183,224)" stroke="none" shape-rendering="crispEdges"/>
  <path d="M 30 180 L 30 228 L 30 228 A 5 5 0 0 0 35 233 L 115 233 L 115 233 A 5 5 0 0 0 120 228 L 120 180 L 120 180 A 5 5 0 0 0 115 175 L 35 175 L 35 175 A 5 5 0 0 0 30 180" fill="none" stroke="rgb(0, 0, 0)" stroke-width="1"/>
  <text x="60" y="202" fill="rgb(0,0,0)" font-family="Liberation Sans, Arial, Helvetica, sans-serif" font-size="18" xml:space="preserve" dominant-baseline="auto">API</text>
  <text x="39" y="221.8" fill="rgb(0,0,0)" font-family="Liberation Sans, Arial, Helvetica, sans-serif" font-size="18" xml:space="preserve" dominant-baseline="auto">Gateway</text>
  <path d="M 273 183 L 273 211 L 273 211 A 5 5 0 0 0 278 216 L 412 216 L 412 216 A 5 5 0 0 0 417 211 L 417 183 L 417 183 A 5 5 0 0 0 412 178 L 278 178 L 278 178 A 5 5 0 0 0 273 183" fill="rgb(210,210,210)" stroke="none" shape-rendering="crispEdges"/>
  <path d="M 270 180 L 270 208 L 270 208 A 5 5 0 0 0 275 213 L 409 213 L 409 213 A 5 5 0 0 0 414 208 L 414 180 L 414 180 A 5 5 0 0 0 409 175 L 275 175 L 275 175 A 5 5 0 0 0 270 180" fill="rgb(95,183,224)" stroke="none" shape-rendering="crispEdges"/>
  <path d="M 270 180 L 270 208 L 270 208 A 5 5 0 0 0 275 213 L 409 213 L 409 213 A 5 5 0 0 0 414 208 L 414 180 L 414 180 A 5 5 0 0 0 409 175 L 275 175 L 275 175 A 5 5 0 0 0 270 180" fill="none" stroke="rgb(0, 0, 0)" stroke-width="1"/>
  <text x="279" y="202" fill="rgb(0,0,0)" font-family="Liberation Sans, Arial, Helvetica, sans-serif" font-size="18" xml:space="preserve" dominant-baseline="auto">Primary # Store</text>
  <path d="M 93 266 M 334.75 266 M 342 273.25 M 342 295 M 93 295 M 93 266" fill="rgb(210,210,210)" stroke="none" shape-rendering="crispEdges"/>
  <path d="M 90 263 M 331.75 263 M 331.75 270.25 M 339 270.25 M 339 292 M 90 292 M 90 263" fill="rgb(0,253,144)" stroke="none" shape-rendering="crispEdges"/>
  <path d="M 90 263 M 331.75 263 M 331.75 270.25 M 339 270.25 M 331.75 263 M 339 270.25 M 339 292 M 90 292 M 90 263" fill="none" stroke="rgb(0, 0, 0)" stroke-width="1"/>
  <path d="M 87 266 M 328.75 266 M 336 273.25 M 336 295 M 87 295 M 87 266" fill="rgb(210,210,210)" stroke="none" shape-rendering="crispEdges"/>
  <path d="M 84 263 M 325.75 263 M 325.75 270.25 M 333 270.25 M 333 292 M 84 292 M 84 263" fill="rgb(0,253,144)" stroke="none" shape-rendering="crispEdges"/>
  <path d="M 84 263 M 325.75 263 M 325.75 270.25 M 333 270.25 M 325.75 263 M 333 270.25 M 333 292 M 84 292 M 84 263" fill="none" stroke="rgb(0, 0, 0)" stroke-width="1"/>
  <path d="M 75 233 L 75 293" fill="none" stroke="rgb(0,0,0)" stroke-width="1" stroke-dasharray="3,3"/>
  <path d="M 342 233 L 342 293" fill="none" stroke="rgb(0,0,0)" stroke-width="1" stroke-dasharray="3,3"/>
  <path d="M 87 266 L 328.75 266 L 336 273.25 L 336 295 L 87 295 L 87 266" fill="rgb(210,210,210)" stroke="none" shape-rendering="crispEdges"/>
  <path d="M 84 263 L 325.75 263 L 325.75 270.25 L 333 270.25 L 333 292 L 84 292 L 84 263" fill="rgb(0,253,144)" stroke="none" shape-rendering="crispEdges"/>
  <path d="M 84 263 L 325.75 263 L 325.75 270.25 L 333 270.25 M 325.75 263 L 333 270.25 L 333 292 L 84 292 L 84 263" fill="none" stroke="rgb(0, 0, 0)" stroke-width="1"/>
  <path d="M 84 263 M 84 292 M 333 292 M 333 263 M 84 263" fill="none" stroke="rgb(0, 0, 0)" stroke-width="1"/>
  <text x="91.5" y="284.5" fill="rgb(0, 0, 0)" font-family="Liberation Sans, Arial, Helvetica, sans-serif" font-size="14" xml:space="preserve" dominant-baseline="auto">Escaped # and ; plus &amp; name support</text>
  <path d="M 75 293 L 75 377" fill="none" stroke="rgb(0,0,0)" stroke-width="1" stroke-dasharray="3,3"/>
  <path d="M 72.5 357 L 72.5 377 L 77.5 377 L 77.5 357 L 72.5 357" fill="rgb(95,183,224)" stroke="none" shape-rendering="crispEdges"/>
  <path d="M 72.5 357 L 72.5 377 M 77.5 377 L 77.5 357 L 72.5 357" fill="none" stroke="rgb(0, 0, 0)" stroke-width="1"/>
  <path d="M 342 293 L 342 377" fill="none" stroke="rgb(0,0,0)" stroke-width="1" stroke-dasharray="3,3"/>
  <path d="M 339.5 357 L 339.5 377 L 344.5 377 L 344.5 357 L 339.5 357" fill="rgb(95,183,224)" stroke="none" shape-rendering="crispEdges"/>
  <path d="M 339.5 357 L 339.5 377 M 344.5 377 L 344.5 357 L 339.5 357" fill="none" stroke="rgb(0, 0, 0)" stroke-width="1"/>
  <text x="117.5" y="347" fill="rgb(0,0,0)" font-family="Liberation Mono, Courier New, Courier, monospace" font-size="14" xml:space="preserve" dominant-baseline="auto">1. Query #42; status &amp; health [Mermaid: API-&gt;&gt;DB: Query #42; status &amp; health]</text>
  <path d="M 77.5 357 L 339.5 357" fill="none" stroke="rgb(0, 0, 0)" stroke-width="1"/>
  <path d="M 329.5 352 L 329.5 362 L 339.5 357" fill="rgb(0, 0, 0)" stroke="none" shape-rendering="crispEdges"/>
  <path d="M 75 377 L 75 443" fill="none" stroke="rgb(0,0,0)" stroke-width="1" stroke-dasharray="3,3"/>
  <path d="M 72.5 377 L 72.5 443 L 77.5 443 L 77.5 377 L 72.5 377" fill="rgb(95,183,224)" stroke="none" shape-rendering="crispEdges"/>
  <path d="M 72.5 377 L 72.5 443 M 77.5 443 L 77.5 377 M 72.5 377" fill="none" stroke="rgb(0, 0, 0)" stroke-width="1"/>
  <path d="M 342 377 L 342 443" fill="none" stroke="rgb(0,0,0)" stroke-width="1" stroke-dasharray="3,3"/>
  <path d="M 339.5 377 L 339.5 441 L 344.5 441 L 344.5 377 L 339.5 377" fill="rgb(95,183,224)" stroke="none" shape-rendering="crispEdges"/>
  <path d="M 339.5 377 L 339.5 441 L 344.5 441 L 344.5 377 M 339.5 377" fill="none" stroke="rgb(0, 0, 0)" stroke-width="1"/>
  <text x="125" y="428.5" fill="rgb(0,0,0)" font-family="Liberation Mono, Courier New, Courier, monospace" font-size="14" xml:space="preserve" dominant-baseline="auto">2. OK </text>
  <text x="175.41" y="428.5" fill="rgb(0,0,0)" font-family="Liberation Mono, Courier New, Courier, monospace" font-size="14" xml:space="preserve" dominant-baseline="auto">&lt;done&gt;</text>
  <text x="225.82" y="428.5" fill="rgb(0,0,0)" font-family="Liberation Mono, Courier New, Courier, monospace" font-size="14" xml:space="preserve" dominant-baseline="auto"> [Mermaid: DB--&gt;&gt;API: OK </text>
  <text x="435.85" y="428.5" fill="rgb(0,0,0)" font-family="Liberation Mono, Courier New, Courier, monospace" font-size="14" xml:space="preserve" dominant-baseline="auto">&lt;done&gt;</text>
  <text x="486.26" y="428.5" fill="rgb(0,0,0)" font-family="Liberation Mono, Courier New, Courier, monospace" font-size="14" xml:space="preserve" dominant-baseline="auto">]</text>
  <path d="M 339.5 436 L 77.5 436" fill="none" stroke="rgb(0, 0, 0)" stroke-width="1" stroke-dasharray="4,2"/>
  <path d="M 77.5 436 L 87.5 431 L 87.5 441 L 77.5 436" fill="rgb(0, 0, 0)" stroke="none" shape-rendering="crispEdges"/>
  <path d="M 75 443 L 75 467" fill="none" stroke="rgb(0,0,0)" stroke-width="1" stroke-dasharray="3,3"/>
  <path d="M 72.5 443 L 77.5 443" fill="none" stroke="rgb(0, 0, 0)" stroke-width="1"/>
  <path d="M 342 443 L 342 467" fill="none" stroke="rgb(0,0,0)" stroke-width="1" stroke-dasharray="3,3"/>
</svg>