<?xml version="1.0"?>
<svg xmlns="http://www.w3.org/2000/svg" width="1100" height="1164" viewBox="0 0 1100 1164">
  <title>Mermaid fragments</title>
  <desc>Demonstrates Mermaid loop, alt, else, and opt fragment transforms.
From the project root, regenerate this Mermaid transform and SVG with:
node sequencer.js --mermaid -i test/mermaid-features/06-fragments/input.mmd -o -f -t test/mermaid-features/06-fragments</desc>
  <rect width="100%" height="100%" fill="white"/>
  <path d="M 0 0 L 0 1154 L 1090 1154 L 1090 0 L 0 0" fill="rgb(255, 255, 255)" stroke="none"/>
  <path d="M 145.75 30 L 145.75 57 L 314.75 57 L 314.75 30 L 145.75 30" fill="rgba(0,0,0,0)" stroke="none"/>
  <text x="150.75" y="49" fill="rgb(0,0,0)" font-family="Liberation Sans, Arial, Helvetica, sans-serif" font-size="14" xml:space="preserve" font-weight="bold" dominant-baseline="auto">Title:</text>
  <text x="184.19" y="49" fill="rgb(0,0,0)" font-family="Liberation Sans, Arial, Helvetica, sans-serif" font-size="14" xml:space="preserve" dominant-baseline="auto"> </text>
  <text x="188.08" y="49" fill="rgb(0,0,0)" font-family="Liberation Sans, Arial, Helvetica, sans-serif" font-size="14" xml:space="preserve" dominant-baseline="auto">Mermaid fragments</text>
  <path d="M 145.75 57 L 145.75 84 L 235.75 84 L 235.75 57 L 145.75 57" fill="rgba(0,0,0,0)" stroke="none"/>
  <text x="150.75" y="76" fill="rgb(0,0,0)" font-family="Liberation Sans, Arial, Helvetica, sans-serif" font-size="14" xml:space="preserve" font-weight="bold" dominant-baseline="auto">Version:</text>
  <text x="206.76" y="76" fill="rgb(0,0,0)" font-family="Liberation Sans, Arial, Helvetica, sans-serif" font-size="14" xml:space="preserve" dominant-baseline="auto"> </text>
  <text x="210.65" y="76" fill="rgb(0,0,0)" font-family="Liberation Sans, Arial, Helvetica, sans-serif" font-size="14" xml:space="preserve" dominant-baseline="auto">1.0</text>
  <path d="M 145.75 84 L 145.75 145 L 999.75 145 L 999.75 84 L 145.75 84" fill="rgba(0,0,0,0)" stroke="none"/>
  <text x="150.75" y="103" fill="rgb(0,0,0)" font-family="Liberation Sans, Arial, Helvetica, sans-serif" font-size="14" xml:space="preserve" font-weight="bold" dominant-baseline="auto">Description:</text>
  <text x="232.43" y="103" fill="rgb(0,0,0)" font-family="Liberation Sans, Arial, Helvetica, sans-serif" font-size="14" xml:space="preserve" dominant-baseline="auto"> </text>
  <text x="236.32" y="103" fill="rgb(0,0,0)" font-family="Liberation Sans, Arial, Helvetica, sans-serif" font-size="14" xml:space="preserve" dominant-baseline="auto">Demonstrates Mermaid loop, alt, else, and opt fragment transforms.</text>
  <text x="236.32" y="119.8" fill="rgb(0,0,0)" font-family="Liberation Sans, Arial, Helvetica, sans-serif" font-size="14" xml:space="preserve" dominant-baseline="auto">From the project root, regenerate this Mermaid transform and SVG with:</text>
  <text x="236.32" y="136.6" fill="rgb(0,0,0)" font-family="Liberation Sans, Arial, Helvetica, sans-serif" font-size="14" xml:space="preserve" dominant-baseline="auto">node sequencer.js --mermaid -i test/mermaid-features/06-fragments/input.mmd -o -f -t test/mermaid-features/06-fragments</text>
  <path d="M 148.75 183 L 148.75 211 L 148.75 211 A 5 5 0 0 0 153.75 216 L 209.75 216 L 209.75 216 A 5 5 0 0 0 214.75 211 L 214.75 183 L 214.75 183 A 5 5 0 0 0 209.75 178 L 153.75 178 L 153.75 178 A 5 5 0 0 0 148.75 183" fill="rgb(210,210,210)" stroke="none"/>
  <path d="M 145.75 180 L 145.75 208 L 145.75 208 A 5 5 0 0 0 150.75 213 L 206.75 213 L 206.75 213 A 5 5 0 0 0 211.75 208 L 211.75 180 L 211.75 180 A 5 5 0 0 0 206.75 175 L 150.75 175 L 150.75 175 A 5 5 0 0 0 145.75 180" fill="rgb(95,183,224)" stroke="none"/>
  <path d="M 145.75 180 L 145.75 208 L 145.75 208 A 5 5 0 0 0 150.75 213 L 206.75 213 L 206.75 213 A 5 5 0 0 0 211.75 208 L 211.75 180 L 211.75 180 A 5 5 0 0 0 206.75 175 L 150.75 175 L 150.75 175 A 5 5 0 0 0 145.75 180" fill="none" stroke="rgb(0, 0, 0)" stroke-width="1"/>
  <text x="154.75" y="202" fill="rgb(0,0,0)" font-family="Liberation Sans, Arial, Helvetica, sans-serif" font-size="18" xml:space="preserve" dominant-baseline="auto">Caller</text>
  <path d="M 364.75 183 L 364.75 211 L 364.75 211 A 5 5 0 0 0 369.75 216 L 438.75 216 L 438.75 216 A 5 5 0 0 0 443.75 211 L 443.75 183 L 443.75 183 A 5 5 0 0 0 438.75 178 L 369.75 178 L 369.75 178 A 5 5 0 0 0 364.75 183" fill="rgb(210,210,210)" stroke="none"/>
  <path d="M 361.75 180 L 361.75 208 L 361.75 208 A 5 5 0 0 0 366.75 213 L 435.75 213 L 435.75 213 A 5 5 0 0 0 440.75 208 L 440.75 180 L 440.75 180 A 5 5 0 0 0 435.75 175 L 366.75 175 L 366.75 175 A 5 5 0 0 0 361.75 180" fill="rgb(95,183,224)" stroke="none"/>
  <path d="M 361.75 180 L 361.75 208 L 361.75 208 A 5 5 0 0 0 366.75 213 L 435.75 213 L 435.75 213 A 5 5 0 0 0 440.75 208 L 440.75 180 L 440.75 180 A 5 5 0 0 0 435.75 175 L 366.75 175 L 366.75 175 A 5 5 0 0 0 361.75 180" fill="none" stroke="rgb(0, 0, 0)" stroke-width="1"/>
  <text x="370.75" y="202" fill="rgb(0,0,0)" font-family="Liberation Sans, Arial, Helvetica, sans-serif" font-size="18" xml:space="preserve" dominant-baseline="auto">Service</text>
  <path d="M 30 243 L 30 291 L 1060 291 L 1060 243 L 30 243" fill="rgb(184,184,184)" stroke="none"/>
  <path d="M 178.75 213 L 178.75 291" fill="none" stroke="rgb(0,0,0)" stroke-width="1" stroke-dasharray="3,3"/>
  <path d="M 401.25 213 L 401.25 291" fill="none" stroke="rgb(0,0,0)" stroke-width="1" stroke-dasharray="3,3"/>
  <path d="M 30 243 L 30 291 L 1060 291 L 1060 243 L 30 243" fill="rgba(255,255,255,0)" stroke="none"/>
  <path d="M 30 243 L 30 291 M 1060 291 L 1060 243 L 30 243" fill="none" stroke="rgb(0, 0, 0)" stroke-width="1"/>
  <path d="M 30 243 L 30 267 L 71 267 L 81 257 L 81 243 L 30 243" fill="rgba(200,200,0,0.8)" stroke="none"/>
  <path d="M 30 243 L 30 267 L 71 267 L 81 257 L 81 243 L 30 243" fill="none" stroke="rgb(0, 0, 0)" stroke-width="1"/>
  <text x="35" y="262" fill="rgb(0,0,0)" font-family="Liberation Sans, Arial, Helvetica, sans-serif" font-size="14" xml:space="preserve" dominant-baseline="auto">loop </text>
  <text x="35" y="284" fill="rgb(0,0,0)" font-family="Liberation Sans, Arial, Helvetica, sans-serif" font-size="12" xml:space="preserve" dominant-baseline="auto">Retry while pending [Mermaid: loop Retry while pending]</text>
  <path d="M 30 291 L 30 375 L 1060 375 L 1060 291 L 30 291" fill="rgb(184,184,184)" stroke="none"/>
  <path d="M 178.75 291 L 178.75 375" fill="none" stroke="rgb(0,0,0)" stroke-width="1" stroke-dasharray="3,3"/>
  <path d="M 176.25 355 L 176.25 375 L 181.25 375 L 181.25 355 L 176.25 355" fill="rgb(95,183,224)" stroke="none"/>
  <path d="M 176.25 355 L 176.25 375 M 181.25 375 L 181.25 355 L 176.25 355" fill="none" stroke="rgb(0, 0, 0)" stroke-width="1"/>
  <path d="M 401.25 291 L 401.25 375" fill="none" stroke="rgb(0,0,0)" stroke-width="1" stroke-dasharray="3,3"/>
  <path d="M 398.75 355 L 398.75 375 L 403.75 375 L 403.75 355 L 398.75 355" fill="rgb(95,183,224)" stroke="none"/>
  <path d="M 398.75 355 L 398.75 375 M 403.75 375 L 403.75 355 L 398.75 355" fill="none" stroke="rgb(0, 0, 0)" stroke-width="1"/>
  <text x="221.25" y="345" fill="rgb(0,0,0)" font-family="Liberation Mono, Courier New, Courier, monospace" font-size="14" xml:space="preserve" dominant-baseline="auto">1. Retry request [Mermaid: Caller-&gt;&gt;Service: Retry request]</text>
  <path d="M 181.25 355 L 398.75 355" fill="none" stroke="rgb(0, 0, 0)" stroke-width="1"/>
  <path d="M 388.75 350 L 388.75 360 L 398.75 355" fill="rgb(0, 0, 0)" stroke="none"/>
  <path d="M 30 291 L 30 375 L 1060 375 L 1060 291 L 30 291" fill="rgba(255,255,255,0)" stroke="none"/>
  <path d="M 30 291 L 30 375 M 1060 375 L 1060 291 M 30 291" fill="none" stroke="rgb(0, 0, 0)" stroke-width="1"/>
  <path d="M 30 375 L 30 381 L 1060 381 L 1060 375 L 30 375" fill="rgb(184,184,184)" stroke="none"/>
  <path d="M 178.75 375 L 178.75 381" fill="none" stroke="rgb(0,0,0)" stroke-width="1" stroke-dasharray="3,3"/>
  <path d="M 176.25 375 L 176.25 381 L 181.25 381 L 181.25 375 L 176.25 375" fill="rgb(95,183,224)" stroke="none"/>
  <path d="M 176.25 375 L 176.25 381 M 181.25 381 L 181.25 375 M 176.25 375" fill="none" stroke="rgb(0, 0, 0)" stroke-width="1"/>
  <path d="M 401.25 375 L 401.25 381" fill="none" stroke="rgb(0,0,0)" stroke-width="1" stroke-dasharray="3,3"/>
  <path d="M 398.75 375 L 398.75 381 L 403.75 381 L 403.75 375 L 398.75 375" fill="rgb(95,183,224)" stroke="none"/>
  <path d="M 398.75 375 L 398.75 381 M 403.75 381 L 403.75 375 M 398.75 375" fill="none" stroke="rgb(0, 0, 0)" stroke-width="1"/>
  <path d="M 30 375 L 30 381 L 1060 381 L 1060 375 L 30 375" fill="rgba(255,255,255,0)" stroke="none"/>
  <path d="M 30 375 L 30 381 M 1060 381 L 1060 375 M 30 375" fill="none" stroke="rgb(0, 0, 0)" stroke-width="1"/>
  <path d="M 30 381 L 30 411 L 1060 411 L 1060 381 L 30 381" fill="rgb(184,184,184)" stroke="none"/>
  <path d="M 30 381 L 30 411 L 1060 411 L 1060 381 L 30 381" fill="rgba(255,255,255,0)" stroke="none"/>
  <path d="M 30 381 L 30 411 L 1060 411 L 1060 381 M 30 381" fill="none" stroke="rgb(0, 0, 0)" stroke-width="1"/>
  <path d="M 178.75 381 L 178.75 441" fill="none" stroke="rgb(0,0,0)" stroke-width="1" stroke-dasharray="3,3"/>
  <path d="M 176.25 381 L 176.25 441 L 181.25 441 L 181.25 381 L 176.25 381" fill="rgb(95,183,224)" stroke="none"/>
  <path d="M 176.25 381 L 176.25 441 M 181.25 441 L 181.25 381 M 176.25 381" fill="none" stroke="rgb(0, 0, 0)" stroke-width="1"/>
  <path d="M 401.25 381 L 401.25 441" fill="none" stroke="rgb(0,0,0)" stroke-width="1" stroke-dasharray="3,3"/>
  <path d="M 398.75 381 L 398.75 441 L 403.75 441 L 403.75 381 L 398.75 381" fill="rgb(95,183,224)" stroke="none"/>
  <path d="M 398.75 381 L 398.75 441 M 403.75 441 L 403.75 381 M 398.75 381" fill="none" stroke="rgb(0, 0, 0)" stroke-width="1"/>
  <path d="M 30 471 L 30 519 L 1060 519 L 1060 471 L 30 471" fill="rgb(184,184,184)" stroke="none"/>
  <path d="M 178.75 441 L 178.75 519" fill="none" stroke="rgb(0,0,0)" stroke-width="1" stroke-dasharray="3,3"/>
  <path d="M 176.25 441 L 176.25 519 L 181.25 519 L 181.25 441 L 176.25 441" fill="rgb(95,183,224)" stroke="none"/>
  <path d="M 176.25 441 L 176.25 519 M 181.25 519 L 181.25 441 M 176.25 441" fill="none" stroke="rgb(0, 0, 0)" stroke-width="1"/>
  <path d="M 401.25 441 L 401.25 519" fill="none" stroke="rgb(0,0,0)" stroke-width="1" stroke-dasharray="3,3"/>
  <path d="M 398.75 441 L 398.75 519 L 403.75 519 L 403.75 441 L 398.75 441" fill="rgb(95,183,224)" stroke="none"/>
  <path d="M 398.75 441 L 398.75 519 M 403.75 519 L 403.75 441 M 398.75 441" fill="none" stroke="rgb(0, 0, 0)" stroke-width="1"/>
  <path d="M 30 471 L 30 519 L 1060 519 L 1060 471 L 30 471" fill="rgba(255,255,255,0)" stroke="none"/>
  <path d="M 30 471 L 30 519 M 1060 519 L 1060 471 L 30 471" fill="none" stroke="rgb(0, 0, 0)" stroke-width="1"/>
  <path d="M 30 471 L 30 495 L 59 495 L 69 485 L 69 471 L 30 471" fill="rgba(200,200,0,0.8)" stroke="none"/>
  <path d="M 30 471 L 30 495 L 59 495 L 69 485 L 69 471 L 30 471" fill="none" stroke="rgb(0, 0, 0)" stroke-width="1"/>
  <text x="35" y="490" fill="rgb(0,0,0)" font-family="Liberation Sans, Arial, Helvetica, sans-serif" font-size="14" xml:space="preserve" dominant-baseline="auto">alt </text>
  <text x="35" y="512" fill="rgb(0,0,0)" font-family="Liberation Sans, Arial, Helvetica, sans-serif" font-size="12" xml:space="preserve" dominant-baseline="auto">Success branch [Mermaid: alt Success branch]</text>
  <path d="M 30 519 L 30 603 L 1060 603 L 1060 519 L 30 519" fill="rgb(184,184,184)" stroke="none"/>
  <path d="M 178.75 519 L 178.75 603" fill="none" stroke="rgb(0,0,0)" stroke-width="1" stroke-dasharray="3,3"/>
  <path d="M 176.25 519 L 176.25 603 L 181.25 603 L 181.25 519 L 176.25 519" fill="rgb(95,183,224)" stroke="none"/>
  <path d="M 176.25 519 L 176.25 603 M 181.25 603 L 181.25 519 M 176.25 519" fill="none" stroke="rgb(0, 0, 0)" stroke-width="1"/>
  <path d="M 401.25 519 L 401.25 603" fill="none" stroke="rgb(0,0,0)" stroke-width="1" stroke-dasharray="3,3"/>
  <path d="M 398.75 519 L 398.75 603 L 403.75 603 L 403.75 519 L 398.75 519" fill="rgb(95,183,224)" stroke="none"/>
  <path d="M 398.75 519 L 398.75 603 M 403.75 603 L 403.75 519 M 398.75 519" fill="none" stroke="rgb(0, 0, 0)" stroke-width="1"/>
  <text x="221.25" y="573" fill="rgb(0,0,0)" font-family="Liberation Mono, Courier New, Courier, monospace" font-size="14" xml:space="preserve" dominant-baseline="auto">2. Success path [Mermaid: Caller-&gt;&gt;Service: Success path]</text>
  <path d="M 181.25 583 L 398.75 583" fill="none" stroke="rgb(0, 0, 0)" stroke-width="1"/>
  <path d="M 388.75 578 L 388.75 588 L 398.75 583" fill="rgb(0, 0, 0)" stroke="none"/>
  <path d="M 30 519 L 30 603 L 1060 603 L 1060 519 L 30 519" fill="rgba(255,255,255,0)" stroke="none"/>
  <path d="M 30 519 L 30 603 M 1060 603 L 1060 519 M 30 519" fill="none" stroke="rgb(0, 0, 0)" stroke-width="1"/>
  <path d="M 30 603 L 30 657 L 1060 657 L 1060 603 L 30 603" fill="rgb(184,184,184)" stroke="none"/>
  <path d="M 178.75 603 L 178.75 657" fill="none" stroke="rgb(0,0,0)" stroke-width="1" stroke-dasharray="3,3"/>
  <path d="M 176.25 603 L 176.25 657 L 181.25 657 L 181.25 603 L 176.25 603" fill="rgb(95,183,224)" stroke="none"/>
  <path d="M 176.25 603 L 176.25 657 M 181.25 657 L 181.25 603 M 176.25 603" fill="none" stroke="rgb(0, 0, 0)" stroke-width="1"/>
  <path d="M 401.25 603 L 401.25 657" fill="none" stroke="rgb(0,0,0)" stroke-width="1" stroke-dasharray="3,3"/>
  <path d="M 398.75 603 L 398.75 657 L 403.75 657 L 403.75 603 L 398.75 603" fill="rgb(95,183,224)" stroke="none"/>
  <path d="M 398.75 603 L 398.75 657 M 403.75 657 L 403.75 603 M 398.75 603" fill="none" stroke="rgb(0, 0, 0)" stroke-width="1"/>
  <path d="M 30 633 L 1060 633" fill="none" stroke="rgb(0,0,0)" stroke-width="1" stroke-dasharray="4,3"/>
  <text x="35" y="651" fill="rgb(0,0,0)" font-family="Liberation Sans, Arial, Helvetica, sans-serif" font-size="12" xml:space="preserve" dominant-baseline="auto">Failure branch [Mermaid: else Failure branch]</text>
  <path d="M 30 603 L 30 657 L 1060 657 L 1060 603 L 30 603" fill="rgba(255,255,255,0)" stroke="none"/>
  <path d="M 30 603 L 30 657 M 1060 657 L 1060 603 M 30 603" fill="none" stroke="rgb(0, 0, 0)" stroke-width="1"/>
  <path d="M 30 656 L 30 734 L 1060 734 L 1060 656 L 30 656" fill="rgb(184,184,184)" stroke="none"/>
  <path d="M 60 686 L 60 734 L 1030 734 L 1030 686 L 60 686" fill="rgb(255,182,196)" stroke="none"/>
  <path d="M 178.75 656 L 178.75 734" fill="none" stroke="rgb(0,0,0)" stroke-width="1" stroke-dasharray="3,3"/>
  <path d="M 176.25 656 L 176.25 734 L 181.25 734 L 181.25 656 L 176.25 656" fill="rgb(95,183,224)" stroke="none"/>
  <path d="M 176.25 656 L 176.25 734 M 181.25 734 L 181.25 656 M 176.25 656" fill="none" stroke="rgb(0, 0, 0)" stroke-width="1"/>
  <path d="M 401.25 656 L 401.25 734" fill="none" stroke="rgb(0,0,0)" stroke-width="1" stroke-dasharray="3,3"/>
  <path d="M 398.75 656 L 398.75 734 L 403.75 734 L 403.75 656 L 398.75 656" fill="rgb(95,183,224)" stroke="none"/>
  <path d="M 398.75 656 L 398.75 734 M 403.75 734 L 403.75 656 M 398.75 656" fill="none" stroke="rgb(0, 0, 0)" stroke-width="1"/>
  <path d="M 30 656 L 30 734 L 1060 734 L 1060 656 L 30 656" fill="rgba(255,255,255,0)" stroke="none"/>
  <path d="M 30 656 L 30 734 M 1060 734 L 1060 656 M 30 656" fill="none" stroke="rgb(0, 0, 0)" stroke-width="1"/>
  <path d="M 60 686 L 60 734 L 1030 734 L 1030 686 L 60 686" fill="rgba(255,255,255,0)" stroke="none"/>
  <path d="M 60 686 L 60 734 M 1030 734 L 1030 686 L 60 686" fill="none" stroke="rgb(0, 0, 0)" stroke-width="1"/>
  <path d="M 60 686 L 60 710 L 94 710 L 104 700 L 104 686 L 60 686" fill="rgba(200,200,0,0.8)" stroke="none"/>
  <path d="M 60 686 L 60 710 L 94 710 L 104 700 L 104 686 L 60 686" fill="none" stroke="rgb(0, 0, 0)" stroke-width="1"/>
  <text x="65" y="705" fill="rgb(0,0,0)" font-family="Liberation Sans, Arial, Helvetica, sans-serif" font-size="14" xml:space="preserve" dominant-baseline="auto">opt </text>
  <text x="65" y="727" fill="rgb(0,0,0)" font-family="Liberation Sans, Arial, Helvetica, sans-serif" font-size="12" xml:space="preserve" dominant-baseline="auto">Audit branch [Mermaid: opt Audit branch]</text>
  <path d="M 30 734 L 30 818 L 1060 818 L 1060 734 L 30 734" fill="rgb(184,184,184)" stroke="none"/>
  <path d="M 60 734 L 60 818 L 1030 818 L 1030 734 L 60 734" fill="rgb(255,182,196)" stroke="none"/>
  <path d="M 178.75 734 L 178.75 818" fill="none" stroke="rgb(0,0,0)" stroke-width="1" stroke-dasharray="3,3"/>
  <path d="M 176.25 734 L 176.25 818 L 181.25 818 L 181.25 734 L 176.25 734" fill="rgb(95,183,224)" stroke="none"/>
  <path d="M 176.25 734 L 176.25 818 M 181.25 818 L 181.25 734 M 176.25 734" fill="none" stroke="rgb(0, 0, 0)" stroke-width="1"/>
  <path d="M 401.25 734 L 401.25 818" fill="none" stroke="rgb(0,0,0)" stroke-width="1" stroke-dasharray="3,3"/>
  <path d="M 398.75 734 L 398.75 818 L 403.75 818 L 403.75 734 L 398.75 734" fill="rgb(95,183,224)" stroke="none"/>
  <path d="M 398.75 734 L 398.75 818 M 403.75 818 L 403.75 734 M 398.75 734" fill="none" stroke="rgb(0, 0, 0)" stroke-width="1"/>
  <text x="231.25" y="788" fill="rgb(0,0,0)" font-family="Liberation Mono, Courier New, Courier, monospace" font-size="14" xml:space="preserve" dominant-baseline="auto">3. Emit audit event [Mermaid: Service-&gt;&gt;Caller: Emit audit event]</text>
  <path d="M 398.75 798 L 181.25 798" fill="none" stroke="rgb(0, 0, 0)" stroke-width="1"/>
  <path d="M 191.25 793 L 191.25 803 L 181.25 798" fill="rgb(0, 0, 0)" stroke="none"/>
  <path d="M 30 734 L 30 818 L 1060 818 L 1060 734 L 30 734" fill="rgba(255,255,255,0)" stroke="none"/>
  <path d="M 30 734 L 30 818 M 1060 818 L 1060 734 M 30 734" fill="none" stroke="rgb(0, 0, 0)" stroke-width="1"/>
  <path d="M 60 734 L 60 818 L 1030 818 L 1030 734 L 60 734" fill="rgba(255,255,255,0)" stroke="none"/>
  <path d="M 60 734 L 60 818 M 1030 818 L 1030 734 M 60 734" fill="none" stroke="rgb(0, 0, 0)" stroke-width="1"/>
  <path d="M 30 818 L 30 824 L 1060 824 L 1060 818 L 30 818" fill="rgb(184,184,184)" stroke="none"/>
  <path d="M 60 818 L 60 824 L 1030 824 L 1030 818 L 60 818" fill="rgb(255,182,196)" stroke="none"/>
  <path d="M 178.75 818 L 178.75 824" fill="none" stroke="rgb(0,0,0)" stroke-width="1" stroke-dasharray="3,3"/>
  <path d="M 176.25 818 L 176.25 824 L 181.25 824 L 181.25 818 L 176.25 818" fill="rgb(95,183,224)" stroke="none"/>
  <path d="M 176.25 818 L 176.25 824 M 181.25 824 L 181.25 818 M 176.25 818" fill="none" stroke="rgb(0, 0, 0)" stroke-width="1"/>
  <path d="M 401.25 818 L 401.25 824" fill="none" stroke="rgb(0,0,0)" stroke-width="1" stroke-dasharray="3,3"/>
  <path d="M 398.75 818 L 398.75 824 L 403.75 824 L 403.75 818 L 398.75 818" fill="rgb(95,183,224)" stroke="none"/>
  <path d="M 398.75 818 L 398.75 824 M 403.75 824 L 403.75 818 M 398.75 818" fill="none" stroke="rgb(0, 0, 0)" stroke-width="1"/>
  <path d="M 30 818 L 30 824 L 1060 824 L 1060 818 L 30 818" fill="rgba(255,255,255,0)" stroke="none"/>
  <path d="M 30 818 L 30 824 M 1060 824 L 1060 818 M 30 818" fill="none" stroke="rgb(0, 0, 0)" stroke-width="1"/>
  <path d="M 60 818 L 60 824 L 1030 824 L 1030 818 L 60 818" fill="rgba(255,255,255,0)" stroke="none"/>
  <path d="M 60 818 L 60 824 M 1030 824 L 1030 818 M 60 818" fill="none" stroke="rgb(0, 0, 0)" stroke-width="1"/>
  <path d="M 30 824 L 30 884 L 1060 884 L 1060 824 L 30 824" fill="rgb(184,184,184)" stroke="none"/>
  <path d="M 60 824 L 60 854 L 1030 854 L 1030 824 L 60 824" fill="rgb(255,182,196)" stroke="none"/>
  <path d="M 30 824 L 30 884 L 1060 884 L 1060 824 L 30 824" fill="rgba(255,255,255,0)" stroke="none"/>
  <path d="M 30 824 L 30 884 M 1060 884 L 1060 824 M 30 824" fill="none" stroke="rgb(0, 0, 0)" stroke-width="1"/>
  <path d="M 60 824 L 60 854 L 1030 854 L 1030 824 L 60 824" fill="rgba(255,255,255,0)" stroke="none"/>
  <path d="M 60 824 L 60 854 L 1030 854 L 1030 824 M 60 824" fill="none" stroke="rgb(0, 0, 0)" stroke-width="1"/>
  <path d="M 178.75 824 L 178.75 884" fill="none" stroke="rgb(0,0,0)" stroke-width="1" stroke-dasharray="3,3"/>
  <path d="M 176.25 824 L 176.25 884 L 181.25 884 L 181.25 824 L 176.25 824" fill="rgb(95,183,224)" stroke="none"/>
  <path d="M 176.25 824 L 176.25 884 M 181.25 884 L 181.25 824 M 176.25 824" fill="none" stroke="rgb(0, 0, 0)" stroke-width="1"/>
  <path d="M 401.25 824 L 401.25 884" fill="none" stroke="rgb(0,0,0)" stroke-width="1" stroke-dasharray="3,3"/>
  <path d="M 398.75 824 L 398.75 884 L 403.75 884 L 403.75 824 L 398.75 824" fill="rgb(95,183,224)" stroke="none"/>
  <path d="M 398.75 824 L 398.75 884 M 403.75 884 L 403.75 824 M 398.75 824" fill="none" stroke="rgb(0, 0, 0)" stroke-width="1"/>
  <path d="M 123 917 M 605 917 M 613 925 M 613 949 M 123 949 M 123 917" fill="rgb(210,210,210)" stroke="none"/>
  <path d="M 120 914 M 602 914 M 602 922 M 610 922 M 610 946 M 120 946 M 120 914" fill="rgb(0,253,144)" stroke="none"/>
  <path d="M 120 914 M 602 914 M 602 922 M 610 922 M 602 914 M 610 922 M 610 946 M 120 946 M 120 914" fill="none" stroke="rgb(0, 0, 0)" stroke-width="1"/>
  <path d="M 48 917 M 530 917 M 538 925 M 538 949 M 48 949 M 48 917" fill="rgb(210,210,210)" stroke="none"/>
  <path d="M 45 914 M 527 914 M 527 922 M 535 922 M 535 946 M 45 946 M 45 914" fill="rgb(0,253,144)" stroke="none"/>
  <path d="M 45 914 M 527 914 M 527 922 M 535 922 M 527 914 M 535 922 M 535 946 M 45 946 M 45 914" fill="none" stroke="rgb(0, 0, 0)" stroke-width="1"/>
  <path d="M 30 884 L 30 950 L 1060 950 L 1060 884 L 30 884" fill="rgb(184,184,184)" stroke="none"/>
  <path d="M 178.75 884 L 178.75 950" fill="none" stroke="rgb(0,0,0)" stroke-width="1" stroke-dasharray="3,3"/>
  <path d="M 176.25 884 L 176.25 950 L 181.25 950 L 181.25 884 L 176.25 884" fill="rgb(95,183,224)" stroke="none"/>
  <path d="M 176.25 884 L 176.25 950 M 181.25 950 L 181.25 884 M 176.25 884" fill="none" stroke="rgb(0, 0, 0)" stroke-width="1"/>
  <path d="M 401.25 884 L 401.25 950" fill="none" stroke="rgb(0,0,0)" stroke-width="1" stroke-dasharray="3,3"/>
  <path d="M 398.75 884 L 398.75 950 L 403.75 950 L 403.75 884 L 398.75 884" fill="rgb(95,183,224)" stroke="none"/>
  <path d="M 398.75 884 L 398.75 950 M 403.75 950 L 403.75 884 M 398.75 884" fill="none" stroke="rgb(0, 0, 0)" stroke-width="1"/>
  <path d="M 48 917 L 530 917 L 538 925 L 538 949 L 48 949 L 48 917" fill="rgb(210,210,210)" stroke="none"/>
  <path d="M 45 914 L 527 914 L 527 922 L 535 922 L 535 946 L 45 946 L 45 914" fill="rgb(0,253,144)" stroke="none"/>
  <path d="M 45 914 L 527 914 L 527 922 L 535 922 M 527 914 L 535 922 L 535 946 L 45 946 L 45 914" fill="none" stroke="rgb(0, 0, 0)" stroke-width="1"/>
  <path d="M 45 914 M 45 946 M 535 946 M 535 914 M 45 914" fill="none" stroke="rgb(0, 0, 0)" stroke-width="1"/>
  <text x="52.5" y="935.5" fill="rgb(0, 0, 0)" font-family="Liberation Sans, Arial, Helvetica, sans-serif" font-size="14" xml:space="preserve" dominant-baseline="auto">Failure branch note [Mermaid: Note over Caller,Service: Failure branch note]</text>
  <path d="M 30 884 L 30 950 L 1060 950 L 1060 884 L 30 884" fill="rgba(255,255,255,0)" stroke="none"/>
  <path d="M 30 884 L 30 950 M 1060 950 L 1060 884 M 30 884" fill="none" stroke="rgb(0, 0, 0)" stroke-width="1"/>
  <path d="M 30 950 L 30 1034 L 1060 1034 L 1060 950 L 30 950" fill="rgb(184,184,184)" stroke="none"/>
  <path d="M 178.75 950 L 178.75 1034" fill="none" stroke="rgb(0,0,0)" stroke-width="1" stroke-dasharray="3,3"/>
  <path d="M 176.25 950 L 176.25 1034 L 181.25 1034 L 181.25 950 L 176.25 950" fill="rgb(95,183,224)" stroke="none"/>
  <path d="M 176.25 950 L 176.25 1034 M 181.25 1034 L 181.25 950 M 176.25 950" fill="none" stroke="rgb(0, 0, 0)" stroke-width="1"/>
  <path d="M 401.25 950 L 401.25 1034" fill="none" stroke="rgb(0,0,0)" stroke-width="1" stroke-dasharray="3,3"/>
  <path d="M 398.75 950 L 398.75 1034 L 403.75 1034 L 403.75 950 L 398.75 950" fill="rgb(95,183,224)" stroke="none"/>
  <path d="M 398.75 950 L 398.75 1034 M 403.75 1034 L 403.75 950 M 398.75 950" fill="none" stroke="rgb(0, 0, 0)" stroke-width="1"/>
  <text x="221.25" y="1004" fill="rgb(0,0,0)" font-family="Liberation Mono, Courier New, Courier, monospace" font-size="14" xml:space="preserve" dominant-baseline="auto">4. Failure path [Mermaid: Caller-&gt;&gt;Service: Failure path]</text>
  <path d="M 181.25 1014 L 398.75 1014" fill="none" stroke="rgb(0, 0, 0)" stroke-width="1"/>
  <path d="M 388.75 1009 L 388.75 1019 L 398.75 1014" fill="rgb(0, 0, 0)" stroke="none"/>
  <path d="M 30 950 L 30 1034 L 1060 1034 L 1060 950 L 30 950" fill="rgba(255,255,255,0)" stroke="none"/>
  <path d="M 30 950 L 30 1034 M 1060 1034 L 1060 950 M 30 950" fill="none" stroke="rgb(0, 0, 0)" stroke-width="1"/>
  <path d="M 30 1034 L 30 1040 L 1060 1040 L 1060 1034 L 30 1034" fill="rgb(184,184,184)" stroke="none"/>
  <path d="M 178.75 1034 L 178.75 1040" fill="none" stroke="rgb(0,0,0)" stroke-width="1" stroke-dasharray="3,3"/>
  <path d="M 176.25 1034 L 176.25 1040 L 181.25 1040 L 181.25 1034 L 176.25 1034" fill="rgb(95,183,224)" stroke="none"/>
  <path d="M 176.25 1034 L 176.25 1040 M 181.25 1040 L 181.25 1034 M 176.25 1034" fill="none" stroke="rgb(0, 0, 0)" stroke-width="1"/>
  <path d="M 401.25 1034 L 401.25 1040" fill="none" stroke="rgb(0,0,0)" stroke-width="1" stroke-dasharray="3,3"/>
  <path d="M 398.75 1034 L 398.75 1040 L 403.75 1040 L 403.75 1034 L 398.75 1034" fill="rgb(95,183,224)" stroke="none"/>
  <path d="M 398.75 1034 L 398.75 1040 M 403.75 1040 L 403.75 1034 M 398.75 1034" fill="none" stroke="rgb(0, 0, 0)" stroke-width="1"/>
  <path d="M 30 1034 L 30 1040 L 1060 1040 L 1060 1034 L 30 1034" fill="rgba(255,255,255,0)" stroke="none"/>
  <path d="M 30 1034 L 30 1040 M 1060 1040 L 1060 1034 M 30 1034" fill="none" stroke="rgb(0, 0, 0)" stroke-width="1"/>
  <path d="M 30 1040 L 30 1070 L 1060 1070 L 1060 1040 L 30 1040" fill="rgb(184,184,184)" stroke="none"/>
  <path d="M 30 1040 L 30 1070 L 1060 1070 L 1060 1040 L 30 1040" fill="rgba(255,255,255,0)" stroke="none"/>
  <path d="M 30 1040 L 30 1070 L 1060 1070 L 1060 1040 M 30 1040" fill="none" stroke="rgb(0, 0, 0)" stroke-width="1"/>
  <path d="M 178.75 1040 L 178.75 1100" fill="none" stroke="rgb(0,0,0)" stroke-width="1" stroke-dasharray="3,3"/>
  <path d="M 176.25 1040 L 176.25 1100 L 181.25 1100 L 181.25 1040 L 176.25 1040" fill="rgb(95,183,224)" stroke="none"/>
  <path d="M 176.25 1040 L 176.25 1100 M 181.25 1100 L 181.25 1040 M 176.25 1040" fill="none" stroke="rgb(0, 0, 0)" stroke-width="1"/>
  <path d="M 401.25 1040 L 401.25 1100" fill="none" stroke="rgb(0,0,0)" stroke-width="1" stroke-dasharray="3,3"/>
  <path d="M 398.75 1040 L 398.75 1100 L 403.75 1100 L 403.75 1040 L 398.75 1040" fill="rgb(95,183,224)" stroke="none"/>
  <path d="M 398.75 1040 L 398.75 1100 M 403.75 1100 L 403.75 1040 M 398.75 1040" fill="none" stroke="rgb(0, 0, 0)" stroke-width="1"/>
  <path d="M 178.75 1100 L 178.75 1124" fill="none" stroke="rgb(0,0,0)" stroke-width="1" stroke-dasharray="3,3"/>
  <path d="M 176.25 1100 L 176.25 1100 L 181.25 1100 L 181.25 1100 L 176.25 1100" fill="rgb(95,183,224)" stroke="none"/>
  <path d="M 176.25 1100 L 176.25 1100 L 181.25 1100 L 181.25 1100 M 176.25 1100" fill="none" stroke="rgb(0, 0, 0)" stroke-width="1"/>
  <path d="M 401.25 1100 L 401.25 1124" fill="none" stroke="rgb(0,0,0)" stroke-width="1" stroke-dasharray="3,3"/>
  <path d="M 398.75 1100 L 398.75 1100 L 403.75 1100 L 403.75 1100 L 398.75 1100" fill="rgb(95,183,224)" stroke="none"/>
  <path d="M 398.75 1100 L 398.75 1100 L 403.75 1100 L 403.75 1100 M 398.75 1100" fill="none" stroke="rgb(0, 0, 0)" stroke-width="1"/>
</svg>