<?xml version="1.0"?>
<svg xmlns="http://www.w3.org/2000/svg" width="1044" height="1164" viewBox="0 0 1044 1164">
  <title>Mermaid fragments</title>
  <desc>Demonstrates Mermaid loop, alt, else, and opt fragment transforms.
From the project root, regenerate this Mermaid transform and SVG with:
node sequencer.js --mermaid -i test/mermaid-features/06-fragments/input.mmd -o -f -t test/mermaid-features/06-fragments</desc>
  <rect width="100%" height="100%" fill="white"/>
  <path d="M 0 0 L 0 1154 L 1034 1154 L 1034 0 L 0 0" fill="rgb(255, 255, 255)" stroke="none"/>
  <path d="M 90 30 L 90 57 L 259 57 L 259 30 L 90 30" fill="rgba(0,0,0,0)" stroke="none"/>
  <text x="95" y="49" fill="rgb(0,0,0)" font-family="Liberation Sans, Arial, Helvetica, sans-serif" font-size="14" xml:space="preserve" font-weight="bold" dominant-baseline="auto">Title:</text>
  <text x="128.44" y="49" fill="rgb(0,0,0)" font-family="Liberation Sans, Arial, Helvetica, sans-serif" font-size="14" xml:space="preserve" dominant-baseline="auto"> </text>
  <text x="132.33" y="49" fill="rgb(0,0,0)" font-family="Liberation Sans, Arial, Helvetica, sans-serif" font-size="14" xml:space="preserve" dominant-baseline="auto">Mermaid fragments</text>
  <path d="M 90 57 L 90 84 L 180 84 L 180 57 L 90 57" fill="rgba(0,0,0,0)" stroke="none"/>
  <text x="95" y="76" fill="rgb(0,0,0)" font-family="Liberation Sans, Arial, Helvetica, sans-serif" font-size="14" xml:space="preserve" font-weight="bold" dominant-baseline="auto">Version:</text>
  <text x="151.01" y="76" fill="rgb(0,0,0)" font-family="Liberation Sans, Arial, Helvetica, sans-serif" font-size="14" xml:space="preserve" dominant-baseline="auto"> </text>
  <text x="154.9" y="76" fill="rgb(0,0,0)" font-family="Liberation Sans, Arial, Helvetica, sans-serif" font-size="14" xml:space="preserve" dominant-baseline="auto">1.0</text>
  <path d="M 90 84 L 90 145 L 944 145 L 944 84 L 90 84" fill="rgba(0,0,0,0)" stroke="none"/>
  <text x="95" y="103" fill="rgb(0,0,0)" font-family="Liberation Sans, Arial, Helvetica, sans-serif" font-size="14" xml:space="preserve" font-weight="bold" dominant-baseline="auto">Description:</text>
  <text x="176.68" y="103" fill="rgb(0,0,0)" font-family="Liberation Sans, Arial, Helvetica, sans-serif" font-size="14" xml:space="preserve" dominant-baseline="auto"> </text>
  <text x="180.57" y="103" fill="rgb(0,0,0)" font-family="Liberation Sans, Arial, Helvetica, sans-serif" font-size="14" xml:space="preserve" dominant-baseline="auto">Demonstrates Mermaid loop, alt, else, and opt fragment transforms.</text>
  <text x="180.57" y="119.8" fill="rgb(0,0,0)" font-family="Liberation Sans, Arial, Helvetica, sans-serif" font-size="14" xml:space="preserve" dominant-baseline="auto">From the project root, regenerate this Mermaid transform and SVG with:</text>
  <text x="180.57" y="136.6" fill="rgb(0,0,0)" font-family="Liberation Sans, Arial, Helvetica, sans-serif" font-size="14" xml:space="preserve" dominant-baseline="auto">node sequencer.js --mermaid -i test/mermaid-features/06-fragments/input.mmd -o -f -t test/mermaid-features/06-fragments</text>
  <path d="M 93 183 L 93 211 L 93 211 A 5 5 0 0 0 98 216 L 154 216 L 154 216 A 5 5 0 0 0 159 211 L 159 183 L 159 183 A 5 5 0 0 0 154 178 L 98 178 L 98 178 A 5 5 0 0 0 93 183" fill="rgb(210,210,210)" stroke="none"/>
  <path d="M 90 180 L 90 208 L 90 208 A 5 5 0 0 0 95 213 L 151 213 L 151 213 A 5 5 0 0 0 156 208 L 156 180 L 156 180 A 5 5 0 0 0 151 175 L 95 175 L 95 175 A 5 5 0 0 0 90 180" fill="rgb(204,255,153)" stroke="none"/>
  <path d="M 90 180 L 90 208 L 90 208 A 5 5 0 0 0 95 213 L 151 213 L 151 213 A 5 5 0 0 0 156 208 L 156 180 L 156 180 A 5 5 0 0 0 151 175 L 95 175 L 95 175 A 5 5 0 0 0 90 180" fill="none" stroke="rgb(0, 0, 0)" stroke-width="1"/>
  <text x="99" y="202" fill="rgb(0,0,0)" font-family="Liberation Sans, Arial, Helvetica, sans-serif" font-size="18" xml:space="preserve" dominant-baseline="auto">Caller</text>
  <path d="M 359 183 L 359 211 L 359 211 A 5 5 0 0 0 364 216 L 433 216 L 433 216 A 5 5 0 0 0 438 211 L 438 183 L 438 183 A 5 5 0 0 0 433 178 L 364 178 L 364 178 A 5 5 0 0 0 359 183" fill="rgb(210,210,210)" stroke="none"/>
  <path d="M 356 180 L 356 208 L 356 208 A 5 5 0 0 0 361 213 L 430 213 L 430 213 A 5 5 0 0 0 435 208 L 435 180 L 435 180 A 5 5 0 0 0 430 175 L 361 175 L 361 175 A 5 5 0 0 0 356 180" fill="rgb(204,255,153)" stroke="none"/>
  <path d="M 356 180 L 356 208 L 356 208 A 5 5 0 0 0 361 213 L 430 213 L 430 213 A 5 5 0 0 0 435 208 L 435 180 L 435 180 A 5 5 0 0 0 430 175 L 361 175 L 361 175 A 5 5 0 0 0 356 180" fill="none" stroke="rgb(0, 0, 0)" stroke-width="1"/>
  <text x="365" y="202" fill="rgb(0,0,0)" font-family="Liberation Sans, Arial, Helvetica, sans-serif" font-size="18" xml:space="preserve" dominant-baseline="auto">Service</text>
  <path d="M 123 213 L 123 291" fill="none" stroke="rgb(0,0,0)" stroke-width="1" stroke-dasharray="3,3"/>
  <path d="M 395.5 213 L 395.5 291" fill="none" stroke="rgb(0,0,0)" stroke-width="1" stroke-dasharray="3,3"/>
  <path d="M 30 243 L 30 291 L 1004 291 L 1004 243 L 30 243" fill="rgb(255, 255, 255)" stroke="none"/>
  <path d="M 30 243 L 30 291 M 1004 291 L 1004 243 L 30 243" fill="none" stroke="rgb(0, 0, 0)" stroke-width="1"/>
  <path d="M 123 213 L 123 291" fill="none" stroke="rgb(0,0,0)" stroke-width="1" stroke-dasharray="3,3"/>
  <path d="M 395.5 213 L 395.5 291" fill="none" stroke="rgb(0,0,0)" stroke-width="1" stroke-dasharray="3,3"/>
  <path d="M 30 243 L 30 267 L 71 267 L 81 257 L 81 243 L 30 243" fill="rgba(200,200,0,0.8)" stroke="none"/>
  <path d="M 30 243 L 30 267 L 71 267 L 81 257 L 81 243 L 30 243" fill="none" stroke="rgb(0, 0, 0)" stroke-width="1"/>
  <text x="35" y="262" fill="rgb(0,0,0)" font-family="Liberation Sans, Arial, Helvetica, sans-serif" font-size="14" xml:space="preserve" dominant-baseline="auto">loop </text>
  <text x="35" y="284" fill="rgb(0,0,0)" font-family="Liberation Sans, Arial, Helvetica, sans-serif" font-size="12" xml:space="preserve" dominant-baseline="auto">Retry while pending [Mermaid: loop Retry while pending]</text>
  <path d="M 123 291 M 123 375" fill="none" stroke="rgb(0,0,0)" stroke-width="1" stroke-dasharray="3,3"/>
  <path d="M 395.5 291 M 395.5 375" fill="none" stroke="rgb(0,0,0)" stroke-width="1" stroke-dasharray="3,3"/>
  <path d="M 30 291 L 30 375 L 1004 375 L 1004 291 L 30 291" fill="rgb(255, 255, 255)" stroke="none"/>
  <path d="M 30 291 L 30 375 M 1004 375 L 1004 291 M 30 291" fill="none" stroke="rgb(0, 0, 0)" stroke-width="1"/>
  <path d="M 123 291 L 123 375" fill="none" stroke="rgb(0,0,0)" stroke-width="1" stroke-dasharray="3,3"/>
  <path d="M 120.5 355 L 120.5 365 L 125.5 365 L 125.5 355 L 120.5 355" fill="rgb(204,255,153)" stroke="none"/>
  <path d="M 120.5 355 L 120.5 365 L 125.5 365 L 125.5 355 L 120.5 355" fill="none" stroke="rgb(0, 0, 0)" stroke-width="1"/>
  <path d="M 395.5 291 L 395.5 375" fill="none" stroke="rgb(0,0,0)" stroke-width="1" stroke-dasharray="3,3"/>
  <path d="M 393 355 L 393 365 L 398 365 L 398 355 L 393 355" fill="rgb(204,255,153)" stroke="none"/>
  <path d="M 393 355 L 393 365 L 398 365 L 398 355 L 393 355" fill="none" stroke="rgb(0, 0, 0)" stroke-width="1"/>
  <text x="165.5" y="345" fill="rgb(0,0,0)" font-family="Liberation Sans, Arial, Helvetica, sans-serif" font-size="14" xml:space="preserve" dominant-baseline="auto">1. Retry request [Mermaid: Caller-&gt;&gt;Service: Retry request]</text>
  <path d="M 125.5 355 L 393 355" fill="none" stroke="rgb(0, 0, 0)" stroke-width="1"/>
  <path d="M 393 355 L 383 350 L 383 360 L 393 355" fill="rgb(0, 0, 0)" stroke="none"/>
  <path d="M 123 375 M 123 381" fill="none" stroke="rgb(0,0,0)" stroke-width="1" stroke-dasharray="3,3"/>
  <path d="M 395.5 375 M 395.5 381" fill="none" stroke="rgb(0,0,0)" stroke-width="1" stroke-dasharray="3,3"/>
  <path d="M 30 375 L 30 381 L 1004 381 L 1004 375 L 30 375" fill="rgb(255, 255, 255)" stroke="none"/>
  <path d="M 30 375 L 30 381 M 1004 381 L 1004 375 M 30 375" fill="none" stroke="rgb(0, 0, 0)" stroke-width="1"/>
  <path d="M 123 375 L 123 381" fill="none" stroke="rgb(0,0,0)" stroke-width="1" stroke-dasharray="3,3"/>
  <path d="M 395.5 375 L 395.5 381" fill="none" stroke="rgb(0,0,0)" stroke-width="1" stroke-dasharray="3,3"/>
  <path d="M 123 381 M 123 441" fill="none" stroke="rgb(0,0,0)" stroke-width="1" stroke-dasharray="3,3"/>
  <path d="M 395.5 381 M 395.5 441" fill="none" stroke="rgb(0,0,0)" stroke-width="1" stroke-dasharray="3,3"/>
  <path d="M 30 381 L 30 411 L 1004 411 L 1004 381 L 30 381" fill="rgb(255, 255, 255)" stroke="none"/>
  <path d="M 30 381 L 30 411 L 1004 411 L 1004 381 M 30 381" fill="none" stroke="rgb(0, 0, 0)" stroke-width="1"/>
  <path d="M 123 381 L 123 441" fill="none" stroke="rgb(0,0,0)" stroke-width="1" stroke-dasharray="3,3"/>
  <path d="M 395.5 381 L 395.5 441" fill="none" stroke="rgb(0,0,0)" stroke-width="1" stroke-dasharray="3,3"/>
  <path d="M 123 441 L 123 519" fill="none" stroke="rgb(0,0,0)" stroke-width="1" stroke-dasharray="3,3"/>
  <path d="M 395.5 441 L 395.5 519" fill="none" stroke="rgb(0,0,0)" stroke-width="1" stroke-dasharray="3,3"/>
  <path d="M 30 471 L 30 519 L 1004 519 L 1004 471 L 30 471" fill="rgb(255, 255, 255)" stroke="none"/>
  <path d="M 30 471 L 30 519 M 1004 519 L 1004 471 L 30 471" fill="none" stroke="rgb(0, 0, 0)" stroke-width="1"/>
  <path d="M 123 441 L 123 519" fill="none" stroke="rgb(0,0,0)" stroke-width="1" stroke-dasharray="3,3"/>
  <path d="M 395.5 441 L 395.5 519" fill="none" stroke="rgb(0,0,0)" stroke-width="1" stroke-dasharray="3,3"/>
  <path d="M 30 471 L 30 495 L 59 495 L 69 485 L 69 471 L 30 471" fill="rgba(200,200,0,0.8)" stroke="none"/>
  <path d="M 30 471 L 30 495 L 59 495 L 69 485 L 69 471 L 30 471" fill="none" stroke="rgb(0, 0, 0)" stroke-width="1"/>
  <text x="35" y="490" fill="rgb(0,0,0)" font-family="Liberation Sans, Arial, Helvetica, sans-serif" font-size="14" xml:space="preserve" dominant-baseline="auto">alt </text>
  <text x="35" y="512" fill="rgb(0,0,0)" font-family="Liberation Sans, Arial, Helvetica, sans-serif" font-size="12" xml:space="preserve" dominant-baseline="auto">Success branch [Mermaid: alt Success branch]</text>
  <path d="M 123 519 M 123 603" fill="none" stroke="rgb(0,0,0)" stroke-width="1" stroke-dasharray="3,3"/>
  <path d="M 395.5 519 M 395.5 603" fill="none" stroke="rgb(0,0,0)" stroke-width="1" stroke-dasharray="3,3"/>
  <path d="M 30 519 L 30 603 L 1004 603 L 1004 519 L 30 519" fill="rgb(255, 255, 255)" stroke="none"/>
  <path d="M 30 519 L 30 603 M 1004 603 L 1004 519 M 30 519" fill="none" stroke="rgb(0, 0, 0)" stroke-width="1"/>
  <path d="M 123 519 L 123 603" fill="none" stroke="rgb(0,0,0)" stroke-width="1" stroke-dasharray="3,3"/>
  <path d="M 120.5 583 L 120.5 593 L 125.5 593 L 125.5 583 L 120.5 583" fill="rgb(204,255,153)" stroke="none"/>
  <path d="M 120.5 583 L 120.5 593 L 125.5 593 L 125.5 583 L 120.5 583" fill="none" stroke="rgb(0, 0, 0)" stroke-width="1"/>
  <path d="M 395.5 519 L 395.5 603" fill="none" stroke="rgb(0,0,0)" stroke-width="1" stroke-dasharray="3,3"/>
  <path d="M 393 583 L 393 593 L 398 593 L 398 583 L 393 583" fill="rgb(204,255,153)" stroke="none"/>
  <path d="M 393 583 L 393 593 L 398 593 L 398 583 L 393 583" fill="none" stroke="rgb(0, 0, 0)" stroke-width="1"/>
  <text x="165.5" y="573" fill="rgb(0,0,0)" font-family="Liberation Sans, Arial, Helvetica, sans-serif" font-size="14" xml:space="preserve" dominant-baseline="auto">2. Success path [Mermaid: Caller-&gt;&gt;Service: Success path]</text>
  <path d="M 125.5 583 L 393 583" fill="none" stroke="rgb(0, 0, 0)" stroke-width="1"/>
  <path d="M 393 583 L 383 578 L 383 588 L 393 583" fill="rgb(0, 0, 0)" stroke="none"/>
  <path d="M 123 603 M 123 657" fill="none" stroke="rgb(0,0,0)" stroke-width="1" stroke-dasharray="3,3"/>
  <path d="M 395.5 603 M 395.5 657" fill="none" stroke="rgb(0,0,0)" stroke-width="1" stroke-dasharray="3,3"/>
  <path d="M 30 603 L 30 657 L 1004 657 L 1004 603 L 30 603" fill="rgb(255, 255, 255)" stroke="none"/>
  <path d="M 30 603 L 30 657 M 1004 657 L 1004 603 M 30 603" fill="none" stroke="rgb(0, 0, 0)" stroke-width="1"/>
  <path d="M 123 603 L 123 657" fill="none" stroke="rgb(0,0,0)" stroke-width="1" stroke-dasharray="3,3"/>
  <path d="M 395.5 603 L 395.5 657" fill="none" stroke="rgb(0,0,0)" stroke-width="1" stroke-dasharray="3,3"/>
  <path d="M 30 633 L 1004 633" fill="none" stroke="rgb(0,0,0)" stroke-width="1" stroke-dasharray="4,3"/>
  <text x="35" y="651" fill="rgb(0,0,0)" font-family="Liberation Sans, Arial, Helvetica, sans-serif" font-size="12" xml:space="preserve" dominant-baseline="auto">Failure branch [Mermaid: else Failure branch]</text>
  <path d="M 123 656 L 123 734" fill="none" stroke="rgb(0,0,0)" stroke-width="1" stroke-dasharray="3,3"/>
  <path d="M 395.5 656 L 395.5 734" fill="none" stroke="rgb(0,0,0)" stroke-width="1" stroke-dasharray="3,3"/>
  <path d="M 30 656 L 30 734 L 1004 734 L 1004 656 L 30 656" fill="rgb(255, 255, 255)" stroke="none"/>
  <path d="M 30 656 L 30 734 M 1004 734 L 1004 656 M 30 656" fill="none" stroke="rgb(0, 0, 0)" stroke-width="1"/>
  <path d="M 60 686 L 60 734 L 974 734 L 974 686 L 60 686" fill="rgb(255, 255, 255)" stroke="none"/>
  <path d="M 60 686 L 60 734 M 974 734 L 974 686 L 60 686" fill="none" stroke="rgb(0, 0, 0)" stroke-width="1"/>
  <path d="M 123 656 L 123 734" fill="none" stroke="rgb(0,0,0)" stroke-width="1" stroke-dasharray="3,3"/>
  <path d="M 395.5 656 L 395.5 734" fill="none" stroke="rgb(0,0,0)" stroke-width="1" stroke-dasharray="3,3"/>
  <path d="M 60 686 L 60 710 L 94 710 L 104 700 L 104 686 L 60 686" fill="rgba(200,200,0,0.8)" stroke="none"/>
  <path d="M 60 686 L 60 710 L 94 710 L 104 700 L 104 686 L 60 686" fill="none" stroke="rgb(0, 0, 0)" stroke-width="1"/>
  <text x="65" y="705" fill="rgb(0,0,0)" font-family="Liberation Sans, Arial, Helvetica, sans-serif" font-size="14" xml:space="preserve" dominant-baseline="auto">opt </text>
  <text x="65" y="727" fill="rgb(0,0,0)" font-family="Liberation Sans, Arial, Helvetica, sans-serif" font-size="12" xml:space="preserve" dominant-baseline="auto">Audit branch [Mermaid: opt Audit branch]</text>
  <path d="M 123 734 M 123 818" fill="none" stroke="rgb(0,0,0)" stroke-width="1" stroke-dasharray="3,3"/>
  <path d="M 395.5 734 M 395.5 818" fill="none" stroke="rgb(0,0,0)" stroke-width="1" stroke-dasharray="3,3"/>
  <path d="M 30 734 L 30 818 L 1004 818 L 1004 734 L 30 734" fill="rgb(255, 255, 255)" stroke="none"/>
  <path d="M 30 734 L 30 818 M 1004 818 L 1004 734 M 30 734" fill="none" stroke="rgb(0, 0, 0)" stroke-width="1"/>
  <path d="M 60 734 L 60 818 L 974 818 L 974 734 L 60 734" fill="rgb(255, 255, 255)" stroke="none"/>
  <path d="M 60 734 L 60 818 M 974 818 L 974 734 M 60 734" fill="none" stroke="rgb(0, 0, 0)" stroke-width="1"/>
  <path d="M 123 734 L 123 818" fill="none" stroke="rgb(0,0,0)" stroke-width="1" stroke-dasharray="3,3"/>
  <path d="M 120.5 798 L 120.5 808 L 125.5 808 L 125.5 798 L 120.5 798" fill="rgb(204,255,153)" stroke="none"/>
  <path d="M 120.5 798 L 120.5 808 L 125.5 808 L 125.5 798 L 120.5 798" fill="none" stroke="rgb(0, 0, 0)" stroke-width="1"/>
  <path d="M 395.5 734 L 395.5 818" fill="none" stroke="rgb(0,0,0)" stroke-width="1" stroke-dasharray="3,3"/>
  <path d="M 393 798 L 393 808 L 398 808 L 398 798 L 393 798" fill="rgb(204,255,153)" stroke="none"/>
  <path d="M 393 798 L 393 808 L 398 808 L 398 798 L 393 798" fill="none" stroke="rgb(0, 0, 0)" stroke-width="1"/>
  <text x="175.5" y="788" fill="rgb(0,0,0)" font-family="Liberation Sans, Arial, Helvetica, sans-serif" font-size="14" xml:space="preserve" dominant-baseline="auto">3. Emit audit event [Mermaid: Service-&gt;&gt;Caller: Emit audit event]</text>
  <path d="M 393 798 L 125.5 798" fill="none" stroke="rgb(0, 0, 0)" stroke-width="1"/>
  <path d="M 125.5 798 L 135.5 793 L 135.5 803 L 125.5 798" fill="rgb(0, 0, 0)" stroke="none"/>
  <path d="M 123 818 M 123 824" fill="none" stroke="rgb(0,0,0)" stroke-width="1" stroke-dasharray="3,3"/>
  <path d="M 395.5 818 M 395.5 824" fill="none" stroke="rgb(0,0,0)" stroke-width="1" stroke-dasharray="3,3"/>
  <path d="M 30 818 L 30 824 L 1004 824 L 1004 818 L 30 818" fill="rgb(255, 255, 255)" stroke="none"/>
  <path d="M 30 818 L 30 824 M 1004 824 L 1004 818 M 30 818" fill="none" stroke="rgb(0, 0, 0)" stroke-width="1"/>
  <path d="M 60 818 L 60 824 L 974 824 L 974 818 L 60 818" fill="rgb(255, 255, 255)" stroke="none"/>
  <path d="M 60 818 L 60 824 M 974 824 L 974 818 M 60 818" fill="none" stroke="rgb(0, 0, 0)" stroke-width="1"/>
  <path d="M 123 818 L 123 824" fill="none" stroke="rgb(0,0,0)" stroke-width="1" stroke-dasharray="3,3"/>
  <path d="M 395.5 818 L 395.5 824" fill="none" stroke="rgb(0,0,0)" stroke-width="1" stroke-dasharray="3,3"/>
  <path d="M 123 824 M 123 884" fill="none" stroke="rgb(0,0,0)" stroke-width="1" stroke-dasharray="3,3"/>
  <path d="M 395.5 824 M 395.5 884" fill="none" stroke="rgb(0,0,0)" stroke-width="1" stroke-dasharray="3,3"/>
  <path d="M 30 824 L 30 884 L 1004 884 L 1004 824 L 30 824" fill="rgb(255, 255, 255)" stroke="none"/>
  <path d="M 30 824 L 30 884 M 1004 884 L 1004 824 M 30 824" fill="none" stroke="rgb(0, 0, 0)" stroke-width="1"/>
  <path d="M 60 824 L 60 854 L 974 854 L 974 824 L 60 824" fill="rgb(255, 255, 255)" stroke="none"/>
  <path d="M 60 824 L 60 854 L 974 854 L 974 824 M 60 824" fill="none" stroke="rgb(0, 0, 0)" stroke-width="1"/>
  <path d="M 123 824 L 123 884" fill="none" stroke="rgb(0,0,0)" stroke-width="1" stroke-dasharray="3,3"/>
  <path d="M 395.5 824 L 395.5 884" fill="none" stroke="rgb(0,0,0)" stroke-width="1" stroke-dasharray="3,3"/>
  <path d="M 123 917 M 605.75 917 M 613 924.25 M 613 946 M 123 946 M 123 917" fill="rgb(210,210,210)" stroke="none"/>
  <path d="M 120 914 M 602.75 914 M 602.75 921.25 M 610 921.25 M 610 943 M 120 943 M 120 914" fill="rgb(0, 255, 50)" stroke="none"/>
  <path d="M 120 914 M 602.75 914 M 602.75 921.25 M 610 921.25 M 602.75 914 M 610 921.25 M 610 943 M 120 943 M 120 914" fill="none" stroke="rgb(0, 0, 0)" stroke-width="1"/>
  <path d="M 48 917 M 530.75 917 M 538 924.25 M 538 946 M 48 946 M 48 917" fill="rgb(210,210,210)" stroke="none"/>
  <path d="M 45 914 M 527.75 914 M 527.75 921.25 M 535 921.25 M 535 943 M 45 943 M 45 914" fill="rgb(0, 255, 50)" stroke="none"/>
  <path d="M 45 914 M 527.75 914 M 527.75 921.25 M 535 921.25 M 527.75 914 M 535 921.25 M 535 943 M 45 943 M 45 914" fill="none" stroke="rgb(0, 0, 0)" stroke-width="1"/>
  <path d="M 123 884 M 123 950" fill="none" stroke="rgb(0,0,0)" stroke-width="1" stroke-dasharray="3,3"/>
  <path d="M 395.5 884 M 395.5 950" fill="none" stroke="rgb(0,0,0)" stroke-width="1" stroke-dasharray="3,3"/>
  <path d="M 30 884 L 30 950 L 1004 950 L 1004 884 L 30 884" fill="rgb(255, 255, 255)" stroke="none"/>
  <path d="M 30 884 L 30 950 M 1004 950 L 1004 884 M 30 884" fill="none" stroke="rgb(0, 0, 0)" stroke-width="1"/>
  <path d="M 123 884 L 123 950" fill="none" stroke="rgb(0,0,0)" stroke-width="1" stroke-dasharray="3,3"/>
  <path d="M 395.5 884 L 395.5 950" fill="none" stroke="rgb(0,0,0)" stroke-width="1" stroke-dasharray="3,3"/>
  <path d="M 48 917 L 530.75 917 L 538 924.25 L 538 946 L 48 946 L 48 917" fill="rgb(210,210,210)" stroke="none"/>
  <path d="M 45 914 L 527.75 914 L 527.75 921.25 L 535 921.25 L 535 943 L 45 943 L 45 914" fill="rgb(0, 255, 50)" stroke="none"/>
  <path d="M 45 914 L 527.75 914 L 527.75 921.25 L 535 921.25 M 527.75 914 L 535 921.25 L 535 943 L 45 943 L 45 914" fill="none" stroke="rgb(0, 0, 0)" stroke-width="1"/>
  <path d="M 45 914 M 45 943 M 535 943 M 535 914 M 45 914" fill="none" stroke="rgb(0, 0, 0)" stroke-width="1"/>
  <text x="52.5" y="935.5" fill="rgb(0, 0, 0)" font-family="Liberation Sans, Arial, Helvetica, sans-serif" font-size="14" xml:space="preserve" dominant-baseline="auto">Failure branch note [Mermaid: Note over Caller,Service: Failure branch note]</text>
  <path d="M 123 950 M 123 1034" fill="none" stroke="rgb(0,0,0)" stroke-width="1" stroke-dasharray="3,3"/>
  <path d="M 395.5 950 M 395.5 1034" fill="none" stroke="rgb(0,0,0)" stroke-width="1" stroke-dasharray="3,3"/>
  <path d="M 30 950 L 30 1034 L 1004 1034 L 1004 950 L 30 950" fill="rgb(255, 255, 255)" stroke="none"/>
  <path d="M 30 950 L 30 1034 M 1004 1034 L 1004 950 M 30 950" fill="none" stroke="rgb(0, 0, 0)" stroke-width="1"/>
  <path d="M 123 950 L 123 1034" fill="none" stroke="rgb(0,0,0)" stroke-width="1" stroke-dasharray="3,3"/>
  <path d="M 120.5 1014 L 120.5 1024 L 125.5 1024 L 125.5 1014 L 120.5 1014" fill="rgb(204,255,153)" stroke="none"/>
  <path d="M 120.5 1014 L 120.5 1024 L 125.5 1024 L 125.5 1014 L 120.5 1014" fill="none" stroke="rgb(0, 0, 0)" stroke-width="1"/>
  <path d="M 395.5 950 L 395.5 1034" fill="none" stroke="rgb(0,0,0)" stroke-width="1" stroke-dasharray="3,3"/>
  <path d="M 393 1014 L 393 1024 L 398 1024 L 398 1014 L 393 1014" fill="rgb(204,255,153)" stroke="none"/>
  <path d="M 393 1014 L 393 1024 L 398 1024 L 398 1014 L 393 1014" fill="none" stroke="rgb(0, 0, 0)" stroke-width="1"/>
  <text x="165.5" y="1004" fill="rgb(0,0,0)" font-family="Liberation Sans, Arial, Helvetica, sans-serif" font-size="14" xml:space="preserve" dominant-baseline="auto">4. Failure path [Mermaid: Caller-&gt;&gt;Service: Failure path]</text>
  <path d="M 125.5 1014 L 393 1014" fill="none" stroke="rgb(0, 0, 0)" stroke-width="1"/>
  <path d="M 393 1014 L 383 1009 L 383 1019 L 393 1014" fill="rgb(0, 0, 0)" stroke="none"/>
  <path d="M 123 1034 M 123 1040" fill="none" stroke="rgb(0,0,0)" stroke-width="1" stroke-dasharray="3,3"/>
  <path d="M 395.5 1034 M 395.5 1040" fill="none" stroke="rgb(0,0,0)" stroke-width="1" stroke-dasharray="3,3"/>
  <path d="M 30 1034 L 30 1040 L 1004 1040 L 1004 1034 L 30 1034" fill="rgb(255, 255, 255)" stroke="none"/>
  <path d="M 30 1034 L 30 1040 M 1004 1040 L 1004 1034 M 30 1034" fill="none" stroke="rgb(0, 0, 0)" stroke-width="1"/>
  <path d="M 123 1034 L 123 1040" fill="none" stroke="rgb(0,0,0)" stroke-width="1" stroke-dasharray="3,3"/>
  <path d="M 395.5 1034 L 395.5 1040" fill="none" stroke="rgb(0,0,0)" stroke-width="1" stroke-dasharray="3,3"/>
  <path d="M 123 1040 M 123 1100" fill="none" stroke="rgb(0,0,0)" stroke-width="1" stroke-dasharray="3,3"/>
  <path d="M 395.5 1040 M 395.5 1100" fill="none" stroke="rgb(0,0,0)" stroke-width="1" stroke-dasharray="3,3"/>
  <path d="M 30 1040 L 30 1070 L 1004 1070 L 1004 1040 L 30 1040" fill="rgb(255, 255, 255)" stroke="none"/>
  <path d="M 30 1040 L 30 1070 L 1004 1070 L 1004 1040 M 30 1040" fill="none" stroke="rgb(0, 0, 0)" stroke-width="1"/>
  <path d="M 123 1040 L 123 1100" fill="none" stroke="rgb(0,0,0)" stroke-width="1" stroke-dasharray="3,3"/>
  <path d="M 395.5 1040 L 395.5 1100" fill="none" stroke="rgb(0,0,0)" stroke-width="1" stroke-dasharray="3,3"/>
  <path d="M 123 1100 L 123 1124" fill="none" stroke="rgb(0,0,0)" stroke-width="1" stroke-dasharray="3,3"/>
  <path d="M 395.5 1100 L 395.5 1124" fill="none" stroke="rgb(0,0,0)" stroke-width="1" stroke-dasharray="3,3"/>
</svg>