<?xml version="1.0"?>
<svg xmlns="http://www.w3.org/2000/svg" width="713" height="1103" viewBox="0 0 713 1103">
  <title>Input</title>
  <rect width="100%" height="100%" fill="white"/>
  <path d="M 0 0 L 0 1093 L 703 1093 L 703 0 L 0 0" fill="rgb(255, 255, 255)" stroke="none"/>
  <path d="M 90 30 L 90 57 L 170 57 L 170 30 L 90 30" fill="rgba(0,0,0,0)" stroke="none"/>
  <text x="95" y="49" fill="rgb(0,0,0)" font-family="Liberation Sans, Arial, Helvetica, sans-serif" font-size="14" xml:space="preserve" font-weight="bold" dominant-baseline="auto">Title:</text>
  <text x="128.44" y="49" fill="rgb(0,0,0)" font-family="Liberation Sans, Arial, Helvetica, sans-serif" font-size="14" xml:space="preserve" dominant-baseline="auto"> </text>
  <text x="132.33" y="49" fill="rgb(0,0,0)" font-family="Liberation Sans, Arial, Helvetica, sans-serif" font-size="14" xml:space="preserve" dominant-baseline="auto">Input</text>
  <path d="M 90 57 L 90 84 L 180 84 L 180 57 L 90 57" fill="rgba(0,0,0,0)" stroke="none"/>
  <text x="95" y="76" fill="rgb(0,0,0)" font-family="Liberation Sans, Arial, Helvetica, sans-serif" font-size="14" xml:space="preserve" font-weight="bold" dominant-baseline="auto">Version:</text>
  <text x="151.01" y="76" fill="rgb(0,0,0)" font-family="Liberation Sans, Arial, Helvetica, sans-serif" font-size="14" xml:space="preserve" dominant-baseline="auto"> </text>
  <text x="154.9" y="76" fill="rgb(0,0,0)" font-family="Liberation Sans, Arial, Helvetica, sans-serif" font-size="14" xml:space="preserve" dominant-baseline="auto">1.0</text>
  <path d="M 93 122 L 93 150 L 93 150 A 5 5 0 0 0 98 155 L 154 155 L 154 155 A 5 5 0 0 0 159 150 L 159 122 L 159 122 A 5 5 0 0 0 154 117 L 98 117 L 98 117 A 5 5 0 0 0 93 122" fill="rgb(210,210,210)" stroke="none"/>
  <path d="M 90 119 L 90 147 L 90 147 A 5 5 0 0 0 95 152 L 151 152 L 151 152 A 5 5 0 0 0 156 147 L 156 119 L 156 119 A 5 5 0 0 0 151 114 L 95 114 L 95 114 A 5 5 0 0 0 90 119" fill="rgb(204,255,153)" stroke="none"/>
  <path d="M 90 119 L 90 147 L 90 147 A 5 5 0 0 0 95 152 L 151 152 L 151 152 A 5 5 0 0 0 156 147 L 156 119 L 156 119 A 5 5 0 0 0 151 114 L 95 114 L 95 114 A 5 5 0 0 0 90 119" fill="none" stroke="rgb(0, 0, 0)" stroke-width="1"/>
  <text x="99" y="141" fill="rgb(0,0,0)" font-family="Liberation Sans, Arial, Helvetica, sans-serif" font-size="18" xml:space="preserve" dominant-baseline="auto">Caller</text>
  <path d="M 359 122 L 359 150 L 359 150 A 5 5 0 0 0 364 155 L 433 155 L 433 155 A 5 5 0 0 0 438 150 L 438 122 L 438 122 A 5 5 0 0 0 433 117 L 364 117 L 364 117 A 5 5 0 0 0 359 122" fill="rgb(210,210,210)" stroke="none"/>
  <path d="M 356 119 L 356 147 L 356 147 A 5 5 0 0 0 361 152 L 430 152 L 430 152 A 5 5 0 0 0 435 147 L 435 119 L 435 119 A 5 5 0 0 0 430 114 L 361 114 L 361 114 A 5 5 0 0 0 356 119" fill="rgb(204,255,153)" stroke="none"/>
  <path d="M 356 119 L 356 147 L 356 147 A 5 5 0 0 0 361 152 L 430 152 L 430 152 A 5 5 0 0 0 435 147 L 435 119 L 435 119 A 5 5 0 0 0 430 114 L 361 114 L 361 114 A 5 5 0 0 0 356 119" fill="none" stroke="rgb(0, 0, 0)" stroke-width="1"/>
  <text x="365" y="141" fill="rgb(0,0,0)" font-family="Liberation Sans, Arial, Helvetica, sans-serif" font-size="18" xml:space="preserve" dominant-baseline="auto">Service</text>
  <path d="M 123 152 L 123 230" fill="none" stroke="rgb(0,0,0)" stroke-width="1" stroke-dasharray="3,3"/>
  <path d="M 395.5 152 L 395.5 230" fill="none" stroke="rgb(0,0,0)" stroke-width="1" stroke-dasharray="3,3"/>
  <path d="M 30 182 L 30 230 L 673 230 L 673 182 L 30 182" fill="rgb(255, 255, 255)" stroke="none"/>
  <path d="M 30 182 L 30 230 M 673 230 L 673 182 L 30 182" fill="none" stroke="rgb(0, 0, 0)" stroke-width="1"/>
  <path d="M 123 152 L 123 230" fill="none" stroke="rgb(0,0,0)" stroke-width="1" stroke-dasharray="3,3"/>
  <path d="M 395.5 152 L 395.5 230" fill="none" stroke="rgb(0,0,0)" stroke-width="1" stroke-dasharray="3,3"/>
  <path d="M 30 182 L 30 206 L 71 206 L 81 196 L 81 182 L 30 182" fill="rgba(200,200,0,0.8)" stroke="none"/>
  <path d="M 30 182 L 30 206 L 71 206 L 81 196 L 81 182 L 30 182" fill="none" stroke="rgb(0, 0, 0)" stroke-width="1"/>
  <text x="35" y="201" fill="rgb(0,0,0)" font-family="Liberation Sans, Arial, Helvetica, sans-serif" font-size="14" xml:space="preserve" dominant-baseline="auto">loop </text>
  <text x="35" y="223" fill="rgb(0,0,0)" font-family="Liberation Sans, Arial, Helvetica, sans-serif" font-size="12" xml:space="preserve" dominant-baseline="auto">Retry while pending [Mermaid: loop Retry while pending]</text>
  <path d="M 123 230 M 123 314" fill="none" stroke="rgb(0,0,0)" stroke-width="1" stroke-dasharray="3,3"/>
  <path d="M 395.5 230 M 395.5 314" fill="none" stroke="rgb(0,0,0)" stroke-width="1" stroke-dasharray="3,3"/>
  <path d="M 30 230 L 30 314 L 673 314 L 673 230 L 30 230" fill="rgb(255, 255, 255)" stroke="none"/>
  <path d="M 30 230 L 30 314 M 673 314 L 673 230 M 30 230" fill="none" stroke="rgb(0, 0, 0)" stroke-width="1"/>
  <path d="M 123 230 L 123 314" fill="none" stroke="rgb(0,0,0)" stroke-width="1" stroke-dasharray="3,3"/>
  <path d="M 120.5 294 L 120.5 304 L 125.5 304 L 125.5 294 L 120.5 294" fill="rgb(204,255,153)" stroke="none"/>
  <path d="M 120.5 294 L 120.5 304 L 125.5 304 L 125.5 294 L 120.5 294" fill="none" stroke="rgb(0, 0, 0)" stroke-width="1"/>
  <path d="M 395.5 230 L 395.5 314" fill="none" stroke="rgb(0,0,0)" stroke-width="1" stroke-dasharray="3,3"/>
  <path d="M 393 294 L 393 304 L 398 304 L 398 294 L 393 294" fill="rgb(204,255,153)" stroke="none"/>
  <path d="M 393 294 L 393 304 L 398 304 L 398 294 L 393 294" fill="none" stroke="rgb(0, 0, 0)" stroke-width="1"/>
  <text x="165.5" y="284" fill="rgb(0,0,0)" font-family="Liberation Sans, Arial, Helvetica, sans-serif" font-size="14" xml:space="preserve" dominant-baseline="auto">1. Retry request [Mermaid: Caller-&gt;&gt;Service: Retry request]</text>
  <path d="M 125.5 294 L 393 294" fill="none" stroke="rgb(0, 0, 0)" stroke-width="1"/>
  <path d="M 393 294 L 383 289 L 383 299 L 393 294" fill="rgb(0, 0, 0)" stroke="none"/>
  <path d="M 123 314 M 123 320" fill="none" stroke="rgb(0,0,0)" stroke-width="1" stroke-dasharray="3,3"/>
  <path d="M 395.5 314 M 395.5 320" fill="none" stroke="rgb(0,0,0)" stroke-width="1" stroke-dasharray="3,3"/>
  <path d="M 30 314 L 30 320 L 673 320 L 673 314 L 30 314" fill="rgb(255, 255, 255)" stroke="none"/>
  <path d="M 30 314 L 30 320 M 673 320 L 673 314 M 30 314" fill="none" stroke="rgb(0, 0, 0)" stroke-width="1"/>
  <path d="M 123 314 L 123 320" fill="none" stroke="rgb(0,0,0)" stroke-width="1" stroke-dasharray="3,3"/>
  <path d="M 395.5 314 L 395.5 320" fill="none" stroke="rgb(0,0,0)" stroke-width="1" stroke-dasharray="3,3"/>
  <path d="M 123 320 M 123 380" fill="none" stroke="rgb(0,0,0)" stroke-width="1" stroke-dasharray="3,3"/>
  <path d="M 395.5 320 M 395.5 380" fill="none" stroke="rgb(0,0,0)" stroke-width="1" stroke-dasharray="3,3"/>
  <path d="M 30 320 L 30 350 L 673 350 L 673 320 L 30 320" fill="rgb(255, 255, 255)" stroke="none"/>
  <path d="M 30 320 L 30 350 L 673 350 L 673 320 M 30 320" fill="none" stroke="rgb(0, 0, 0)" stroke-width="1"/>
  <path d="M 123 320 L 123 380" fill="none" stroke="rgb(0,0,0)" stroke-width="1" stroke-dasharray="3,3"/>
  <path d="M 395.5 320 L 395.5 380" fill="none" stroke="rgb(0,0,0)" stroke-width="1" stroke-dasharray="3,3"/>
  <path d="M 123 380 L 123 458" fill="none" stroke="rgb(0,0,0)" stroke-width="1" stroke-dasharray="3,3"/>
  <path d="M 395.5 380 L 395.5 458" fill="none" stroke="rgb(0,0,0)" stroke-width="1" stroke-dasharray="3,3"/>
  <path d="M 30 410 L 30 458 L 673 458 L 673 410 L 30 410" fill="rgb(255, 255, 255)" stroke="none"/>
  <path d="M 30 410 L 30 458 M 673 458 L 673 410 L 30 410" fill="none" stroke="rgb(0, 0, 0)" stroke-width="1"/>
  <path d="M 123 380 L 123 458" fill="none" stroke="rgb(0,0,0)" stroke-width="1" stroke-dasharray="3,3"/>
  <path d="M 395.5 380 L 395.5 458" fill="none" stroke="rgb(0,0,0)" stroke-width="1" stroke-dasharray="3,3"/>
  <path d="M 30 410 L 30 434 L 59 434 L 69 424 L 69 410 L 30 410" fill="rgba(200,200,0,0.8)" stroke="none"/>
  <path d="M 30 410 L 30 434 L 59 434 L 69 424 L 69 410 L 30 410" fill="none" stroke="rgb(0, 0, 0)" stroke-width="1"/>
  <text x="35" y="429" fill="rgb(0,0,0)" font-family="Liberation Sans, Arial, Helvetica, sans-serif" font-size="14" xml:space="preserve" dominant-baseline="auto">alt </text>
  <text x="35" y="451" fill="rgb(0,0,0)" font-family="Liberation Sans, Arial, Helvetica, sans-serif" font-size="12" xml:space="preserve" dominant-baseline="auto">Success branch [Mermaid: alt Success branch]</text>
  <path d="M 123 458 M 123 542" fill="none" stroke="rgb(0,0,0)" stroke-width="1" stroke-dasharray="3,3"/>
  <path d="M 395.5 458 M 395.5 542" fill="none" stroke="rgb(0,0,0)" stroke-width="1" stroke-dasharray="3,3"/>
  <path d="M 30 458 L 30 542 L 673 542 L 673 458 L 30 458" fill="rgb(255, 255, 255)" stroke="none"/>
  <path d="M 30 458 L 30 542 M 673 542 L 673 458 M 30 458" fill="none" stroke="rgb(0, 0, 0)" stroke-width="1"/>
  <path d="M 123 458 L 123 542" fill="none" stroke="rgb(0,0,0)" stroke-width="1" stroke-dasharray="3,3"/>
  <path d="M 120.5 522 L 120.5 532 L 125.5 532 L 125.5 522 L 120.5 522" fill="rgb(204,255,153)" stroke="none"/>
  <path d="M 120.5 522 L 120.5 532 L 125.5 532 L 125.5 522 L 120.5 522" fill="none" stroke="rgb(0, 0, 0)" stroke-width="1"/>
  <path d="M 395.5 458 L 395.5 542" fill="none" stroke="rgb(0,0,0)" stroke-width="1" stroke-dasharray="3,3"/>
  <path d="M 393 522 L 393 532 L 398 532 L 398 522 L 393 522" fill="rgb(204,255,153)" stroke="none"/>
  <path d="M 393 522 L 393 532 L 398 532 L 398 522 L 393 522" fill="none" stroke="rgb(0, 0, 0)" stroke-width="1"/>
  <text x="165.5" y="512" fill="rgb(0,0,0)" font-family="Liberation Sans, Arial, Helvetica, sans-serif" font-size="14" xml:space="preserve" dominant-baseline="auto">2. Success path [Mermaid: Caller-&gt;&gt;Service: Success path]</text>
  <path d="M 125.5 522 L 393 522" fill="none" stroke="rgb(0, 0, 0)" stroke-width="1"/>
  <path d="M 393 522 L 383 517 L 383 527 L 393 522" fill="rgb(0, 0, 0)" stroke="none"/>
  <path d="M 123 542 M 123 596" fill="none" stroke="rgb(0,0,0)" stroke-width="1" stroke-dasharray="3,3"/>
  <path d="M 395.5 542 M 395.5 596" fill="none" stroke="rgb(0,0,0)" stroke-width="1" stroke-dasharray="3,3"/>
  <path d="M 30 542 L 30 596 L 673 596 L 673 542 L 30 542" fill="rgb(255, 255, 255)" stroke="none"/>
  <path d="M 30 542 L 30 596 M 673 596 L 673 542 M 30 542" fill="none" stroke="rgb(0, 0, 0)" stroke-width="1"/>
  <path d="M 123 542 L 123 596" fill="none" stroke="rgb(0,0,0)" stroke-width="1" stroke-dasharray="3,3"/>
  <path d="M 395.5 542 L 395.5 596" fill="none" stroke="rgb(0,0,0)" stroke-width="1" stroke-dasharray="3,3"/>
  <path d="M 30 572 L 673 572" fill="none" stroke="rgb(0,0,0)" stroke-width="1" stroke-dasharray="4,3"/>
  <text x="35" y="590" fill="rgb(0,0,0)" font-family="Liberation Sans, Arial, Helvetica, sans-serif" font-size="12" xml:space="preserve" dominant-baseline="auto">Failure branch [Mermaid: else Failure branch]</text>
  <path d="M 123 595 L 123 673" fill="none" stroke="rgb(0,0,0)" stroke-width="1" stroke-dasharray="3,3"/>
  <path d="M 395.5 595 L 395.5 673" fill="none" stroke="rgb(0,0,0)" stroke-width="1" stroke-dasharray="3,3"/>
  <path d="M 30 595 L 30 673 L 673 673 L 673 595 L 30 595" fill="rgb(255, 255, 255)" stroke="none"/>
  <path d="M 30 595 L 30 673 M 673 673 L 673 595 M 30 595" fill="none" stroke="rgb(0, 0, 0)" stroke-width="1"/>
  <path d="M 60 625 L 60 673 L 643 673 L 643 625 L 60 625" fill="rgb(255, 255, 255)" stroke="none"/>
  <path d="M 60 625 L 60 673 M 643 673 L 643 625 L 60 625" fill="none" stroke="rgb(0, 0, 0)" stroke-width="1"/>
  <path d="M 123 595 L 123 673" fill="none" stroke="rgb(0,0,0)" stroke-width="1" stroke-dasharray="3,3"/>
  <path d="M 395.5 595 L 395.5 673" fill="none" stroke="rgb(0,0,0)" stroke-width="1" stroke-dasharray="3,3"/>
  <path d="M 60 625 L 60 649 L 94 649 L 104 639 L 104 625 L 60 625" fill="rgba(200,200,0,0.8)" stroke="none"/>
  <path d="M 60 625 L 60 649 L 94 649 L 104 639 L 104 625 L 60 625" fill="none" stroke="rgb(0, 0, 0)" stroke-width="1"/>
  <text x="65" y="644" fill="rgb(0,0,0)" font-family="Liberation Sans, Arial, Helvetica, sans-serif" font-size="14" xml:space="preserve" dominant-baseline="auto">opt </text>
  <text x="65" y="666" fill="rgb(0,0,0)" font-family="Liberation Sans, Arial, Helvetica, sans-serif" font-size="12" xml:space="preserve" dominant-baseline="auto">Audit branch [Mermaid: opt Audit branch]</text>
  <path d="M 123 673 M 123 757" fill="none" stroke="rgb(0,0,0)" stroke-width="1" stroke-dasharray="3,3"/>
  <path d="M 395.5 673 M 395.5 757" fill="none" stroke="rgb(0,0,0)" stroke-width="1" stroke-dasharray="3,3"/>
  <path d="M 30 673 L 30 757 L 673 757 L 673 673 L 30 673" fill="rgb(255, 255, 255)" stroke="none"/>
  <path d="M 30 673 L 30 757 M 673 757 L 673 673 M 30 673" fill="none" stroke="rgb(0, 0, 0)" stroke-width="1"/>
  <path d="M 60 673 L 60 757 L 643 757 L 643 673 L 60 673" fill="rgb(255, 255, 255)" stroke="none"/>
  <path d="M 60 673 L 60 757 M 643 757 L 643 673 M 60 673" fill="none" stroke="rgb(0, 0, 0)" stroke-width="1"/>
  <path d="M 123 673 L 123 757" fill="none" stroke="rgb(0,0,0)" stroke-width="1" stroke-dasharray="3,3"/>
  <path d="M 120.5 737 L 120.5 747 L 125.5 747 L 125.5 737 L 120.5 737" fill="rgb(204,255,153)" stroke="none"/>
  <path d="M 120.5 737 L 120.5 747 L 125.5 747 L 125.5 737 L 120.5 737" fill="none" stroke="rgb(0, 0, 0)" stroke-width="1"/>
  <path d="M 395.5 673 L 395.5 757" fill="none" stroke="rgb(0,0,0)" stroke-width="1" stroke-dasharray="3,3"/>
  <path d="M 393 737 L 393 747 L 398 747 L 398 737 L 393 737" fill="rgb(204,255,153)" stroke="none"/>
  <path d="M 393 737 L 393 747 L 398 747 L 398 737 L 393 737" fill="none" stroke="rgb(0, 0, 0)" stroke-width="1"/>
  <text x="175.5" y="727" fill="rgb(0,0,0)" font-family="Liberation Sans, Arial, Helvetica, sans-serif" font-size="14" xml:space="preserve" dominant-baseline="auto">3. Emit audit event [Mermaid: Service-&gt;&gt;Caller: Emit audit event]</text>
  <path d="M 393 737 L 125.5 737" fill="none" stroke="rgb(0, 0, 0)" stroke-width="1"/>
  <path d="M 125.5 737 L 135.5 732 L 135.5 742 L 125.5 737" fill="rgb(0, 0, 0)" stroke="none"/>
  <path d="M 123 757 M 123 763" fill="none" stroke="rgb(0,0,0)" stroke-width="1" stroke-dasharray="3,3"/>
  <path d="M 395.5 757 M 395.5 763" fill="none" stroke="rgb(0,0,0)" stroke-width="1" stroke-dasharray="3,3"/>
  <path d="M 30 757 L 30 763 L 673 763 L 673 757 L 30 757" fill="rgb(255, 255, 255)" stroke="none"/>
  <path d="M 30 757 L 30 763 M 673 763 L 673 757 M 30 757" fill="none" stroke="rgb(0, 0, 0)" stroke-width="1"/>
  <path d="M 60 757 L 60 763 L 643 763 L 643 757 L 60 757" fill="rgb(255, 255, 255)" stroke="none"/>
  <path d="M 60 757 L 60 763 M 643 763 L 643 757 M 60 757" fill="none" stroke="rgb(0, 0, 0)" stroke-width="1"/>
  <path d="M 123 757 L 123 763" fill="none" stroke="rgb(0,0,0)" stroke-width="1" stroke-dasharray="3,3"/>
  <path d="M 395.5 757 L 395.5 763" fill="none" stroke="rgb(0,0,0)" stroke-width="1" stroke-dasharray="3,3"/>
  <path d="M 123 763 M 123 823" fill="none" stroke="rgb(0,0,0)" stroke-width="1" stroke-dasharray="3,3"/>
  <path d="M 395.5 763 M 395.5 823" fill="none" stroke="rgb(0,0,0)" stroke-width="1" stroke-dasharray="3,3"/>
  <path d="M 30 763 L 30 823 L 673 823 L 673 763 L 30 763" fill="rgb(255, 255, 255)" stroke="none"/>
  <path d="M 30 763 L 30 823 M 673 823 L 673 763 M 30 763" fill="none" stroke="rgb(0, 0, 0)" stroke-width="1"/>
  <path d="M 60 763 L 60 793 L 643 793 L 643 763 L 60 763" fill="rgb(255, 255, 255)" stroke="none"/>
  <path d="M 60 763 L 60 793 L 643 793 L 643 763 M 60 763" fill="none" stroke="rgb(0, 0, 0)" stroke-width="1"/>
  <path d="M 123 763 L 123 823" fill="none" stroke="rgb(0,0,0)" stroke-width="1" stroke-dasharray="3,3"/>
  <path d="M 395.5 763 L 395.5 823" fill="none" stroke="rgb(0,0,0)" stroke-width="1" stroke-dasharray="3,3"/>
  <path d="M 123 856 M 605.75 856 M 613 863.25 M 613 885 M 123 885 M 123 856" fill="rgb(210,210,210)" stroke="none"/>
  <path d="M 120 853 M 602.75 853 M 602.75 860.25 M 610 860.25 M 610 882 M 120 882 M 120 853" fill="rgb(0, 255, 50)" stroke="none"/>
  <path d="M 120 853 M 602.75 853 M 602.75 860.25 M 610 860.25 M 602.75 853 M 610 860.25 M 610 882 M 120 882 M 120 853" fill="none" stroke="rgb(0, 0, 0)" stroke-width="1"/>
  <path d="M 48 856 M 530.75 856 M 538 863.25 M 538 885 M 48 885 M 48 856" fill="rgb(210,210,210)" stroke="none"/>
  <path d="M 45 853 M 527.75 853 M 527.75 860.25 M 535 860.25 M 535 882 M 45 882 M 45 853" fill="rgb(0, 255, 50)" stroke="none"/>
  <path d="M 45 853 M 527.75 853 M 527.75 860.25 M 535 860.25 M 527.75 853 M 535 860.25 M 535 882 M 45 882 M 45 853" fill="none" stroke="rgb(0, 0, 0)" stroke-width="1"/>
  <path d="M 123 823 M 123 889" fill="none" stroke="rgb(0,0,0)" stroke-width="1" stroke-dasharray="3,3"/>
  <path d="M 395.5 823 M 395.5 889" fill="none" stroke="rgb(0,0,0)" stroke-width="1" stroke-dasharray="3,3"/>
  <path d="M 30 823 L 30 889 L 673 889 L 673 823 L 30 823" fill="rgb(255, 255, 255)" stroke="none"/>
  <path d="M 30 823 L 30 889 M 673 889 L 673 823 M 30 823" fill="none" stroke="rgb(0, 0, 0)" stroke-width="1"/>
  <path d="M 123 823 L 123 889" fill="none" stroke="rgb(0,0,0)" stroke-width="1" stroke-dasharray="3,3"/>
  <path d="M 395.5 823 L 395.5 889" fill="none" stroke="rgb(0,0,0)" stroke-width="1" stroke-dasharray="3,3"/>
  <path d="M 48 856 L 530.75 856 L 538 863.25 L 538 885 L 48 885 L 48 856" fill="rgb(210,210,210)" stroke="none"/>
  <path d="M 45 853 L 527.75 853 L 527.75 860.25 L 535 860.25 L 535 882 L 45 882 L 45 853" fill="rgb(0, 255, 50)" stroke="none"/>
  <path d="M 45 853 L 527.75 853 L 527.75 860.25 L 535 860.25 M 527.75 853 L 535 860.25 L 535 882 L 45 882 L 45 853" fill="none" stroke="rgb(0, 0, 0)" stroke-width="1"/>
  <path d="M 45 853 M 45 882 M 535 882 M 535 853 M 45 853" fill="none" stroke="rgb(0, 0, 0)" stroke-width="1"/>
  <text x="52.5" y="874.5" fill="rgb(0, 0, 0)" font-family="Liberation Sans, Arial, Helvetica, sans-serif" font-size="14" xml:space="preserve" dominant-baseline="auto">Failure branch note [Mermaid: Note over Caller,Service: Failure branch note]</text>
  <path d="M 123 889 M 123 973" fill="none" stroke="rgb(0,0,0)" stroke-width="1" stroke-dasharray="3,3"/>
  <path d="M 395.5 889 M 395.5 973" fill="none" stroke="rgb(0,0,0)" stroke-width="1" stroke-dasharray="3,3"/>
  <path d="M 30 889 L 30 973 L 673 973 L 673 889 L 30 889" fill="rgb(255, 255, 255)" stroke="none"/>
  <path d="M 30 889 L 30 973 M 673 973 L 673 889 M 30 889" fill="none" stroke="rgb(0, 0, 0)" stroke-width="1"/>
  <path d="M 123 889 L 123 973" fill="none" stroke="rgb(0,0,0)" stroke-width="1" stroke-dasharray="3,3"/>
  <path d="M 120.5 953 L 120.5 963 L 125.5 963 L 125.5 953 L 120.5 953" fill="rgb(204,255,153)" stroke="none"/>
  <path d="M 120.5 953 L 120.5 963 L 125.5 963 L 125.5 953 L 120.5 953" fill="none" stroke="rgb(0, 0, 0)" stroke-width="1"/>
  <path d="M 395.5 889 L 395.5 973" fill="none" stroke="rgb(0,0,0)" stroke-width="1" stroke-dasharray="3,3"/>
  <path d="M 393 953 L 393 963 L 398 963 L 398 953 L 393 953" fill="rgb(204,255,153)" stroke="none"/>
  <path d="M 393 953 L 393 963 L 398 963 L 398 953 L 393 953" fill="none" stroke="rgb(0, 0, 0)" stroke-width="1"/>
  <text x="165.5" y="943" fill="rgb(0,0,0)" font-family="Liberation Sans, Arial, Helvetica, sans-serif" font-size="14" xml:space="preserve" dominant-baseline="auto">4. Failure path [Mermaid: Caller-&gt;&gt;Service: Failure path]</text>
  <path d="M 125.5 953 L 393 953" fill="none" stroke="rgb(0, 0, 0)" stroke-width="1"/>
  <path d="M 393 953 L 383 948 L 383 958 L 393 953" fill="rgb(0, 0, 0)" stroke="none"/>
  <path d="M 123 973 M 123 979" fill="none" stroke="rgb(0,0,0)" stroke-width="1" stroke-dasharray="3,3"/>
  <path d="M 395.5 973 M 395.5 979" fill="none" stroke="rgb(0,0,0)" stroke-width="1" stroke-dasharray="3,3"/>
  <path d="M 30 973 L 30 979 L 673 979 L 673 973 L 30 973" fill="rgb(255, 255, 255)" stroke="none"/>
  <path d="M 30 973 L 30 979 M 673 979 L 673 973 M 30 973" fill="none" stroke="rgb(0, 0, 0)" stroke-width="1"/>
  <path d="M 123 973 L 123 979" fill="none" stroke="rgb(0,0,0)" stroke-width="1" stroke-dasharray="3,3"/>
  <path d="M 395.5 973 L 395.5 979" fill="none" stroke="rgb(0,0,0)" stroke-width="1" stroke-dasharray="3,3"/>
  <path d="M 123 979 M 123 1039" fill="none" stroke="rgb(0,0,0)" stroke-width="1" stroke-dasharray="3,3"/>
  <path d="M 395.5 979 M 395.5 1039" fill="none" stroke="rgb(0,0,0)" stroke-width="1" stroke-dasharray="3,3"/>
  <path d="M 30 979 L 30 1009 L 673 1009 L 673 979 L 30 979" fill="rgb(255, 255, 255)" stroke="none"/>
  <path d="M 30 979 L 30 1009 L 673 1009 L 673 979 M 30 979" fill="none" stroke="rgb(0, 0, 0)" stroke-width="1"/>
  <path d="M 123 979 L 123 1039" fill="none" stroke="rgb(0,0,0)" stroke-width="1" stroke-dasharray="3,3"/>
  <path d="M 395.5 979 L 395.5 1039" fill="none" stroke="rgb(0,0,0)" stroke-width="1" stroke-dasharray="3,3"/>
  <path d="M 123 1039 L 123 1063" fill="none" stroke="rgb(0,0,0)" stroke-width="1" stroke-dasharray="3,3"/>
  <path d="M 395.5 1039 L 395.5 1063" fill="none" stroke="rgb(0,0,0)" stroke-width="1" stroke-dasharray="3,3"/>
</svg>