<?xml version="1.0"?>
<svg xmlns="http://www.w3.org/2000/svg" width="733" height="897" viewBox="0 0 733 897">
  <rect width="100%" height="100%" fill="white"/>
  <path d="M 0 0 L 0 887 L 723 887 L 723 0 L 0 0" fill="rgb(255, 255, 255)" stroke="none"/>
  <path d="M 30 30 L 30 57 L 145 57 L 145 30 L 30 30" fill="rgba(0,0,0,0)" stroke="none"/>
  <text x="35" y="49" fill="rgb(0,0,0)" font-family="Liberation Sans, Arial, Helvetica, sans-serif" font-size="14" xml:space="preserve" font-weight="bold" dominant-baseline="auto">Title:</text>
  <text x="68.44" y="49" fill="rgb(0,0,0)" font-family="Liberation Sans, Arial, Helvetica, sans-serif" font-size="14" xml:space="preserve" dominant-baseline="auto"> </text>
  <text x="72.33" y="49" fill="rgb(0,0,0)" font-family="Liberation Sans, Arial, Helvetica, sans-serif" font-size="14" xml:space="preserve" dominant-baseline="auto">Example 4</text>
  <path d="M 30 57 L 30 84 L 120 84 L 120 57 L 30 57" fill="rgba(0,0,0,0)" stroke="none"/>
  <text x="35" y="76" fill="rgb(0,0,0)" font-family="Liberation Sans, Arial, Helvetica, sans-serif" font-size="14" xml:space="preserve" font-weight="bold" dominant-baseline="auto">Version:</text>
  <text x="91.01" y="76" fill="rgb(0,0,0)" font-family="Liberation Sans, Arial, Helvetica, sans-serif" font-size="14" xml:space="preserve" dominant-baseline="auto"> </text>
  <text x="94.9" y="76" fill="rgb(0,0,0)" font-family="Liberation Sans, Arial, Helvetica, sans-serif" font-size="14" xml:space="preserve" dominant-baseline="auto">1.0</text>
  <path d="M 30 84 L 30 111 L 658 111 L 658 84 L 30 84" fill="rgba(0,0,0,0)" stroke="none"/>
  <text x="35" y="103" fill="rgb(0,0,0)" font-family="Liberation Sans, Arial, Helvetica, sans-serif" font-size="14" xml:space="preserve" font-weight="bold" dominant-baseline="auto">Description:</text>
  <text x="116.68" y="103" fill="rgb(0,0,0)" font-family="Liberation Sans, Arial, Helvetica, sans-serif" font-size="14" xml:space="preserve" dominant-baseline="auto"> </text>
  <text x="120.57" y="103" fill="rgb(0,0,0)" font-family="Liberation Sans, Arial, Helvetica, sans-serif" font-size="14" xml:space="preserve" dominant-baseline="auto">Shows a detected error and how presented in the diagram. Extended from example 2.</text>
  <path d="M 33 149 L 33 177 L 33 177 A 5 5 0 0 0 38 182 L 93 182 L 93 182 A 5 5 0 0 0 98 177 L 98 149 L 98 149 A 5 5 0 0 0 93 144 L 38 144 L 38 144 A 5 5 0 0 0 33 149" fill="rgb(210,210,210)" stroke="none"/>
  <path d="M 30 146 L 30 174 L 30 174 A 5 5 0 0 0 35 179 L 90 179 L 90 179 A 5 5 0 0 0 95 174 L 95 146 L 95 146 A 5 5 0 0 0 90 141 L 35 141 L 35 141 A 5 5 0 0 0 30 146" fill="rgb(255,126,121)" stroke="none"/>
  <path d="M 30 146 L 30 174 L 30 174 A 5 5 0 0 0 35 179 L 90 179 L 90 179 A 5 5 0 0 0 95 174 L 95 146 L 95 146 A 5 5 0 0 0 90 141 L 35 141 L 35 141 A 5 5 0 0 0 30 146" fill="none" stroke="rgb(0, 0, 0)" stroke-width="1"/>
  <text x="39" y="168" fill="rgb(0,0,0)" font-family="Liberation Sans, Arial, Helvetica, sans-serif" font-size="18" xml:space="preserve" dominant-baseline="auto">Client</text>
  <path d="M 298 149 L 298 177 L 298 177 A 5 5 0 0 0 303 182 L 365 182 L 365 182 A 5 5 0 0 0 370 177 L 370 149 L 370 149 A 5 5 0 0 0 365 144 L 303 144 L 303 144 A 5 5 0 0 0 298 149" fill="rgb(210,210,210)" stroke="none"/>
  <path d="M 295 146 L 295 174 L 295 174 A 5 5 0 0 0 300 179 L 362 179 L 362 179 A 5 5 0 0 0 367 174 L 367 146 L 367 146 A 5 5 0 0 0 362 141 L 300 141 L 300 141 A 5 5 0 0 0 295 146" fill="rgb(204,255,153)" stroke="none"/>
  <path d="M 295 146 L 295 174 L 295 174 A 5 5 0 0 0 300 179 L 362 179 L 362 179 A 5 5 0 0 0 367 174 L 367 146 L 367 146 A 5 5 0 0 0 362 141 L 300 141 L 300 141 A 5 5 0 0 0 295 146" fill="none" stroke="rgb(0, 0, 0)" stroke-width="1"/>
  <text x="304" y="168" fill="rgb(0,0,0)" font-family="Liberation Sans, Arial, Helvetica, sans-serif" font-size="18" xml:space="preserve" dominant-baseline="auto">Server</text>
  <path d="M 570 149 L 570 177 L 570 177 A 5 5 0 0 0 575 182 L 661 182 L 661 182 A 5 5 0 0 0 666 177 L 666 149 L 666 149 A 5 5 0 0 0 661 144 L 575 144 L 575 144 A 5 5 0 0 0 570 149" fill="rgb(210,210,210)" stroke="none"/>
  <path d="M 567 146 L 567 174 L 567 174 A 5 5 0 0 0 572 179 L 658 179 L 658 179 A 5 5 0 0 0 663 174 L 663 146 L 663 146 A 5 5 0 0 0 658 141 L 572 141 L 572 141 A 5 5 0 0 0 567 146" fill="rgb(100,0,255)" stroke="none"/>
  <path d="M 567 146 L 567 174 L 567 174 A 5 5 0 0 0 572 179 L 658 179 L 658 179 A 5 5 0 0 0 663 174 L 663 146 L 663 146 A 5 5 0 0 0 658 141 L 572 141 L 572 141 A 5 5 0 0 0 567 146" fill="none" stroke="rgb(0, 0, 0)" stroke-width="1"/>
  <text x="576" y="168" fill="rgb(0,0,0)" font-family="Liberation Sans, Arial, Helvetica, sans-serif" font-size="18" xml:space="preserve" dominant-baseline="auto">Database</text>
  <path d="M 128 212 M 448 212 M 456 220 M 456 244 M 128 244 M 128 212" fill="rgb(210,210,210)" stroke="none"/>
  <path d="M 125 209 M 445 209 M 445 217 M 453 217 M 453 241 M 125 241 M 125 209" fill="rgb(0,253,144)" stroke="none"/>
  <path d="M 125 209 M 445 209 M 445 217 M 453 217 M 445 209 M 453 217 M 453 241 M 125 241 M 125 209" fill="none" stroke="rgb(0, 0, 0)" stroke-width="1"/>
  <path d="M 125 225 M 100 225 M 95 230 M 95 271" fill="none" stroke="rgb(0, 0, 0)" stroke-width="1" stroke-dasharray="4,2"/>
  <path d="M 62.5 179 M 62.5 311" fill="none" stroke="rgb(0,0,0)" stroke-width="1" stroke-dasharray="3,3"/>
  <path d="M 331 179 M 331 311" fill="none" stroke="rgb(0,0,0)" stroke-width="1" stroke-dasharray="3,3"/>
  <path d="M 615 179 M 615 311" fill="none" stroke="rgb(0,0,0)" stroke-width="1" stroke-dasharray="3,3"/>
  <path d="M 62.5 179 L 62.5 311" fill="none" stroke="rgb(0,0,0)" stroke-width="1" stroke-dasharray="3,3"/>
  <path d="M 60 271 L 60 278.5 L 65 278.5 L 65 271 L 60 271" fill="rgb(255,126,121)" stroke="none"/>
  <path d="M 60 271 L 60 278.5 L 65 278.5 L 65 271 L 60 271" fill="none" stroke="rgb(0, 0, 0)" stroke-width="1"/>
  <path d="M 60 293.5 L 60 311 L 65 311 L 65 293.5 L 60 293.5" fill="rgb(255,126,121)" stroke="none"/>
  <path d="M 60 293.5 L 60 311 M 65 311 L 65 293.5 L 60 293.5" fill="none" stroke="rgb(0, 0, 0)" stroke-width="1"/>
  <path d="M 331 179 L 331 311" fill="none" stroke="rgb(0,0,0)" stroke-width="1" stroke-dasharray="3,3"/>
  <path d="M 615 179 L 615 311" fill="none" stroke="rgb(0,0,0)" stroke-width="1" stroke-dasharray="3,3"/>
  <path d="M 128 212 L 448 212 L 456 220 L 456 244 L 128 244 L 128 212" fill="rgb(210,210,210)" stroke="none"/>
  <path d="M 125 209 L 445 209 L 445 217 L 453 217 L 453 241 L 125 241 L 125 209" fill="rgb(0,253,144)" stroke="none"/>
  <path d="M 125 209 L 445 209 L 445 217 L 453 217 M 445 209 L 453 217 L 453 241 L 125 241 L 125 209" fill="none" stroke="rgb(0, 0, 0)" stroke-width="1"/>
  <path d="M 125 209 M 125 241 M 453 241 M 453 209 M 125 209" fill="none" stroke="rgb(0, 0, 0)" stroke-width="1"/>
  <text x="132.5" y="230.5" fill="rgb(0, 0, 0)" font-family="Liberation Sans, Arial, Helvetica, sans-serif" font-size="14" xml:space="preserve" dominant-baseline="auto">An asyncronous call to from and to the same actor</text>
  <path d="M 125 225 L 100 225 L 100 225 A 5 5 0 0 0 95 230 L 95 271" fill="none" stroke="rgb(0, 0, 0)" stroke-width="1" stroke-dasharray="4,2"/>
  <path d="M 65 271 L 120 271 L 120 271 A 5 5 0 0 1 125 276 L 125 296 L 125 296 A 5 5 0 0 1 120 301 L 65 301" fill="none" stroke="rgb(0, 0, 0)" stroke-width="1"/>
  <path d="M 65 301 L 75 296 L 65 301 L 75 306" fill="none" stroke="rgb(0, 0, 0)" stroke-width="1"/>
  <text x="135" y="288.5" fill="rgb(0,0,0)" font-family="Liberation Sans, Arial, Helvetica, sans-serif" font-size="14" xml:space="preserve" dominant-baseline="auto">1. Some async process</text>
  <path d="M 128 344 M 406 344 M 414 352 M 414 376 M 128 376 M 128 344" fill="rgb(210,210,210)" stroke="none"/>
  <path d="M 125 341 M 403 341 M 403 349 M 411 349 M 411 373 M 125 373 M 125 341" fill="rgb(0,253,144)" stroke="none"/>
  <path d="M 125 341 M 403 341 M 403 349 M 411 349 M 403 341 M 411 349 M 411 373 M 125 373 M 125 341" fill="none" stroke="rgb(0, 0, 0)" stroke-width="1"/>
  <path d="M 125 357 M 100 357 M 95 362 M 95 407" fill="none" stroke="rgb(0, 0, 0)" stroke-width="1" stroke-dasharray="4,2"/>
  <path d="M 62.5 311 M 62.5 425" fill="none" stroke="rgb(0,0,0)" stroke-width="1" stroke-dasharray="3,3"/>
  <path d="M 331 311 M 331 425" fill="none" stroke="rgb(0,0,0)" stroke-width="1" stroke-dasharray="3,3"/>
  <path d="M 615 311 M 615 425" fill="none" stroke="rgb(0,0,0)" stroke-width="1" stroke-dasharray="3,3"/>
  <path d="M 62.5 311 L 62.5 425" fill="none" stroke="rgb(0,0,0)" stroke-width="1" stroke-dasharray="3,3"/>
  <path d="M 60 311 L 60 425 L 65 425 L 65 311 L 60 311" fill="rgb(255,126,121)" stroke="none"/>
  <path d="M 60 311 L 60 425 M 65 425 L 65 311 M 60 311" fill="none" stroke="rgb(0, 0, 0)" stroke-width="1"/>
  <path d="M 331 311 L 331 425" fill="none" stroke="rgb(0,0,0)" stroke-width="1" stroke-dasharray="3,3"/>
  <path d="M 328.5 407 L 328.5 425 L 333.5 425 L 333.5 407 L 328.5 407" fill="rgb(204,255,153)" stroke="none"/>
  <path d="M 328.5 407 L 328.5 425 M 333.5 425 L 333.5 407 L 328.5 407" fill="none" stroke="rgb(0, 0, 0)" stroke-width="1"/>
  <path d="M 615 311 L 615 425" fill="none" stroke="rgb(0,0,0)" stroke-width="1" stroke-dasharray="3,3"/>
  <path d="M 128 344 L 406 344 L 414 352 L 414 376 L 128 376 L 128 344" fill="rgb(210,210,210)" stroke="none"/>
  <path d="M 125 341 L 403 341 L 403 349 L 411 349 L 411 373 L 125 373 L 125 341" fill="rgb(0,253,144)" stroke="none"/>
  <path d="M 125 341 L 403 341 L 403 349 L 411 349 M 403 341 L 411 349 L 411 373 L 125 373 L 125 341" fill="none" stroke="rgb(0, 0, 0)" stroke-width="1"/>
  <path d="M 125 341 M 125 373 M 411 373 M 411 341 M 125 341" fill="none" stroke="rgb(0, 0, 0)" stroke-width="1"/>
  <text x="132.5" y="362.5" fill="rgb(0, 0, 0)" font-family="Liberation Sans, Arial, Helvetica, sans-serif" font-size="14" xml:space="preserve" dominant-baseline="auto">This is a line of type "call" with a "comment"</text>
  <path d="M 125 357 L 100 357 L 100 357 A 5 5 0 0 0 95 362 L 95 407" fill="none" stroke="rgb(0, 0, 0)" stroke-width="1" stroke-dasharray="4,2"/>
  <text x="135" y="397" fill="rgb(0,0,0)" font-family="Liberation Sans, Arial, Helvetica, sans-serif" font-size="14" xml:space="preserve" dominant-baseline="auto">2. </text>
  <text x="150.57" y="397" fill="rgb(0,0,0)" font-family="Liberation Sans, Arial, Helvetica, sans-serif" font-size="14" xml:space="preserve" dominant-baseline="auto">someCall(param1, param2)</text>
  <path d="M 65 407 L 328.5 407" fill="none" stroke="rgb(0, 0, 0)" stroke-width="1"/>
  <path d="M 328.5 407 L 318.5 402 L 318.5 412 L 328.5 407" fill="rgb(0, 0, 0)" stroke="none"/>
  <path d="M 396.5 458 M 682.5 458 M 692.5 468 M 692.5 507 M 396.5 507 M 396.5 458" fill="rgb(210,210,210)" stroke="none"/>
  <path d="M 393.5 455 M 679.5 455 M 679.5 465 M 689.5 465 M 689.5 504 M 393.5 504 M 393.5 455" fill="rgb(0,253,144)" stroke="none"/>
  <path d="M 393.5 455 M 679.5 455 M 679.5 465 M 689.5 465 M 679.5 455 M 689.5 465 M 689.5 504 M 393.5 504 M 393.5 455" fill="none" stroke="rgb(0, 0, 0)" stroke-width="1"/>
  <path d="M 393.5 479.5 M 368.5 479.5 M 363.5 484.5 M 363.5 538" fill="none" stroke="rgb(0, 0, 0)" stroke-width="1" stroke-dasharray="4,2"/>
  <path d="M 62.5 425 M 62.5 557" fill="none" stroke="rgb(0,0,0)" stroke-width="1" stroke-dasharray="3,3"/>
  <path d="M 331 425 M 331 557" fill="none" stroke="rgb(0,0,0)" stroke-width="1" stroke-dasharray="3,3"/>
  <path d="M 615 425 M 615 557" fill="none" stroke="rgb(0,0,0)" stroke-width="1" stroke-dasharray="3,3"/>
  <path d="M 62.5 425 L 62.5 557" fill="none" stroke="rgb(0,0,0)" stroke-width="1" stroke-dasharray="3,3"/>
  <path d="M 60 425 L 60 557 L 65 557 L 65 425 L 60 425" fill="rgb(255,126,121)" stroke="none"/>
  <path d="M 60 425 L 60 557 M 65 557 L 65 425 M 60 425" fill="none" stroke="rgb(0, 0, 0)" stroke-width="1"/>
  <path d="M 331 425 L 331 557" fill="none" stroke="rgb(0,0,0)" stroke-width="1" stroke-dasharray="3,3"/>
  <path d="M 328.5 425 L 328.5 557 L 333.5 557 L 333.5 425 L 328.5 425" fill="rgb(204,255,153)" stroke="none"/>
  <path d="M 328.5 425 L 328.5 557 M 333.5 557 L 333.5 425 M 328.5 425" fill="none" stroke="rgb(0, 0, 0)" stroke-width="1"/>
  <path d="M 615 425 L 615 557" fill="none" stroke="rgb(0,0,0)" stroke-width="1" stroke-dasharray="3,3"/>
  <path d="M 612.5 538 L 612.5 548 L 617.5 548 L 617.5 538 L 612.5 538" fill="rgb(100,0,255)" stroke="none"/>
  <path d="M 612.5 538 L 612.5 548 L 617.5 548 L 617.5 538 L 612.5 538" fill="none" stroke="rgb(0, 0, 0)" stroke-width="1"/>
  <path d="M 396.5 458 L 682.5 458 L 692.5 468 L 692.5 507 L 396.5 507 L 396.5 458" fill="rgb(210,210,210)" stroke="none"/>
  <path d="M 393.5 455 L 679.5 455 L 679.5 465 L 689.5 465 L 689.5 504 L 393.5 504 L 393.5 455" fill="rgb(0,253,144)" stroke="none"/>
  <path d="M 393.5 455 L 679.5 455 L 679.5 465 L 689.5 465 M 679.5 455 L 689.5 465 L 689.5 504 L 393.5 504 L 393.5 455" fill="none" stroke="rgb(0, 0, 0)" stroke-width="1"/>
  <path d="M 393.5 455 M 393.5 504 M 689.5 504 M 689.5 455 M 393.5 455" fill="none" stroke="rgb(0, 0, 0)" stroke-width="1"/>
  <text x="401" y="476.5" fill="rgb(0, 0, 0)" font-family="Liberation Sans, Arial, Helvetica, sans-serif" font-size="14" xml:space="preserve" dominant-baseline="auto">someCall the returns immediately, i.e. breaks</text>
  <text x="401" y="493.3" fill="rgb(0, 0, 0)" font-family="Liberation Sans, Arial, Helvetica, sans-serif" font-size="14" xml:space="preserve" dominant-baseline="auto">the lifeline in the called actor</text>
  <path d="M 393.5 479.5 L 368.5 479.5 L 368.5 479.5 A 5 5 0 0 0 363.5 484.5 L 363.5 538" fill="none" stroke="rgb(0, 0, 0)" stroke-width="1" stroke-dasharray="4,2"/>
  <text x="403.5" y="528" fill="rgb(0,0,0)" font-family="Liberation Sans, Arial, Helvetica, sans-serif" font-size="14" xml:space="preserve" dominant-baseline="auto">3. </text>
  <text x="419.07" y="528" fill="rgb(0,0,0)" font-family="Liberation Sans, Arial, Helvetica, sans-serif" font-size="14" xml:space="preserve" dominant-baseline="auto">someDbCall() : dbResponse</text>
  <path d="M 333.5 538 L 612.5 538" fill="none" stroke="rgb(0, 0, 0)" stroke-width="1"/>
  <path d="M 612.5 538 L 602.5 533 L 602.5 543 L 612.5 538" fill="rgb(0, 0, 0)" stroke="none"/>
  <path d="M 62.5 557 M 62.5 731" fill="none" stroke="rgb(0,0,0)" stroke-width="1" stroke-dasharray="3,3"/>
  <path d="M 331 557 M 331 731" fill="none" stroke="rgb(0,0,0)" stroke-width="1" stroke-dasharray="3,3"/>
  <path d="M 615 557 M 615 731" fill="none" stroke="rgb(0,0,0)" stroke-width="1" stroke-dasharray="3,3"/>
  <path d="M 62.5 557 L 62.5 731" fill="none" stroke="rgb(0,0,0)" stroke-width="1" stroke-dasharray="3,3"/>
  <path d="M 60 557 L 60 731 L 65 731 L 65 557 L 60 557" fill="rgb(255,126,121)" stroke="none"/>
  <path d="M 60 557 L 60 731 M 65 731 L 65 557 M 60 557" fill="none" stroke="rgb(0, 0, 0)" stroke-width="1"/>
  <path d="M 331 557 L 331 731" fill="none" stroke="rgb(0,0,0)" stroke-width="1" stroke-dasharray="3,3"/>
  <path d="M 328.5 557 L 328.5 731 L 333.5 731 L 333.5 557 L 328.5 557" fill="rgb(204,255,153)" stroke="none"/>
  <path d="M 328.5 557 L 328.5 731 M 333.5 731 L 333.5 557 M 328.5 557" fill="none" stroke="rgb(0, 0, 0)" stroke-width="1"/>
  <path d="M 615 557 L 615 731" fill="none" stroke="rgb(0,0,0)" stroke-width="1" stroke-dasharray="3,3"/>
  <path d="M 30 592 L 30 722 L 30 722 A 5 5 0 0 0 35 727 L 688 727 L 688 727 A 5 5 0 0 0 693 722 L 693 592 L 693 592 A 5 5 0 0 0 688 587 L 35 587 L 35 587 A 5 5 0 0 0 30 592" fill="rgb(255,235,235)" stroke="none"/>
  <path d="M 30 592 L 30 722 L 30 722 A 5 5 0 0 0 35 727 L 688 727 L 688 727 A 5 5 0 0 0 693 722 L 693 592 L 693 592 A 5 5 0 0 0 688 587 L 35 587 L 35 587 A 5 5 0 0 0 30 592" fill="none" stroke="rgb(255,0,0)" stroke-width="3"/>
  <text x="35" y="604" fill="rgb(120,0,0)" font-family="Liberation Mono, Courier New, Courier, monospace" font-size="12" xml:space="preserve" font-weight="bold" dominant-baseline="auto">ERROR at source line 42:</text>
  <text x="35" y="618.4" fill="rgb(120,0,0)" font-family="Liberation Mono, Courier New, Courier, monospace" font-size="12" xml:space="preserve" dominant-baseline="auto">  unrecognised line type 'call_error' (expected blank, fragment, state, condition, call,</text>
  <text x="35" y="632.8" fill="rgb(120,0,0)" font-family="Liberation Mono, Courier New, Courier, monospace" font-size="12" xml:space="preserve" dominant-baseline="auto">  return, reference or terminate)</text>
  <text x="35" y="661.6" fill="rgb(120,0,0)" font-family="Liberation Mono, Courier New, Courier, monospace" font-size="12" xml:space="preserve" dominant-baseline="auto">Offending object:</text>
  <text x="35" y="676" fill="rgb(120,0,0)" font-family="Liberation Mono, Courier New, Courier, monospace" font-size="12" xml:space="preserve" dominant-baseline="auto">  type: "call_error"</text>
  <text x="35" y="690.4" fill="rgb(120,0,0)" font-family="Liberation Mono, Courier New, Courier, monospace" font-size="12" xml:space="preserve" dominant-baseline="auto">  from: "server"</text>
  <text x="35" y="704.8" fill="rgb(120,0,0)" font-family="Liberation Mono, Courier New, Courier, monospace" font-size="12" xml:space="preserve" dominant-baseline="auto">  to: "server"</text>
  <text x="35" y="719.2" fill="rgb(120,0,0)" font-family="Liberation Mono, Courier New, Courier, monospace" font-size="12" xml:space="preserve" dominant-baseline="auto">  text: ["Do some internal processing(dbResponse) :  some return value"]</text>
  <path d="M 138 764 M 243 764 M 251 772 M 251 796 M 138 796 M 138 764" fill="rgb(210,210,210)" stroke="none"/>
  <path d="M 135 761 M 240 761 M 240 769 M 248 769 M 248 793 M 135 793 M 135 761" fill="rgb(0,253,144)" stroke="none"/>
  <path d="M 135 761 M 240 761 M 240 769 M 248 769 M 240 761 M 248 769 M 248 793 M 135 793 M 135 761" fill="none" stroke="rgb(0, 0, 0)" stroke-width="1"/>
  <path d="M 135 777 M 110 777 M 105 782 M 105 822" fill="none" stroke="rgb(0, 0, 0)" stroke-width="1" stroke-dasharray="4,2"/>
  <path d="M 62.5 731 M 62.5 833" fill="none" stroke="rgb(0,0,0)" stroke-width="1" stroke-dasharray="3,3"/>
  <path d="M 331 731 M 331 833" fill="none" stroke="rgb(0,0,0)" stroke-width="1" stroke-dasharray="3,3"/>
  <path d="M 615 731 M 615 833" fill="none" stroke="rgb(0,0,0)" stroke-width="1" stroke-dasharray="3,3"/>
  <path d="M 62.5 731 L 62.5 833" fill="none" stroke="rgb(0,0,0)" stroke-width="1" stroke-dasharray="3,3"/>
  <path d="M 60 731 L 60 827 L 65 827 L 65 731 L 60 731" fill="rgb(255,126,121)" stroke="none"/>
  <path d="M 60 731 L 60 827 L 65 827 L 65 731 M 60 731" fill="none" stroke="rgb(0, 0, 0)" stroke-width="1"/>
  <path d="M 331 731 L 331 833" fill="none" stroke="rgb(0,0,0)" stroke-width="1" stroke-dasharray="3,3"/>
  <path d="M 328.5 731 L 328.5 827 L 333.5 827 L 333.5 731 L 328.5 731" fill="rgb(204,255,153)" stroke="none"/>
  <path d="M 328.5 731 L 328.5 827 L 333.5 827 L 333.5 731 M 328.5 731" fill="none" stroke="rgb(0, 0, 0)" stroke-width="1"/>
  <path d="M 615 731 L 615 833" fill="none" stroke="rgb(0,0,0)" stroke-width="1" stroke-dasharray="3,3"/>
  <path d="M 138 764 L 243 764 L 251 772 L 251 796 L 138 796 L 138 764" fill="rgb(210,210,210)" stroke="none"/>
  <path d="M 135 761 L 240 761 L 240 769 L 248 769 L 248 793 L 135 793 L 135 761" fill="rgb(0,253,144)" stroke="none"/>
  <path d="M 135 761 L 240 761 L 240 769 L 248 769 M 240 761 L 248 769 L 248 793 L 135 793 L 135 761" fill="none" stroke="rgb(0, 0, 0)" stroke-width="1"/>
  <path d="M 135 761 M 135 793 M 248 793 M 248 761 M 135 761" fill="none" stroke="rgb(0, 0, 0)" stroke-width="1"/>
  <text x="142.5" y="782.5" fill="rgb(0, 0, 0)" font-family="Liberation Sans, Arial, Helvetica, sans-serif" font-size="14" xml:space="preserve" dominant-baseline="auto">Return call type</text>
  <path d="M 135 777 L 110 777 L 110 777 A 5 5 0 0 0 105 782 L 105 822" fill="none" stroke="rgb(0, 0, 0)" stroke-width="1" stroke-dasharray="4,2"/>
  <text x="142.5" y="814.5" fill="rgb(0,0,0)" font-family="Liberation Sans, Arial, Helvetica, sans-serif" font-size="14" xml:space="preserve" dominant-baseline="auto">4. </text>
  <text x="158.07" y="814.5" fill="rgb(0,0,0)" font-family="Liberation Sans, Arial, Helvetica, sans-serif" font-size="14" xml:space="preserve" dominant-baseline="auto">:some return value</text>
  <path d="M 328.5 822 L 65 822" fill="none" stroke="rgb(0, 0, 0)" stroke-width="1" stroke-dasharray="6,3"/>
  <path d="M 65 822 L 75 822 M 65 822 L 75 817 M 65 822 L 75 827" fill="none" stroke="rgb(0, 0, 0)" stroke-width="1"/>
  <path d="M 62.5 833 L 62.5 857" fill="none" stroke="rgb(0,0,0)" stroke-width="1" stroke-dasharray="3,3"/>
  <path d="M 331 833 L 331 857" fill="none" stroke="rgb(0,0,0)" stroke-width="1" stroke-dasharray="3,3"/>
  <path d="M 615 833 L 615 857" fill="none" stroke="rgb(0,0,0)" stroke-width="1" stroke-dasharray="3,3"/>
</svg>