<?xml version="1.0"?>
<svg xmlns="http://www.w3.org/2000/svg" width="1014" height="1027" viewBox="0 0 1014 1027">
  <title>Mermaid advanced arrows</title>
  <desc>Demonstrates Mermaid bidirectional arrows and half-arrow variants mapped onto sequencer endpoint arrows.
From the project root, regenerate this Mermaid transform and SVG with:
node sequencer.js --mermaid -i test/mermaid-features/09-advanced-arrows/input.mmd -o -f -t test/mermaid-features/09-advanced-arrows</desc>
  <rect width="100%" height="100%" fill="white"/>
  <path d="M 0 0 L 0 1017 L 1004 1017 L 1004 0 L 0 0" fill="rgb(255, 255, 255)" stroke="none" shape-rendering="crispEdges"/>
  <path d="M 30 30 L 30 57 L 243 57 L 243 30 L 30 30" fill="rgba(0,0,0,0)" stroke="none" shape-rendering="crispEdges"/>
  <text x="35" y="49" fill="rgb(0,0,0)" font-family="Liberation Sans, Arial, Helvetica, sans-serif" font-size="14" xml:space="preserve" font-weight="bold" dominant-baseline="auto">Title:</text>
  <text x="68.44" y="49" fill="rgb(0,0,0)" font-family="Liberation Sans, Arial, Helvetica, sans-serif" font-size="14" xml:space="preserve" dominant-baseline="auto"> </text>
  <text x="72.33" y="49" fill="rgb(0,0,0)" font-family="Liberation Sans, Arial, Helvetica, sans-serif" font-size="14" xml:space="preserve" dominant-baseline="auto">Mermaid advanced arrows</text>
  <path d="M 30 57 L 30 84 L 120 84 L 120 57 L 30 57" fill="rgba(0,0,0,0)" stroke="none" shape-rendering="crispEdges"/>
  <text x="35" y="76" fill="rgb(0,0,0)" font-family="Liberation Sans, Arial, Helvetica, sans-serif" font-size="14" xml:space="preserve" font-weight="bold" dominant-baseline="auto">Version:</text>
  <text x="91.01" y="76" fill="rgb(0,0,0)" font-family="Liberation Sans, Arial, Helvetica, sans-serif" font-size="14" xml:space="preserve" dominant-baseline="auto"> </text>
  <text x="94.9" y="76" fill="rgb(0,0,0)" font-family="Liberation Sans, Arial, Helvetica, sans-serif" font-size="14" xml:space="preserve" dominant-baseline="auto">1.0</text>
  <path d="M 30 84 L 30 145 L 974 145 L 974 84 L 30 84" fill="rgba(0,0,0,0)" stroke="none" shape-rendering="crispEdges"/>
  <text x="35" y="103" fill="rgb(0,0,0)" font-family="Liberation Sans, Arial, Helvetica, sans-serif" font-size="14" xml:space="preserve" font-weight="bold" dominant-baseline="auto">Description:</text>
  <text x="116.68" y="103" fill="rgb(0,0,0)" font-family="Liberation Sans, Arial, Helvetica, sans-serif" font-size="14" xml:space="preserve" dominant-baseline="auto"> </text>
  <text x="120.57" y="103" fill="rgb(0,0,0)" font-family="Liberation Sans, Arial, Helvetica, sans-serif" font-size="14" xml:space="preserve" dominant-baseline="auto">Demonstrates Mermaid bidirectional arrows and half-arrow variants mapped onto sequencer endpoint arrows.</text>
  <text x="120.57" y="119.8" fill="rgb(0,0,0)" font-family="Liberation Sans, Arial, Helvetica, sans-serif" font-size="14" xml:space="preserve" dominant-baseline="auto">From the project root, regenerate this Mermaid transform and SVG with:</text>
  <text x="120.57" y="136.6" fill="rgb(0,0,0)" font-family="Liberation Sans, Arial, Helvetica, sans-serif" font-size="14" xml:space="preserve" dominant-baseline="auto">node sequencer.js --mermaid -i test/mermaid-features/09-advanced-arrows/input.mmd -o -f -t test/mermaid-features/09-advanced-arrows</text>
  <path d="M 33 183 L 33 211 L 33 211 A 5 5 0 0 0 38 216 L 94 216 L 94 216 A 5 5 0 0 0 99 211 L 99 183 L 99 183 A 5 5 0 0 0 94 178 L 38 178 L 38 178 A 5 5 0 0 0 33 183" fill="rgb(210,210,210)" stroke="none" shape-rendering="crispEdges"/>
  <path d="M 30 180 L 30 208 L 30 208 A 5 5 0 0 0 35 213 L 91 213 L 91 213 A 5 5 0 0 0 96 208 L 96 180 L 96 180 A 5 5 0 0 0 91 175 L 35 175 L 35 175 A 5 5 0 0 0 30 180" fill="rgb(95,183,224)" stroke="none" shape-rendering="crispEdges"/>
  <path d="M 30 180 L 30 208 L 30 208 A 5 5 0 0 0 35 213 L 91 213 L 91 213 A 5 5 0 0 0 96 208 L 96 180 L 96 180 A 5 5 0 0 0 91 175 L 35 175 L 35 175 A 5 5 0 0 0 30 180" fill="none" stroke="rgb(0, 0, 0)" stroke-width="1"/>
  <text x="39" y="202" fill="rgb(0,0,0)" font-family="Liberation Sans, Arial, Helvetica, sans-serif" font-size="18" xml:space="preserve" dominant-baseline="auto">Caller</text>
  <path d="M 249 183 L 249 211 L 249 211 A 5 5 0 0 0 254 216 L 323 216 L 323 216 A 5 5 0 0 0 328 211 L 328 183 L 328 183 A 5 5 0 0 0 323 178 L 254 178 L 254 178 A 5 5 0 0 0 249 183" fill="rgb(210,210,210)" stroke="none" shape-rendering="crispEdges"/>
  <path d="M 246 180 L 246 208 L 246 208 A 5 5 0 0 0 251 213 L 320 213 L 320 213 A 5 5 0 0 0 325 208 L 325 180 L 325 180 A 5 5 0 0 0 320 175 L 251 175 L 251 175 A 5 5 0 0 0 246 180" fill="rgb(95,183,224)" stroke="none" shape-rendering="crispEdges"/>
  <path d="M 246 180 L 246 208 L 246 208 A 5 5 0 0 0 251 213 L 320 213 L 320 213 A 5 5 0 0 0 325 208 L 325 180 L 325 180 A 5 5 0 0 0 320 175 L 251 175 L 251 175 A 5 5 0 0 0 246 180" fill="none" stroke="rgb(0, 0, 0)" stroke-width="1"/>
  <text x="255" y="202" fill="rgb(0,0,0)" font-family="Liberation Sans, Arial, Helvetica, sans-serif" font-size="18" xml:space="preserve" dominant-baseline="auto">Service</text>
  <path d="M 63 213 L 63 297" fill="none" stroke="rgb(0,0,0)" stroke-width="1" stroke-dasharray="3,3"/>
  <path d="M 60.5 277 L 60.5 297 L 65.5 297 L 65.5 277 L 60.5 277" fill="rgb(95,183,224)" stroke="none" shape-rendering="crispEdges"/>
  <path d="M 60.5 277 L 60.5 297 M 65.5 297 L 65.5 277 L 60.5 277" fill="none" stroke="rgb(0, 0, 0)" stroke-width="1"/>
  <path d="M 285.5 213 L 285.5 297" fill="none" stroke="rgb(0,0,0)" stroke-width="1" stroke-dasharray="3,3"/>
  <path d="M 283 277 L 283 297 L 288 297 L 288 277 L 283 277" fill="rgb(95,183,224)" stroke="none" shape-rendering="crispEdges"/>
  <path d="M 283 277 L 283 297 M 288 297 L 288 277 L 283 277" fill="none" stroke="rgb(0, 0, 0)" stroke-width="1"/>
  <text x="105.5" y="267" fill="rgb(0,0,0)" font-family="Liberation Mono, Courier New, Courier, monospace" font-size="14" xml:space="preserve" dominant-baseline="auto">1. Bidirectional filled [Mermaid: Caller&lt;</text>
  <text x="449.96" y="267" fill="rgb(0,0,0)" font-family="Liberation Mono, Courier New, Courier, monospace" font-size="14" xml:space="preserve" dominant-baseline="auto">&lt;-&gt;</text>
  <text x="475.16" y="267" fill="rgb(0,0,0)" font-family="Liberation Mono, Courier New, Courier, monospace" font-size="14" xml:space="preserve" dominant-baseline="auto">&gt;Service]</text>
  <path d="M 65.5 277 L 283 277" fill="none" stroke="rgb(0, 0, 0)" stroke-width="1"/>
  <path d="M 273 272 L 273 282 L 283 277" fill="rgb(0, 0, 0)" stroke="none" shape-rendering="crispEdges"/>
  <path d="M 75.5 272 L 75.5 282 L 65.5 277" fill="rgb(0, 0, 0)" stroke="none" shape-rendering="crispEdges"/>
  <path d="M 63 297 L 63 363" fill="none" stroke="rgb(0,0,0)" stroke-width="1" stroke-dasharray="3,3"/>
  <path d="M 60.5 297 L 60.5 363 L 65.5 363 L 65.5 297 L 60.5 297" fill="rgb(95,183,224)" stroke="none" shape-rendering="crispEdges"/>
  <path d="M 60.5 297 L 60.5 363 M 65.5 363 L 65.5 297 M 60.5 297" fill="none" stroke="rgb(0, 0, 0)" stroke-width="1"/>
  <path d="M 285.5 297 L 285.5 363" fill="none" stroke="rgb(0,0,0)" stroke-width="1" stroke-dasharray="3,3"/>
  <path d="M 283 297 L 283 361 L 288 361 L 288 297 L 283 297" fill="rgb(95,183,224)" stroke="none" shape-rendering="crispEdges"/>
  <path d="M 283 297 L 283 361 L 288 361 L 288 297 M 283 297" fill="none" stroke="rgb(0, 0, 0)" stroke-width="1"/>
  <text x="113" y="348.5" fill="rgb(0,0,0)" font-family="Liberation Mono, Courier New, Courier, monospace" font-size="14" xml:space="preserve" dominant-baseline="auto">2. Bidirectional dotted filled [Mermaid: Service&lt;</text>
  <text x="524.67" y="348.5" fill="rgb(0,0,0)" font-family="Liberation Mono, Courier New, Courier, monospace" font-size="14" xml:space="preserve" dominant-baseline="auto">&lt;--&gt;</text>
  <text x="558.27" y="348.5" fill="rgb(0,0,0)" font-family="Liberation Mono, Courier New, Courier, monospace" font-size="14" xml:space="preserve" dominant-baseline="auto">&gt;Caller]</text>
  <path d="M 283 356 L 65.5 356" fill="none" stroke="rgb(0, 0, 0)" stroke-width="1" stroke-dasharray="4,2"/>
  <path d="M 65.5 356 L 75.5 351 L 75.5 361 L 65.5 356" fill="rgb(0, 0, 0)" stroke="none" shape-rendering="crispEdges"/>
  <path d="M 283 356 L 273 351 L 273 361 L 283 356" fill="rgb(0, 0, 0)" stroke="none" shape-rendering="crispEdges"/>
  <path d="M 63 363 L 63 447" fill="none" stroke="rgb(0,0,0)" stroke-width="1" stroke-dasharray="3,3"/>
  <path d="M 60.5 363 L 60.5 447 L 65.5 447 L 65.5 363 L 60.5 363" fill="rgb(95,183,224)" stroke="none" shape-rendering="crispEdges"/>
  <path d="M 60.5 363 L 60.5 447 M 65.5 447 L 65.5 363 M 60.5 363" fill="none" stroke="rgb(0, 0, 0)" stroke-width="1"/>
  <path d="M 285.5 363 L 285.5 447" fill="none" stroke="rgb(0,0,0)" stroke-width="1" stroke-dasharray="3,3"/>
  <path d="M 283 427 L 283 447 L 288 447 L 288 427 L 283 427" fill="rgb(95,183,224)" stroke="none" shape-rendering="crispEdges"/>
  <path d="M 283 427 L 283 447 M 288 447 L 288 427 L 283 427" fill="none" stroke="rgb(0, 0, 0)" stroke-width="1"/>
  <text x="105.5" y="417" fill="rgb(0,0,0)" font-family="Liberation Mono, Courier New, Courier, monospace" font-size="14" xml:space="preserve" dominant-baseline="auto">3. Top half end [Mermaid: Caller-|\Service]</text>
  <path d="M 65.5 427 L 283 427" fill="none" stroke="rgb(0, 0, 0)" stroke-width="1"/>
  <path d="M 273 422 L 283 427" fill="none" stroke="rgb(0, 0, 0)" stroke-width="1"/>
  <path d="M 63 447 L 63 513" fill="none" stroke="rgb(0,0,0)" stroke-width="1" stroke-dasharray="3,3"/>
  <path d="M 60.5 447 L 60.5 513 L 65.5 513 L 65.5 447 L 60.5 447" fill="rgb(95,183,224)" stroke="none" shape-rendering="crispEdges"/>
  <path d="M 60.5 447 L 60.5 513 M 65.5 513 L 65.5 447 M 60.5 447" fill="none" stroke="rgb(0, 0, 0)" stroke-width="1"/>
  <path d="M 285.5 447 L 285.5 513" fill="none" stroke="rgb(0,0,0)" stroke-width="1" stroke-dasharray="3,3"/>
  <path d="M 283 447 L 283 511 L 288 511 L 288 447 L 283 447" fill="rgb(95,183,224)" stroke="none" shape-rendering="crispEdges"/>
  <path d="M 283 447 L 283 511 L 288 511 L 288 447 M 283 447" fill="none" stroke="rgb(0, 0, 0)" stroke-width="1"/>
  <text x="113" y="498.5" fill="rgb(0,0,0)" font-family="Liberation Mono, Courier New, Courier, monospace" font-size="14" xml:space="preserve" dominant-baseline="auto">4. Dotted bottom half end [Mermaid: Service--|/Caller]</text>
  <path d="M 283 506 L 65.5 506" fill="none" stroke="rgb(0, 0, 0)" stroke-width="1" stroke-dasharray="4,2"/>
  <path d="M 75.5 511 L 65.5 506" fill="none" stroke="rgb(0, 0, 0)" stroke-width="1"/>
  <path d="M 63 513 L 63 597" fill="none" stroke="rgb(0,0,0)" stroke-width="1" stroke-dasharray="3,3"/>
  <path d="M 60.5 513 L 60.5 597 L 65.5 597 L 65.5 513 L 60.5 513" fill="rgb(95,183,224)" stroke="none" shape-rendering="crispEdges"/>
  <path d="M 60.5 513 L 60.5 597 M 65.5 597 L 65.5 513 M 60.5 513" fill="none" stroke="rgb(0, 0, 0)" stroke-width="1"/>
  <path d="M 285.5 513 L 285.5 597" fill="none" stroke="rgb(0,0,0)" stroke-width="1" stroke-dasharray="3,3"/>
  <path d="M 283 577 L 283 597 L 288 597 L 288 577 L 283 577" fill="rgb(95,183,224)" stroke="none" shape-rendering="crispEdges"/>
  <path d="M 283 577 L 283 597 M 288 597 L 288 577 L 283 577" fill="none" stroke="rgb(0, 0, 0)" stroke-width="1"/>
  <text x="105.5" y="567" fill="rgb(0,0,0)" font-family="Liberation Mono, Courier New, Courier, monospace" font-size="14" xml:space="preserve" dominant-baseline="auto">5. Reverse top half [Mermaid: Caller/|-Service]</text>
  <path d="M 65.5 577 L 283 577" fill="none" stroke="rgb(0, 0, 0)" stroke-width="1"/>
  <path d="M 273 572 L 273 582 L 283 577" fill="rgb(0, 0, 0)" stroke="none" shape-rendering="crispEdges"/>
  <path d="M 75.5 572 L 65.5 577" fill="none" stroke="rgb(0, 0, 0)" stroke-width="1"/>
  <path d="M 63 597 L 63 663" fill="none" stroke="rgb(0,0,0)" stroke-width="1" stroke-dasharray="3,3"/>
  <path d="M 60.5 597 L 60.5 663 L 65.5 663 L 65.5 597 L 60.5 597" fill="rgb(95,183,224)" stroke="none" shape-rendering="crispEdges"/>
  <path d="M 60.5 597 L 60.5 663 M 65.5 663 L 65.5 597 M 60.5 597" fill="none" stroke="rgb(0, 0, 0)" stroke-width="1"/>
  <path d="M 285.5 597 L 285.5 663" fill="none" stroke="rgb(0,0,0)" stroke-width="1" stroke-dasharray="3,3"/>
  <path d="M 283 597 L 283 661 L 288 661 L 288 597 L 283 597" fill="rgb(95,183,224)" stroke="none" shape-rendering="crispEdges"/>
  <path d="M 283 597 L 283 661 L 288 661 L 288 597 M 283 597" fill="none" stroke="rgb(0, 0, 0)" stroke-width="1"/>
  <text x="113" y="648.5" fill="rgb(0,0,0)" font-family="Liberation Mono, Courier New, Courier, monospace" font-size="14" xml:space="preserve" dominant-baseline="auto">6. Dotted reverse bottom half [Mermaid: Service\|--Caller]</text>
  <path d="M 283 656 L 65.5 656" fill="none" stroke="rgb(0, 0, 0)" stroke-width="1" stroke-dasharray="4,2"/>
  <path d="M 273 661 L 283 656" fill="none" stroke="rgb(0, 0, 0)" stroke-width="1"/>
  <path d="M 63 663 L 63 747" fill="none" stroke="rgb(0,0,0)" stroke-width="1" stroke-dasharray="3,3"/>
  <path d="M 60.5 663 L 60.5 747 L 65.5 747 L 65.5 663 L 60.5 663" fill="rgb(95,183,224)" stroke="none" shape-rendering="crispEdges"/>
  <path d="M 60.5 663 L 60.5 747 M 65.5 747 L 65.5 663 M 60.5 663" fill="none" stroke="rgb(0, 0, 0)" stroke-width="1"/>
  <path d="M 285.5 663 L 285.5 747" fill="none" stroke="rgb(0,0,0)" stroke-width="1" stroke-dasharray="3,3"/>
  <path d="M 283 727 L 283 747 L 288 747 L 288 727 L 283 727" fill="rgb(95,183,224)" stroke="none" shape-rendering="crispEdges"/>
  <path d="M 283 727 L 283 747 M 288 747 L 288 727 L 283 727" fill="none" stroke="rgb(0, 0, 0)" stroke-width="1"/>
  <text x="105.5" y="717" fill="rgb(0,0,0)" font-family="Liberation Mono, Courier New, Courier, monospace" font-size="14" xml:space="preserve" dominant-baseline="auto">7. Top stick end [Mermaid: Caller-\Service]</text>
  <path d="M 65.5 727 L 283 727" fill="none" stroke="rgb(0, 0, 0)" stroke-width="1"/>
  <path d="M 273 727 L 283 727 M 273 722 L 283 727" fill="none" stroke="rgb(0, 0, 0)" stroke-width="1"/>
  <path d="M 63 747 L 63 813" fill="none" stroke="rgb(0,0,0)" stroke-width="1" stroke-dasharray="3,3"/>
  <path d="M 60.5 747 L 60.5 813 L 65.5 813 L 65.5 747 L 60.5 747" fill="rgb(95,183,224)" stroke="none" shape-rendering="crispEdges"/>
  <path d="M 60.5 747 L 60.5 813 M 65.5 813 L 65.5 747 M 60.5 747" fill="none" stroke="rgb(0, 0, 0)" stroke-width="1"/>
  <path d="M 285.5 747 L 285.5 813" fill="none" stroke="rgb(0,0,0)" stroke-width="1" stroke-dasharray="3,3"/>
  <path d="M 283 747 L 283 811 L 288 811 L 288 747 L 283 747" fill="rgb(95,183,224)" stroke="none" shape-rendering="crispEdges"/>
  <path d="M 283 747 L 283 811 L 288 811 L 288 747 M 283 747" fill="none" stroke="rgb(0, 0, 0)" stroke-width="1"/>
  <text x="113" y="798.5" fill="rgb(0,0,0)" font-family="Liberation Mono, Courier New, Courier, monospace" font-size="14" xml:space="preserve" dominant-baseline="auto">8. Dotted bottom stick end [Mermaid: Service--//Caller]</text>
  <path d="M 283 806 L 65.5 806" fill="none" stroke="rgb(0, 0, 0)" stroke-width="1" stroke-dasharray="4,2"/>
  <path d="M 75.5 806 L 65.5 806 M 75.5 811 L 65.5 806" fill="none" stroke="rgb(0, 0, 0)" stroke-width="1"/>
  <path d="M 63 813 L 63 897" fill="none" stroke="rgb(0,0,0)" stroke-width="1" stroke-dasharray="3,3"/>
  <path d="M 60.5 813 L 60.5 897 L 65.5 897 L 65.5 813 L 60.5 813" fill="rgb(95,183,224)" stroke="none" shape-rendering="crispEdges"/>
  <path d="M 60.5 813 L 60.5 897 M 65.5 897 L 65.5 813 M 60.5 813" fill="none" stroke="rgb(0, 0, 0)" stroke-width="1"/>
  <path d="M 285.5 813 L 285.5 897" fill="none" stroke="rgb(0,0,0)" stroke-width="1" stroke-dasharray="3,3"/>
  <path d="M 283 877 L 283 897 L 288 897 L 288 877 L 283 877" fill="rgb(95,183,224)" stroke="none" shape-rendering="crispEdges"/>
  <path d="M 283 877 L 283 897 M 288 897 L 288 877 L 283 877" fill="none" stroke="rgb(0, 0, 0)" stroke-width="1"/>
  <text x="105.5" y="867" fill="rgb(0,0,0)" font-family="Liberation Mono, Courier New, Courier, monospace" font-size="14" xml:space="preserve" dominant-baseline="auto">9. Reverse top stick [Mermaid: Caller//-Service]</text>
  <path d="M 65.5 877 L 283 877" fill="none" stroke="rgb(0, 0, 0)" stroke-width="1"/>
  <path d="M 273 872 L 273 882 L 283 877" fill="rgb(0, 0, 0)" stroke="none" shape-rendering="crispEdges"/>
  <path d="M 75.5 877 L 65.5 877 M 75.5 872 L 65.5 877" fill="none" stroke="rgb(0, 0, 0)" stroke-width="1"/>
  <path d="M 63 897 L 63 963" fill="none" stroke="rgb(0,0,0)" stroke-width="1" stroke-dasharray="3,3"/>
  <path d="M 60.5 897 L 60.5 963 L 65.5 963 L 65.5 897 L 60.5 897" fill="rgb(95,183,224)" stroke="none" shape-rendering="crispEdges"/>
  <path d="M 60.5 897 L 60.5 963 M 65.5 963 L 65.5 897 M 60.5 897" fill="none" stroke="rgb(0, 0, 0)" stroke-width="1"/>
  <path d="M 285.5 897 L 285.5 963" fill="none" stroke="rgb(0,0,0)" stroke-width="1" stroke-dasharray="3,3"/>
  <path d="M 283 897 L 283 961 L 288 961 L 288 897 L 283 897" fill="rgb(95,183,224)" stroke="none" shape-rendering="crispEdges"/>
  <path d="M 283 897 L 283 961 L 288 961 L 288 897 M 283 897" fill="none" stroke="rgb(0, 0, 0)" stroke-width="1"/>
  <text x="113" y="948.5" fill="rgb(0,0,0)" font-family="Liberation Mono, Courier New, Courier, monospace" font-size="14" xml:space="preserve" dominant-baseline="auto">10. Dotted reverse bottom stick [Mermaid: Service\\--Caller]</text>
  <path d="M 283 956 L 65.5 956" fill="none" stroke="rgb(0, 0, 0)" stroke-width="1" stroke-dasharray="4,2"/>
  <path d="M 273 956 L 283 956 M 273 961 L 283 956" fill="none" stroke="rgb(0, 0, 0)" stroke-width="1"/>
  <path d="M 63 963 L 63 987" fill="none" stroke="rgb(0,0,0)" stroke-width="1" stroke-dasharray="3,3"/>
  <path d="M 60.5 963 L 65.5 963" fill="none" stroke="rgb(0, 0, 0)" stroke-width="1"/>
  <path d="M 285.5 963 L 285.5 987" fill="none" stroke="rgb(0,0,0)" stroke-width="1" stroke-dasharray="3,3"/>
</svg>