<?xml version="1.0"?>
<svg xmlns="http://www.w3.org/2000/svg" width="582" height="816" viewBox="0 0 582 816">
  <title>Input</title>
  <rect width="100%" height="100%" fill="white"/>
  <path d="M 0 0 L 0 806 L 572 806 L 572 0 L 0 0" fill="rgb(255, 255, 255)" stroke="none"/>
  <path d="M 30 30 L 30 57 L 110 57 L 110 30 L 30 30" fill="rgba(0,0,0,0)" stroke="none"/>
  <text x="35" y="49" fill="rgb(0,0,0)" font-family="Liberation Sans, Arial, Helvetica, sans-serif" font-size="14" xml:space="preserve" font-weight="bold" dominant-baseline="auto">Title:</text>
  <text x="68.44" y="49" fill="rgb(0,0,0)" font-family="Liberation Sans, Arial, Helvetica, sans-serif" font-size="14" xml:space="preserve" dominant-baseline="auto"> </text>
  <text x="72.33" y="49" fill="rgb(0,0,0)" font-family="Liberation Sans, Arial, Helvetica, sans-serif" font-size="14" xml:space="preserve" dominant-baseline="auto">Input</text>
  <path d="M 30 57 L 30 84 L 120 84 L 120 57 L 30 57" fill="rgba(0,0,0,0)" stroke="none"/>
  <text x="35" y="76" fill="rgb(0,0,0)" font-family="Liberation Sans, Arial, Helvetica, sans-serif" font-size="14" xml:space="preserve" font-weight="bold" dominant-baseline="auto">Version:</text>
  <text x="91.01" y="76" fill="rgb(0,0,0)" font-family="Liberation Sans, Arial, Helvetica, sans-serif" font-size="14" xml:space="preserve" dominant-baseline="auto"> </text>
  <text x="94.9" y="76" fill="rgb(0,0,0)" font-family="Liberation Sans, Arial, Helvetica, sans-serif" font-size="14" xml:space="preserve" dominant-baseline="auto">1.0</text>
  <path d="M 33 122 L 33 150 L 33 150 A 5 5 0 0 0 38 155 L 94 155 L 94 155 A 5 5 0 0 0 99 150 L 99 122 L 99 122 A 5 5 0 0 0 94 117 L 38 117 L 38 117 A 5 5 0 0 0 33 122" fill="rgb(210,210,210)" stroke="none"/>
  <path d="M 30 119 L 30 147 L 30 147 A 5 5 0 0 0 35 152 L 91 152 L 91 152 A 5 5 0 0 0 96 147 L 96 119 L 96 119 A 5 5 0 0 0 91 114 L 35 114 L 35 114 A 5 5 0 0 0 30 119" fill="rgb(95,183,224)" stroke="none"/>
  <path d="M 30 119 L 30 147 L 30 147 A 5 5 0 0 0 35 152 L 91 152 L 91 152 A 5 5 0 0 0 96 147 L 96 119 L 96 119 A 5 5 0 0 0 91 114 L 35 114 L 35 114 A 5 5 0 0 0 30 119" fill="none" stroke="rgb(0, 0, 0)" stroke-width="1"/>
  <text x="39" y="141" fill="rgb(0,0,0)" font-family="Liberation Sans, Arial, Helvetica, sans-serif" font-size="18" xml:space="preserve" dominant-baseline="auto">Caller</text>
  <path d="M 249 122 L 249 150 L 249 150 A 5 5 0 0 0 254 155 L 323 155 L 323 155 A 5 5 0 0 0 328 150 L 328 122 L 328 122 A 5 5 0 0 0 323 117 L 254 117 L 254 117 A 5 5 0 0 0 249 122" fill="rgb(210,210,210)" stroke="none"/>
  <path d="M 246 119 L 246 147 L 246 147 A 5 5 0 0 0 251 152 L 320 152 L 320 152 A 5 5 0 0 0 325 147 L 325 119 L 325 119 A 5 5 0 0 0 320 114 L 251 114 L 251 114 A 5 5 0 0 0 246 119" fill="rgb(95,183,224)" stroke="none"/>
  <path d="M 246 119 L 246 147 L 246 147 A 5 5 0 0 0 251 152 L 320 152 L 320 152 A 5 5 0 0 0 325 147 L 325 119 L 325 119 A 5 5 0 0 0 320 114 L 251 114 L 251 114 A 5 5 0 0 0 246 119" fill="none" stroke="rgb(0, 0, 0)" stroke-width="1"/>
  <text x="255" y="141" fill="rgb(0,0,0)" font-family="Liberation Sans, Arial, Helvetica, sans-serif" font-size="18" xml:space="preserve" dominant-baseline="auto">Service</text>
  <path d="M 63 152 L 63 236" fill="none" stroke="rgb(0,0,0)" stroke-width="1" stroke-dasharray="3,3"/>
  <path d="M 60.5 216 L 60.5 236 L 65.5 236 L 65.5 216 L 60.5 216" fill="rgb(95,183,224)" stroke="none"/>
  <path d="M 60.5 216 L 60.5 236 M 65.5 236 L 65.5 216 L 60.5 216" fill="none" stroke="rgb(0, 0, 0)" stroke-width="1"/>
  <path d="M 285.5 152 L 285.5 236" fill="none" stroke="rgb(0,0,0)" stroke-width="1" stroke-dasharray="3,3"/>
  <path d="M 283 216 L 283 236 L 288 236 L 288 216 L 283 216" fill="rgb(95,183,224)" stroke="none"/>
  <path d="M 283 216 L 283 236 M 288 236 L 288 216 L 283 216" fill="none" stroke="rgb(0, 0, 0)" stroke-width="1"/>
  <text x="105.5" y="206" fill="rgb(0,0,0)" font-family="Liberation Mono, Courier New, Courier, monospace" font-size="14" xml:space="preserve" dominant-baseline="auto">1. Sync request [Mermaid: Caller-&gt;&gt;Service]</text>
  <path d="M 65.5 216 L 283 216" fill="none" stroke="rgb(0, 0, 0)" stroke-width="1"/>
  <path d="M 273 211 L 273 221 L 283 216" fill="rgb(0, 0, 0)" stroke="none"/>
  <path d="M 63 236 L 63 302" fill="none" stroke="rgb(0,0,0)" stroke-width="1" stroke-dasharray="3,3"/>
  <path d="M 60.5 236 L 60.5 302 L 65.5 302 L 65.5 236 L 60.5 236" fill="rgb(95,183,224)" stroke="none"/>
  <path d="M 60.5 236 L 60.5 302 M 65.5 302 L 65.5 236 M 60.5 236" fill="none" stroke="rgb(0, 0, 0)" stroke-width="1"/>
  <path d="M 285.5 236 L 285.5 302" fill="none" stroke="rgb(0,0,0)" stroke-width="1" stroke-dasharray="3,3"/>
  <path d="M 283 236 L 283 300 L 288 300 L 288 236 L 283 236" fill="rgb(95,183,224)" stroke="none"/>
  <path d="M 283 236 L 283 300 L 288 300 L 288 236 M 283 236" fill="none" stroke="rgb(0, 0, 0)" stroke-width="1"/>
  <text x="113" y="287.5" fill="rgb(0,0,0)" font-family="Liberation Mono, Courier New, Courier, monospace" font-size="14" xml:space="preserve" dominant-baseline="auto">2. Dotted response [Mermaid: Service--&gt;&gt;Caller]</text>
  <path d="M 283 295 L 65.5 295" fill="none" stroke="rgb(0, 0, 0)" stroke-width="1" stroke-dasharray="4,2"/>
  <path d="M 65.5 295 L 75.5 290 L 75.5 300 L 65.5 295" fill="rgb(0, 0, 0)" stroke="none"/>
  <path d="M 63 302 L 63 386" fill="none" stroke="rgb(0,0,0)" stroke-width="1" stroke-dasharray="3,3"/>
  <path d="M 60.5 302 L 60.5 386 L 65.5 386 L 65.5 302 L 60.5 302" fill="rgb(95,183,224)" stroke="none"/>
  <path d="M 60.5 302 L 60.5 386 M 65.5 386 L 65.5 302 M 60.5 302" fill="none" stroke="rgb(0, 0, 0)" stroke-width="1"/>
  <path d="M 285.5 302 L 285.5 386" fill="none" stroke="rgb(0,0,0)" stroke-width="1" stroke-dasharray="3,3"/>
  <path d="M 283 366 L 283 386 L 288 386 L 288 366 L 283 366" fill="rgb(95,183,224)" stroke="none"/>
  <path d="M 283 366 L 283 386 M 288 386 L 288 366 L 283 366" fill="none" stroke="rgb(0, 0, 0)" stroke-width="1"/>
  <text x="105.5" y="356" fill="rgb(0,0,0)" font-family="Liberation Mono, Courier New, Courier, monospace" font-size="14" xml:space="preserve" dominant-baseline="auto">3. Async signal [Mermaid: Caller-)Service]</text>
  <path d="M 65.5 366 L 283 366" fill="none" stroke="rgb(0, 0, 0)" stroke-width="1"/>
  <path d="M 273 361 L 283 366 L 273 371" fill="none" stroke="rgb(0, 0, 0)" stroke-width="1"/>
  <path d="M 63 386 L 63 452" fill="none" stroke="rgb(0,0,0)" stroke-width="1" stroke-dasharray="3,3"/>
  <path d="M 60.5 386 L 60.5 452 L 65.5 452 L 65.5 386 L 60.5 386" fill="rgb(95,183,224)" stroke="none"/>
  <path d="M 60.5 386 L 60.5 452 M 65.5 452 L 65.5 386 M 60.5 386" fill="none" stroke="rgb(0, 0, 0)" stroke-width="1"/>
  <path d="M 285.5 386 L 285.5 452" fill="none" stroke="rgb(0,0,0)" stroke-width="1" stroke-dasharray="3,3"/>
  <path d="M 283 386 L 283 450 L 288 450 L 288 386 L 283 386" fill="rgb(95,183,224)" stroke="none"/>
  <path d="M 283 386 L 283 450 L 288 450 L 288 386 M 283 386" fill="none" stroke="rgb(0, 0, 0)" stroke-width="1"/>
  <text x="113" y="437.5" fill="rgb(0,0,0)" font-family="Liberation Mono, Courier New, Courier, monospace" font-size="14" xml:space="preserve" dominant-baseline="auto">4. Async dotted signal [Mermaid: Service--)Caller]</text>
  <path d="M 283 445 L 65.5 445" fill="none" stroke="rgb(0, 0, 0)" stroke-width="1" stroke-dasharray="4,2"/>
  <path d="M 75.5 445 L 65.5 445 M 75.5 440 L 65.5 445 L 75.5 450" fill="none" stroke="rgb(0, 0, 0)" stroke-width="1"/>
  <path d="M 63 452 L 63 536" fill="none" stroke="rgb(0,0,0)" stroke-width="1" stroke-dasharray="3,3"/>
  <path d="M 60.5 452 L 60.5 536 L 65.5 536 L 65.5 452 L 60.5 452" fill="rgb(95,183,224)" stroke="none"/>
  <path d="M 60.5 452 L 60.5 536 M 65.5 536 L 65.5 452 M 60.5 452" fill="none" stroke="rgb(0, 0, 0)" stroke-width="1"/>
  <path d="M 285.5 452 L 285.5 536" fill="none" stroke="rgb(0,0,0)" stroke-width="1" stroke-dasharray="3,3"/>
  <path d="M 283 516 L 283 536 L 288 536 L 288 516 L 283 516" fill="rgb(95,183,224)" stroke="none"/>
  <path d="M 283 516 L 283 536 M 288 536 L 288 516 L 283 516" fill="none" stroke="rgb(0, 0, 0)" stroke-width="1"/>
  <text x="105.5" y="506" fill="rgb(0,0,0)" font-family="Liberation Mono, Courier New, Courier, monospace" font-size="14" xml:space="preserve" dominant-baseline="auto">5. Failure signal [Mermaid: Caller-xService]</text>
  <path d="M 65.5 516 L 283 516" fill="none" stroke="rgb(0, 0, 0)" stroke-width="1"/>
  <path d="M 273 511 L 283 521 M 273 521 L 283 511" fill="none" stroke="rgb(0, 0, 0)" stroke-width="2"/>
  <path d="M 63 536 L 63 602" fill="none" stroke="rgb(0,0,0)" stroke-width="1" stroke-dasharray="3,3"/>
  <path d="M 60.5 536 L 60.5 602 L 65.5 602 L 65.5 536 L 60.5 536" fill="rgb(95,183,224)" stroke="none"/>
  <path d="M 60.5 536 L 60.5 602 M 65.5 602 L 65.5 536 M 60.5 536" fill="none" stroke="rgb(0, 0, 0)" stroke-width="1"/>
  <path d="M 285.5 536 L 285.5 602" fill="none" stroke="rgb(0,0,0)" stroke-width="1" stroke-dasharray="3,3"/>
  <path d="M 283 536 L 283 600 L 288 600 L 288 536 L 283 536" fill="rgb(95,183,224)" stroke="none"/>
  <path d="M 283 536 L 283 600 L 288 600 L 288 536 M 283 536" fill="none" stroke="rgb(0, 0, 0)" stroke-width="1"/>
  <text x="113" y="587.5" fill="rgb(0,0,0)" font-family="Liberation Mono, Courier New, Courier, monospace" font-size="14" xml:space="preserve" dominant-baseline="auto">6. Dotted failure [Mermaid: Service--xCaller]</text>
  <path d="M 283 595 L 65.5 595" fill="none" stroke="rgb(0, 0, 0)" stroke-width="1" stroke-dasharray="4,2"/>
  <path d="M 75.5 590 L 65.5 600 M 75.5 600 L 65.5 590" fill="none" stroke="rgb(0, 0, 0)" stroke-width="2"/>
  <path d="M 63 602 L 63 686" fill="none" stroke="rgb(0,0,0)" stroke-width="1" stroke-dasharray="3,3"/>
  <path d="M 60.5 602 L 60.5 686 L 65.5 686 L 65.5 602 L 60.5 602" fill="rgb(95,183,224)" stroke="none"/>
  <path d="M 60.5 602 L 60.5 686 M 65.5 686 L 65.5 602 M 60.5 602" fill="none" stroke="rgb(0, 0, 0)" stroke-width="1"/>
  <path d="M 285.5 602 L 285.5 686" fill="none" stroke="rgb(0,0,0)" stroke-width="1" stroke-dasharray="3,3"/>
  <path d="M 283 666 L 283 686 L 288 686 L 288 666 L 283 666" fill="rgb(95,183,224)" stroke="none"/>
  <path d="M 283 666 L 283 686 M 288 686 L 288 666 L 283 666" fill="none" stroke="rgb(0, 0, 0)" stroke-width="1"/>
  <text x="105.5" y="656" fill="rgb(0,0,0)" font-family="Liberation Mono, Courier New, Courier, monospace" font-size="14" xml:space="preserve" dominant-baseline="auto">7. Solid no arrow [Mermaid: Caller-&gt;Service]</text>
  <path d="M 65.5 666 L 283 666" fill="none" stroke="rgb(0, 0, 0)" stroke-width="1"/>
  <path d="M 63 686 L 63 752" fill="none" stroke="rgb(0,0,0)" stroke-width="1" stroke-dasharray="3,3"/>
  <path d="M 60.5 686 L 60.5 752 L 65.5 752 L 65.5 686 L 60.5 686" fill="rgb(95,183,224)" stroke="none"/>
  <path d="M 60.5 686 L 60.5 752 M 65.5 752 L 65.5 686 M 60.5 686" fill="none" stroke="rgb(0, 0, 0)" stroke-width="1"/>
  <path d="M 285.5 686 L 285.5 752" fill="none" stroke="rgb(0,0,0)" stroke-width="1" stroke-dasharray="3,3"/>
  <path d="M 283 686 L 283 750 L 288 750 L 288 686 L 283 686" fill="rgb(95,183,224)" stroke="none"/>
  <path d="M 283 686 L 283 750 L 288 750 L 288 686 M 283 686" fill="none" stroke="rgb(0, 0, 0)" stroke-width="1"/>
  <text x="113" y="737.5" fill="rgb(0,0,0)" font-family="Liberation Mono, Courier New, Courier, monospace" font-size="14" xml:space="preserve" dominant-baseline="auto">8. Dotted no arrow [Mermaid: Service--&gt;Caller]</text>
  <path d="M 283 745 L 65.5 745" fill="none" stroke="rgb(0, 0, 0)" stroke-width="1" stroke-dasharray="4,2"/>
  <path d="M 63 752 L 63 776" fill="none" stroke="rgb(0,0,0)" stroke-width="1" stroke-dasharray="3,3"/>
  <path d="M 60.5 752 L 60.5 752 L 65.5 752 L 65.5 752 L 60.5 752" fill="rgb(95,183,224)" stroke="none"/>
  <path d="M 60.5 752 L 60.5 752 L 65.5 752 L 65.5 752 M 60.5 752" fill="none" stroke="rgb(0, 0, 0)" stroke-width="1"/>
  <path d="M 285.5 752 L 285.5 776" fill="none" stroke="rgb(0,0,0)" stroke-width="1" stroke-dasharray="3,3"/>
</svg>