<?xml version="1.0"?>
<svg xmlns="http://www.w3.org/2000/svg" width="3005" height="216" viewBox="0 0 3005 216">
  <title>Input</title>
  <rect width="100%" height="100%" fill="white"/>
  <path d="M 0 0 L 0 206 L 2995 206 L 2995 0 L 0 0" fill="rgb(255, 255, 255)" stroke="none"/>
  <path d="M 30 30 L 30 57 L 110 57 L 110 30 L 30 30" fill="rgba(0,0,0,0)" stroke="none"/>
  <text x="35" y="49" fill="rgb(0,0,0)" font-family="Liberation Sans, Arial, Helvetica, sans-serif" font-size="14" xml:space="preserve" font-weight="bold" dominant-baseline="auto">Title:</text>
  <text x="68.44" y="49" fill="rgb(0,0,0)" font-family="Liberation Sans, Arial, Helvetica, sans-serif" font-size="14" xml:space="preserve" dominant-baseline="auto"> </text>
  <text x="72.33" y="49" fill="rgb(0,0,0)" font-family="Liberation Sans, Arial, Helvetica, sans-serif" font-size="14" xml:space="preserve" dominant-baseline="auto">Input</text>
  <path d="M 30 57 L 30 84 L 120 84 L 120 57 L 30 57" fill="rgba(0,0,0,0)" stroke="none"/>
  <text x="35" y="76" fill="rgb(0,0,0)" font-family="Liberation Sans, Arial, Helvetica, sans-serif" font-size="14" xml:space="preserve" font-weight="bold" dominant-baseline="auto">Version:</text>
  <text x="91.01" y="76" fill="rgb(0,0,0)" font-family="Liberation Sans, Arial, Helvetica, sans-serif" font-size="14" xml:space="preserve" dominant-baseline="auto"> </text>
  <text x="94.9" y="76" fill="rgb(0,0,0)" font-family="Liberation Sans, Arial, Helvetica, sans-serif" font-size="14" xml:space="preserve" dominant-baseline="auto">1.0</text>
  <path d="M 33 122 L 33 150 L 33 150 A 5 5 0 0 0 38 155 L 159 155 L 159 155 A 5 5 0 0 0 164 150 L 164 122 L 164 122 A 5 5 0 0 0 159 117 L 38 117 L 38 117 A 5 5 0 0 0 33 122" fill="rgb(210,210,210)" stroke="none"/>
  <path d="M 30 119 L 30 147 L 30 147 A 5 5 0 0 0 35 152 L 156 152 L 156 152 A 5 5 0 0 0 161 147 L 161 119 L 161 119 A 5 5 0 0 0 156 114 L 35 114 L 35 114 A 5 5 0 0 0 30 119" fill="rgb(204,255,153)" stroke="none"/>
  <path d="M 30 119 L 30 147 L 30 147 A 5 5 0 0 0 35 152 L 156 152 L 156 152 A 5 5 0 0 0 161 147 L 161 119 L 161 119 A 5 5 0 0 0 156 114 L 35 114 L 35 114 A 5 5 0 0 0 30 119" fill="none" stroke="rgb(0, 0, 0)" stroke-width="1"/>
  <text x="39" y="141" fill="rgb(0,0,0)" font-family="Liberation Sans, Arial, Helvetica, sans-serif" font-size="18" xml:space="preserve" dominant-baseline="auto">Caller Service</text>
  <path d="M 364 122 L 364 150 L 364 150 A 5 5 0 0 0 369 155 L 535 155 L 535 155 A 5 5 0 0 0 540 150 L 540 122 L 540 122 A 5 5 0 0 0 535 117 L 369 117 L 369 117 A 5 5 0 0 0 364 122" fill="rgb(255,232,204)" stroke="none"/>
  <path d="M 376.8 126.4 A 3 3 0 0 1 370.8 126.4 A 3 3 0 0 1 376.8 126.4 M 373.8 131.4 L 373.8 138.4 M 370.06 133.4 L 377.54 133.4 M 373.8 138.4 L 370.74 146 M 373.8 138.4 L 376.86 146" fill="none" stroke="rgb(0, 0, 0)" stroke-width="1.5"/>
  <path d="M 388 119 L 388 147 L 388 147 A 5 5 0 0 0 393 152 L 532 152 L 532 152 A 5 5 0 0 0 537 147 L 537 119 L 537 119 A 5 5 0 0 0 532 114 L 393 114 L 393 114 A 5 5 0 0 0 388 119" fill="rgba(0,0,0,0)" stroke="none"/>
  <text x="397" y="141" fill="rgb(0,0,0)" font-family="Liberation Sans, Arial, Helvetica, sans-serif" font-size="18" xml:space="preserve" dominant-baseline="auto">Human operator</text>
  <path d="M 740 122 L 740 150 L 740 150 A 5 5 0 0 0 745 155 L 927 155 L 927 155 A 5 5 0 0 0 932 150 L 932 122 L 932 122 A 5 5 0 0 0 927 117 L 745 117 L 745 117 A 5 5 0 0 0 740 122" fill="rgb(196,232,255)" stroke="none"/>
  <path d="M 746.06 121 L 746.06 145 M 753.54 121 L 753.54 145 M 746.06 121 L 753.54 121 M 746.06 145 L 753.54 145" fill="none" stroke="rgb(0, 0, 0)" stroke-width="1.5"/>
  <path d="M 764 119 L 764 147 L 764 147 A 5 5 0 0 0 769 152 L 924 152 L 924 152 A 5 5 0 0 0 929 147 L 929 119 L 929 119 A 5 5 0 0 0 924 114 L 769 114 L 769 114 A 5 5 0 0 0 764 119" fill="rgba(0,0,0,0)" stroke="none"/>
  <text x="773" y="141" fill="rgb(0,0,0)" font-family="Liberation Sans, Arial, Helvetica, sans-serif" font-size="18" xml:space="preserve" dominant-baseline="auto">External boundary</text>
  <path d="M 1132 122 L 1132 150 L 1132 150 A 5 5 0 0 0 1137 155 L 1290 155 L 1290 155 A 5 5 0 0 0 1295 150 L 1295 122 L 1295 122 A 5 5 0 0 0 1290 117 L 1137 117 L 1137 117 A 5 5 0 0 0 1132 122" fill="rgb(255,244,179)" stroke="none"/>
  <path d="M 1146.8 133.6 A 5 5 0 0 1 1136.8 133.6 A 5 5 0 0 1 1146.8 133.6 M 1136.8 133.6 L 1146.8 133.6 M 1141.8 128.6 L 1141.8 138.6" fill="none" stroke="rgb(0, 0, 0)" stroke-width="1.5"/>
  <path d="M 1156 119 L 1156 147 L 1156 147 A 5 5 0 0 0 1161 152 L 1287 152 L 1287 152 A 5 5 0 0 0 1292 147 L 1292 119 L 1292 119 A 5 5 0 0 0 1287 114 L 1161 114 L 1161 114 A 5 5 0 0 0 1156 119" fill="rgba(0,0,0,0)" stroke="none"/>
  <text x="1165" y="141" fill="rgb(0,0,0)" font-family="Liberation Sans, Arial, Helvetica, sans-serif" font-size="18" xml:space="preserve" dominant-baseline="auto">Flow controller</text>
  <path d="M 1495 122 L 1495 150 L 1495 150 A 5 5 0 0 0 1500 155 L 1630 155 L 1630 155 A 5 5 0 0 0 1635 150 L 1635 122 L 1635 122 A 5 5 0 0 0 1630 117 L 1500 117 L 1500 117 A 5 5 0 0 0 1495 122" fill="rgb(220,255,214)" stroke="none"/>
  <path d="M 1500.04 121 L 1505.56 121 L 1509.56 125 L 1509.56 145 L 1500.04 145 L 1500.04 121 M 1505.56 121 L 1505.56 125 L 1509.56 125" fill="none" stroke="rgb(0, 0, 0)" stroke-width="1.5"/>
  <path d="M 1519 119 L 1519 147 L 1519 147 A 5 5 0 0 0 1524 152 L 1627 152 L 1627 152 A 5 5 0 0 0 1632 147 L 1632 119 L 1632 119 A 5 5 0 0 0 1627 114 L 1524 114 L 1524 114 A 5 5 0 0 0 1519 119" fill="rgba(0,0,0,0)" stroke="none"/>
  <text x="1528" y="141" fill="rgb(0,0,0)" font-family="Liberation Sans, Arial, Helvetica, sans-serif" font-size="18" xml:space="preserve" dominant-baseline="auto">Order entity</text>
  <path d="M 1835 122 L 1835 150 L 1835 150 A 5 5 0 0 0 1840 155 L 2003 155 L 2003 155 A 5 5 0 0 0 2008 150 L 2008 122 L 2008 122 A 5 5 0 0 0 2003 117 L 1840 117 L 1840 117 A 5 5 0 0 0 1835 122" fill="rgb(255,221,234)" stroke="none"/>
  <path d="M 1839.7 124.4 L 1839.7 141.6 M 1849.9 124.4 L 1849.9 141.6" fill="none" stroke="rgb(0, 0, 0)" stroke-width="1.5"/>
  <path d="M 1839.7 124.4 A 5.1 5.1 0 0 1 1849.9 124.4" fill="none" stroke="rgb(0, 0, 0)" stroke-width="1.5"/>
  <path d="M 1849.9 124.4 A 5.1 5.1 0 0 1 1839.7 124.4" fill="none" stroke="rgb(0, 0, 0)" stroke-width="1.5"/>
  <path d="M 1849.9 141.6 A 5.1 5.1 0 0 1 1839.7 141.6" fill="none" stroke="rgb(0, 0, 0)" stroke-width="1.5"/>
  <path d="M 1839.7 141.6 A 5.1 5.1 0 0 1 1849.9 141.6" fill="none" stroke="rgb(0, 0, 0)" stroke-width="1.5"/>
  <path d="M 1859 119 L 1859 147 L 1859 147 A 5 5 0 0 0 1864 152 L 2000 152 L 2000 152 A 5 5 0 0 0 2005 147 L 2005 119 L 2005 119 A 5 5 0 0 0 2000 114 L 1864 114 L 1864 114 A 5 5 0 0 0 1859 119" fill="rgba(0,0,0,0)" stroke="none"/>
  <text x="1868" y="141" fill="rgb(0,0,0)" font-family="Liberation Sans, Arial, Helvetica, sans-serif" font-size="18" xml:space="preserve" dominant-baseline="auto">Database Layer</text>
  <path d="M 2208 122 L 2208 150 L 2208 150 A 5 5 0 0 0 2213 155 L 2382 155 L 2382 155 A 5 5 0 0 0 2387 150 L 2387 122 L 2387 122 A 5 5 0 0 0 2382 117 L 2213 117 L 2213 117 A 5 5 0 0 0 2208 122" fill="rgb(226,220,255)" stroke="none"/>
  <path d="M 2214.06 121 L 2214.06 141 L 2222.9 141 L 2222.9 121 L 2214.06 121" fill="none" stroke="rgb(0, 0, 0)" stroke-width="1.5"/>
  <path d="M 2212.36 125 L 2212.36 145 L 2221.2 145 L 2221.2 125 L 2212.36 125" fill="none" stroke="rgb(0, 0, 0)" stroke-width="1.5"/>
  <path d="M 2232 119 L 2232 147 L 2232 147 A 5 5 0 0 0 2237 152 L 2379 152 L 2379 152 A 5 5 0 0 0 2384 147 L 2384 119 L 2384 119 A 5 5 0 0 0 2379 114 L 2237 114 L 2237 114 A 5 5 0 0 0 2232 119" fill="rgba(0,0,0,0)" stroke="none"/>
  <text x="2241" y="141" fill="rgb(0,0,0)" font-family="Liberation Sans, Arial, Helvetica, sans-serif" font-size="18" xml:space="preserve" dominant-baseline="auto">Collections store</text>
  <path d="M 2587 122 L 2587 150 L 2587 150 A 5 5 0 0 0 2592 155 L 2712 155 L 2712 155 A 5 5 0 0 0 2717 150 L 2717 122 L 2717 122 A 5 5 0 0 0 2712 117 L 2592 117 L 2592 117 A 5 5 0 0 0 2587 122" fill="rgb(255,235,186)" stroke="none"/>
  <path d="M 2591.36 127 L 2599.52 127 M 2591.36 133 L 2599.52 133 M 2591.36 139 L 2599.52 139 M 2596.24 133 L 2602.24 133 M 2598.24 129 L 2602.24 133 L 2598.24 137" fill="none" stroke="rgb(0, 0, 0)" stroke-width="1.5"/>
  <path d="M 2611 119 L 2611 147 L 2611 147 A 5 5 0 0 0 2616 152 L 2709 152 L 2709 152 A 5 5 0 0 0 2714 147 L 2714 119 L 2714 119 A 5 5 0 0 0 2709 114 L 2616 114 L 2616 114 A 5 5 0 0 0 2611 119" fill="rgba(0,0,0,0)" stroke="none"/>
  <text x="2620" y="141" fill="rgb(0,0,0)" font-family="Liberation Sans, Arial, Helvetica, sans-serif" font-size="18" xml:space="preserve" dominant-baseline="auto">Job queue</text>
  <path d="M 2917 122 L 2917 150 L 2917 150 A 5 5 0 0 0 2922 155 L 2960 155 L 2960 155 A 5 5 0 0 0 2965 150 L 2965 122 L 2965 122 A 5 5 0 0 0 2960 117 L 2922 117 L 2922 117 A 5 5 0 0 0 2917 122" fill="rgb(210,210,210)" stroke="none"/>
  <path d="M 2914 119 L 2914 147 L 2914 147 A 5 5 0 0 0 2919 152 L 2957 152 L 2957 152 A 5 5 0 0 0 2962 147 L 2962 119 L 2962 119 A 5 5 0 0 0 2957 114 L 2919 114 L 2919 114 A 5 5 0 0 0 2914 119" fill="rgb(204,255,153)" stroke="none"/>
  <path d="M 2914 119 L 2914 147 L 2914 147 A 5 5 0 0 0 2919 152 L 2957 152 L 2957 152 A 5 5 0 0 0 2962 147 L 2962 119 L 2962 119 A 5 5 0 0 0 2957 114 L 2919 114 L 2919 114 A 5 5 0 0 0 2914 119" fill="none" stroke="rgb(0, 0, 0)" stroke-width="1"/>
  <text x="2923" y="141" fill="rgb(0,0,0)" font-family="Liberation Sans, Arial, Helvetica, sans-serif" font-size="18" xml:space="preserve" dominant-baseline="auto">API</text>
  <path d="M 95.5 152 L 95.5 176" fill="none" stroke="rgb(0,0,0)" stroke-width="1" stroke-dasharray="3,3"/>
  <path d="M 449 152 L 449 176" fill="none" stroke="rgb(0,0,0)" stroke-width="1" stroke-dasharray="3,3"/>
  <path d="M 833 152 L 833 176" fill="none" stroke="rgb(0,0,0)" stroke-width="1" stroke-dasharray="3,3"/>
  <path d="M 1210.5 152 L 1210.5 176" fill="none" stroke="rgb(0,0,0)" stroke-width="1" stroke-dasharray="3,3"/>
  <path d="M 1562 152 L 1562 176" fill="none" stroke="rgb(0,0,0)" stroke-width="1" stroke-dasharray="3,3"/>
  <path d="M 1918.5 152 L 1918.5 176" fill="none" stroke="rgb(0,0,0)" stroke-width="1" stroke-dasharray="3,3"/>
  <path d="M 2294.5 152 L 2294.5 176" fill="none" stroke="rgb(0,0,0)" stroke-width="1" stroke-dasharray="3,3"/>
  <path d="M 2649 152 L 2649 176" fill="none" stroke="rgb(0,0,0)" stroke-width="1" stroke-dasharray="3,3"/>
  <path d="M 2938 152 L 2938 176" fill="none" stroke="rgb(0,0,0)" stroke-width="1" stroke-dasharray="3,3"/>
</svg>