<?xml version="1.0"?>
<svg xmlns="http://www.w3.org/2000/svg" width="825" height="216" viewBox="0 0 825 216">
  <title>Input</title>
  <rect width="100%" height="100%" fill="white"/>
  <path d="M 0 0 L 0 206 L 815 206 L 815 0 L 0 0" fill="rgb(255, 255, 255)" stroke="none"/>
  <path d="M 30 30 L 30 57 L 110 57 L 110 30 L 30 30" fill="rgba(0,0,0,0)" stroke="none"/>
  <text x="35" y="49" fill="rgb(0,0,0)" font-family="Liberation Sans, Arial, Helvetica, sans-serif" font-size="14" xml:space="preserve" font-weight="bold" dominant-baseline="auto">Title:</text>
  <text x="68.44" y="49" fill="rgb(0,0,0)" font-family="Liberation Sans, Arial, Helvetica, sans-serif" font-size="14" xml:space="preserve" dominant-baseline="auto"> </text>
  <text x="72.33" y="49" fill="rgb(0,0,0)" font-family="Liberation Sans, Arial, Helvetica, sans-serif" font-size="14" xml:space="preserve" dominant-baseline="auto">Input</text>
  <path d="M 30 57 L 30 84 L 120 84 L 120 57 L 30 57" fill="rgba(0,0,0,0)" stroke="none"/>
  <text x="35" y="76" fill="rgb(0,0,0)" font-family="Liberation Sans, Arial, Helvetica, sans-serif" font-size="14" xml:space="preserve" font-weight="bold" dominant-baseline="auto">Version:</text>
  <text x="91.01" y="76" fill="rgb(0,0,0)" font-family="Liberation Sans, Arial, Helvetica, sans-serif" font-size="14" xml:space="preserve" dominant-baseline="auto"> </text>
  <text x="94.9" y="76" fill="rgb(0,0,0)" font-family="Liberation Sans, Arial, Helvetica, sans-serif" font-size="14" xml:space="preserve" dominant-baseline="auto">1.0</text>
  <path d="M 33 122 L 33 150 L 33 150 A 5 5 0 0 0 38 155 L 159 155 L 159 155 A 5 5 0 0 0 164 150 L 164 122 L 164 122 A 5 5 0 0 0 159 117 L 38 117 L 38 117 A 5 5 0 0 0 33 122" fill="rgb(210,210,210)" stroke="none"/>
  <path d="M 30 119 L 30 147 L 30 147 A 5 5 0 0 0 35 152 L 156 152 L 156 152 A 5 5 0 0 0 161 147 L 161 119 L 161 119 A 5 5 0 0 0 156 114 L 35 114 L 35 114 A 5 5 0 0 0 30 119" fill="rgb(204,255,153)" stroke="none"/>
  <path d="M 30 119 L 30 147 L 30 147 A 5 5 0 0 0 35 152 L 156 152 L 156 152 A 5 5 0 0 0 161 147 L 161 119 L 161 119 A 5 5 0 0 0 156 114 L 35 114 L 35 114 A 5 5 0 0 0 30 119" fill="none" stroke="rgb(0, 0, 0)" stroke-width="1"/>
  <text x="39" y="141" fill="rgb(0,0,0)" font-family="Liberation Sans, Arial, Helvetica, sans-serif" font-size="18" xml:space="preserve" dominant-baseline="auto">Caller Service</text>
  <path d="M 364 122 L 364 150 L 364 150 A 5 5 0 0 0 369 155 L 532 155 L 532 155 A 5 5 0 0 0 537 150 L 537 122 L 537 122 A 5 5 0 0 0 532 117 L 369 117 L 369 117 A 5 5 0 0 0 364 122" fill="rgb(255,232,204)" stroke="none"/>
  <path d="M 376.8 126.4 A 3 3 0 0 1 370.8 126.4 A 3 3 0 0 1 376.8 126.4 M 373.8 131.4 L 373.8 138.4 M 370.06 133.4 L 377.54 133.4 M 373.8 138.4 L 370.74 146 M 373.8 138.4 L 376.86 146" fill="none" stroke="rgb(0, 0, 0)" stroke-width="1.5"/>
  <path d="M 388 119 L 388 147 L 388 147 A 5 5 0 0 0 393 152 L 529 152 L 529 152 A 5 5 0 0 0 534 147 L 534 119 L 534 119 A 5 5 0 0 0 529 114 L 393 114 L 393 114 A 5 5 0 0 0 388 119" fill="rgba(0,0,0,0)" stroke="none"/>
  <text x="397" y="141" fill="rgb(0,0,0)" font-family="Liberation Sans, Arial, Helvetica, sans-serif" font-size="18" xml:space="preserve" dominant-baseline="auto">Database Layer</text>
  <path d="M 737 122 L 737 150 L 737 150 A 5 5 0 0 0 742 155 L 780 155 L 780 155 A 5 5 0 0 0 785 150 L 785 122 L 785 122 A 5 5 0 0 0 780 117 L 742 117 L 742 117 A 5 5 0 0 0 737 122" fill="rgb(210,210,210)" stroke="none"/>
  <path d="M 734 119 L 734 147 L 734 147 A 5 5 0 0 0 739 152 L 777 152 L 777 152 A 5 5 0 0 0 782 147 L 782 119 L 782 119 A 5 5 0 0 0 777 114 L 739 114 L 739 114 A 5 5 0 0 0 734 119" fill="rgb(204,255,153)" stroke="none"/>
  <path d="M 734 119 L 734 147 L 734 147 A 5 5 0 0 0 739 152 L 777 152 L 777 152 A 5 5 0 0 0 782 147 L 782 119 L 782 119 A 5 5 0 0 0 777 114 L 739 114 L 739 114 A 5 5 0 0 0 734 119" fill="none" stroke="rgb(0, 0, 0)" stroke-width="1"/>
  <text x="743" y="141" fill="rgb(0,0,0)" font-family="Liberation Sans, Arial, Helvetica, sans-serif" font-size="18" xml:space="preserve" dominant-baseline="auto">API</text>
  <path d="M 95.5 152 L 95.5 176" fill="none" stroke="rgb(0,0,0)" stroke-width="1" stroke-dasharray="3,3"/>
  <path d="M 447.5 152 L 447.5 176" fill="none" stroke="rgb(0,0,0)" stroke-width="1" stroke-dasharray="3,3"/>
  <path d="M 758 152 L 758 176" fill="none" stroke="rgb(0,0,0)" stroke-width="1" stroke-dasharray="3,3"/>
</svg>