<?xml version="1.0"?>
<svg xmlns="http://www.w3.org/2000/svg" width="2302" height="216" viewBox="0 0 2302 216">
  <title>Actor Types</title>
  <rect width="100%" height="100%" fill="white"/>
  <path d="M 0 0 L 0 206 L 2292 206 L 2292 0 L 0 0" fill="rgb(255, 255, 255)" stroke="none"/>
  <path d="M 30 30 L 30 57 L 153 57 L 153 30 L 30 30" fill="rgba(0,0,0,0)" stroke="none"/>
  <text x="35" y="49" fill="rgb(0,0,0)" font-family="Liberation Sans, Arial, Helvetica, sans-serif" font-size="14" xml:space="preserve" font-weight="bold" dominant-baseline="auto">Title:</text>
  <text x="68.44" y="49" fill="rgb(0,0,0)" font-family="Liberation Sans, Arial, Helvetica, sans-serif" font-size="14" xml:space="preserve" dominant-baseline="auto"> </text>
  <text x="72.33" y="49" fill="rgb(0,0,0)" font-family="Liberation Sans, Arial, Helvetica, sans-serif" font-size="14" xml:space="preserve" dominant-baseline="auto">Actor Types</text>
  <path d="M 30 57 L 30 84 L 120 84 L 120 57 L 30 57" fill="rgba(0,0,0,0)" stroke="none"/>
  <text x="35" y="76" fill="rgb(0,0,0)" font-family="Liberation Sans, Arial, Helvetica, sans-serif" font-size="14" xml:space="preserve" font-weight="bold" dominant-baseline="auto">Version:</text>
  <text x="91.01" y="76" fill="rgb(0,0,0)" font-family="Liberation Sans, Arial, Helvetica, sans-serif" font-size="14" xml:space="preserve" dominant-baseline="auto"> </text>
  <text x="94.9" y="76" fill="rgb(0,0,0)" font-family="Liberation Sans, Arial, Helvetica, sans-serif" font-size="14" xml:space="preserve" dominant-baseline="auto">1.0</text>
  <path d="M 33 122 L 33 150 L 33 150 A 5 5 0 0 0 38 155 L 160 155 L 160 155 A 5 5 0 0 0 165 150 L 165 122 L 165 122 A 5 5 0 0 0 160 117 L 38 117 L 38 117 A 5 5 0 0 0 33 122" fill="rgb(210,210,210)" stroke="none"/>
  <path d="M 30 119 L 30 147 L 30 147 A 5 5 0 0 0 35 152 L 157 152 L 157 152 A 5 5 0 0 0 162 147 L 162 119 L 162 119 A 5 5 0 0 0 157 114 L 35 114 L 35 114 A 5 5 0 0 0 30 119" fill="rgb(95,183,224)" stroke="none"/>
  <path d="M 30 119 L 30 147 L 30 147 A 5 5 0 0 0 35 152 L 157 152 L 157 152 A 5 5 0 0 0 162 147 L 162 119 L 162 119 A 5 5 0 0 0 157 114 L 35 114 L 35 114 A 5 5 0 0 0 30 119" fill="none" stroke="rgb(0, 0, 0)" stroke-width="1"/>
  <text x="39" y="141" fill="rgb(0,0,0)" font-family="Liberation Sans, Arial, Helvetica, sans-serif" font-size="18" xml:space="preserve" dominant-baseline="auto">User Interface</text>
  <path d="M 315 122 L 315 150 L 315 150 A 5 5 0 0 0 320 155 L 457 155 L 457 155 A 5 5 0 0 0 462 150 L 462 122 L 462 122 A 5 5 0 0 0 457 117 L 320 117 L 320 117 A 5 5 0 0 0 315 122" fill="rgb(255,232,204)" stroke="none"/>
  <path d="M 327.8 126.4 A 3 3 0 0 1 321.8 126.4 A 3 3 0 0 1 327.8 126.4 M 324.8 131.4 L 324.8 138.4 M 321.06 133.4 L 328.54 133.4 M 324.8 138.4 L 321.74 146 M 324.8 138.4 L 327.86 146" fill="none" stroke="rgb(0, 0, 0)" stroke-width="1.5"/>
  <path d="M 339 119 L 339 147 L 339 147 A 5 5 0 0 0 344 152 L 454 152 L 454 152 A 5 5 0 0 0 459 147 L 459 119 L 459 119 A 5 5 0 0 0 454 114 L 344 114 L 344 114 A 5 5 0 0 0 339 119" fill="rgba(0,0,0,0)" stroke="none"/>
  <text x="348" y="141" fill="rgb(0,0,0)" font-family="Liberation Sans, Arial, Helvetica, sans-serif" font-size="18" xml:space="preserve" dominant-baseline="auto">Human User</text>
  <path d="M 612 122 L 612 150 L 612 150 A 5 5 0 0 0 617 155 L 758 155 L 758 155 A 5 5 0 0 0 763 150 L 763 122 L 763 122 A 5 5 0 0 0 758 117 L 617 117 L 617 117 A 5 5 0 0 0 612 122" fill="rgb(196,232,255)" stroke="none"/>
  <path d="M 618.06 121 L 618.06 145 M 625.54 121 L 625.54 145 M 618.06 121 L 625.54 121 M 618.06 145 L 625.54 145" fill="none" stroke="rgb(0, 0, 0)" stroke-width="1.5"/>
  <path d="M 636 119 L 636 147 L 636 147 A 5 5 0 0 0 641 152 L 755 152 L 755 152 A 5 5 0 0 0 760 147 L 760 119 L 760 119 A 5 5 0 0 0 755 114 L 641 114 L 641 114 A 5 5 0 0 0 636 119" fill="rgba(0,0,0,0)" stroke="none"/>
  <text x="645" y="141" fill="rgb(0,0,0)" font-family="Liberation Sans, Arial, Helvetica, sans-serif" font-size="18" xml:space="preserve" dominant-baseline="auto">API Gateway</text>
  <path d="M 913 122 L 913 150 L 913 150 A 5 5 0 0 0 918 155 L 1097 155 L 1097 155 A 5 5 0 0 0 1102 150 L 1102 122 L 1102 122 A 5 5 0 0 0 1097 117 L 918 117 L 918 117 A 5 5 0 0 0 913 122" fill="rgb(255,244,179)" stroke="none"/>
  <path d="M 927.8 133.6 A 5 5 0 0 1 917.8 133.6 A 5 5 0 0 1 927.8 133.6 M 917.8 133.6 L 927.8 133.6 M 922.8 128.6 L 922.8 138.6" fill="none" stroke="rgb(0, 0, 0)" stroke-width="1.5"/>
  <path d="M 937 119 L 937 147 L 937 147 A 5 5 0 0 0 942 152 L 1094 152 L 1094 152 A 5 5 0 0 0 1099 147 L 1099 119 L 1099 119 A 5 5 0 0 0 1094 114 L 942 114 L 942 114 A 5 5 0 0 0 937 119" fill="rgba(0,0,0,0)" stroke="none"/>
  <text x="946" y="141" fill="rgb(0,0,0)" font-family="Liberation Sans, Arial, Helvetica, sans-serif" font-size="18" xml:space="preserve" dominant-baseline="auto">Service Controller</text>
  <path d="M 1252 122 L 1252 150 L 1252 150 A 5 5 0 0 0 1257 155 L 1385 155 L 1385 155 A 5 5 0 0 0 1390 150 L 1390 122 L 1390 122 A 5 5 0 0 0 1385 117 L 1257 117 L 1257 117 A 5 5 0 0 0 1252 122" fill="rgb(220,255,214)" stroke="none"/>
  <path d="M 1257.04 121 L 1262.56 121 L 1266.56 125 L 1266.56 145 L 1257.04 145 L 1257.04 121 M 1262.56 121 L 1262.56 125 L 1266.56 125" fill="none" stroke="rgb(0, 0, 0)" stroke-width="1.5"/>
  <path d="M 1276 119 L 1276 147 L 1276 147 A 5 5 0 0 0 1281 152 L 1382 152 L 1382 152 A 5 5 0 0 0 1387 147 L 1387 119 L 1387 119 A 5 5 0 0 0 1382 114 L 1281 114 L 1281 114 A 5 5 0 0 0 1276 119" fill="rgba(0,0,0,0)" stroke="none"/>
  <text x="1285" y="141" fill="rgb(0,0,0)" font-family="Liberation Sans, Arial, Helvetica, sans-serif" font-size="18" xml:space="preserve" dominant-baseline="auto">Data Model</text>
  <path d="M 1540 122 L 1540 150 L 1540 150 A 5 5 0 0 0 1545 155 L 1658 155 L 1658 155 A 5 5 0 0 0 1663 150 L 1663 122 L 1663 122 A 5 5 0 0 0 1658 117 L 1545 117 L 1545 117 A 5 5 0 0 0 1540 122" fill="rgb(255,221,234)" stroke="none"/>
  <path d="M 1544.7 124.4 L 1544.7 141.6 M 1554.9 124.4 L 1554.9 141.6" fill="none" stroke="rgb(0, 0, 0)" stroke-width="1.5"/>
  <path d="M 1544.7 124.4 A 5.1 5.1 0 0 1 1554.9 124.4" fill="none" stroke="rgb(0, 0, 0)" stroke-width="1.5"/>
  <path d="M 1554.9 124.4 A 5.1 5.1 0 0 1 1544.7 124.4" fill="none" stroke="rgb(0, 0, 0)" stroke-width="1.5"/>
  <path d="M 1554.9 141.6 A 5.1 5.1 0 0 1 1544.7 141.6" fill="none" stroke="rgb(0, 0, 0)" stroke-width="1.5"/>
  <path d="M 1544.7 141.6 A 5.1 5.1 0 0 1 1554.9 141.6" fill="none" stroke="rgb(0, 0, 0)" stroke-width="1.5"/>
  <path d="M 1564 119 L 1564 147 L 1564 147 A 5 5 0 0 0 1569 152 L 1655 152 L 1655 152 A 5 5 0 0 0 1660 147 L 1660 119 L 1660 119 A 5 5 0 0 0 1655 114 L 1569 114 L 1569 114 A 5 5 0 0 0 1564 119" fill="rgba(0,0,0,0)" stroke="none"/>
  <text x="1573" y="141" fill="rgb(0,0,0)" font-family="Liberation Sans, Arial, Helvetica, sans-serif" font-size="18" xml:space="preserve" dominant-baseline="auto">Database</text>
  <path d="M 1813 122 L 1813 150 L 1813 150 A 5 5 0 0 0 1818 155 L 1973 155 L 1973 155 A 5 5 0 0 0 1978 150 L 1978 122 L 1978 122 A 5 5 0 0 0 1973 117 L 1818 117 L 1818 117 A 5 5 0 0 0 1813 122" fill="rgb(226,220,255)" stroke="none"/>
  <path d="M 1819.06 121 L 1819.06 141 L 1827.9 141 L 1827.9 121 L 1819.06 121" fill="none" stroke="rgb(0, 0, 0)" stroke-width="1.5"/>
  <path d="M 1817.36 125 L 1817.36 145 L 1826.2 145 L 1826.2 125 L 1817.36 125" fill="none" stroke="rgb(0, 0, 0)" stroke-width="1.5"/>
  <path d="M 1837 119 L 1837 147 L 1837 147 A 5 5 0 0 0 1842 152 L 1970 152 L 1970 152 A 5 5 0 0 0 1975 147 L 1975 119 L 1975 119 A 5 5 0 0 0 1970 114 L 1842 114 L 1842 114 A 5 5 0 0 0 1837 119" fill="rgba(0,0,0,0)" stroke="none"/>
  <text x="1846" y="141" fill="rgb(0,0,0)" font-family="Liberation Sans, Arial, Helvetica, sans-serif" font-size="18" xml:space="preserve" dominant-baseline="auto">Item Collection</text>
  <path d="M 2128 122 L 2128 150 L 2128 150 A 5 5 0 0 0 2133 155 L 2257 155 L 2257 155 A 5 5 0 0 0 2262 150 L 2262 122 L 2262 122 A 5 5 0 0 0 2257 117 L 2133 117 L 2133 117 A 5 5 0 0 0 2128 122" fill="rgb(255,235,186)" stroke="none"/>
  <path d="M 2132.36 127 L 2140.52 127 M 2132.36 133 L 2140.52 133 M 2132.36 139 L 2140.52 139 M 2137.24 133 L 2143.24 133 M 2139.24 129 L 2143.24 133 L 2139.24 137" fill="none" stroke="rgb(0, 0, 0)" stroke-width="1.5"/>
  <path d="M 2152 119 L 2152 147 L 2152 147 A 5 5 0 0 0 2157 152 L 2254 152 L 2254 152 A 5 5 0 0 0 2259 147 L 2259 119 L 2259 119 A 5 5 0 0 0 2254 114 L 2157 114 L 2157 114 A 5 5 0 0 0 2152 119" fill="rgba(0,0,0,0)" stroke="none"/>
  <text x="2161" y="141" fill="rgb(0,0,0)" font-family="Liberation Sans, Arial, Helvetica, sans-serif" font-size="18" xml:space="preserve" dominant-baseline="auto">Job Queue</text>
  <path d="M 96 152 L 96 176" fill="none" stroke="rgb(0,0,0)" stroke-width="1" stroke-dasharray="3,3"/>
  <path d="M 385.5 152 L 385.5 176" fill="none" stroke="rgb(0,0,0)" stroke-width="1" stroke-dasharray="3,3"/>
  <path d="M 684.5 152 L 684.5 176" fill="none" stroke="rgb(0,0,0)" stroke-width="1" stroke-dasharray="3,3"/>
  <path d="M 1004.5 152 L 1004.5 176" fill="none" stroke="rgb(0,0,0)" stroke-width="1" stroke-dasharray="3,3"/>
  <path d="M 1318 152 L 1318 176" fill="none" stroke="rgb(0,0,0)" stroke-width="1" stroke-dasharray="3,3"/>
  <path d="M 1598.5 152 L 1598.5 176" fill="none" stroke="rgb(0,0,0)" stroke-width="1" stroke-dasharray="3,3"/>
  <path d="M 1892.5 152 L 1892.5 176" fill="none" stroke="rgb(0,0,0)" stroke-width="1" stroke-dasharray="3,3"/>
  <path d="M 2192 152 L 2192 176" fill="none" stroke="rgb(0,0,0)" stroke-width="1" stroke-dasharray="3,3"/>
</svg>