<?xml version="1.0"?>
<svg xmlns="http://www.w3.org/2000/svg" width="721" height="684" viewBox="0 0 721 684">
  <title>Box Grouping</title>
  <rect width="100%" height="100%" fill="white"/>
  <path d="M 0 0 L 0 674 L 711 674 L 711 0 L 0 0" fill="rgb(255, 255, 255)" stroke="none"/>
  <path d="M 30 30 L 30 57 L 164 57 L 164 30 L 30 30" fill="rgba(0,0,0,0)" stroke="none"/>
  <text x="35" y="49" fill="rgb(0,0,0)" font-family="Liberation Sans, Arial, Helvetica, sans-serif" font-size="14" xml:space="preserve" font-weight="bold" dominant-baseline="auto">Title:</text>
  <text x="68.44" y="49" fill="rgb(0,0,0)" font-family="Liberation Sans, Arial, Helvetica, sans-serif" font-size="14" xml:space="preserve" dominant-baseline="auto"> </text>
  <text x="72.33" y="49" fill="rgb(0,0,0)" font-family="Liberation Sans, Arial, Helvetica, sans-serif" font-size="14" xml:space="preserve" dominant-baseline="auto">Box Grouping</text>
  <path d="M 30 57 L 30 84 L 120 84 L 120 57 L 30 57" fill="rgba(0,0,0,0)" stroke="none"/>
  <text x="35" y="76" fill="rgb(0,0,0)" font-family="Liberation Sans, Arial, Helvetica, sans-serif" font-size="14" xml:space="preserve" font-weight="bold" dominant-baseline="auto">Version:</text>
  <text x="91.01" y="76" fill="rgb(0,0,0)" font-family="Liberation Sans, Arial, Helvetica, sans-serif" font-size="14" xml:space="preserve" dominant-baseline="auto"> </text>
  <text x="94.9" y="76" fill="rgb(0,0,0)" font-family="Liberation Sans, Arial, Helvetica, sans-serif" font-size="14" xml:space="preserve" dominant-baseline="auto">1.0</text>
  <path d="M 6 90 L 6 650 L 288 650 L 288 90 L 6 90" fill="rgb(200,220,255)" stroke="none"/>
  <path d="M 6 90 L 6 650 L 288 650 L 288 90 L 6 90" fill="none" stroke="rgb(0,0,0)" stroke-width="1"/>
  <text x="18" y="109" fill="rgb(0,0,0)" font-family="Liberation Sans, Arial, Helvetica, sans-serif" font-size="14" xml:space="preserve" font-weight="bold" dominant-baseline="auto">Frontend</text>
  <path d="M 390 90 L 390 650 L 681 650 L 681 90 L 390 90" fill="rgb(255,220,200)" stroke="none"/>
  <path d="M 390 90 L 390 650 L 681 650 L 681 90 L 390 90" fill="none" stroke="rgb(0,0,0)" stroke-width="1"/>
  <text x="402" y="109" fill="rgb(0,0,0)" font-family="Liberation Sans, Arial, Helvetica, sans-serif" font-size="14" xml:space="preserve" font-weight="bold" dominant-baseline="auto">Backend</text>
  <path d="M 33 122 L 33 150 L 33 150 A 5 5 0 0 0 38 155 L 64 155 L 64 155 A 5 5 0 0 0 69 150 L 69 122 L 69 122 A 5 5 0 0 0 64 117 L 38 117 L 38 117 A 5 5 0 0 0 33 122" fill="rgb(210,210,210)" stroke="none"/>
  <path d="M 30 119 L 30 147 L 30 147 A 5 5 0 0 0 35 152 L 61 152 L 61 152 A 5 5 0 0 0 66 147 L 66 119 L 66 119 A 5 5 0 0 0 61 114 L 35 114 L 35 114 A 5 5 0 0 0 30 119" fill="rgb(95,183,224)" stroke="none"/>
  <path d="M 30 119 L 30 147 L 30 147 A 5 5 0 0 0 35 152 L 61 152 L 61 152 A 5 5 0 0 0 66 147 L 66 119 L 66 119 A 5 5 0 0 0 61 114 L 35 114 L 35 114 A 5 5 0 0 0 30 119" fill="none" stroke="rgb(0, 0, 0)" stroke-width="1"/>
  <text x="39" y="141" fill="rgb(0,0,0)" font-family="Liberation Sans, Arial, Helvetica, sans-serif" font-size="18" xml:space="preserve" dominant-baseline="auto">UI</text>
  <path d="M 219 122 L 219 150 L 219 150 A 5 5 0 0 0 224 155 L 262 155 L 262 155 A 5 5 0 0 0 267 150 L 267 122 L 267 122 A 5 5 0 0 0 262 117 L 224 117 L 224 117 A 5 5 0 0 0 219 122" fill="rgb(210,210,210)" stroke="none"/>
  <path d="M 216 119 L 216 147 L 216 147 A 5 5 0 0 0 221 152 L 259 152 L 259 152 A 5 5 0 0 0 264 147 L 264 119 L 264 119 A 5 5 0 0 0 259 114 L 221 114 L 221 114 A 5 5 0 0 0 216 119" fill="rgb(95,183,224)" stroke="none"/>
  <path d="M 216 119 L 216 147 L 216 147 A 5 5 0 0 0 221 152 L 259 152 L 259 152 A 5 5 0 0 0 264 147 L 264 119 L 264 119 A 5 5 0 0 0 259 114 L 221 114 L 221 114 A 5 5 0 0 0 216 119" fill="none" stroke="rgb(0, 0, 0)" stroke-width="1"/>
  <text x="225" y="141" fill="rgb(0,0,0)" font-family="Liberation Sans, Arial, Helvetica, sans-serif" font-size="18" xml:space="preserve" dominant-baseline="auto">API</text>
  <path d="M 417 122 L 417 150 L 417 150 A 5 5 0 0 0 422 155 L 461 155 L 461 155 A 5 5 0 0 0 466 150 L 466 122 L 466 122 A 5 5 0 0 0 461 117 L 422 117 L 422 117 A 5 5 0 0 0 417 122" fill="rgb(210,210,210)" stroke="none"/>
  <path d="M 414 119 L 414 147 L 414 147 A 5 5 0 0 0 419 152 L 458 152 L 458 152 A 5 5 0 0 0 463 147 L 463 119 L 463 119 A 5 5 0 0 0 458 114 L 419 114 L 419 114 A 5 5 0 0 0 414 119" fill="rgb(95,183,224)" stroke="none"/>
  <path d="M 414 119 L 414 147 L 414 147 A 5 5 0 0 0 419 152 L 458 152 L 458 152 A 5 5 0 0 0 463 147 L 463 119 L 463 119 A 5 5 0 0 0 458 114 L 419 114 L 419 114 A 5 5 0 0 0 414 119" fill="none" stroke="rgb(0, 0, 0)" stroke-width="1"/>
  <text x="423" y="141" fill="rgb(0,0,0)" font-family="Liberation Sans, Arial, Helvetica, sans-serif" font-size="18" xml:space="preserve" dominant-baseline="auto">Svc</text>
  <path d="M 616 122 L 616 150 L 616 150 A 5 5 0 0 0 621 155 L 655 155 L 655 155 A 5 5 0 0 0 660 150 L 660 122 L 660 122 A 5 5 0 0 0 655 117 L 621 117 L 621 117 A 5 5 0 0 0 616 122" fill="rgb(210,210,210)" stroke="none"/>
  <path d="M 613 119 L 613 147 L 613 147 A 5 5 0 0 0 618 152 L 652 152 L 652 152 A 5 5 0 0 0 657 147 L 657 119 L 657 119 A 5 5 0 0 0 652 114 L 618 114 L 618 114 A 5 5 0 0 0 613 119" fill="rgb(95,183,224)" stroke="none"/>
  <path d="M 613 119 L 613 147 L 613 147 A 5 5 0 0 0 618 152 L 652 152 L 652 152 A 5 5 0 0 0 657 147 L 657 119 L 657 119 A 5 5 0 0 0 652 114 L 618 114 L 618 114 A 5 5 0 0 0 613 119" fill="none" stroke="rgb(0, 0, 0)" stroke-width="1"/>
  <text x="622" y="141" fill="rgb(0,0,0)" font-family="Liberation Sans, Arial, Helvetica, sans-serif" font-size="18" xml:space="preserve" dominant-baseline="auto">DB</text>
  <path d="M 48 152 L 48 236" fill="none" stroke="rgb(0,0,0)" stroke-width="1" stroke-dasharray="3,3"/>
  <path d="M 45.5 216 L 45.5 236 L 50.5 236 L 50.5 216 L 45.5 216" fill="rgb(95,183,224)" stroke="none"/>
  <path d="M 45.5 216 L 45.5 236 M 50.5 236 L 50.5 216 L 45.5 216" fill="none" stroke="rgb(0, 0, 0)" stroke-width="1"/>
  <path d="M 240 152 L 240 236" fill="none" stroke="rgb(0,0,0)" stroke-width="1" stroke-dasharray="3,3"/>
  <path d="M 237.5 216 L 237.5 236 L 242.5 236 L 242.5 216 L 237.5 216" fill="rgb(95,183,224)" stroke="none"/>
  <path d="M 237.5 216 L 237.5 236 M 242.5 236 L 242.5 216 L 237.5 216" fill="none" stroke="rgb(0, 0, 0)" stroke-width="1"/>
  <path d="M 438.5 152 L 438.5 236" fill="none" stroke="rgb(0,0,0)" stroke-width="1" stroke-dasharray="3,3"/>
  <path d="M 635 152 L 635 236" fill="none" stroke="rgb(0,0,0)" stroke-width="1" stroke-dasharray="3,3"/>
  <text x="90.5" y="206" fill="rgb(0,0,0)" font-family="Liberation Mono, Courier New, Courier, monospace" font-size="14" xml:space="preserve" dominant-baseline="auto">1. Request</text>
  <path d="M 50.5 216 L 237.5 216" fill="none" stroke="rgb(0, 0, 0)" stroke-width="1"/>
  <path d="M 227.5 211 L 227.5 221 L 237.5 216" fill="rgb(0, 0, 0)" stroke="none"/>
  <path d="M 48 236 L 48 320" fill="none" stroke="rgb(0,0,0)" stroke-width="1" stroke-dasharray="3,3"/>
  <path d="M 45.5 236 L 45.5 320 L 50.5 320 L 50.5 236 L 45.5 236" fill="rgb(95,183,224)" stroke="none"/>
  <path d="M 45.5 236 L 45.5 320 M 50.5 320 L 50.5 236 M 45.5 236" fill="none" stroke="rgb(0, 0, 0)" stroke-width="1"/>
  <path d="M 240 236 L 240 320" fill="none" stroke="rgb(0,0,0)" stroke-width="1" stroke-dasharray="3,3"/>
  <path d="M 237.5 236 L 237.5 320 L 242.5 320 L 242.5 236 L 237.5 236" fill="rgb(95,183,224)" stroke="none"/>
  <path d="M 237.5 236 L 237.5 320 M 242.5 320 L 242.5 236 M 237.5 236" fill="none" stroke="rgb(0, 0, 0)" stroke-width="1"/>
  <path d="M 438.5 236 L 438.5 320" fill="none" stroke="rgb(0,0,0)" stroke-width="1" stroke-dasharray="3,3"/>
  <path d="M 436 300 L 436 320 L 441 320 L 441 300 L 436 300" fill="rgb(95,183,224)" stroke="none"/>
  <path d="M 436 300 L 436 320 M 441 320 L 441 300 L 436 300" fill="none" stroke="rgb(0, 0, 0)" stroke-width="1"/>
  <path d="M 635 236 L 635 320" fill="none" stroke="rgb(0,0,0)" stroke-width="1" stroke-dasharray="3,3"/>
  <text x="282.5" y="290" fill="rgb(0,0,0)" font-family="Liberation Mono, Courier New, Courier, monospace" font-size="14" xml:space="preserve" dominant-baseline="auto">2. Forward</text>
  <path d="M 242.5 300 L 436 300" fill="none" stroke="rgb(0, 0, 0)" stroke-width="1"/>
  <path d="M 426 295 L 426 305 L 436 300" fill="rgb(0, 0, 0)" stroke="none"/>
  <path d="M 48 320 L 48 404" fill="none" stroke="rgb(0,0,0)" stroke-width="1" stroke-dasharray="3,3"/>
  <path d="M 45.5 320 L 45.5 404 L 50.5 404 L 50.5 320 L 45.5 320" fill="rgb(95,183,224)" stroke="none"/>
  <path d="M 45.5 320 L 45.5 404 M 50.5 404 L 50.5 320 M 45.5 320" fill="none" stroke="rgb(0, 0, 0)" stroke-width="1"/>
  <path d="M 240 320 L 240 404" fill="none" stroke="rgb(0,0,0)" stroke-width="1" stroke-dasharray="3,3"/>
  <path d="M 237.5 320 L 237.5 404 L 242.5 404 L 242.5 320 L 237.5 320" fill="rgb(95,183,224)" stroke="none"/>
  <path d="M 237.5 320 L 237.5 404 M 242.5 404 L 242.5 320 M 237.5 320" fill="none" stroke="rgb(0, 0, 0)" stroke-width="1"/>
  <path d="M 438.5 320 L 438.5 404" fill="none" stroke="rgb(0,0,0)" stroke-width="1" stroke-dasharray="3,3"/>
  <path d="M 436 320 L 436 404 L 441 404 L 441 320 L 436 320" fill="rgb(95,183,224)" stroke="none"/>
  <path d="M 436 320 L 436 404 M 441 404 L 441 320 M 436 320" fill="none" stroke="rgb(0, 0, 0)" stroke-width="1"/>
  <path d="M 635 320 L 635 404" fill="none" stroke="rgb(0,0,0)" stroke-width="1" stroke-dasharray="3,3"/>
  <path d="M 632.5 384 L 632.5 404 L 637.5 404 L 637.5 384 L 632.5 384" fill="rgb(95,183,224)" stroke="none"/>
  <path d="M 632.5 384 L 632.5 404 M 637.5 404 L 637.5 384 L 632.5 384" fill="none" stroke="rgb(0, 0, 0)" stroke-width="1"/>
  <text x="481" y="374" fill="rgb(0,0,0)" font-family="Liberation Mono, Courier New, Courier, monospace" font-size="14" xml:space="preserve" dominant-baseline="auto">3. Query</text>
  <path d="M 441 384 L 632.5 384" fill="none" stroke="rgb(0, 0, 0)" stroke-width="1"/>
  <path d="M 622.5 379 L 622.5 389 L 632.5 384" fill="rgb(0, 0, 0)" stroke="none"/>
  <path d="M 48 404 L 48 470" fill="none" stroke="rgb(0,0,0)" stroke-width="1" stroke-dasharray="3,3"/>
  <path d="M 45.5 404 L 45.5 470 L 50.5 470 L 50.5 404 L 45.5 404" fill="rgb(95,183,224)" stroke="none"/>
  <path d="M 45.5 404 L 45.5 470 M 50.5 470 L 50.5 404 M 45.5 404" fill="none" stroke="rgb(0, 0, 0)" stroke-width="1"/>
  <path d="M 240 404 L 240 470" fill="none" stroke="rgb(0,0,0)" stroke-width="1" stroke-dasharray="3,3"/>
  <path d="M 237.5 404 L 237.5 470 L 242.5 470 L 242.5 404 L 237.5 404" fill="rgb(95,183,224)" stroke="none"/>
  <path d="M 237.5 404 L 237.5 470 M 242.5 470 L 242.5 404 M 237.5 404" fill="none" stroke="rgb(0, 0, 0)" stroke-width="1"/>
  <path d="M 438.5 404 L 438.5 470" fill="none" stroke="rgb(0,0,0)" stroke-width="1" stroke-dasharray="3,3"/>
  <path d="M 436 404 L 436 470 L 441 470 L 441 404 L 436 404" fill="rgb(95,183,224)" stroke="none"/>
  <path d="M 436 404 L 436 470 M 441 470 L 441 404 M 436 404" fill="none" stroke="rgb(0, 0, 0)" stroke-width="1"/>
  <path d="M 635 404 L 635 470" fill="none" stroke="rgb(0,0,0)" stroke-width="1" stroke-dasharray="3,3"/>
  <path d="M 632.5 404 L 632.5 468 L 637.5 468 L 637.5 404 L 632.5 404" fill="rgb(95,183,224)" stroke="none"/>
  <path d="M 632.5 404 L 632.5 468 L 637.5 468 L 637.5 404 M 632.5 404" fill="none" stroke="rgb(0, 0, 0)" stroke-width="1"/>
  <text x="488.5" y="455.5" fill="rgb(0,0,0)" font-family="Liberation Mono, Courier New, Courier, monospace" font-size="14" xml:space="preserve" dominant-baseline="auto">4. Result</text>
  <path d="M 632.5 463 L 441 463" fill="none" stroke="rgb(0, 0, 0)" stroke-width="1" stroke-dasharray="4,2"/>
  <path d="M 441 463 L 451 458 L 451 468 L 441 463" fill="rgb(0, 0, 0)" stroke="none"/>
  <path d="M 48 470 L 48 536" fill="none" stroke="rgb(0,0,0)" stroke-width="1" stroke-dasharray="3,3"/>
  <path d="M 45.5 470 L 45.5 536 L 50.5 536 L 50.5 470 L 45.5 470" fill="rgb(95,183,224)" stroke="none"/>
  <path d="M 45.5 470 L 45.5 536 M 50.5 536 L 50.5 470 M 45.5 470" fill="none" stroke="rgb(0, 0, 0)" stroke-width="1"/>
  <path d="M 240 470 L 240 536" fill="none" stroke="rgb(0,0,0)" stroke-width="1" stroke-dasharray="3,3"/>
  <path d="M 237.5 470 L 237.5 536 L 242.5 536 L 242.5 470 L 237.5 470" fill="rgb(95,183,224)" stroke="none"/>
  <path d="M 237.5 470 L 237.5 536 M 242.5 536 L 242.5 470 M 237.5 470" fill="none" stroke="rgb(0, 0, 0)" stroke-width="1"/>
  <path d="M 438.5 470 L 438.5 536" fill="none" stroke="rgb(0,0,0)" stroke-width="1" stroke-dasharray="3,3"/>
  <path d="M 436 470 L 436 534 L 441 534 L 441 470 L 436 470" fill="rgb(95,183,224)" stroke="none"/>
  <path d="M 436 470 L 436 534 L 441 534 L 441 470 M 436 470" fill="none" stroke="rgb(0, 0, 0)" stroke-width="1"/>
  <path d="M 635 470 L 635 536" fill="none" stroke="rgb(0,0,0)" stroke-width="1" stroke-dasharray="3,3"/>
  <text x="290" y="521.5" fill="rgb(0,0,0)" font-family="Liberation Mono, Courier New, Courier, monospace" font-size="14" xml:space="preserve" dominant-baseline="auto">5. Response</text>
  <path d="M 436 529 L 242.5 529" fill="none" stroke="rgb(0, 0, 0)" stroke-width="1" stroke-dasharray="4,2"/>
  <path d="M 242.5 529 L 252.5 524 L 252.5 534 L 242.5 529" fill="rgb(0, 0, 0)" stroke="none"/>
  <path d="M 48 536 L 48 602" fill="none" stroke="rgb(0,0,0)" stroke-width="1" stroke-dasharray="3,3"/>
  <path d="M 45.5 536 L 45.5 602 L 50.5 602 L 50.5 536 L 45.5 536" fill="rgb(95,183,224)" stroke="none"/>
  <path d="M 45.5 536 L 45.5 602 M 50.5 602 L 50.5 536 M 45.5 536" fill="none" stroke="rgb(0, 0, 0)" stroke-width="1"/>
  <path d="M 240 536 L 240 602" fill="none" stroke="rgb(0,0,0)" stroke-width="1" stroke-dasharray="3,3"/>
  <path d="M 237.5 536 L 237.5 600 L 242.5 600 L 242.5 536 L 237.5 536" fill="rgb(95,183,224)" stroke="none"/>
  <path d="M 237.5 536 L 237.5 600 L 242.5 600 L 242.5 536 M 237.5 536" fill="none" stroke="rgb(0, 0, 0)" stroke-width="1"/>
  <path d="M 438.5 536 L 438.5 602" fill="none" stroke="rgb(0,0,0)" stroke-width="1" stroke-dasharray="3,3"/>
  <path d="M 635 536 L 635 602" fill="none" stroke="rgb(0,0,0)" stroke-width="1" stroke-dasharray="3,3"/>
  <text x="98" y="587.5" fill="rgb(0,0,0)" font-family="Liberation Mono, Courier New, Courier, monospace" font-size="14" xml:space="preserve" dominant-baseline="auto">6. Display</text>
  <path d="M 237.5 595 L 50.5 595" fill="none" stroke="rgb(0, 0, 0)" stroke-width="1" stroke-dasharray="4,2"/>
  <path d="M 50.5 595 L 60.5 590 L 60.5 600 L 50.5 595" fill="rgb(0, 0, 0)" stroke="none"/>
  <path d="M 48 602 L 48 626" fill="none" stroke="rgb(0,0,0)" stroke-width="1" stroke-dasharray="3,3"/>
  <path d="M 45.5 602 L 50.5 602" fill="none" stroke="rgb(0, 0, 0)" stroke-width="1"/>
  <path d="M 240 602 L 240 626" fill="none" stroke="rgb(0,0,0)" stroke-width="1" stroke-dasharray="3,3"/>
  <path d="M 438.5 602 L 438.5 626" fill="none" stroke="rgb(0,0,0)" stroke-width="1" stroke-dasharray="3,3"/>
  <path d="M 635 602 L 635 626" fill="none" stroke="rgb(0,0,0)" stroke-width="1" stroke-dasharray="3,3"/>
</svg>