<?xml version="1.0"?>
<svg xmlns="http://www.w3.org/2000/svg" width="526" height="1037" viewBox="0 0 526 1037">
  <title>Fragments</title>
  <rect width="100%" height="100%" fill="white"/>
  <path d="M 0 0 L 0 1027 L 516 1027 L 516 0 L 0 0" fill="rgb(255, 255, 255)" stroke="none" shape-rendering="crispEdges"/>
  <path d="M 60 30 L 60 57 L 175 57 L 175 30 L 60 30" fill="rgba(0,0,0,0)" stroke="none" shape-rendering="crispEdges"/>
  <text x="65" y="49" fill="rgb(0,0,0)" font-family="Liberation Sans, Arial, Helvetica, sans-serif" font-size="14" xml:space="preserve" font-weight="bold" dominant-baseline="auto">Title:</text>
  <text x="98.44" y="49" fill="rgb(0,0,0)" font-family="Liberation Sans, Arial, Helvetica, sans-serif" font-size="14" xml:space="preserve" dominant-baseline="auto"> </text>
  <text x="102.33" y="49" fill="rgb(0,0,0)" font-family="Liberation Sans, Arial, Helvetica, sans-serif" font-size="14" xml:space="preserve" dominant-baseline="auto">Fragments</text>
  <path d="M 60 57 L 60 84 L 150 84 L 150 57 L 60 57" fill="rgba(0,0,0,0)" stroke="none" shape-rendering="crispEdges"/>
  <text x="65" y="76" fill="rgb(0,0,0)" font-family="Liberation Sans, Arial, Helvetica, sans-serif" font-size="14" xml:space="preserve" font-weight="bold" dominant-baseline="auto">Version:</text>
  <text x="121.01" y="76" fill="rgb(0,0,0)" font-family="Liberation Sans, Arial, Helvetica, sans-serif" font-size="14" xml:space="preserve" dominant-baseline="auto"> </text>
  <text x="124.9" y="76" fill="rgb(0,0,0)" font-family="Liberation Sans, Arial, Helvetica, sans-serif" font-size="14" xml:space="preserve" dominant-baseline="auto">1.0</text>
  <path d="M 63 122 L 63 150 L 63 150 A 5 5 0 0 0 68 155 L 89 155 L 89 155 A 5 5 0 0 0 94 150 L 94 122 L 94 122 A 5 5 0 0 0 89 117 L 68 117 L 68 117 A 5 5 0 0 0 63 122" fill="rgb(210,210,210)" stroke="none" shape-rendering="crispEdges"/>
  <path d="M 60 119 L 60 147 L 60 147 A 5 5 0 0 0 65 152 L 86 152 L 86 152 A 5 5 0 0 0 91 147 L 91 119 L 91 119 A 5 5 0 0 0 86 114 L 65 114 L 65 114 A 5 5 0 0 0 60 119" fill="rgb(95,183,224)" stroke="none" shape-rendering="crispEdges"/>
  <path d="M 60 119 L 60 147 L 60 147 A 5 5 0 0 0 65 152 L 86 152 L 86 152 A 5 5 0 0 0 91 147 L 91 119 L 91 119 A 5 5 0 0 0 86 114 L 65 114 L 65 114 A 5 5 0 0 0 60 119" fill="none" stroke="rgb(0, 0, 0)" stroke-width="1"/>
  <text x="69" y="141" fill="rgb(0,0,0)" font-family="Liberation Sans, Arial, Helvetica, sans-serif" font-size="18" xml:space="preserve" dominant-baseline="auto">A</text>
  <path d="M 244 122 L 244 150 L 244 150 A 5 5 0 0 0 249 155 L 270 155 L 270 155 A 5 5 0 0 0 275 150 L 275 122 L 275 122 A 5 5 0 0 0 270 117 L 249 117 L 249 117 A 5 5 0 0 0 244 122" fill="rgb(210,210,210)" stroke="none" shape-rendering="crispEdges"/>
  <path d="M 241 119 L 241 147 L 241 147 A 5 5 0 0 0 246 152 L 267 152 L 267 152 A 5 5 0 0 0 272 147 L 272 119 L 272 119 A 5 5 0 0 0 267 114 L 246 114 L 246 114 A 5 5 0 0 0 241 119" fill="rgb(95,183,224)" stroke="none" shape-rendering="crispEdges"/>
  <path d="M 241 119 L 241 147 L 241 147 A 5 5 0 0 0 246 152 L 267 152 L 267 152 A 5 5 0 0 0 272 147 L 272 119 L 272 119 A 5 5 0 0 0 267 114 L 246 114 L 246 114 A 5 5 0 0 0 241 119" fill="none" stroke="rgb(0, 0, 0)" stroke-width="1"/>
  <text x="250" y="141" fill="rgb(0,0,0)" font-family="Liberation Sans, Arial, Helvetica, sans-serif" font-size="18" xml:space="preserve" dominant-baseline="auto">B</text>
  <path d="M 425 122 L 425 150 L 425 150 A 5 5 0 0 0 430 155 L 451 155 L 451 155 A 5 5 0 0 0 456 150 L 456 122 L 456 122 A 5 5 0 0 0 451 117 L 430 117 L 430 117 A 5 5 0 0 0 425 122" fill="rgb(210,210,210)" stroke="none" shape-rendering="crispEdges"/>
  <path d="M 422 119 L 422 147 L 422 147 A 5 5 0 0 0 427 152 L 448 152 L 448 152 A 5 5 0 0 0 453 147 L 453 119 L 453 119 A 5 5 0 0 0 448 114 L 427 114 L 427 114 A 5 5 0 0 0 422 119" fill="rgb(95,183,224)" stroke="none" shape-rendering="crispEdges"/>
  <path d="M 422 119 L 422 147 L 422 147 A 5 5 0 0 0 427 152 L 448 152 L 448 152 A 5 5 0 0 0 453 147 L 453 119 L 453 119 A 5 5 0 0 0 448 114 L 427 114 L 427 114 A 5 5 0 0 0 422 119" fill="none" stroke="rgb(0, 0, 0)" stroke-width="1"/>
  <text x="431" y="141" fill="rgb(0,0,0)" font-family="Liberation Sans, Arial, Helvetica, sans-serif" font-size="18" xml:space="preserve" dominant-baseline="auto">C</text>
  <path d="M 30 182 L 30 230 L 486 230 L 486 182 L 30 182" fill="rgb(184,184,184)" stroke="none" shape-rendering="crispEdges"/>
  <path d="M 75.5 152 L 75.5 230" fill="none" stroke="rgb(0,0,0)" stroke-width="1" stroke-dasharray="3,3"/>
  <path d="M 256.5 152 L 256.5 230" fill="none" stroke="rgb(0,0,0)" stroke-width="1" stroke-dasharray="3,3"/>
  <path d="M 437.5 152 L 437.5 230" fill="none" stroke="rgb(0,0,0)" stroke-width="1" stroke-dasharray="3,3"/>
  <path d="M 30 182 L 30 230 L 486 230 L 486 182 L 30 182" fill="rgba(255,255,255,0)" stroke="none" shape-rendering="crispEdges"/>
  <path d="M 30 182 L 30 230 M 486 230 L 486 182 L 30 182" fill="none" stroke="rgb(0, 0, 0)" stroke-width="1"/>
  <path d="M 30 182 L 30 206 L 71 206 L 81 196 L 81 182 L 30 182" fill="rgba(200,200,0,0.8)" stroke="none" shape-rendering="crispEdges"/>
  <path d="M 30 182 L 30 206 L 71 206 L 81 196 L 81 182 L 30 182" fill="none" stroke="rgb(0, 0, 0)" stroke-width="1"/>
  <text x="35" y="201" fill="rgb(0,0,0)" font-family="Liberation Sans, Arial, Helvetica, sans-serif" font-size="14" xml:space="preserve" dominant-baseline="auto">loop </text>
  <text x="35" y="223" fill="rgb(0,0,0)" font-family="Liberation Sans, Arial, Helvetica, sans-serif" font-size="12" xml:space="preserve" dominant-baseline="auto">Every minute</text>
  <path d="M 30 230 L 30 314 L 486 314 L 486 230 L 30 230" fill="rgb(184,184,184)" stroke="none" shape-rendering="crispEdges"/>
  <path d="M 75.5 230 L 75.5 314" fill="none" stroke="rgb(0,0,0)" stroke-width="1" stroke-dasharray="3,3"/>
  <path d="M 73 294 L 73 314 L 78 314 L 78 294 L 73 294" fill="rgb(95,183,224)" stroke="none" shape-rendering="crispEdges"/>
  <path d="M 73 294 L 73 314 M 78 314 L 78 294 L 73 294" fill="none" stroke="rgb(0, 0, 0)" stroke-width="1"/>
  <path d="M 256.5 230 L 256.5 314" fill="none" stroke="rgb(0,0,0)" stroke-width="1" stroke-dasharray="3,3"/>
  <path d="M 254 294 L 254 314 L 259 314 L 259 294 L 254 294" fill="rgb(95,183,224)" stroke="none" shape-rendering="crispEdges"/>
  <path d="M 254 294 L 254 314 M 259 314 L 259 294 L 254 294" fill="none" stroke="rgb(0, 0, 0)" stroke-width="1"/>
  <path d="M 437.5 230 L 437.5 314" fill="none" stroke="rgb(0,0,0)" stroke-width="1" stroke-dasharray="3,3"/>
  <text x="118" y="284" fill="rgb(0,0,0)" font-family="Liberation Mono, Courier New, Courier, monospace" font-size="14" xml:space="preserve" dominant-baseline="auto">1. ping</text>
  <path d="M 78 294 L 254 294" fill="none" stroke="rgb(0, 0, 0)" stroke-width="1"/>
  <path d="M 244 289 L 244 299 L 254 294" fill="rgb(0, 0, 0)" stroke="none" shape-rendering="crispEdges"/>
  <path d="M 30 230 L 30 314 L 486 314 L 486 230 L 30 230" fill="rgba(255,255,255,0)" stroke="none" shape-rendering="crispEdges"/>
  <path d="M 30 230 L 30 314 M 486 314 L 486 230 M 30 230" fill="none" stroke="rgb(0, 0, 0)" stroke-width="1"/>
  <path d="M 30 314 L 30 320 L 486 320 L 486 314 L 30 314" fill="rgb(184,184,184)" stroke="none" shape-rendering="crispEdges"/>
  <path d="M 75.5 314 L 75.5 320" fill="none" stroke="rgb(0,0,0)" stroke-width="1" stroke-dasharray="3,3"/>
  <path d="M 73 314 L 73 320 L 78 320 L 78 314 L 73 314" fill="rgb(95,183,224)" stroke="none" shape-rendering="crispEdges"/>
  <path d="M 73 314 L 73 320 M 78 320 L 78 314 M 73 314" fill="none" stroke="rgb(0, 0, 0)" stroke-width="1"/>
  <path d="M 256.5 314 L 256.5 320" fill="none" stroke="rgb(0,0,0)" stroke-width="1" stroke-dasharray="3,3"/>
  <path d="M 254 314 L 254 320 L 259 320 L 259 314 L 254 314" fill="rgb(95,183,224)" stroke="none" shape-rendering="crispEdges"/>
  <path d="M 254 314 L 254 320 M 259 320 L 259 314 M 254 314" fill="none" stroke="rgb(0, 0, 0)" stroke-width="1"/>
  <path d="M 437.5 314 L 437.5 320" fill="none" stroke="rgb(0,0,0)" stroke-width="1" stroke-dasharray="3,3"/>
  <path d="M 30 314 L 30 320 L 486 320 L 486 314 L 30 314" fill="rgba(255,255,255,0)" stroke="none" shape-rendering="crispEdges"/>
  <path d="M 30 314 L 30 320 M 486 320 L 486 314 M 30 314" fill="none" stroke="rgb(0, 0, 0)" stroke-width="1"/>
  <path d="M 30 320 L 30 350 L 486 350 L 486 320 L 30 320" fill="rgb(184,184,184)" stroke="none" shape-rendering="crispEdges"/>
  <path d="M 30 320 L 30 350 L 486 350 L 486 320 L 30 320" fill="rgba(255,255,255,0)" stroke="none" shape-rendering="crispEdges"/>
  <path d="M 30 320 L 30 350 L 486 350 L 486 320 M 30 320" fill="none" stroke="rgb(0, 0, 0)" stroke-width="1"/>
  <path d="M 75.5 320 L 75.5 380" fill="none" stroke="rgb(0,0,0)" stroke-width="1" stroke-dasharray="3,3"/>
  <path d="M 73 320 L 73 380 L 78 380 L 78 320 L 73 320" fill="rgb(95,183,224)" stroke="none" shape-rendering="crispEdges"/>
  <path d="M 73 320 L 73 380 M 78 380 L 78 320 M 73 320" fill="none" stroke="rgb(0, 0, 0)" stroke-width="1"/>
  <path d="M 256.5 320 L 256.5 380" fill="none" stroke="rgb(0,0,0)" stroke-width="1" stroke-dasharray="3,3"/>
  <path d="M 254 320 L 254 380 L 259 380 L 259 320 L 254 320" fill="rgb(95,183,224)" stroke="none" shape-rendering="crispEdges"/>
  <path d="M 254 320 L 254 380 M 259 380 L 259 320 M 254 320" fill="none" stroke="rgb(0, 0, 0)" stroke-width="1"/>
  <path d="M 437.5 320 L 437.5 380" fill="none" stroke="rgb(0,0,0)" stroke-width="1" stroke-dasharray="3,3"/>
  <path d="M 30 410 L 30 458 L 486 458 L 486 410 L 30 410" fill="rgb(184,184,184)" stroke="none" shape-rendering="crispEdges"/>
  <path d="M 75.5 380 L 75.5 458" fill="none" stroke="rgb(0,0,0)" stroke-width="1" stroke-dasharray="3,3"/>
  <path d="M 73 380 L 73 458 L 78 458 L 78 380 L 73 380" fill="rgb(95,183,224)" stroke="none" shape-rendering="crispEdges"/>
  <path d="M 73 380 L 73 458 M 78 458 L 78 380 M 73 380" fill="none" stroke="rgb(0, 0, 0)" stroke-width="1"/>
  <path d="M 256.5 380 L 256.5 458" fill="none" stroke="rgb(0,0,0)" stroke-width="1" stroke-dasharray="3,3"/>
  <path d="M 254 380 L 254 458 L 259 458 L 259 380 L 254 380" fill="rgb(95,183,224)" stroke="none" shape-rendering="crispEdges"/>
  <path d="M 254 380 L 254 458 M 259 458 L 259 380 M 254 380" fill="none" stroke="rgb(0, 0, 0)" stroke-width="1"/>
  <path d="M 437.5 380 L 437.5 458" fill="none" stroke="rgb(0,0,0)" stroke-width="1" stroke-dasharray="3,3"/>
  <path d="M 30 410 L 30 458 L 486 458 L 486 410 L 30 410" fill="rgba(255,255,255,0)" stroke="none" shape-rendering="crispEdges"/>
  <path d="M 30 410 L 30 458 M 486 458 L 486 410 L 30 410" fill="none" stroke="rgb(0, 0, 0)" stroke-width="1"/>
  <path d="M 30 410 L 30 434 L 59 434 L 69 424 L 69 410 L 30 410" fill="rgba(200,200,0,0.8)" stroke="none" shape-rendering="crispEdges"/>
  <path d="M 30 410 L 30 434 L 59 434 L 69 424 L 69 410 L 30 410" fill="none" stroke="rgb(0, 0, 0)" stroke-width="1"/>
  <text x="35" y="429" fill="rgb(0,0,0)" font-family="Liberation Sans, Arial, Helvetica, sans-serif" font-size="14" xml:space="preserve" dominant-baseline="auto">alt </text>
  <text x="35" y="451" fill="rgb(0,0,0)" font-family="Liberation Sans, Arial, Helvetica, sans-serif" font-size="12" xml:space="preserve" dominant-baseline="auto">Success</text>
  <path d="M 30 458 L 30 542 L 486 542 L 486 458 L 30 458" fill="rgb(184,184,184)" stroke="none" shape-rendering="crispEdges"/>
  <path d="M 75.5 458 L 75.5 542" fill="none" stroke="rgb(0,0,0)" stroke-width="1" stroke-dasharray="3,3"/>
  <path d="M 73 458 L 73 542 L 78 542 L 78 458 L 73 458" fill="rgb(95,183,224)" stroke="none" shape-rendering="crispEdges"/>
  <path d="M 73 458 L 73 542 M 78 542 L 78 458 M 73 458" fill="none" stroke="rgb(0, 0, 0)" stroke-width="1"/>
  <path d="M 256.5 458 L 256.5 542" fill="none" stroke="rgb(0,0,0)" stroke-width="1" stroke-dasharray="3,3"/>
  <path d="M 254 458 L 254 542 L 259 542 L 259 458 L 254 458" fill="rgb(95,183,224)" stroke="none" shape-rendering="crispEdges"/>
  <path d="M 254 458 L 254 542 M 259 542 L 259 458 M 254 458" fill="none" stroke="rgb(0, 0, 0)" stroke-width="1"/>
  <path d="M 437.5 458 L 437.5 542" fill="none" stroke="rgb(0,0,0)" stroke-width="1" stroke-dasharray="3,3"/>
  <text x="118" y="512" fill="rgb(0,0,0)" font-family="Liberation Mono, Courier New, Courier, monospace" font-size="14" xml:space="preserve" dominant-baseline="auto">2. process</text>
  <path d="M 78 522 L 254 522" fill="none" stroke="rgb(0, 0, 0)" stroke-width="1"/>
  <path d="M 244 517 L 244 527 L 254 522" fill="rgb(0, 0, 0)" stroke="none" shape-rendering="crispEdges"/>
  <path d="M 30 458 L 30 542 L 486 542 L 486 458 L 30 458" fill="rgba(255,255,255,0)" stroke="none" shape-rendering="crispEdges"/>
  <path d="M 30 458 L 30 542 M 486 542 L 486 458 M 30 458" fill="none" stroke="rgb(0, 0, 0)" stroke-width="1"/>
  <path d="M 30 542 L 30 596 L 486 596 L 486 542 L 30 542" fill="rgb(184,184,184)" stroke="none" shape-rendering="crispEdges"/>
  <path d="M 75.5 542 L 75.5 596" fill="none" stroke="rgb(0,0,0)" stroke-width="1" stroke-dasharray="3,3"/>
  <path d="M 73 542 L 73 596 L 78 596 L 78 542 L 73 542" fill="rgb(95,183,224)" stroke="none" shape-rendering="crispEdges"/>
  <path d="M 73 542 L 73 596 M 78 596 L 78 542 M 73 542" fill="none" stroke="rgb(0, 0, 0)" stroke-width="1"/>
  <path d="M 256.5 542 L 256.5 596" fill="none" stroke="rgb(0,0,0)" stroke-width="1" stroke-dasharray="3,3"/>
  <path d="M 254 542 L 254 596 L 259 596 L 259 542 L 254 542" fill="rgb(95,183,224)" stroke="none" shape-rendering="crispEdges"/>
  <path d="M 254 542 L 254 596 M 259 596 L 259 542 M 254 542" fill="none" stroke="rgb(0, 0, 0)" stroke-width="1"/>
  <path d="M 437.5 542 L 437.5 596" fill="none" stroke="rgb(0,0,0)" stroke-width="1" stroke-dasharray="3,3"/>
  <path d="M 30 572 L 486 572" fill="none" stroke="rgb(0,0,0)" stroke-width="1" stroke-dasharray="4,3"/>
  <text x="35" y="590" fill="rgb(0,0,0)" font-family="Liberation Sans, Arial, Helvetica, sans-serif" font-size="12" xml:space="preserve" dominant-baseline="auto">Failure</text>
  <path d="M 30 542 L 30 596 L 486 596 L 486 542 L 30 542" fill="rgba(255,255,255,0)" stroke="none" shape-rendering="crispEdges"/>
  <path d="M 30 542 L 30 596 M 486 596 L 486 542 M 30 542" fill="none" stroke="rgb(0, 0, 0)" stroke-width="1"/>
  <path d="M 30 595 L 30 679 L 486 679 L 486 595 L 30 595" fill="rgb(184,184,184)" stroke="none" shape-rendering="crispEdges"/>
  <path d="M 75.5 595 L 75.5 679" fill="none" stroke="rgb(0,0,0)" stroke-width="1" stroke-dasharray="3,3"/>
  <path d="M 73 595 L 73 679 L 78 679 L 78 595 L 73 595" fill="rgb(95,183,224)" stroke="none" shape-rendering="crispEdges"/>
  <path d="M 73 595 L 73 679 M 78 679 L 78 595 M 73 595" fill="none" stroke="rgb(0, 0, 0)" stroke-width="1"/>
  <path d="M 256.5 595 L 256.5 679" fill="none" stroke="rgb(0,0,0)" stroke-width="1" stroke-dasharray="3,3"/>
  <path d="M 254 595 L 254 679 L 259 679 L 259 595 L 254 595" fill="rgb(95,183,224)" stroke="none" shape-rendering="crispEdges"/>
  <path d="M 254 595 L 254 679 M 259 679 L 259 595 M 254 595" fill="none" stroke="rgb(0, 0, 0)" stroke-width="1"/>
  <path d="M 437.5 595 L 437.5 679" fill="none" stroke="rgb(0,0,0)" stroke-width="1" stroke-dasharray="3,3"/>
  <path d="M 435 659 L 435 679 L 440 679 L 440 659 L 435 659" fill="rgb(95,183,224)" stroke="none" shape-rendering="crispEdges"/>
  <path d="M 435 659 L 435 679 M 440 679 L 440 659 L 435 659" fill="none" stroke="rgb(0, 0, 0)" stroke-width="1"/>
  <text x="118" y="649" fill="rgb(0,0,0)" font-family="Liberation Mono, Courier New, Courier, monospace" font-size="14" xml:space="preserve" dominant-baseline="auto">3. handleError</text>
  <path d="M 78 659 L 435 659" fill="none" stroke="rgb(0, 0, 0)" stroke-width="1"/>
  <path d="M 425 654 L 425 664 L 435 659" fill="rgb(0, 0, 0)" stroke="none" shape-rendering="crispEdges"/>
  <path d="M 30 595 L 30 679 L 486 679 L 486 595 L 30 595" fill="rgba(255,255,255,0)" stroke="none" shape-rendering="crispEdges"/>
  <path d="M 30 595 L 30 679 M 486 679 L 486 595 M 30 595" fill="none" stroke="rgb(0, 0, 0)" stroke-width="1"/>
  <path d="M 30 679 L 30 685 L 486 685 L 486 679 L 30 679" fill="rgb(184,184,184)" stroke="none" shape-rendering="crispEdges"/>
  <path d="M 75.5 679 L 75.5 685" fill="none" stroke="rgb(0,0,0)" stroke-width="1" stroke-dasharray="3,3"/>
  <path d="M 73 679 L 73 685 L 78 685 L 78 679 L 73 679" fill="rgb(95,183,224)" stroke="none" shape-rendering="crispEdges"/>
  <path d="M 73 679 L 73 685 M 78 685 L 78 679 M 73 679" fill="none" stroke="rgb(0, 0, 0)" stroke-width="1"/>
  <path d="M 256.5 679 L 256.5 685" fill="none" stroke="rgb(0,0,0)" stroke-width="1" stroke-dasharray="3,3"/>
  <path d="M 254 679 L 254 685 L 259 685 L 259 679 L 254 679" fill="rgb(95,183,224)" stroke="none" shape-rendering="crispEdges"/>
  <path d="M 254 679 L 254 685 M 259 685 L 259 679 M 254 679" fill="none" stroke="rgb(0, 0, 0)" stroke-width="1"/>
  <path d="M 437.5 679 L 437.5 685" fill="none" stroke="rgb(0,0,0)" stroke-width="1" stroke-dasharray="3,3"/>
  <path d="M 435 679 L 435 685 L 440 685 L 440 679 L 435 679" fill="rgb(95,183,224)" stroke="none" shape-rendering="crispEdges"/>
  <path d="M 435 679 L 435 685 M 440 685 L 440 679 M 435 679" fill="none" stroke="rgb(0, 0, 0)" stroke-width="1"/>
  <path d="M 30 679 L 30 685 L 486 685 L 486 679 L 30 679" fill="rgba(255,255,255,0)" stroke="none" shape-rendering="crispEdges"/>
  <path d="M 30 679 L 30 685 M 486 685 L 486 679 M 30 679" fill="none" stroke="rgb(0, 0, 0)" stroke-width="1"/>
  <path d="M 30 685 L 30 715 L 486 715 L 486 685 L 30 685" fill="rgb(184,184,184)" stroke="none" shape-rendering="crispEdges"/>
  <path d="M 30 685 L 30 715 L 486 715 L 486 685 L 30 685" fill="rgba(255,255,255,0)" stroke="none" shape-rendering="crispEdges"/>
  <path d="M 30 685 L 30 715 L 486 715 L 486 685 M 30 685" fill="none" stroke="rgb(0, 0, 0)" stroke-width="1"/>
  <path d="M 75.5 685 L 75.5 745" fill="none" stroke="rgb(0,0,0)" stroke-width="1" stroke-dasharray="3,3"/>
  <path d="M 73 685 L 73 745 L 78 745 L 78 685 L 73 685" fill="rgb(95,183,224)" stroke="none" shape-rendering="crispEdges"/>
  <path d="M 73 685 L 73 745 M 78 745 L 78 685 M 73 685" fill="none" stroke="rgb(0, 0, 0)" stroke-width="1"/>
  <path d="M 256.5 685 L 256.5 745" fill="none" stroke="rgb(0,0,0)" stroke-width="1" stroke-dasharray="3,3"/>
  <path d="M 254 685 L 254 745 L 259 745 L 259 685 L 254 685" fill="rgb(95,183,224)" stroke="none" shape-rendering="crispEdges"/>
  <path d="M 254 685 L 254 745 M 259 745 L 259 685 M 254 685" fill="none" stroke="rgb(0, 0, 0)" stroke-width="1"/>
  <path d="M 437.5 685 L 437.5 745" fill="none" stroke="rgb(0,0,0)" stroke-width="1" stroke-dasharray="3,3"/>
  <path d="M 435 685 L 435 745 L 440 745 L 440 685 L 435 685" fill="rgb(95,183,224)" stroke="none" shape-rendering="crispEdges"/>
  <path d="M 435 685 L 435 745 M 440 745 L 440 685 M 435 685" fill="none" stroke="rgb(0, 0, 0)" stroke-width="1"/>
  <path d="M 30 775 L 30 823 L 486 823 L 486 775 L 30 775" fill="rgb(184,184,184)" stroke="none" shape-rendering="crispEdges"/>
  <path d="M 75.5 745 L 75.5 823" fill="none" stroke="rgb(0,0,0)" stroke-width="1" stroke-dasharray="3,3"/>
  <path d="M 73 745 L 73 823 L 78 823 L 78 745 L 73 745" fill="rgb(95,183,224)" stroke="none" shape-rendering="crispEdges"/>
  <path d="M 73 745 L 73 823 M 78 823 L 78 745 M 73 745" fill="none" stroke="rgb(0, 0, 0)" stroke-width="1"/>
  <path d="M 256.5 745 L 256.5 823" fill="none" stroke="rgb(0,0,0)" stroke-width="1" stroke-dasharray="3,3"/>
  <path d="M 254 745 L 254 823 L 259 823 L 259 745 L 254 745" fill="rgb(95,183,224)" stroke="none" shape-rendering="crispEdges"/>
  <path d="M 254 745 L 254 823 M 259 823 L 259 745 M 254 745" fill="none" stroke="rgb(0, 0, 0)" stroke-width="1"/>
  <path d="M 437.5 745 L 437.5 823" fill="none" stroke="rgb(0,0,0)" stroke-width="1" stroke-dasharray="3,3"/>
  <path d="M 435 745 L 435 823 L 440 823 L 440 745 L 435 745" fill="rgb(95,183,224)" stroke="none" shape-rendering="crispEdges"/>
  <path d="M 435 745 L 435 823 M 440 823 L 440 745 M 435 745" fill="none" stroke="rgb(0, 0, 0)" stroke-width="1"/>
  <path d="M 30 775 L 30 823 L 486 823 L 486 775 L 30 775" fill="rgba(255,255,255,0)" stroke="none" shape-rendering="crispEdges"/>
  <path d="M 30 775 L 30 823 M 486 823 L 486 775 L 30 775" fill="none" stroke="rgb(0, 0, 0)" stroke-width="1"/>
  <path d="M 30 775 L 30 799 L 64 799 L 74 789 L 74 775 L 30 775" fill="rgba(200,200,0,0.8)" stroke="none" shape-rendering="crispEdges"/>
  <path d="M 30 775 L 30 799 L 64 799 L 74 789 L 74 775 L 30 775" fill="none" stroke="rgb(0, 0, 0)" stroke-width="1"/>
  <text x="35" y="794" fill="rgb(0,0,0)" font-family="Liberation Sans, Arial, Helvetica, sans-serif" font-size="14" xml:space="preserve" dominant-baseline="auto">opt </text>
  <text x="35" y="816" fill="rgb(0,0,0)" font-family="Liberation Sans, Arial, Helvetica, sans-serif" font-size="12" xml:space="preserve" dominant-baseline="auto">Optional step</text>
  <path d="M 30 823 L 30 907 L 486 907 L 486 823 L 30 823" fill="rgb(184,184,184)" stroke="none" shape-rendering="crispEdges"/>
  <path d="M 75.5 823 L 75.5 907" fill="none" stroke="rgb(0,0,0)" stroke-width="1" stroke-dasharray="3,3"/>
  <path d="M 73 823 L 73 907 L 78 907 L 78 823 L 73 823" fill="rgb(95,183,224)" stroke="none" shape-rendering="crispEdges"/>
  <path d="M 73 823 L 73 907 M 78 907 L 78 823 M 73 823" fill="none" stroke="rgb(0, 0, 0)" stroke-width="1"/>
  <path d="M 256.5 823 L 256.5 907" fill="none" stroke="rgb(0,0,0)" stroke-width="1" stroke-dasharray="3,3"/>
  <path d="M 254 823 L 254 907 L 259 907 L 259 823 L 254 823" fill="rgb(95,183,224)" stroke="none" shape-rendering="crispEdges"/>
  <path d="M 254 823 L 254 907 M 259 907 L 259 823 M 254 823" fill="none" stroke="rgb(0, 0, 0)" stroke-width="1"/>
  <path d="M 437.5 823 L 437.5 907" fill="none" stroke="rgb(0,0,0)" stroke-width="1" stroke-dasharray="3,3"/>
  <path d="M 435 823 L 435 907 L 440 907 L 440 823 L 435 823" fill="rgb(95,183,224)" stroke="none" shape-rendering="crispEdges"/>
  <path d="M 435 823 L 435 907 M 440 907 L 440 823 M 435 823" fill="none" stroke="rgb(0, 0, 0)" stroke-width="1"/>
  <text x="118" y="877" fill="rgb(0,0,0)" font-family="Liberation Mono, Courier New, Courier, monospace" font-size="14" xml:space="preserve" dominant-baseline="auto">4. optional()</text>
  <path d="M 78 887 L 254 887" fill="none" stroke="rgb(0, 0, 0)" stroke-width="1"/>
  <path d="M 244 882 L 244 892 L 254 887" fill="rgb(0, 0, 0)" stroke="none" shape-rendering="crispEdges"/>
  <path d="M 30 823 L 30 907 L 486 907 L 486 823 L 30 823" fill="rgba(255,255,255,0)" stroke="none" shape-rendering="crispEdges"/>
  <path d="M 30 823 L 30 907 M 486 907 L 486 823 M 30 823" fill="none" stroke="rgb(0, 0, 0)" stroke-width="1"/>
  <path d="M 30 907 L 30 913 L 486 913 L 486 907 L 30 907" fill="rgb(184,184,184)" stroke="none" shape-rendering="crispEdges"/>
  <path d="M 75.5 907 L 75.5 913" fill="none" stroke="rgb(0,0,0)" stroke-width="1" stroke-dasharray="3,3"/>
  <path d="M 73 907 L 73 913 L 78 913 L 78 907 L 73 907" fill="rgb(95,183,224)" stroke="none" shape-rendering="crispEdges"/>
  <path d="M 73 907 L 73 913 M 78 913 L 78 907 M 73 907" fill="none" stroke="rgb(0, 0, 0)" stroke-width="1"/>
  <path d="M 256.5 907 L 256.5 913" fill="none" stroke="rgb(0,0,0)" stroke-width="1" stroke-dasharray="3,3"/>
  <path d="M 254 907 L 254 913 L 259 913 L 259 907 L 254 907" fill="rgb(95,183,224)" stroke="none" shape-rendering="crispEdges"/>
  <path d="M 254 907 L 254 913 M 259 913 L 259 907 M 254 907" fill="none" stroke="rgb(0, 0, 0)" stroke-width="1"/>
  <path d="M 437.5 907 L 437.5 913" fill="none" stroke="rgb(0,0,0)" stroke-width="1" stroke-dasharray="3,3"/>
  <path d="M 435 907 L 435 913 L 440 913 L 440 907 L 435 907" fill="rgb(95,183,224)" stroke="none" shape-rendering="crispEdges"/>
  <path d="M 435 907 L 435 913 M 440 913 L 440 907 M 435 907" fill="none" stroke="rgb(0, 0, 0)" stroke-width="1"/>
  <path d="M 30 907 L 30 913 L 486 913 L 486 907 L 30 907" fill="rgba(255,255,255,0)" stroke="none" shape-rendering="crispEdges"/>
  <path d="M 30 907 L 30 913 M 486 913 L 486 907 M 30 907" fill="none" stroke="rgb(0, 0, 0)" stroke-width="1"/>
  <path d="M 30 913 L 30 943 L 486 943 L 486 913 L 30 913" fill="rgb(184,184,184)" stroke="none" shape-rendering="crispEdges"/>
  <path d="M 30 913 L 30 943 L 486 943 L 486 913 L 30 913" fill="rgba(255,255,255,0)" stroke="none" shape-rendering="crispEdges"/>
  <path d="M 30 913 L 30 943 L 486 943 L 486 913 M 30 913" fill="none" stroke="rgb(0, 0, 0)" stroke-width="1"/>
  <path d="M 75.5 913 L 75.5 973" fill="none" stroke="rgb(0,0,0)" stroke-width="1" stroke-dasharray="3,3"/>
  <path d="M 73 913 L 73 973 L 78 973 L 78 913 L 73 913" fill="rgb(95,183,224)" stroke="none" shape-rendering="crispEdges"/>
  <path d="M 73 913 L 73 973 M 78 973 L 78 913 M 73 913" fill="none" stroke="rgb(0, 0, 0)" stroke-width="1"/>
  <path d="M 256.5 913 L 256.5 973" fill="none" stroke="rgb(0,0,0)" stroke-width="1" stroke-dasharray="3,3"/>
  <path d="M 254 913 L 254 973 L 259 973 L 259 913 L 254 913" fill="rgb(95,183,224)" stroke="none" shape-rendering="crispEdges"/>
  <path d="M 254 913 L 254 973 M 259 973 L 259 913 M 254 913" fill="none" stroke="rgb(0, 0, 0)" stroke-width="1"/>
  <path d="M 437.5 913 L 437.5 973" fill="none" stroke="rgb(0,0,0)" stroke-width="1" stroke-dasharray="3,3"/>
  <path d="M 435 913 L 435 973 L 440 973 L 440 913 L 435 913" fill="rgb(95,183,224)" stroke="none" shape-rendering="crispEdges"/>
  <path d="M 435 913 L 435 973 M 440 973 L 440 913 M 435 913" fill="none" stroke="rgb(0, 0, 0)" stroke-width="1"/>
  <path d="M 75.5 973 L 75.5 997" fill="none" stroke="rgb(0,0,0)" stroke-width="1" stroke-dasharray="3,3"/>
  <path d="M 73 973 L 78 973" fill="none" stroke="rgb(0, 0, 0)" stroke-width="1"/>
  <path d="M 256.5 973 L 256.5 997" fill="none" stroke="rgb(0,0,0)" stroke-width="1" stroke-dasharray="3,3"/>
  <path d="M 254 973 L 259 973" fill="none" stroke="rgb(0, 0, 0)" stroke-width="1"/>
  <path d="M 437.5 973 L 437.5 997" fill="none" stroke="rgb(0,0,0)" stroke-width="1" stroke-dasharray="3,3"/>
  <path d="M 435 973 L 440 973" fill="none" stroke="rgb(0, 0, 0)" stroke-width="1"/>
</svg>