<?xml version="1.0"?>
<svg xmlns="http://www.w3.org/2000/svg" width="396" height="750" viewBox="0 0 396 750">
  <title>Messages Arrows</title>
  <rect width="100%" height="100%" fill="white"/>
  <path d="M 0 0 L 0 740 L 386 740 L 386 0 L 0 0" fill="rgb(255, 255, 255)" stroke="none"/>
  <path d="M 30 30 L 30 57 L 190 57 L 190 30 L 30 30" fill="rgba(0,0,0,0)" stroke="none"/>
  <text x="35" y="49" fill="rgb(0,0,0)" font-family="Liberation Sans, Arial, Helvetica, sans-serif" font-size="14" xml:space="preserve" font-weight="bold" dominant-baseline="auto">Title:</text>
  <text x="68.44" y="49" fill="rgb(0,0,0)" font-family="Liberation Sans, Arial, Helvetica, sans-serif" font-size="14" xml:space="preserve" dominant-baseline="auto"> </text>
  <text x="72.33" y="49" fill="rgb(0,0,0)" font-family="Liberation Sans, Arial, Helvetica, sans-serif" font-size="14" xml:space="preserve" dominant-baseline="auto">Messages Arrows</text>
  <path d="M 30 57 L 30 84 L 120 84 L 120 57 L 30 57" fill="rgba(0,0,0,0)" stroke="none"/>
  <text x="35" y="76" fill="rgb(0,0,0)" font-family="Liberation Sans, Arial, Helvetica, sans-serif" font-size="14" xml:space="preserve" font-weight="bold" dominant-baseline="auto">Version:</text>
  <text x="91.01" y="76" fill="rgb(0,0,0)" font-family="Liberation Sans, Arial, Helvetica, sans-serif" font-size="14" xml:space="preserve" dominant-baseline="auto"> </text>
  <text x="94.9" y="76" fill="rgb(0,0,0)" font-family="Liberation Sans, Arial, Helvetica, sans-serif" font-size="14" xml:space="preserve" dominant-baseline="auto">1.0</text>
  <path d="M 33 122 L 33 150 L 33 150 A 5 5 0 0 0 38 155 L 59 155 L 59 155 A 5 5 0 0 0 64 150 L 64 122 L 64 122 A 5 5 0 0 0 59 117 L 38 117 L 38 117 A 5 5 0 0 0 33 122" fill="rgb(210,210,210)" stroke="none"/>
  <path d="M 30 119 L 30 147 L 30 147 A 5 5 0 0 0 35 152 L 56 152 L 56 152 A 5 5 0 0 0 61 147 L 61 119 L 61 119 A 5 5 0 0 0 56 114 L 35 114 L 35 114 A 5 5 0 0 0 30 119" fill="rgb(95,183,224)" stroke="none"/>
  <path d="M 30 119 L 30 147 L 30 147 A 5 5 0 0 0 35 152 L 56 152 L 56 152 A 5 5 0 0 0 61 147 L 61 119 L 61 119 A 5 5 0 0 0 56 114 L 35 114 L 35 114 A 5 5 0 0 0 30 119" fill="none" stroke="rgb(0, 0, 0)" stroke-width="1"/>
  <text x="39" y="141" fill="rgb(0,0,0)" font-family="Liberation Sans, Arial, Helvetica, sans-serif" font-size="18" xml:space="preserve" dominant-baseline="auto">A</text>
  <path d="M 214 122 L 214 150 L 214 150 A 5 5 0 0 0 219 155 L 240 155 L 240 155 A 5 5 0 0 0 245 150 L 245 122 L 245 122 A 5 5 0 0 0 240 117 L 219 117 L 219 117 A 5 5 0 0 0 214 122" fill="rgb(210,210,210)" stroke="none"/>
  <path d="M 211 119 L 211 147 L 211 147 A 5 5 0 0 0 216 152 L 237 152 L 237 152 A 5 5 0 0 0 242 147 L 242 119 L 242 119 A 5 5 0 0 0 237 114 L 216 114 L 216 114 A 5 5 0 0 0 211 119" fill="rgb(95,183,224)" stroke="none"/>
  <path d="M 211 119 L 211 147 L 211 147 A 5 5 0 0 0 216 152 L 237 152 L 237 152 A 5 5 0 0 0 242 147 L 242 119 L 242 119 A 5 5 0 0 0 237 114 L 216 114 L 216 114 A 5 5 0 0 0 211 119" fill="none" stroke="rgb(0, 0, 0)" stroke-width="1"/>
  <text x="220" y="141" fill="rgb(0,0,0)" font-family="Liberation Sans, Arial, Helvetica, sans-serif" font-size="18" xml:space="preserve" dominant-baseline="auto">B</text>
  <path d="M 45.5 152 L 45.5 236" fill="none" stroke="rgb(0,0,0)" stroke-width="1" stroke-dasharray="3,3"/>
  <path d="M 43 216 L 43 236 L 48 236 L 48 216 L 43 216" fill="rgb(95,183,224)" stroke="none"/>
  <path d="M 43 216 L 43 236 M 48 236 L 48 216 L 43 216" fill="none" stroke="rgb(0, 0, 0)" stroke-width="1"/>
  <path d="M 226.5 152 L 226.5 236" fill="none" stroke="rgb(0,0,0)" stroke-width="1" stroke-dasharray="3,3"/>
  <path d="M 224 216 L 224 236 L 229 236 L 229 216 L 224 216" fill="rgb(95,183,224)" stroke="none"/>
  <path d="M 224 216 L 224 236 M 229 236 L 229 216 L 224 216" fill="none" stroke="rgb(0, 0, 0)" stroke-width="1"/>
  <text x="88" y="206" fill="rgb(0,0,0)" font-family="Liberation Mono, Courier New, Courier, monospace" font-size="14" xml:space="preserve" dominant-baseline="auto">1. Sync call (filled arrow)</text>
  <path d="M 48 216 L 224 216" fill="none" stroke="rgb(0, 0, 0)" stroke-width="1"/>
  <path d="M 214 211 L 214 221 L 224 216" fill="rgb(0, 0, 0)" stroke="none"/>
  <path d="M 45.5 236 L 45.5 302" fill="none" stroke="rgb(0,0,0)" stroke-width="1" stroke-dasharray="3,3"/>
  <path d="M 43 236 L 43 302 L 48 302 L 48 236 L 43 236" fill="rgb(95,183,224)" stroke="none"/>
  <path d="M 43 236 L 43 302 M 48 302 L 48 236 M 43 236" fill="none" stroke="rgb(0, 0, 0)" stroke-width="1"/>
  <path d="M 226.5 236 L 226.5 302" fill="none" stroke="rgb(0,0,0)" stroke-width="1" stroke-dasharray="3,3"/>
  <path d="M 224 236 L 224 300 L 229 300 L 229 236 L 224 236" fill="rgb(95,183,224)" stroke="none"/>
  <path d="M 224 236 L 224 300 L 229 300 L 229 236 M 224 236" fill="none" stroke="rgb(0, 0, 0)" stroke-width="1"/>
  <text x="95.5" y="287.5" fill="rgb(0,0,0)" font-family="Liberation Mono, Courier New, Courier, monospace" font-size="14" xml:space="preserve" dominant-baseline="auto">2. Return (dashed, filled)</text>
  <path d="M 224 295 L 48 295" fill="none" stroke="rgb(0, 0, 0)" stroke-width="1" stroke-dasharray="4,2"/>
  <path d="M 48 295 L 58 290 L 58 300 L 48 295" fill="rgb(0, 0, 0)" stroke="none"/>
  <path d="M 45.5 302 L 45.5 386" fill="none" stroke="rgb(0,0,0)" stroke-width="1" stroke-dasharray="3,3"/>
  <path d="M 43 302 L 43 386 L 48 386 L 48 302 L 43 302" fill="rgb(95,183,224)" stroke="none"/>
  <path d="M 43 302 L 43 386 M 48 386 L 48 302 M 43 302" fill="none" stroke="rgb(0, 0, 0)" stroke-width="1"/>
  <path d="M 226.5 302 L 226.5 386" fill="none" stroke="rgb(0,0,0)" stroke-width="1" stroke-dasharray="3,3"/>
  <path d="M 224 366 L 224 386 L 229 386 L 229 366 L 224 366" fill="rgb(95,183,224)" stroke="none"/>
  <path d="M 224 366 L 224 386 M 229 386 L 229 366 L 224 366" fill="none" stroke="rgb(0, 0, 0)" stroke-width="1"/>
  <text x="88" y="356" fill="rgb(0,0,0)" font-family="Liberation Mono, Courier New, Courier, monospace" font-size="14" xml:space="preserve" dominant-baseline="auto">3. Async (open arrow)</text>
  <path d="M 48 366 L 224 366" fill="none" stroke="rgb(0, 0, 0)" stroke-width="1"/>
  <path d="M 214 361 L 224 366 L 214 371" fill="none" stroke="rgb(0, 0, 0)" stroke-width="1"/>
  <path d="M 45.5 386 L 45.5 452" fill="none" stroke="rgb(0,0,0)" stroke-width="1" stroke-dasharray="3,3"/>
  <path d="M 43 386 L 43 452 L 48 452 L 48 386 L 43 386" fill="rgb(95,183,224)" stroke="none"/>
  <path d="M 43 386 L 43 452 M 48 452 L 48 386 M 43 386" fill="none" stroke="rgb(0, 0, 0)" stroke-width="1"/>
  <path d="M 226.5 386 L 226.5 452" fill="none" stroke="rgb(0,0,0)" stroke-width="1" stroke-dasharray="3,3"/>
  <path d="M 224 386 L 224 450 L 229 450 L 229 386 L 224 386" fill="rgb(95,183,224)" stroke="none"/>
  <path d="M 224 386 L 224 450 L 229 450 L 229 386 M 224 386" fill="none" stroke="rgb(0, 0, 0)" stroke-width="1"/>
  <text x="95.5" y="437.5" fill="rgb(0,0,0)" font-family="Liberation Mono, Courier New, Courier, monospace" font-size="14" xml:space="preserve" dominant-baseline="auto">4. Async return (dashed, open)</text>
  <path d="M 224 445 L 48 445" fill="none" stroke="rgb(0, 0, 0)" stroke-width="1" stroke-dasharray="4,2"/>
  <path d="M 58 445 L 48 445 M 58 440 L 48 445 L 58 450" fill="none" stroke="rgb(0, 0, 0)" stroke-width="1"/>
  <path d="M 45.5 452 L 45.5 536" fill="none" stroke="rgb(0,0,0)" stroke-width="1" stroke-dasharray="3,3"/>
  <path d="M 43 452 L 43 536 L 48 536 L 48 452 L 43 452" fill="rgb(95,183,224)" stroke="none"/>
  <path d="M 43 452 L 43 536 M 48 536 L 48 452 M 43 452" fill="none" stroke="rgb(0, 0, 0)" stroke-width="1"/>
  <path d="M 226.5 452 L 226.5 536" fill="none" stroke="rgb(0,0,0)" stroke-width="1" stroke-dasharray="3,3"/>
  <path d="M 224 516 L 224 536 L 229 536 L 229 516 L 224 516" fill="rgb(95,183,224)" stroke="none"/>
  <path d="M 224 516 L 224 536 M 229 536 L 229 516 L 224 516" fill="none" stroke="rgb(0, 0, 0)" stroke-width="1"/>
  <text x="88" y="506" fill="rgb(0,0,0)" font-family="Liberation Mono, Courier New, Courier, monospace" font-size="14" xml:space="preserve" dominant-baseline="auto">5. Lost message (cross)</text>
  <path d="M 48 516 L 224 516" fill="none" stroke="rgb(0, 0, 0)" stroke-width="1"/>
  <path d="M 214 511 L 224 521 M 214 521 L 224 511" fill="none" stroke="rgb(0, 0, 0)" stroke-width="2"/>
  <path d="M 45.5 536 L 45.5 620" fill="none" stroke="rgb(0,0,0)" stroke-width="1" stroke-dasharray="3,3"/>
  <path d="M 43 536 L 43 620 L 48 620 L 48 536 L 43 536" fill="rgb(95,183,224)" stroke="none"/>
  <path d="M 43 536 L 43 620 M 48 620 L 48 536 M 43 536" fill="none" stroke="rgb(0, 0, 0)" stroke-width="1"/>
  <path d="M 226.5 536 L 226.5 620" fill="none" stroke="rgb(0,0,0)" stroke-width="1" stroke-dasharray="3,3"/>
  <path d="M 224 536 L 224 620 L 229 620 L 229 536 L 224 536" fill="rgb(95,183,224)" stroke="none"/>
  <path d="M 224 536 L 224 620 M 229 620 L 229 536 M 224 536" fill="none" stroke="rgb(0, 0, 0)" stroke-width="1"/>
  <text x="88" y="590" fill="rgb(0,0,0)" font-family="Liberation Mono, Courier New, Courier, monospace" font-size="14" xml:space="preserve" dominant-baseline="auto">6. Solid line, no arrow</text>
  <path d="M 48 600 L 224 600" fill="none" stroke="rgb(0, 0, 0)" stroke-width="1"/>
  <path d="M 45.5 620 L 45.5 686" fill="none" stroke="rgb(0,0,0)" stroke-width="1" stroke-dasharray="3,3"/>
  <path d="M 43 620 L 43 684 L 48 684 L 48 620 L 43 620" fill="rgb(95,183,224)" stroke="none"/>
  <path d="M 43 620 L 43 684 L 48 684 L 48 620 M 43 620" fill="none" stroke="rgb(0, 0, 0)" stroke-width="1"/>
  <path d="M 226.5 620 L 226.5 686" fill="none" stroke="rgb(0,0,0)" stroke-width="1" stroke-dasharray="3,3"/>
  <path d="M 224 620 L 224 686 L 229 686 L 229 620 L 224 620" fill="rgb(95,183,224)" stroke="none"/>
  <path d="M 224 620 L 224 686 M 229 686 L 229 620 M 224 620" fill="none" stroke="rgb(0, 0, 0)" stroke-width="1"/>
  <text x="85.5" y="671.5" fill="rgb(0,0,0)" font-family="Liberation Mono, Courier New, Courier, monospace" font-size="14" xml:space="preserve" dominant-baseline="auto">7. Dashed line, no arrow</text>
  <path d="M 48 679 L 224 679" fill="none" stroke="rgb(0, 0, 0)" stroke-width="1" stroke-dasharray="4,2"/>
  <path d="M 45.5 686 L 45.5 710" fill="none" stroke="rgb(0,0,0)" stroke-width="1" stroke-dasharray="3,3"/>
  <path d="M 226.5 686 L 226.5 710" fill="none" stroke="rgb(0,0,0)" stroke-width="1" stroke-dasharray="3,3"/>
  <path d="M 224 686 L 229 686" fill="none" stroke="rgb(0, 0, 0)" stroke-width="1"/>
</svg>