<?xml version="1.0"?>
<svg xmlns="http://www.w3.org/2000/svg" width="320" height="456" viewBox="0 0 320 456">
  <title>Notes</title>
  <rect width="100%" height="100%" fill="white"/>
  <path d="M 0 0 L 0 446 L 310 446 L 310 0 L 0 0" fill="rgb(255, 255, 255)" stroke="none"/>
  <path d="M 30 30 L 30 57 L 115 57 L 115 30 L 30 30" fill="rgba(0,0,0,0)" stroke="none"/>
  <text x="35" y="49" fill="rgb(0,0,0)" font-family="Liberation Sans, Arial, Helvetica, sans-serif" font-size="14" xml:space="preserve" font-weight="bold" dominant-baseline="auto">Title:</text>
  <text x="68.44" y="49" fill="rgb(0,0,0)" font-family="Liberation Sans, Arial, Helvetica, sans-serif" font-size="14" xml:space="preserve" dominant-baseline="auto"> </text>
  <text x="72.33" y="49" fill="rgb(0,0,0)" font-family="Liberation Sans, Arial, Helvetica, sans-serif" font-size="14" xml:space="preserve" dominant-baseline="auto">Notes</text>
  <path d="M 30 57 L 30 84 L 120 84 L 120 57 L 30 57" fill="rgba(0,0,0,0)" stroke="none"/>
  <text x="35" y="76" fill="rgb(0,0,0)" font-family="Liberation Sans, Arial, Helvetica, sans-serif" font-size="14" xml:space="preserve" font-weight="bold" dominant-baseline="auto">Version:</text>
  <text x="91.01" y="76" fill="rgb(0,0,0)" font-family="Liberation Sans, Arial, Helvetica, sans-serif" font-size="14" xml:space="preserve" dominant-baseline="auto"> </text>
  <text x="94.9" y="76" fill="rgb(0,0,0)" font-family="Liberation Sans, Arial, Helvetica, sans-serif" font-size="14" xml:space="preserve" dominant-baseline="auto">1.0</text>
  <path d="M 33 122 L 33 150 L 33 150 A 5 5 0 0 0 38 155 L 59 155 L 59 155 A 5 5 0 0 0 64 150 L 64 122 L 64 122 A 5 5 0 0 0 59 117 L 38 117 L 38 117 A 5 5 0 0 0 33 122" fill="rgb(210,210,210)" stroke="none"/>
  <path d="M 30 119 L 30 147 L 30 147 A 5 5 0 0 0 35 152 L 56 152 L 56 152 A 5 5 0 0 0 61 147 L 61 119 L 61 119 A 5 5 0 0 0 56 114 L 35 114 L 35 114 A 5 5 0 0 0 30 119" fill="rgb(95,183,224)" stroke="none"/>
  <path d="M 30 119 L 30 147 L 30 147 A 5 5 0 0 0 35 152 L 56 152 L 56 152 A 5 5 0 0 0 61 147 L 61 119 L 61 119 A 5 5 0 0 0 56 114 L 35 114 L 35 114 A 5 5 0 0 0 30 119" fill="none" stroke="rgb(0, 0, 0)" stroke-width="1"/>
  <text x="39" y="141" fill="rgb(0,0,0)" font-family="Liberation Sans, Arial, Helvetica, sans-serif" font-size="18" xml:space="preserve" dominant-baseline="auto">A</text>
  <path d="M 214 122 L 214 150 L 214 150 A 5 5 0 0 0 219 155 L 240 155 L 240 155 A 5 5 0 0 0 245 150 L 245 122 L 245 122 A 5 5 0 0 0 240 117 L 219 117 L 219 117 A 5 5 0 0 0 214 122" fill="rgb(210,210,210)" stroke="none"/>
  <path d="M 211 119 L 211 147 L 211 147 A 5 5 0 0 0 216 152 L 237 152 L 237 152 A 5 5 0 0 0 242 147 L 242 119 L 242 119 A 5 5 0 0 0 237 114 L 216 114 L 216 114 A 5 5 0 0 0 211 119" fill="rgb(95,183,224)" stroke="none"/>
  <path d="M 211 119 L 211 147 L 211 147 A 5 5 0 0 0 216 152 L 237 152 L 237 152 A 5 5 0 0 0 242 147 L 242 119 L 242 119 A 5 5 0 0 0 237 114 L 216 114 L 216 114 A 5 5 0 0 0 211 119" fill="none" stroke="rgb(0, 0, 0)" stroke-width="1"/>
  <text x="220" y="141" fill="rgb(0,0,0)" font-family="Liberation Sans, Arial, Helvetica, sans-serif" font-size="18" xml:space="preserve" dominant-baseline="auto">B</text>
  <path d="M 93 185 M 206.75 185 M 214 192.25 M 214 214 M 93 214 M 93 185" fill="rgb(210,210,210)" stroke="none"/>
  <path d="M 90 182 M 203.75 182 M 203.75 189.25 M 211 189.25 M 211 211 M 90 211 M 90 182" fill="rgb(0,253,144)" stroke="none"/>
  <path d="M 90 182 M 203.75 182 M 203.75 189.25 M 211 189.25 M 203.75 182 M 211 189.25 M 211 211 M 90 211 M 90 182" fill="none" stroke="rgb(0, 0, 0)" stroke-width="1"/>
  <path d="M 48 185 M 161.75 185 M 169 192.25 M 169 214 M 48 214 M 48 185" fill="rgb(210,210,210)" stroke="none"/>
  <path d="M 45 182 M 158.75 182 M 158.75 189.25 M 166 189.25 M 166 211 M 45 211 M 45 182" fill="rgb(0,253,144)" stroke="none"/>
  <path d="M 45 182 M 158.75 182 M 158.75 189.25 M 166 189.25 M 158.75 182 M 166 189.25 M 166 211 M 45 211 M 45 182" fill="none" stroke="rgb(0, 0, 0)" stroke-width="1"/>
  <path d="M 45.5 152 L 45.5 212" fill="none" stroke="rgb(0,0,0)" stroke-width="1" stroke-dasharray="3,3"/>
  <path d="M 226.5 152 L 226.5 212" fill="none" stroke="rgb(0,0,0)" stroke-width="1" stroke-dasharray="3,3"/>
  <path d="M 48 185 L 161.75 185 L 169 192.25 L 169 214 L 48 214 L 48 185" fill="rgb(210,210,210)" stroke="none"/>
  <path d="M 45 182 L 158.75 182 L 158.75 189.25 L 166 189.25 L 166 211 L 45 211 L 45 182" fill="rgb(0,253,144)" stroke="none"/>
  <path d="M 45 182 L 158.75 182 L 158.75 189.25 L 166 189.25 M 158.75 182 L 166 189.25 L 166 211 L 45 211 L 45 182" fill="none" stroke="rgb(0, 0, 0)" stroke-width="1"/>
  <path d="M 45 182 M 45 211 M 166 211 M 166 182 M 45 182" fill="none" stroke="rgb(0, 0, 0)" stroke-width="1"/>
  <text x="52.5" y="203.5" fill="rgb(0, 0, 0)" font-family="Liberation Sans, Arial, Helvetica, sans-serif" font-size="14" xml:space="preserve" dominant-baseline="auto">Single actor note</text>
  <path d="M 93 245 M 191.75 245 M 199 252.25 M 199 274 M 93 274 M 93 245" fill="rgb(210,210,210)" stroke="none"/>
  <path d="M 90 242 M 188.75 242 M 188.75 249.25 M 196 249.25 M 196 271 M 90 271 M 90 242" fill="rgb(0,253,144)" stroke="none"/>
  <path d="M 90 242 M 188.75 242 M 188.75 249.25 M 196 249.25 M 188.75 242 M 196 249.25 M 196 271 M 90 271 M 90 242" fill="none" stroke="rgb(0, 0, 0)" stroke-width="1"/>
  <path d="M 86 245 M 184.75 245 M 192 252.25 M 192 274 M 86 274 M 86 245" fill="rgb(210,210,210)" stroke="none"/>
  <path d="M 83 242 M 181.75 242 M 181.75 249.25 M 189 249.25 M 189 271 M 83 271 M 83 242" fill="rgb(0,253,144)" stroke="none"/>
  <path d="M 83 242 M 181.75 242 M 181.75 249.25 M 189 249.25 M 181.75 242 M 189 249.25 M 189 271 M 83 271 M 83 242" fill="none" stroke="rgb(0, 0, 0)" stroke-width="1"/>
  <path d="M 45.5 212 L 45.5 272" fill="none" stroke="rgb(0,0,0)" stroke-width="1" stroke-dasharray="3,3"/>
  <path d="M 226.5 212 L 226.5 272" fill="none" stroke="rgb(0,0,0)" stroke-width="1" stroke-dasharray="3,3"/>
  <path d="M 86 245 L 184.75 245 L 192 252.25 L 192 274 L 86 274 L 86 245" fill="rgb(210,210,210)" stroke="none"/>
  <path d="M 83 242 L 181.75 242 L 181.75 249.25 L 189 249.25 L 189 271 L 83 271 L 83 242" fill="rgb(0,253,144)" stroke="none"/>
  <path d="M 83 242 L 181.75 242 L 181.75 249.25 L 189 249.25 M 181.75 242 L 189 249.25 L 189 271 L 83 271 L 83 242" fill="none" stroke="rgb(0, 0, 0)" stroke-width="1"/>
  <path d="M 83 242 M 83 271 M 189 271 M 189 242 M 83 242" fill="none" stroke="rgb(0, 0, 0)" stroke-width="1"/>
  <text x="90.5" y="263.5" fill="rgb(0, 0, 0)" font-family="Liberation Sans, Arial, Helvetica, sans-serif" font-size="14" xml:space="preserve" dominant-baseline="auto">Spanning note</text>
  <path d="M 93 305 M 195.75 305 M 203 312.25 M 203 334 M 93 334 M 93 305" fill="rgb(210,210,210)" stroke="none"/>
  <path d="M 90 302 M 192.75 302 M 192.75 309.25 M 200 309.25 M 200 331 M 90 331 M 90 302" fill="rgb(0,253,144)" stroke="none"/>
  <path d="M 90 302 M 192.75 302 M 192.75 309.25 M 200 309.25 M 192.75 302 M 200 309.25 M 200 331 M 90 331 M 90 302" fill="none" stroke="rgb(0, 0, 0)" stroke-width="1"/>
  <path d="M 48 305 M 150.75 305 M 158 312.25 M 158 334 M 48 334 M 48 305" fill="rgb(210,210,210)" stroke="none"/>
  <path d="M 45 302 M 147.75 302 M 147.75 309.25 M 155 309.25 M 155 331 M 45 331 M 45 302" fill="rgb(0,253,144)" stroke="none"/>
  <path d="M 45 302 M 147.75 302 M 147.75 309.25 M 155 309.25 M 147.75 302 M 155 309.25 M 155 331 M 45 331 M 45 302" fill="none" stroke="rgb(0, 0, 0)" stroke-width="1"/>
  <path d="M 45.5 272 L 45.5 332" fill="none" stroke="rgb(0,0,0)" stroke-width="1" stroke-dasharray="3,3"/>
  <path d="M 226.5 272 L 226.5 332" fill="none" stroke="rgb(0,0,0)" stroke-width="1" stroke-dasharray="3,3"/>
  <path d="M 48 305 L 150.75 305 L 158 312.25 L 158 334 L 48 334 L 48 305" fill="rgb(210,210,210)" stroke="none"/>
  <path d="M 45 302 L 147.75 302 L 147.75 309.25 L 155 309.25 L 155 331 L 45 331 L 45 302" fill="rgb(0,253,144)" stroke="none"/>
  <path d="M 45 302 L 147.75 302 L 147.75 309.25 L 155 309.25 M 147.75 302 L 155 309.25 L 155 331 L 45 331 L 45 302" fill="none" stroke="rgb(0, 0, 0)" stroke-width="1"/>
  <path d="M 45 302 M 45 331 M 155 331 M 155 302 M 45 302" fill="none" stroke="rgb(0, 0, 0)" stroke-width="1"/>
  <text x="52.5" y="323.5" fill="rgb(0, 0, 0)" font-family="Liberation Sans, Arial, Helvetica, sans-serif" font-size="14" xml:space="preserve" dominant-baseline="auto">Right-side note</text>
  <path d="M 93 365 M 185.75 365 M 193 372.25 M 193 394 M 93 394 M 93 365" fill="rgb(210,210,210)" stroke="none"/>
  <path d="M 90 362 M 182.75 362 M 182.75 369.25 M 190 369.25 M 190 391 M 90 391 M 90 362" fill="rgb(0,253,144)" stroke="none"/>
  <path d="M 90 362 M 182.75 362 M 182.75 369.25 M 190 369.25 M 182.75 362 M 190 369.25 M 190 391 M 90 391 M 90 362" fill="none" stroke="rgb(0, 0, 0)" stroke-width="1"/>
  <path d="M 179.5 365 M 272.25 365 M 279.5 372.25 M 279.5 394 M 179.5 394 M 179.5 365" fill="rgb(210,210,210)" stroke="none"/>
  <path d="M 176.5 362 M 269.25 362 M 269.25 369.25 M 276.5 369.25 M 276.5 391 M 176.5 391 M 176.5 362" fill="rgb(0,253,144)" stroke="none"/>
  <path d="M 176.5 362 M 269.25 362 M 269.25 369.25 M 276.5 369.25 M 269.25 362 M 276.5 369.25 M 276.5 391 M 176.5 391 M 176.5 362" fill="none" stroke="rgb(0, 0, 0)" stroke-width="1"/>
  <path d="M 45.5 332 L 45.5 392" fill="none" stroke="rgb(0,0,0)" stroke-width="1" stroke-dasharray="3,3"/>
  <path d="M 226.5 332 L 226.5 392" fill="none" stroke="rgb(0,0,0)" stroke-width="1" stroke-dasharray="3,3"/>
  <path d="M 179.5 365 L 272.25 365 L 279.5 372.25 L 279.5 394 L 179.5 394 L 179.5 365" fill="rgb(210,210,210)" stroke="none"/>
  <path d="M 176.5 362 L 269.25 362 L 269.25 369.25 L 276.5 369.25 L 276.5 391 L 176.5 391 L 176.5 362" fill="rgb(0,253,144)" stroke="none"/>
  <path d="M 176.5 362 L 269.25 362 L 269.25 369.25 L 276.5 369.25 M 269.25 362 L 276.5 369.25 L 276.5 391 L 176.5 391 L 176.5 362" fill="none" stroke="rgb(0, 0, 0)" stroke-width="1"/>
  <path d="M 176.5 362 M 176.5 391 M 276.5 391 M 276.5 362 M 176.5 362" fill="none" stroke="rgb(0, 0, 0)" stroke-width="1"/>
  <text x="184" y="383.5" fill="rgb(0, 0, 0)" font-family="Liberation Sans, Arial, Helvetica, sans-serif" font-size="14" xml:space="preserve" dominant-baseline="auto">Left-side note</text>
  <path d="M 45.5 392 L 45.5 416" fill="none" stroke="rgb(0,0,0)" stroke-width="1" stroke-dasharray="3,3"/>
  <path d="M 226.5 392 L 226.5 416" fill="none" stroke="rgb(0,0,0)" stroke-width="1" stroke-dasharray="3,3"/>
</svg>